<svg xmlns="http://www.w3.org/2000/svg" width="19.378" height="19.378" viewBox="0 0 19.378 19.378">
  <g id="information" transform="translate(0.15 0.15)">
    <path id="Path_431" data-name="Path 431" d="M9.539,0a9.539,9.539,0,1,0,9.539,9.539A9.55,9.55,0,0,0,9.539,0Zm0,17.344a7.8,7.8,0,1,1,7.8-7.8A7.813,7.813,0,0,1,9.539,17.344Z" fill="#535353" stroke="#fff" stroke-width="0.3"/>
    <path id="Path_432" data-name="Path 432" d="M146.158,70a1.156,1.156,0,1,0,1.156,1.157A1.158,1.158,0,0,0,146.158,70Z" transform="translate(-136.619 -65.953)" fill="#535353" stroke="#fff" stroke-width="0.3"/>
    <path id="Path_433" data-name="Path 433" d="M150.867,140a.867.867,0,0,0-.867.867v5.2a.867.867,0,0,0,1.734,0v-5.2A.867.867,0,0,0,150.867,140Z" transform="translate(-141.328 -131.906)" fill="#535353" stroke="#fff" stroke-width="0.3"/>
  </g>
</svg>
