<svg width="734" height="301" viewBox="0 0 734 301" fill="none" xmlns="http://www.w3.org/2000/svg">
<g clip-path="url(#clip0)">
<path d="M13.0451 300H733.139C738.883 252.149 715.276 195.987 680.535 166C645.793 136.013 596.336 127.616 554.866 144.709C520.282 158.932 489.947 189.604 452.963 189.433C420.896 189.262 393.158 165.529 371.046 140.211C335.872 99.8996 306.559 51.5774 262.454 23.5608C194.977 -19.2781 102.358 -1.37145 46.8818 58.4316C-8.59473 118.235 -7.68979 218.006 13.0451 300Z" fill="#EFEEEE"/>
<path d="M137.936 297.781H366.97V141.284L252.453 67.2481L137.936 141.284V297.781Z" fill="#EDFFEE"/>
<path opacity="0.52" d="M349.907 130.262L302.372 164.424C298.875 166.905 296.808 171.175 296.808 175.676V299.743H375.396L372.905 144.689L349.907 130.262Z" fill="#5FCC48"/>
<path d="M117.428 154.556L252.453 67.248L387.478 154.556L392.089 145.093L252.453 54.7837L112.818 145.093L117.428 154.556Z" fill="#5FCC48"/>
<path d="M325.106 297.781H502.472V181.158L413.815 123.799L325.106 181.158V297.781Z" fill="#EDFFEE"/>
<path opacity="0.59" d="M459.707 144.342L371.368 297.781H511.64V180.639L459.707 144.342Z" fill="#EDFFEE"/>
<path d="M309.208 191.892L413.815 124.261L518.37 191.892L521.973 184.621L413.815 114.624L305.658 184.621L309.208 191.892Z" fill="#5FCC48"/>
<path d="M119.104 297.746L521.635 297.746V288.686L119.104 288.686V297.746Z" fill="#5FCC48"/>
<path d="M213.889 273.171H282.462V144.546H213.889V273.171Z" fill="#B7F9BA"/>
<path d="M217.917 273.157H278.434V149.725H217.917V273.157Z" fill="#B7F9BA"/>
<path d="M206.246 284.942H274.818V273.17H206.246V284.942Z" fill="#B7F9BA"/>
<path d="M198.067 297.76H266.639V284.95H198.067V297.76Z" fill="#B7F9BA"/>
<path d="M274.816 284.97V273.198H282.447V297.781H274.816H266.655V284.97H274.816Z" fill="#5FCC48"/>
<path d="M266.655 284.74H206.244V285.201H266.655V284.74Z" fill="#5FCC48"/>
<path d="M462.198 227.265H365.433V297.781H462.198V227.265Z" fill="#5FCC48"/>
<path d="M364.585 225.649V242.499V244.346V297.781H462.728V244.346V242.499V225.649H364.585ZM429.448 227.265V242.499H397.812V227.265H429.448ZM461.35 242.499H430.826V227.265H461.35V242.499ZM430.826 296.165V244.288H461.35V296.165H430.826V296.165ZM397.812 296.165V244.288H429.448V296.165H397.812V296.165ZM365.963 244.346H396.487V296.223H365.963V244.346ZM365.963 242.499V227.265H396.487V242.499H365.963Z" fill="#EDFFEE"/>
<path d="M268.934 204.356C271.246 204.356 273.12 202.315 273.12 199.797C273.12 197.28 271.246 195.239 268.934 195.239C266.622 195.239 264.748 197.28 264.748 199.797C264.748 202.315 266.622 204.356 268.934 204.356Z" fill="#5FCC48"/>
<path d="M520.277 276.026H514.819C514.978 275.738 515.031 275.391 515.137 275.045C514.13 274.814 513.07 274.93 512.117 275.276C512.17 274.872 512.117 274.41 512.064 274.064C511.481 274.295 511.057 274.757 510.739 275.334C509.573 274.583 508.248 273.833 506.923 273.949C507.029 274.757 507.4 275.507 507.983 276.084H488.111C488.27 275.622 488.376 275.103 488.429 274.641C486.733 274.41 484.878 274.237 483.342 275.045C483.501 274.468 483.607 273.776 483.554 273.141C482.971 273.198 482.335 273.372 481.805 273.66C481.434 273.833 481.063 274.122 481.063 274.583C480.798 273.198 479.897 272.044 478.678 271.525C478.201 272.564 478.095 273.833 478.254 274.93C477.036 273.833 475.287 273.429 473.75 273.833C473.856 274.699 474.386 275.449 475.022 276.026L475.075 276.084H446.936C446.936 276.026 446.936 275.968 446.936 275.911C446.989 275.334 446.936 274.757 446.883 274.179C446.141 274.237 445.505 274.699 445.028 275.334C445.081 274.295 444.869 273.198 444.445 272.275C443.756 272.391 443.014 272.621 442.484 273.141C442.008 273.602 441.637 274.237 441.637 274.93C441.531 273.429 440.524 272.044 439.252 271.64C438.934 271.987 438.775 272.506 438.722 272.968C438.669 273.487 438.669 273.949 438.722 274.468C437.768 273.198 436.178 272.448 434.642 272.506C434.589 273.602 434.96 274.757 435.595 275.564C435.754 275.738 435.913 275.968 436.125 276.084H395.321C395.533 275.449 395.586 274.757 395.586 274.064C394.738 274.006 393.89 274.064 393.095 274.237C392.301 274.41 391.4 274.814 391.188 275.68C391.453 274.93 391.559 274.064 391.294 273.314C390.234 273.487 389.333 274.41 389.121 275.564C389.121 274.699 388.697 273.949 388.114 273.372C387.531 272.795 386.789 272.506 386.047 272.217C386.1 272.852 386.047 273.487 386.047 274.179C386.047 274.814 386.153 275.507 386.418 276.084L386.471 276.141H374.23C372.322 276.141 370.574 277.065 369.461 278.565C369.461 278.507 369.408 278.45 369.408 278.392C369.037 277.699 368.295 277.353 367.606 277.065C367.235 278.103 367.288 279.258 367.765 280.239C367.288 279.892 366.758 279.604 366.175 279.431C365.592 279.258 365.009 279.258 364.479 279.488C364.638 280.642 365.486 281.739 366.546 282.085C366.97 282.258 367.447 282.316 367.871 282.316C367.924 282.316 368.03 282.316 368.083 282.316C368.083 282.489 368.083 282.72 368.083 282.893V298.704H526.69V282.893C526.584 279.084 523.775 276.026 520.277 276.026Z" fill="#A6C4A8"/>
<path opacity="0.22" d="M503.797 290.279C503.691 289.471 503.479 288.664 503.055 287.971C501.73 288.202 500.564 289.067 499.822 290.279H499.769C499.663 288.837 499.186 287.394 498.391 286.24C496.802 286.702 495.636 288.317 495.477 290.106C495.318 289.01 494.947 287.856 494.364 286.875C493.675 287.509 493.304 288.49 493.145 289.414C493.092 288.144 492.456 286.817 491.608 285.951C490.761 287.163 490.337 288.721 490.284 290.222H453.189C453.189 290.048 453.189 289.933 453.189 289.76C453.189 289.01 453.083 288.317 452.818 287.625C452.023 288.086 451.387 288.894 451.122 289.875C450.38 288.837 449.267 288.202 448.102 288.086C447.943 288.779 448.102 289.529 448.473 290.106C448.526 290.164 448.526 290.222 448.579 290.279H430.508C430.455 289.587 430.19 288.952 429.978 288.317C429.13 288.606 428.388 289.183 427.858 289.991C427.911 289.067 427.752 288.086 427.434 287.221C426.375 287.567 425.421 288.375 424.785 289.414C424.096 288.086 422.877 287.105 421.552 286.702C421.34 286.644 421.128 286.586 420.969 286.702C420.81 286.817 420.757 286.99 420.651 287.163C420.386 287.856 420.122 288.606 419.91 289.298C419.751 288.144 419.062 287.105 418.161 286.471C417.26 287.74 416.359 289.01 415.511 290.279H415.405C415.67 288.952 415.564 287.509 415.193 286.24C412.756 286.298 410.424 287.74 409.152 289.991C409.364 289.529 409.523 289.01 409.735 288.548C408.251 288.433 406.767 288.837 405.549 289.76C405.549 289.01 405.39 288.317 405.125 287.625C405.072 287.567 404.171 288.317 404.065 288.375C403.747 288.721 403.535 289.067 403.27 289.471C403.058 289.241 402.846 289.01 402.634 288.779C401.733 287.913 400.673 287.279 399.507 286.932C399.242 286.875 398.607 286.644 398.448 287.048C398.289 287.452 398.713 287.971 398.925 288.26C399.348 288.894 399.878 289.471 400.461 289.991C400.567 290.048 400.62 290.164 400.726 290.222H386.418C386.736 289.587 386.842 288.894 386.63 288.26C385.199 288.086 383.769 288.548 382.656 289.471C382.709 288.375 382.603 287.279 382.285 286.24C381.172 286.759 380.377 287.798 380.059 289.067C379.582 287.683 378.734 286.471 377.622 285.605C377.145 285.201 376.562 284.913 375.979 284.97C375.873 286.298 375.82 287.683 376.191 288.894C376.35 289.356 376.562 289.76 376.774 290.164H363.049V300.955H528.067L528.173 290.395L503.797 290.279Z" fill="#15A51D"/>
</g>
<defs>
<clipPath id="clip0">
<rect width="734" height="301" fill="white"/>
</clipPath>
</defs>
</svg>
