<svg xmlns="http://www.w3.org/2000/svg" width="15.951" height="19.078" viewBox="0 0 15.951 19.078">
  <path id="location" d="M55.587,2.342A7.9,7.9,0,0,0,49.95,0h-.009a8.013,8.013,0,0,0-7.973,7.987c.112,3.031,3.028,6.881,5.3,9.838a3.5,3.5,0,0,0,5.435-.084c1.685-2.093,5.322-7.129,5.212-9.754a7.949,7.949,0,0,0-2.327-5.646ZM51.531,16.82a2.02,2.02,0,0,1-3.16,0c-3.079-3.921-4.913-7.186-4.913-8.833a6.5,6.5,0,0,1,6.483-6.5h.009a6.492,6.492,0,0,1,6.474,6.5c0,1.665-1.783,4.884-4.893,8.832Zm-1.548-5.678A3.167,3.167,0,1,1,53.15,7.975,3.171,3.171,0,0,1,49.983,11.142Zm0-4.844a1.677,1.677,0,1,0,1.677,1.677A1.679,1.679,0,0,0,49.983,6.3Z" transform="translate(-41.966 0)" fill="#535353"/>
</svg>
