<svg id="Bold" enable-background="new 0 0 24 24" height="512" viewBox="0 0 24 24" width="512" xmlns="http://www.w3.org/2000/svg"><g><path d="m12 0c-6.617 0-12 5.383-12 12s5.383 12 12 12 12-5.383 12-12-5.383-12-12-12zm6.989 10.044-1.087 6.333c-.062.36-.374.623-.739.623h-10.326c-.365 0-.677-.263-.739-.623l-1.087-6.333c-.048-.277.064-.558.289-.727.226-.17.525-.197.779-.074l2.894 1.409 2.372-4.267c.264-.477 1.047-.477 1.311 0l2.372 4.267 2.894-1.409c.253-.123.553-.096.779.074.224.169.336.45.288.727z"/></g></svg>