<svg id="clock" xmlns="http://www.w3.org/2000/svg" width="17.427" height="17.427" viewBox="0 0 17.427 17.427">
  <path id="Path_434" data-name="Path 434" d="M15.593,4.585a.726.726,0,0,0-.337.97,7.187,7.187,0,0,1,.719,3.158A7.261,7.261,0,1,1,8.713,1.452a7.174,7.174,0,0,1,4.508,1.567.726.726,0,1,0,.9-1.137,8.715,8.715,0,1,0,3.3,6.831,8.624,8.624,0,0,0-.864-3.791A.725.725,0,0,0,15.593,4.585Zm0,0" transform="translate(0)"/>
  <path id="Path_435" data-name="Path 435" d="M176.726,64a.726.726,0,0,0-.726.726v5.083a.726.726,0,0,0,.726.726h3.631a.726.726,0,1,0,0-1.452h-2.9V64.726A.726.726,0,0,0,176.726,64Zm0,0" transform="translate(-168.013 -61.096)"/>
</svg>
