<svg xmlns="http://www.w3.org/2000/svg" xmlns:xlink="http://www.w3.org/1999/xlink" width="450" height="343.275" viewBox="0 0 450 343.275">
  <defs>
    <filter id="Rectangle_680" x="0" y="94.275" width="450" height="249" filterUnits="userSpaceOnUse">
      <feOffset dy="3" input="SourceAlpha"/>
      <feGaussianBlur stdDeviation="10" result="blur"/>
      <feFlood flood-color="#4e4e4e" flood-opacity="0.043"/>
      <feComposite operator="in" in2="blur"/>
      <feComposite in="SourceGraphic"/>
    </filter>
  </defs>
  <g id="Group_715" data-name="Group 715" transform="translate(30 -73.725)">
    <g id="Group_713" data-name="Group 713">
      <g id="Group_712" data-name="Group 712">
        <g id="Group_711" data-name="Group 711" transform="translate(0 -36)">
          <g transform="matrix(1, 0, 0, 1, -30, 109.73)" filter="url(#Rectangle_680)">
            <rect id="Rectangle_680-2" data-name="Rectangle 680" width="390" height="189" transform="translate(30 121.27)" fill="#fff"/>
          </g>
          <ellipse id="Ellipse_108" data-name="Ellipse 108" cx="45.472" cy="8.432" rx="45.472" ry="8.432" transform="translate(53.571 336.423)" fill="#ed1a4f" opacity="0.1"/>
          <ellipse id="Ellipse_109" data-name="Ellipse 109" cx="58.209" cy="10.3" rx="58.209" ry="10.3" transform="translate(149.543 332.772)" fill="#ed1a4f" opacity="0.1"/>
          <ellipse id="Ellipse_110" data-name="Ellipse 110" cx="17.638" cy="3.528" rx="17.638" ry="3.528" transform="translate(167.022 368.632)" fill="#ed1a4f" opacity="0.1"/>
          <ellipse id="Ellipse_111" data-name="Ellipse 111" cx="17.331" cy="4.013" rx="17.331" ry="4.013" transform="translate(274.127 368.612)" fill="#ed1a4f" opacity="0.1"/>
          <ellipse id="Ellipse_112" data-name="Ellipse 112" cx="44.605" cy="9.136" rx="44.605" ry="9.136" transform="translate(278.943 333.936)" fill="#ed1a4f" opacity="0.1"/>
          <ellipse id="Ellipse_113" data-name="Ellipse 113" cx="21.18" cy="4.013" rx="21.18" ry="4.013" transform="translate(21.848 369.886)" fill="#ed1a4f" opacity="0.1"/>
          <path id="Path_1873" data-name="Path 1873" d="M180.8,143.853a8.4,8.4,0,0,0-7.8,2.366c-.39-6.748-6.818-12.237-14.533-11.393-8.118.892-12.82,7.418-15.472,13.986a4.114,4.114,0,0,0-5.886-3.794c1.224-5.134-2.914-10.046-8.409-11.037-6.189-1.131-12.039,2.191-15.25,6.958a21.841,21.841,0,0,0-3.4,9.755,7.768,7.768,0,0,0-7.447-.769,6.339,6.339,0,0,0-3.817,6.457.146.146,0,0,0,.157.117v.087a49.414,49.414,0,0,0,5.245.344c2.179,0,4.365,0,6.544.035h13.1c8.741,0,17.482.14,26.188-.169q18.741.157,37.464-.583c.472,0,.758-.373.7-.641a.5.5,0,0,0,.315-.379C188.84,150.315,186.439,145.018,180.8,143.853Z" transform="translate(-78.931 41.241)" fill="#ed1a4f" opacity="0.1"/>
          <path id="Path_1874" data-name="Path 1874" d="M661.083,105.457a7.6,7.6,0,0,0-4.6-3.3.206.206,0,0,1,.053-.17,5.352,5.352,0,0,0-1.383-.152c.223-4.283-3.239-7.406-6.246-5.523,1.3-7.477-3.114-14.624-8.922-16.06-6.594-1.642-12.83,3.194-16.248,10.127a40.15,40.15,0,0,0-3.631,14.2,6.46,6.46,0,0,0-7.941-1.115c-2.73,1.669-4.461,5.6-4.069,9.4a.166.166,0,0,0,.17.178v.116a38.186,38.186,0,0,0,5.6.509h20.941c9.306,0,18.621.205,27.918-.259A15.667,15.667,0,0,0,661.083,105.457Z" transform="translate(-327.122 56.859)" fill="#ed1a4f" opacity="0.1"/>
          <ellipse id="Ellipse_114" data-name="Ellipse 114" cx="55.158" cy="8.383" rx="55.158" ry="8.383" transform="translate(152.61 270.133)" fill="#fdd5a4"/>
          <path id="Path_1875" data-name="Path 1875" d="M449.865,319.339c0,10.1-24.331,18.287-54.35,18.287s-54.345-8.185-54.345-18.287c0-14.442,12.535-19.079,56.158-19.079S449.865,305.7,449.865,319.339Z" transform="translate(-187.802 -39.288)" fill="#fc8080"/>
          <path id="Path_1876" data-name="Path 1876" d="M449.843,333.255c-.287,10.1-24.336,18.287-54.35,18.287s-54-8.195-54.345-18.287a11.708,11.708,0,0,1,.892-5.252c12.882,3.577,19.5,5.475,52.973,5.826,30.321.317,42.415-1.526,53.82-5.99A11.642,11.642,0,0,1,449.843,333.255Z" transform="translate(-187.78 -53.203)" fill="#f06666"/>
          <path id="Path_1877" data-name="Path 1877" d="M363.533,290.572c.773,4.731,5.45,8.725,40.047,8.467s43.232-6.391,43.346-9.22,1.922-14.229-45.918-14.11C362.458,275.8,362.76,285.846,363.533,290.572Z" transform="translate(-198.988 -26.9)" fill="#fc8080"/>
          <path id="Path_1878" data-name="Path 1878" d="M447.178,295.86c-.114,2.824-8.735,8.958-43.346,9.215-33.883.253-39.066-3.572-39.992-8.165,4.954,2.076,14.928,3.4,35.315,3.25,34.612-.258,43.232-6.4,43.341-9.22a7.832,7.832,0,0,0-.347-3.27C447.713,290.866,447.233,294.443,447.178,295.86Z" transform="translate(-199.24 -32.935)" fill="#f06666"/>
          <path id="Path_1879" data-name="Path 1879" d="M426.37,220.42c-1.075,7.719-7.808,15.854-16.815,17.9s-13.322,3.82-13.427,8.061c-.114,4.513,6.416,8.532,24.936,8.274,18.827-.258,22.889-4.132,23-9.19C444.276,233.688,426.37,220.42,426.37,220.42Z" transform="translate(-215.531 0.996)" fill="#fc8080"/>
          <path id="Path_1880" data-name="Path 1880" d="M444.067,258.371c-.114,5.058-4.172,8.918-23,9.19-18.52.258-25.05-3.76-24.936-8.274.064-2.715,1.863-4.424,5.514-5.836,3.864,2.106,12.208,4.543,22.587,2.973,9.19-1.387,13.833-6.441,14.863-10.454C441.952,249.839,444.122,254.189,444.067,258.371Z" transform="translate(-215.531 -11.895)" fill="#f06666"/>
          <g id="Group_648" data-name="Group 648" transform="translate(169.413 256.891)" opacity="0.2">
            <path id="Path_1881" data-name="Path 1881" d="M373.775,293.413c1.358-2.007,3.651-1.61,7.9-.277,5.088,1.6,10.152,3.686,13.615,4.3.8.144-7.848,1.645-16.578-.426C375.088,296.153,372.814,294.815,373.775,293.413Z" transform="translate(-373.554 -292.022)" fill="#fff"/>
          </g>
          <path id="Path_1882" data-name="Path 1882" d="M449.922,334.242c-.4-.887-4.013,3.592-5.38,3.939-.758.193-4.776-1.759-6.015-1.744s-4.078,3.523-5.068,3.641c-.862.1-4.84-2.393-5.807-2.3-.882.079-4.32,3.27-5.281,3.339s-4.751-2.606-5.7-2.556-4.459,3.116-5.39,3.156-4.682-2.755-5.623-2.73-4.543,3.007-5.475,3.007-4.608-2.859-5.539-2.869-4.623,2.869-5.534,2.869-4.573-2.973-5.48-3-4.717,2.765-5.618,2.73-4.5-3.106-5.4-3.156-4.811,2.621-5.7,2.556-4.4-3.26-5.276-3.339c-.991-.089-4.954,2.408-5.807,2.3-.991-.119-3.835-3.627-5.073-3.642s-5.252,1.937-6.015,1.744c-1.362-.347-4.954-4.826-5.38-3.939-.139.312,10.508,60.444,10.672,61.138.3,1.328.6,1.273,1.942,1.888a59.322,59.322,0,0,0,9.557,3.374,113.516,113.516,0,0,0,19.491,2.973c3,.243,6.025.4,9.037.5,1.526.04,3.057.059,4.583.059s3.062,0,4.588-.059q4.518-.109,9.037-.5a110.69,110.69,0,0,0,19.491-2.973,59.276,59.276,0,0,0,9.552-3.374c1.343-.614,1.645-.56,1.947-1.888C439.418,394.676,450.065,334.559,449.922,334.242Z" transform="translate(-186.887 -56.375)" fill="#fde3ae"/>
          <path id="Path_1883" data-name="Path 1883" d="M358.8,401.837c-.793-.317-1.57-.654-2.348-.991-1.343-.614-1.645-.56-1.942-1.888-.06-.243-1.323-7.352-2.973-16.647-1.486-15.473-2.973-32.159-3.3-41.122a3.106,3.106,0,0,0,.991.58,2.443,2.443,0,0,0,1.04-.178C352.62,355.028,356.563,384.625,358.8,401.837Z" transform="translate(-191.364 -59.939)" fill="#fdd5a4"/>
          <path id="Path_1884" data-name="Path 1884" d="M400.421,409.189c-1.808-.218-3.617-.471-5.415-.778-1.11-17.063-2.874-46.076-3.206-61.881a4.642,4.642,0,0,0,1.571.862,2.378,2.378,0,0,0,.917-.277C396.279,363.558,399.019,393.434,400.421,409.189Z" transform="translate(-213.348 -62.633)" fill="#fdd5a4"/>
          <path id="Path_1885" data-name="Path 1885" d="M377.189,405.209c-.421-.1-.842-.208-1.263-.317-1.412-.372-2.814-.793-4.2-1.258-1.363-17.811-3.424-46.274-3.84-61.063a7.56,7.56,0,0,0,2.334,1.759.741.741,0,0,0,.178,0C372.532,360.272,375.55,389.127,377.189,405.209Z" transform="translate(-201.284 -60.635)" fill="#fdd5a4"/>
          <path id="Path_1886" data-name="Path 1886" d="M422.871,410.52c-.956-.059-1.917-.124-2.874-.2-.832-.064-1.665-.139-2.5-.213-.426-16.523-1.075-45.363-.837-61.762a1.021,1.021,0,0,0,.327.089,6.619,6.619,0,0,0,2.135-.991C420.483,364.126,422.088,394.819,422.871,410.52Z" transform="translate(-225.865 -63.093)" fill="#fdd5a4"/>
          <path id="Path_1887" data-name="Path 1887" d="M441.7,411.4c-.931,0-1.858-.03-2.784-.054-.852,0-1.709-.05-2.561-.084-.139-16.181-.322-46.487.074-62.723a4.187,4.187,0,0,0,1.536.718,2.275,2.275,0,0,0,.887-.317C440.057,365.058,441.142,394.522,441.7,411.4Z" transform="translate(-235.743 -63.647)" fill="#fdd5a4"/>
          <path id="Path_1888" data-name="Path 1888" d="M532.33,401.837q1.179-.5,2.343-.991c1.343-.614,1.645-.56,1.947-1.888.054-.243,1.323-7.352,2.973-16.647,1.486-15.473,2.973-32.159,3.3-41.122a3.12,3.12,0,0,1-.991.58,2.476,2.476,0,0,1-1.04-.178C538.5,355.028,534.565,384.625,532.33,401.837Z" transform="translate(-284.253 -59.939)" fill="#fdd5a4"/>
          <path id="Path_1889" data-name="Path 1889" d="M492.69,409.189c1.808-.218,3.617-.471,5.415-.778,1.1-17.063,2.874-46.076,3.206-61.881a4.608,4.608,0,0,1-1.576.862,2.388,2.388,0,0,1-.912-.277C496.832,363.558,494.092,393.434,492.69,409.189Z" transform="translate(-264.253 -62.633)" fill="#fdd5a4"/>
          <path id="Path_1890" data-name="Path 1890" d="M515.23,405.209c.421-.1.842-.208,1.263-.317,1.412-.372,2.814-.793,4.2-1.258,1.362-17.811,3.419-46.274,3.84-61.063a7.618,7.618,0,0,1-2.334,1.759.739.739,0,0,1-.178,0C519.887,360.272,516.87,389.127,515.23,405.209Z" transform="translate(-275.625 -60.635)" fill="#fdd5a4"/>
          <path id="Path_1891" data-name="Path 1891" d="M472.63,410.52c.961-.059,1.922-.124,2.879-.2.827-.064,1.665-.139,2.5-.213.426-16.523,1.07-45.363.837-61.762a1.021,1.021,0,0,1-.327.089,6.619,6.619,0,0,1-2.135-.991C475.023,364.126,473.418,394.819,472.63,410.52Z" transform="translate(-254.131 -63.093)" fill="#fdd5a4"/>
          <path id="Path_1892" data-name="Path 1892" d="M454.58,411.4c.927,0,1.858-.03,2.784-.054s1.7-.05,2.561-.084c.139-16.181.322-46.487-.074-62.723a4.187,4.187,0,0,1-1.536.718,2.291,2.291,0,0,1-.892-.317C456.205,365.058,455.135,394.522,454.58,411.4Z" transform="translate(-245.024 -63.647)" fill="#fdd5a4"/>
          <g id="Group_649" data-name="Group 649" transform="translate(185.574 230.85)" opacity="0.2">
            <path id="Path_1893" data-name="Path 1893" d="M406.682,257.009c-3.176-5,9.413-6.064,13.327-7.546,8.616-3.275,10.241-7.987,11.45-10,0,0,2.973,15.854-8.452,20.06C418.271,261.264,408.4,259.7,406.682,257.009Z" transform="translate(-406.174 -239.46)" fill="#fff"/>
          </g>
          <path id="Path_1894" data-name="Path 1894" d="M122.6,415.84a1.065,1.065,0,0,0,.555-.842c.03-.679-.713-.922-.931-1.313s-.287-.362-.406-.273a1.779,1.779,0,0,0-.124,1.64A1.169,1.169,0,0,0,122.6,415.84Z" transform="translate(-76.991 -96.351)" fill="#725cb5"/>
          <path id="Path_1895" data-name="Path 1895" d="M87.056,441.047c1.258-.377,6.614-1.149,6.614-1.149s4.523-3.612,5.762-4.395a12.967,12.967,0,0,1,1.253-.674c.644-.322-.887.53.649,1.3-.991,1.219-2.794,3.468-2.73,3.295a26.9,26.9,0,0,1-3.468,2.685c-1.4.882-1.437,1.486-3.547,2.641-2.973,1.62-5.247-1.09-5.846-1.9a.535.535,0,0,1-.059-.5A2.145,2.145,0,0,1,87.056,441.047Z" transform="translate(-58.877 -107.15)" fill="#fde3ae"/>
          <path id="Path_1896" data-name="Path 1896" d="M121.3,434.365c-1.452-2.358-8.423-2.77-10.048-.917-1.769,1.982.1,10.489.1,10.489l8.13-1.387S121.7,435.009,121.3,434.365Z" transform="translate(-71.414 -105.904)" fill="#fde3ae"/>
          <path id="Path_1897" data-name="Path 1897" d="M125.6,432.991a6.156,6.156,0,0,1,4.142,2.69c1.125,1.843,2.839,5.207,2.294,7.714-.4,1.853-2.552-1.675-2.552-1.675l-2.309-4.954S124.71,432.768,125.6,432.991Z" transform="translate(-78.938 -106.253)" fill="#fdd5a4"/>
          <path id="Path_1898" data-name="Path 1898" d="M120.211,432.42s.793,2.794-.723,7.823a28.181,28.181,0,0,1-1.927,3.468,25.491,25.491,0,0,0,3.711-.287c1.893-.381,1.784-.812,1.784-.812l1.66-5.732s.6-2.333,0-2.784a6.963,6.963,0,0,0-1.694-1.065A11.394,11.394,0,0,0,120.211,432.42Z" transform="translate(-74.978 -105.97)" fill="#fdd5a4"/>
          <path id="Path_1899" data-name="Path 1899" d="M146.733,526.547c-.292-.04-.679-.991-.783-1.63.1.173.243.387.327.124a1.952,1.952,0,0,0-.213-1.486,1.883,1.883,0,0,1,.694-.079C147.015,523.485,146.966,526.576,146.733,526.547Z" transform="translate(-89.302 -151.91)" fill="#30193c"/>
          <path id="Path_1900" data-name="Path 1900" d="M145.5,524.79c-.084.263-.272.332-.317-.069a1.629,1.629,0,0,0-.2-.6,3.363,3.363,0,0,0-.565-.59c-.074-.04.173-.634.233-.55.282.391.595.337.634.317A1.952,1.952,0,0,1,145.5,524.79Z" transform="translate(-88.521 -151.66)" fill="#f78598"/>
          <path id="Path_1901" data-name="Path 1901" d="M122.713,458.822c1.922,2.874-2.319,15.086-2.319,15.086s8.423,15.324,8.393,15.393l-.114.58c-.064.114-10.157-9.909-13.1-13.783-1.843-2.423-1.982-15.309-2.948-19.595C112.2,454.522,121.465,456.925,122.713,458.822Z" transform="translate(-72.481 -117.747)" fill="#f78598"/>
          <path id="Path_1902" data-name="Path 1902" d="M89.315,525.29c.218-.307,1.214,0,1.784.277-.193,0-.451,0-.287.2a1.947,1.947,0,0,0,1.353.669,1.764,1.764,0,0,1-.327.619A6.8,6.8,0,0,1,89.315,525.29Z" transform="translate(-60.725 -152.764)" fill="#30193c"/>
          <path id="Path_1903" data-name="Path 1903" d="M92.249,526.075c-.163-.218-.114-.411.243-.223a2.866,2.866,0,0,0,.7.263.55.55,0,0,0,.391-.134l.263.253s-.233.446-.248.5a1.947,1.947,0,0,1-1.353-.654Z" transform="translate(-62.162 -153.073)" fill="#fd95a4"/>
          <path id="Path_1904" data-name="Path 1904" d="M113.6,463.25c-1.318,3.181-11.811,8.68-11.811,8.68s-6.545,18.46-6.758,18.331l-.322-.287c-.064-.045.555-16.672,2.705-21.69.763-1.789,7.57-9.622,7.57-9.622s.669-3.637,1.13-4c.9.124,4.018-1.744,6.4.659S114.2,461.788,113.6,463.25Z" transform="translate(-63.444 -116.903)" fill="#fd95a4"/>
          <path id="Path_1905" data-name="Path 1905" d="M119.632,427.389a18.98,18.98,0,0,1-.1,2.477c-.119.243-.5.54-.669-.035a9.393,9.393,0,0,1,.208-2.512Z" transform="translate(-75.613 -103.396)" fill="#fd95a4"/>
          <path id="Path_1906" data-name="Path 1906" d="M119.722,425.924s-.054,2.215-.084,2.477-.753.292-.778,0a18.417,18.417,0,0,1,.3-2.552Z" transform="translate(-75.634 -102.655)" fill="#c75d77"/>
          <path id="Path_1907" data-name="Path 1907" d="M115.959,424.774a5.331,5.331,0,0,1,.6-1.367.877.877,0,0,1,1.209-.337,5.786,5.786,0,0,1,1.486,1.08c.213.372,0,.832-.168,1.184a2.745,2.745,0,0,1-.922,1.095,1.768,1.768,0,0,1-1.293-.035C115.959,425.908,115.835,425.532,115.959,424.774Z" transform="translate(-74.15 -101.192)" fill="#fda7b8"/>
          <path id="Path_1908" data-name="Path 1908" d="M106.3,453.98s.817,4.315.817,5.039c0,0-5.554,6.183-6.5,8.214l5.172,2.319,4.459-3.468-3.632,4.266s4.954,1.486,8.19.857c0,0,4.791-6.976,3.82-11.247a15,15,0,0,0-4.082-7.07S107.338,454.292,106.3,453.98Z" transform="translate(-66.431 -116.298)" fill="#3b2b5b"/>
          <path id="Path_1909" data-name="Path 1909" d="M112.68,476.188s10.825-3.676,11.638-9.364a5.733,5.733,0,0,0,.124-1.065,10.138,10.138,0,0,0-.124-1.248s1.511,2.829-.723,7.625-2.725,4.91-2.725,4.91a8.425,8.425,0,0,1-2.21.193,23.779,23.779,0,0,1-5.98-1.05Z" transform="translate(-72.516 -122.161)" fill="#30193c"/>
          <ellipse id="Ellipse_115" data-name="Ellipse 115" cx="6.352" cy="2.368" rx="6.352" ry="2.368" transform="translate(28.629 337.161) rotate(-50.15)" fill="#fc5e4d"/>
          <g id="Group_650" data-name="Group 650" transform="translate(28.629 327.409)" opacity="0.4">
            <ellipse id="Ellipse_116" data-name="Ellipse 116" cx="6.352" cy="2.368" rx="6.352" ry="2.368" transform="translate(0 9.752) rotate(-50.15)"/>
          </g>
          <path id="Path_1910" data-name="Path 1910" d="M102.054,432.9a2.043,2.043,0,0,0-.084.223,2.3,2.3,0,0,0,1.095,2.824l.079.035c2.393.991,4.35-2.631,2.329-4.162a2.149,2.149,0,0,0-.436-.258,2.319,2.319,0,0,0-2.983,1.338Z" transform="translate(-67.042 -105.459)" fill="#fc5e4d"/>
          <path id="Path_1911" data-name="Path 1911" d="M90.958,449.126l.149.183a2.3,2.3,0,0,1-.159,3.022l-.064.064a2.415,2.415,0,0,1-3.736-1.135,2.254,2.254,0,0,1,.555-2.477A2.314,2.314,0,0,1,90.958,449.126Z" transform="translate(-59.553 -113.966)" fill="#fc5e4d"/>
          <path id="Path_1912" data-name="Path 1912" d="M118.521,458.648a2.646,2.646,0,1,1-3.884.2,2.75,2.75,0,0,1,3.884-.2Z" transform="translate(-73.194 -118.846)" fill="#fc5e4d"/>
          <path id="Path_1913" data-name="Path 1913" d="M111.5,459.6a2.646,2.646,0,1,1-3.884.193,2.755,2.755,0,0,1,3.884-.193Z" transform="translate(-69.65 -119.325)" fill="#fc5e4d"/>
          <path id="Path_1914" data-name="Path 1914" d="M117.824,452.016a2.651,2.651,0,1,1-3.884.193A2.75,2.75,0,0,1,117.824,452.016Z" transform="translate(-72.839 -115.498)" fill="#fc5e4d"/>
          <path id="Path_1915" data-name="Path 1915" d="M118.666,451.82a2.646,2.646,0,1,1-3.869-.381A2.76,2.76,0,0,1,118.666,451.82Z" transform="translate(-73.136 -115.253)" fill="#fc5e4d"/>
          <path id="Path_1916" data-name="Path 1916" d="M115.234,442.9a2.646,2.646,0,1,1-3.869.188,2.755,2.755,0,0,1,3.869-.188Z" transform="translate(-71.538 -110.904)" fill="#fc5e4d"/>
          <path id="Path_1917" data-name="Path 1917" d="M102.829,457.758a2.646,2.646,0,1,1-3.884.193A2.755,2.755,0,0,1,102.829,457.758Z" transform="translate(-65.275 -118.396)" fill="#fc5e4d"/>
          <path id="Path_1918" data-name="Path 1918" d="M93.971,454.69a2.646,2.646,0,1,1-3.879.193,2.755,2.755,0,0,1,3.879-.193Z" transform="translate(-60.807 -116.85)" fill="#fc5e4d"/>
          <path id="Path_1919" data-name="Path 1919" d="M109.254,450.516a2.651,2.651,0,1,1-3.884.193A2.75,2.75,0,0,1,109.254,450.516Z" transform="translate(-68.515 -114.741)" fill="#fc5e4d"/>
          <path id="Path_1920" data-name="Path 1920" d="M99.991,449.85a2.646,2.646,0,1,1-3.879.193,2.755,2.755,0,0,1,3.879-.193Z" transform="translate(-63.845 -114.408)" fill="#fc5e4d"/>
          <path id="Path_1921" data-name="Path 1921" d="M93.081,441.909a2.232,2.232,0,0,1,.228.258,2.135,2.135,0,0,1-.248,2.725,2.18,2.18,0,0,1-1.135.624h-.094a2.041,2.041,0,0,1-1.754-.55.377.377,0,0,1-.045-.045,2.145,2.145,0,0,1,3.047-3.012Z" transform="translate(-60.809 -110.464)" fill="#fc5e4d"/>
          <path id="Path_1922" data-name="Path 1922" d="M98.552,436.354a2.158,2.158,0,0,1,.223.3,2.363,2.363,0,0,1-.684,3.082,2.284,2.284,0,0,1-3.339-.7,2.343,2.343,0,0,1,.57-2.814A2.3,2.3,0,0,1,98.552,436.354Z" transform="translate(-63.347 -107.585)" fill="#fc5e4d"/>
          <path id="Path_1923" data-name="Path 1923" d="M106.849,443.008a2.646,2.646,0,1,1-3.884.193,2.755,2.755,0,0,1,3.884-.193Z" transform="translate(-67.303 -110.954)" fill="#fc5e4d"/>
          <path id="Path_1924" data-name="Path 1924" d="M111.8,435.008a2.646,2.646,0,1,1-3.884.193A2.755,2.755,0,0,1,111.8,435.008Z" transform="translate(-69.801 -106.917)" fill="#fc5e4d"/>
          <path id="Path_1925" data-name="Path 1925" d="M88.59,445.464s-.59-1.06-.342-1.417.54-.991.723-.932-.114.436-.114.436.258-.391.352-.391.069.144.069.144-.05-.064.069.045-.3.912-.377,1.09a8.757,8.757,0,0,1-.149,1.055C88.768,445.633,88.813,445.737,88.59,445.464Z" transform="translate(-60.157 -111.365)" fill="#fda7b8"/>
          <path id="Path_1926" data-name="Path 1926" d="M118.421,421.01c-.991-.124-2.9-.59-2.973-2.814a2.189,2.189,0,0,1,2.819-2.18,1.3,1.3,0,0,1,.862,1.179,1.486,1.486,0,0,1,.748-.109c.917.03,2.244.941,2.274,1.957s-.545,3.557-3.884,3.607a4.134,4.134,0,0,0,.53-.708,4.614,4.614,0,0,0,.332-.812,4.169,4.169,0,0,0-.708-.119Z" transform="translate(-73.911 -97.661)" fill="#fc8080"/>
          <path id="Path_1927" data-name="Path 1927" d="M126.332,412.231a4.315,4.315,0,0,1,.223-4.182,6.226,6.226,0,0,1,6.936-2.774,6.441,6.441,0,0,1,4.484,7.952c-1.035,4.063-3.394,4.786-2.7,6.936.614,1.907,2.195,1.937,2.839,1.452a.124.124,0,0,1,.2.109,3.427,3.427,0,0,1-1.526,2.839c-1.744.922-5.509.991-6.986-2.12a6.4,6.4,0,0,1,.119-5.024c.421-.912,1.486-2.616,1.447-3.686-.094-1.982-3.087-4.162-4.756-1.442Z" transform="translate(-79.192 -92.167)" fill="#fc8080"/>
          <path id="Path_1928" data-name="Path 1928" d="M131.847,407.712a6.792,6.792,0,0,0-3.28-2.319,6.41,6.41,0,0,0-3.964.094,5.564,5.564,0,0,0-3.057,2.423,4.459,4.459,0,0,0-.5,3.8h0a.188.188,0,0,1-.1.238.193.193,0,0,1-.149,0,2.535,2.535,0,0,0-.793-.282,2.367,2.367,0,0,0-.421,0,1.171,1.171,0,0,0-.367.069h0a.159.159,0,0,1-.208-.079.262.262,0,0,1,0-.06,1.14,1.14,0,0,0-.634-1.021,2.4,2.4,0,0,0-1.338-.03,1.982,1.982,0,0,0-1.149.713,2.239,2.239,0,0,0-.4,1.333,2.195,2.195,0,0,1,.317-1.392,2.1,2.1,0,0,1,1.184-.842,2.609,2.609,0,0,1,.733-.119,1.907,1.907,0,0,1,.753.1,1.233,1.233,0,0,1,.6.5,1.689,1.689,0,0,1,.243.743l-.238-.124a1.262,1.262,0,0,1,.5-.134,2.634,2.634,0,0,1,.5,0,2.526,2.526,0,0,1,.922.3l-.253.228a4.345,4.345,0,0,1-.248-2.13,5.519,5.519,0,0,1,.694-2.016,5.871,5.871,0,0,1,3.3-2.566,6.277,6.277,0,0,1,7.362,2.6Z" transform="translate(-73.926 -92.032)" fill="#fd9797"/>
          <path id="Path_1929" data-name="Path 1929" d="M118.428,463.043a.208.208,0,0,1-.079.208c-.159.1-.451.391-.748.595a2.722,2.722,0,0,1-.763.2c-.139,0-.421.074-.5-.059s.416-.416.55-.5a1.342,1.342,0,0,0,.5-.6s-.307,0-.282-.094a1.041,1.041,0,0,1,.8-.094,1.479,1.479,0,0,0,.332,0C118.319,462.7,118.4,462.894,118.428,463.043Z" transform="translate(-74.359 -121.224)" fill="#fda7b8"/>
          <path id="Path_1930" data-name="Path 1930" d="M128.481,452.355c-.342,1.868-7.139,6.178-9.369,4.385a1.546,1.546,0,0,1-.629-1.486l7.759-4.865S128.857,450.254,128.481,452.355Z" transform="translate(-75.435 -115.035)" fill="#fdd5a4"/>
          <path id="Path_1931" data-name="Path 1931" d="M124.133,422.357l-1.417-4.662-.614-.054s.089,4.182-.931,5.861A3.583,3.583,0,0,0,124.133,422.357Z" transform="translate(-76.799 -98.513)" fill="#8065bf"/>
          <path id="Path_1932" data-name="Path 1932" d="M123.69,417.5a.956.956,0,0,1,.892-.55c.6.059.5.694.882.748s.53.134.362.322a1.823,1.823,0,0,1-1.486.307A.817.817,0,0,1,123.69,417.5Z" transform="translate(-78.07 -98.164)" fill="#8065bf"/>
          <path id="Path_1933" data-name="Path 1933" d="M310.51,108.65c22.295,2.665,66.835,10.989,67.985,13.308s-23.479,44.025-38.114,59.919C341.842,152.66,330.422,128.869,310.51,108.65Z" transform="translate(-172.332 57.391)" fill="#ece8fc"/>
          <path id="Path_1934" data-name="Path 1934" d="M340.385,181.886c1.457-29.231-9.963-53.012-29.875-73.226,0,0,33.725,18,37.386,28.627S340.385,181.886,340.385,181.886Z" transform="translate(-172.332 57.386)" fill="#d1c7f2"/>
          <path id="Path_1935" data-name="Path 1935" d="M414.79,150.333l-.708,1.184-5.2-13.377-.4-1.021L403.36,124c.431.084.857.168,1.273.258l4.836,12.426.4,1.021Z" transform="translate(-219.18 49.646)" fill="#d9cdfb"/>
          <path id="Path_1936" data-name="Path 1936" d="M402.184,135.736l-15.468,7.372-.991.471-27.834,13.268c-.134-.342-.268-.679-.411-1.021l27.849-13.268.991-.471,15.4-7.337a1.13,1.13,0,0,1,.5.377A1.086,1.086,0,0,1,402.184,135.736Z" transform="translate(-196.031 44.222)" fill="#d9cdfb"/>
          <path id="Path_1937" data-name="Path 1937" d="M387.925,172.5a.55.55,0,0,1-.461-.842l13.258-21.046a.56.56,0,0,1,.5-.253.54.54,0,0,1,.456.347l7.4,19.035a.55.55,0,0,1-.461.743l-20.635,1.992Zm13.139-20.387L388.98,171.3l18.827-1.838Z" transform="translate(-211.118 36.346)" fill="#92b8d9"/>
          <path id="Path_1938" data-name="Path 1938" d="M401.244,168.632c-1.144-1.62-2.72-4.276-2.854-5.227h0c1.823-1.05,3.9-3.746,6.01-3.855a2.71,2.71,0,0,1,2.041.6,8.03,8.03,0,0,1,1.9,2.185,7.894,7.894,0,0,1,1.045,1.838h0a13.039,13.039,0,0,1-3.29,3.369,39.351,39.351,0,0,1-3.661,2.329l-.109.064h0A6.561,6.561,0,0,1,401.244,168.632Z" transform="translate(-216.673 31.718)" fill="#fde3ae"/>
          <path id="Path_1939" data-name="Path 1939" d="M343.039,193.024c.5.416.783-.421,1.169-.783-.159.084-.352.149-.292-.094a1.778,1.778,0,0,1,.887-1.026,1.586,1.586,0,0,0-.5-.4C344.114,190.612,342.707,192.737,343.039,193.024Z" transform="translate(-188.719 15.981)" fill="#3b2b5b"/>
          <path id="Path_1940" data-name="Path 1940" d="M344.849,192.535c-.059.243.134.178.292.094a6.691,6.691,0,0,1,.5-.456.362.362,0,0,1,.277-.064l.109-.124s-.228-.426-.268-.5A1.779,1.779,0,0,0,344.849,192.535Z" transform="translate(-189.653 15.593)" fill="#fd95a4"/>
          <path id="Path_1941" data-name="Path 1941" d="M349.6,203.9c.5.367.738-.5,1.08-.9-.149.1-.332.183-.3-.064a1.749,1.749,0,0,1,.778-1.11,1.541,1.541,0,0,0-.525-.347C350.423,201.388,349.239,203.642,349.6,203.9Z" transform="translate(-192.021 10.555)" fill="#3b2b5b"/>
          <path id="Path_1942" data-name="Path 1942" d="M351.246,203.295c-.035.248.149.163.3.064.213-.248.381-.456.431-.5a.352.352,0,0,1,.268-.094l.094-.134s-.273-.4-.312-.446a1.749,1.749,0,0,0-.778,1.1Z" transform="translate(-192.884 10.194)" fill="#fd95a4"/>
          <path id="Path_1943" data-name="Path 1943" d="M372.366,166.845a7.342,7.342,0,0,0-3.166-.124c-3.215.5-19.818,10.325-22.439,12.292-.357.268-.055,1.214.436.966,3.072-1.531,20.635-6.738,20.635-6.738l-18.381,10.811.525.941a137.464,137.464,0,0,0,15.691-5.286c6.124-2.621,10.31-5.812,10.528-6.213A56.842,56.842,0,0,0,372.366,166.845Z" transform="translate(-190.544 28.149)" fill="#3b2b5b"/>
          <path id="Path_1944" data-name="Path 1944" d="M417.682,162.22s-1.348.619-1.387.832a.733.733,0,0,0,.6.808c.5.035,1.3-.966,1.3-.966Z" transform="translate(-225.704 30.361)" fill="#fd95a4"/>
          <path id="Path_1945" data-name="Path 1945" d="M417.18,162.862a1.749,1.749,0,0,0,.659.956,4.373,4.373,0,0,0,.585-.525l-.595-.773C417.636,162.614,417.388,162.758,417.18,162.862Z" transform="translate(-226.153 30.21)" fill="#c75d77"/>
          <path id="Path_1946" data-name="Path 1946" d="M420.615,159.776s.793-1.273.386-2.081-3.567-.134-3.116.3c.114.109.609.084.5.347s-.614.926-.451,1.417a1.243,1.243,0,0,0,1.357.907A2.477,2.477,0,0,0,420.615,159.776Z" transform="translate(-226.487 32.835)" fill="#3b2b5b"/>
          <path id="Path_1947" data-name="Path 1947" d="M412.089,167.356a9.217,9.217,0,0,0-.768-1.486,12.007,12.007,0,0,1-3.364,3.671,6.441,6.441,0,0,1-4.187,1.1,16.172,16.172,0,0,0,1.268,2.477,42.247,42.247,0,0,0,3.765-2.4A13.036,13.036,0,0,0,412.089,167.356Z" transform="translate(-219.387 28.52)" fill="#fdd5a4"/>
          <path id="Path_1948" data-name="Path 1948" d="M352.87,188.991l.268.5a137.465,137.465,0,0,0,15.691-5.286c6.124-2.621,10.31-5.812,10.528-6.213-.129-.411-1.268-2.477-1.268-2.477a31.179,31.179,0,0,1-10.261,7.749C360.733,186.469,352.87,188.991,352.87,188.991Z" transform="translate(-193.705 23.656)" fill="#30193c"/>
          <path id="Path_1949" data-name="Path 1949" d="M420,162.207a3.031,3.031,0,0,0,.416-.852.446.446,0,0,0-.03-.382,2.071,2.071,0,0,0-1.486-.7c-.277.05-.416.357-.52.585s-.466,1.447.3,1.739A.939.939,0,0,0,420,162.207Z" transform="translate(-226.67 31.346)" fill="#fd95a4"/>
          <path id="Path_1950" data-name="Path 1950" d="M420.9,157.605a.832.832,0,0,0-.614-.287,3.037,3.037,0,0,0-.7,0,5.358,5.358,0,0,0-1.377.282,1.375,1.375,0,0,0-.3.144.257.257,0,0,0-.069.074.064.064,0,0,0,.04.04c.084.035.213.054.337.109a.223.223,0,0,1,.144.322l-.045.084c-.124.213-.253.406-.352.619a1.08,1.08,0,0,0-.124.679,1.041,1.041,0,0,1,.035-.713,6.6,6.6,0,0,1,.307-.654.553.553,0,0,0,.035-.079.165.165,0,0,0,0-.045.138.138,0,0,0-.074-.055c-.094-.04-.208-.05-.342-.1a.228.228,0,0,1-.154-.233.332.332,0,0,1,.173-.228,1.393,1.393,0,0,1,.342-.173,4.5,4.5,0,0,1,1.437-.253,3.586,3.586,0,0,1,.728.064,1.486,1.486,0,0,1,.347.129.545.545,0,0,1,.228.272Z" transform="translate(-226.39 32.925)" fill="#5a499c"/>
          <path id="Path_1951" data-name="Path 1951" d="M436.9,166.272a.5.5,0,0,1-.322-.109.53.53,0,0,1-.094-.743,25.623,25.623,0,0,1,15.131-8.764.527.527,0,0,1,.134,1.045c-5.732.748-11.717,4.87-14.432,8.368A.53.53,0,0,1,436.9,166.272Z" transform="translate(-235.839 33.171)" fill="#347a5f"/>
          <path id="Path_1952" data-name="Path 1952" d="M428.19,176.722c-.609,4.91-5.162,8.125-10.1,7.927a8.958,8.958,0,0,1-8.586-9.314,9.414,9.414,0,0,1,2.6-5.945,8.374,8.374,0,0,1,6.48-2.928c2.908.3,3.6,1.734,4.86,3.1s2.423.936,3.651,2.314S428.438,174.74,428.19,176.722Z" transform="translate(-222.276 28.231)" fill="#fc5e4d"/>
          <path id="Path_1953" data-name="Path 1953" d="M412.5,194.7a.188.188,0,0,0-.059.188c.049.159.163.535.253.837,0,0,.139.461.391.5,0,0,.094-.04,0-.159,0,0,.357.282.5.223s-.218-.441-.218-.441-.277-.624-.055-.694c0,0,.193.183.243.094s-.317-.5-.5-.5a1.608,1.608,0,0,1-.238-.168C412.766,194.535,412.608,194.62,412.5,194.7Z" transform="translate(-223.761 14.039)" fill="#fda7b8"/>
          <path id="Path_1954" data-name="Path 1954" d="M407.349,162.983c-.708-.173-2.512.991-2.973,3.022-.426,1.843-1.135,5.4,0,7.333.842,1.427,1.982-1.808,1.982-1.808a22.271,22.271,0,0,1,.56-4.137C407.3,166.421,408.652,163.3,407.349,162.983Z" transform="translate(-219.384 29.985)" fill="#fde3ae"/>
          <path id="Path_1955" data-name="Path 1955" d="M403.925,177.406c-.882,1.4,1.135,8.388,3.632,8.551a1.239,1.239,0,0,0,1.224-.5l-2.448-8.19S404.926,175.846,403.925,177.406Z" transform="translate(-219.359 23.067)" fill="#fde3ae"/>
          <path id="Path_1956" data-name="Path 1956" d="M410.4,164a5.005,5.005,0,0,1,.045,1.154,8.931,8.931,0,0,1-.109,1.149,8.27,8.27,0,0,1-.609,2.229c.084-.768.193-1.516.3-2.274l.173-1.13C410.26,164.728,410.359,164.352,410.4,164Z" transform="translate(-222.394 29.463)" fill="#fdd5a4"/>
          <path id="Path_1957" data-name="Path 1957" d="M405.356,162.71c-.208.555-.411,1.11-.6,1.67s-.367,1.115-.525,1.684-.287,1.135-.4,1.709a12.89,12.89,0,0,0-.178,1.759,6.584,6.584,0,0,1-.055-1.794,10.6,10.6,0,0,1,.337-1.759,13.322,13.322,0,0,1,.6-1.684A10.943,10.943,0,0,1,405.356,162.71Z" transform="translate(-219.279 30.114)" fill="#fdd5a4"/>
          <path id="Path_1958" data-name="Path 1958" d="M387.926,172.5a.555.555,0,0,1-.287-.084.545.545,0,0,1-.173-.753l13.228-21.046a.546.546,0,1,1,.926.58l-13.228,21.046a.555.555,0,0,1-.466.258Z" transform="translate(-211.118 36.345)" fill="#a8c9e6"/>
          <path id="Path_1959" data-name="Path 1959" d="M442.084,137.887,439.29,132.1c2.477.7,3.964,1.288,4.182,1.689S443.145,135.637,442.084,137.887Z" transform="translate(-237.309 45.559)" fill="#d1c7f2"/>
          <path id="Path_1960" data-name="Path 1960" d="M370.36,459.412c-.03-.059-.3.238-.461.372a.7.7,0,0,1,.228.5c.124-.089.243-.178.287-.2A1.474,1.474,0,0,0,370.36,459.412Zm-1.313,1.452c-.1.129-.213.287-.154.332s.233-.069.426-.218a.4.4,0,0,1-.149-.045A.607.607,0,0,1,369.047,460.864Z" transform="translate(-201.782 -119.585)" fill="#fd982f"/>
          <path id="Path_1961" data-name="Path 1961" d="M367.3,459.015a2.131,2.131,0,0,0,.411-1.8c-.183-.54-.694-.882-1.769-1.075-2.774-.5-4.553,2.294-4.335,4.221a3.845,3.845,0,0,0,3.394,3.364c1.442.2,2.517-.228,2.665-.9.134-.55-.377-.991-.8-1.675S366.848,459.673,367.3,459.015Zm-.9-.1a.679.679,0,0,1-.758.4c-.193.149-.381.253-.426.218s.054-.2.154-.332a.5.5,0,0,1-.168-.173.679.679,0,0,1-.069-.659l.045-.089a.694.694,0,0,1,.862-.273.763.763,0,0,1,.183.114c.164-.134.431-.431.461-.372s.134.614.054.659-.163.114-.287.2a.64.64,0,0,1-.05.287Z" transform="translate(-198.107 -117.909)" fill="#e8b442"/>
          <path id="Path_1962" data-name="Path 1962" d="M370.309,460.091c-.045.025-.164.114-.287.2l-.362.277a1.765,1.765,0,0,1-.446.426c-.193.149-.382.253-.426.218s.055-.2.154-.332l.139-.154a2.224,2.224,0,0,0-.307,0,.679.679,0,0,1-.069-.659l.045-.089a2.16,2.16,0,0,1,.936-.089.307.307,0,0,0,.109-.069c.164-.134.431-.431.461-.372S370.379,460.047,370.309,460.091Z" transform="translate(-201.667 -119.605)" fill="#fd95a4"/>
          <path id="Path_1963" data-name="Path 1963" d="M366.319,459.028a.5.5,0,1,1-.478-.366A.5.5,0,0,1,366.319,459.028Z" transform="translate(-200 -119.21)" fill="#8065bf"/>
          <path id="Path_1964" data-name="Path 1964" d="M368.251,468.105a.5.5,0,1,1-.5-.5A.5.5,0,0,1,368.251,468.105Z" transform="translate(-200.966 -123.725)" fill="#fdd5a4"/>
          <ellipse id="Ellipse_117" data-name="Ellipse 117" cx="0.58" cy="0.58" rx="0.58" ry="0.58" transform="translate(164.302 340.828)" fill="#347a5f"/>
          <path id="Path_1965" data-name="Path 1965" d="M365.089,465.88a.58.58,0,1,1-.58-.58A.58.58,0,0,1,365.089,465.88Z" transform="translate(-199.286 -122.56)" fill="#fc5e4d"/>
          <path id="Path_1966" data-name="Path 1966" d="M418.822,521.958c0-.2-.912-.54-1.511-.708.183.109.362.263.084.352a2.1,2.1,0,0,1-1.585-.272,1.862,1.862,0,0,0-.1.743C415.721,522.34,418.822,522.479,418.822,521.958Z" transform="translate(-225.408 -150.79)" fill="#3b2b5b"/>
          <path id="Path_1967" data-name="Path 1967" d="M417.515,521.152c.277-.089.1-.243-.084-.352-.372-.1-.684-.178-.753-.208a.426.426,0,0,1-.238-.238l-.188-.035s.129.253-.218.391c-.059,0-.074.1-.1.168A2.1,2.1,0,0,0,417.515,521.152Z" transform="translate(-225.523 -150.321)" fill="#fd95a4"/>
          <path id="Path_1968" data-name="Path 1968" d="M387.555,525.551c-.079-.307.912-1.333,1.318-1.541-.119.124-.282.372-.079.446a1.026,1.026,0,0,0,1.026-.466,3.061,3.061,0,0,1,.139.773C389.973,525.045,387.744,526.239,387.555,525.551Z" transform="translate(-211.204 -152.172)" fill="#3b2b5b"/>
          <path id="Path_1969" data-name="Path 1969" d="M389.383,524.163c-.2-.074.208-.56.327-.684a2.919,2.919,0,0,1,.451-.322.451.451,0,0,0,.149-.268l.213-.049a.52.52,0,0,0,.1.4.812.812,0,0,1,.089.173C390.548,523.732,389.661,524.272,389.383,524.163Z" transform="translate(-212.1 -151.592)" fill="#fd95a4"/>
          <path id="Path_1970" data-name="Path 1970" d="M393.676,449.521a16.592,16.592,0,0,0-2.433,4.409c-1.4,4.1-1.353,6.114-1.486,10.048-.173,4.87.7,21.611.7,21.611l1.016-.04,4.984-27.779,6.015,26.258s.892.624.9-.04c.084-4.459,0-24.475-.307-26.665-.639-4.588-1.655-7.56-2.477-8.754C399.775,448.847,395.355,449.918,393.676,449.521Z" transform="translate(-212.305 -114.119)" fill="#3b2b5b"/>
          <path id="Path_1971" data-name="Path 1971" d="M393.676,450.49a16.592,16.592,0,0,0-2.433,4.409c-1.4,4.1-1.353,6.114-1.486,10.048-.173,4.87.7,21.611.7,21.611h.5s.58-14.145,1.021-18.7c.773-7.977,5.772-17.316,5.772-17.316A33.131,33.131,0,0,1,393.676,450.49Z" transform="translate(-212.305 -115.087)" fill="#30193c"/>
          <path id="Path_1972" data-name="Path 1972" d="M391.776,430.992c1.278-2.091,6.48-2.814,7.9-1.6,1.536,1.328,3.136,8.7,3.136,8.7a12.928,12.928,0,0,1-5.242,1.9,8.467,8.467,0,0,1-4.092-.188,14.127,14.127,0,0,0-.461-4.246c-.307-.991-.763-1.952-1.07-2.75S391.513,431.428,391.776,430.992Z" transform="translate(-213.264 -104.145)" fill="#8065bf"/>
          <path id="Path_1973" data-name="Path 1973" d="M387.219,432.073c.188-.471.931-1.546-.327-.991-.377.164-.05-.277-.8.183-1.952,1.189-6.213,5.237-7.149,7.352-.58,1.308,2.438.758,2.438.758l3.711-4.732S387.12,432.32,387.219,432.073Z" transform="translate(-206.824 -105.216)" fill="#8065bf"/>
          <path id="Path_1974" data-name="Path 1974" d="M409.544,415a34.6,34.6,0,0,1-1.982,4.187c-.5.674-.59,1.248-3.052,2.675-.713.416,1.372,1.714,1.893,2.244a15.78,15.78,0,0,0,4.622-7.2C411.486,415.411,409.544,415,409.544,415Z" transform="translate(-219.687 -97.181)" fill="#725cb5"/>
          <path id="Path_1975" data-name="Path 1975" d="M413.05,399.81c-.084,1.209.426,7.486.426,7.486s1.05,2.5,1.982.728A16.918,16.918,0,0,0,417.1,402.3a5.5,5.5,0,0,0-2.155-4.642S413.13,398.611,413.05,399.81Z" transform="translate(-224.065 -88.432)" fill="#725cb5"/>
          <path id="Path_1976" data-name="Path 1976" d="M403,428.8h.5c1.194.045,2.056-.094,2.353.4,1.189,1.982,2.73,8.918,2.73,8.918s-.109.223-.728.545a17.548,17.548,0,0,1-2.973,1.026,30.944,30.944,0,0,0-.089-6.49A17.9,17.9,0,0,0,403,428.8Z" transform="translate(-218.999 -104.144)" fill="#725cb5"/>
          <path id="Path_1977" data-name="Path 1977" d="M370.576,450.552c.292-2.661,3.27-4.989,4.811-6.713.674-.758,2.7-.03,2.7-.03l-1.318,2.908s-2.333,4.677-3.582,5.5C372.612,452.6,370.368,452.474,370.576,450.552Z" transform="translate(-202.632 -111.558)" fill="#8065bf"/>
          <path id="Path_1978" data-name="Path 1978" d="M415.851,396.9a.134.134,0,0,0,.1-.129,2.9,2.9,0,0,0-.084-.823c-.134-.347-.307-.5-.426-.5a2,2,0,0,0-.228,0,.307.307,0,0,0-.268,0c-.069.04.188.52.094.58s-.248-.277-.352-.178.431.585.55.684a2,2,0,0,1,.238.327.129.129,0,0,0,.124.064A1.328,1.328,0,0,0,415.851,396.9Z" transform="translate(-224.889 -87.3)" fill="#fd95a4"/>
          <path id="Path_1979" data-name="Path 1979" d="M414.906,395.458a13.511,13.511,0,0,1,2.522,1.917,13.293,13.293,0,0,1-2.779-1.516,9.688,9.688,0,0,1-1.258-.941l.144-.218A9.075,9.075,0,0,1,414.906,395.458Z" transform="translate(-224.241 -86.938)" fill="#fd982f"/>
          <path id="Path_1980" data-name="Path 1980" d="M411.6,393.569a.679.679,0,0,0-.124-.8c-.332-.307-.629-.159-.922-.114-.53.079-.783-.411-.887-.357a2.282,2.282,0,0,0,.624,1.328A.862.862,0,0,0,411.6,393.569Z" transform="translate(-222.357 -85.723)" fill="#fdc948"/>
          <path id="Path_1981" data-name="Path 1981" d="M399.721,425.65a12.884,12.884,0,0,1,.827,1.66c0,.228-.055.624-.347.441-.426-.272-.9-1.907-.9-1.907Z" transform="translate(-217.132 -102.554)" fill="#fd95a4"/>
          <path id="Path_1982" data-name="Path 1982" d="M400.477,427.173a.377.377,0,0,1-.664.059,4.677,4.677,0,0,1-.223-.58l.5-.223c.094.173.213.372.322.59C400.447,427.1,400.437,427.1,400.477,427.173Z" transform="translate(-217.278 -102.948)" fill="#c75d77"/>
          <path id="Path_1983" data-name="Path 1983" d="M395.4,422.416s-1.982-.461-2.319-1.868.733-2.334,1.362-2.116c0,0,.253-.614.723-.679s2.254.357,2.383,1.769S395.4,422.416,395.4,422.416Z" transform="translate(-213.964 -98.567)" fill="#3b2b5b"/>
          <path id="Path_1984" data-name="Path 1984" d="M396.683,426.436a3.5,3.5,0,0,0-.639,2.477,4.726,4.726,0,0,0,2.636,3.587,3.862,3.862,0,0,1,1.932,1.263,3.3,3.3,0,0,0-1.021-3.78c-1.283-1.219-2.433-2.388-2.284-3.156S396.683,426.436,396.683,426.436Z" transform="translate(-215.476 -102.904)" fill="#3b2b5b"/>
          <path id="Path_1985" data-name="Path 1985" d="M396.713,423.6a5.068,5.068,0,0,1-.525-1.357.882.882,0,0,1,.619-1.085,5.9,5.9,0,0,1,1.813-.327c.406.1.565.575.694.927a2.681,2.681,0,0,1,.114,1.4,1.8,1.8,0,0,1-.936.887C397.5,424.382,397.139,424.209,396.713,423.6Z" transform="translate(-215.546 -100.122)" fill="#fd95a4"/>
          <path id="Path_1986" data-name="Path 1986" d="M396.5,423.059a4.692,4.692,0,0,0,1.253-2.413s-1.511-.074-1.823.426.089,1.828.223,2.244Z" transform="translate(-215.374 -100.027)" fill="#3b2b5b"/>
          <path id="Path_1987" data-name="Path 1987" d="M398.17,419.843a7.671,7.671,0,0,1,1.645.788,2.3,2.3,0,0,1,.817.9,1.684,1.684,0,0,0-.53-1.982C399.4,419.026,398.17,419.843,398.17,419.843Z" transform="translate(-216.562 -99.388)" fill="#3b2b5b"/>
          <path id="Path_1988" data-name="Path 1988" d="M395.064,417.76a.743.743,0,0,0-.426.263,1.486,1.486,0,0,0-.268.426h-.035a.778.778,0,0,0-.639.134,1.59,1.59,0,0,0-.461.5,1.947,1.947,0,0,0,.5,2.448,4,4,0,0,0,1.214.654.109.109,0,0,1,.064.139h0a3.964,3.964,0,0,0-.5,2.185,4.058,4.058,0,0,0,.842,2.081,4.138,4.138,0,0,0,1.719,1.486,5.8,5.8,0,0,1,1.045.54,5.219,5.219,0,0,1,.5.342c.074.064.149.129.218.2a.425.425,0,0,1,.159.238c0-.094-.109-.154-.173-.223l-.228-.183a5.433,5.433,0,0,0-.5-.317,6.492,6.492,0,0,0-1.055-.5,4.736,4.736,0,0,1-2.735-3.656,3.963,3.963,0,0,1,.5-2.309l.054.159a4.257,4.257,0,0,1-1.268-.7,2.076,2.076,0,0,1-.5-2.666,1.6,1.6,0,0,1,.5-.5.882.882,0,0,1,.713-.109h-.04a1.621,1.621,0,0,1,.3-.426A.773.773,0,0,1,395.064,417.76Z" transform="translate(-213.857 -98.573)" fill="#8065bf"/>
          <path id="Path_1989" data-name="Path 1989" d="M394.476,416.509c.58.555.064,1.085-.659,1.982s-1.313,1.764-1.982,1.288c-.5-.372-.5-1.516.213-2.423S394,416.058,394.476,416.509Z" transform="translate(-213.19 -97.847)" fill="#347a5f"/>
          <path id="Path_1990" data-name="Path 1990" d="M395.59,418.494c-.2.258-.4.5-.59.733a4.267,4.267,0,0,0,.639-2.15,1.858,1.858,0,0,0-.168-.743.911.911,0,0,1,.778.168C396.828,417.057,396.318,417.592,395.59,418.494Z" transform="translate(-214.962 -97.84)" fill="#256648"/>
          <path id="Path_1991" data-name="Path 1991" d="M392.258,417.917a1.392,1.392,0,0,0-.733-.327c-.109,0-.223.109-.183.159a2.8,2.8,0,0,1,.872.243Z" transform="translate(-213.112 -98.487)" fill="#347a5f"/>
          <rect id="Rectangle_1214" data-name="Rectangle 1214" width="20.318" height="23.821" transform="translate(259.266 235.87) rotate(-20.55)" fill="#d3e8f3"/>
          <path id="Path_1992" data-name="Path 1992" d="M580.748,238.945l6.317,16.84L573.5,260.874l-1.709,3.755,19.03-7.134-1.026-2.73-7.338-19.575Z" transform="translate(-304.163 -6.456)" fill="#92b8de"/>
          <rect id="Rectangle_1215" data-name="Rectangle 1215" width="17.985" height="14.487" transform="translate(276.585 232.49) rotate(69.45)" fill="#b9d7ed"/>
          <rect id="Rectangle_1216" data-name="Rectangle 1216" width="20.318" height="23.821" transform="translate(278.293 228.739) rotate(-20.55)" fill="#d3e8f3"/>
          <path id="Path_1993" data-name="Path 1993" d="M619.153,224.555l6.317,16.84L611.9,246.479l-1.7,3.755,19.025-7.134-1.026-2.73-7.338-19.57Z" transform="translate(-323.543 0.805)" fill="#92b8de"/>
          <rect id="Rectangle_1217" data-name="Rectangle 1217" width="17.985" height="14.487" transform="translate(295.608 225.363) rotate(69.45)" fill="#b9d7ed"/>
          <rect id="Rectangle_1218" data-name="Rectangle 1218" width="20.318" height="23.821" transform="translate(297.319 221.608) rotate(-20.55)" fill="#d3e8f3"/>
          <path id="Path_1994" data-name="Path 1994" d="M657.553,210.155,663.87,227,650.3,232.084l-1.7,3.75,19.025-7.129-1.026-2.73L659.262,206.4Z" transform="translate(-342.918 8.07)" fill="#92b8de"/>
          <rect id="Rectangle_1219" data-name="Rectangle 1219" width="17.985" height="14.487" transform="translate(314.635 218.229) rotate(69.45)" fill="#b9d7ed"/>
          <rect id="Rectangle_1220" data-name="Rectangle 1220" width="20.318" height="23.821" transform="translate(267.633 258.175) rotate(-20.55)" fill="#d3e8f3"/>
          <path id="Path_1995" data-name="Path 1995" d="M597.628,283.965l6.312,16.84-13.56,5.088-1.709,3.75,19.025-7.129-1.026-2.73-7.333-19.575Z" transform="translate(-312.68 -29.171)" fill="#92b8de"/>
          <rect id="Rectangle_1221" data-name="Rectangle 1221" width="17.985" height="14.487" transform="translate(284.943 254.794) rotate(69.45)" fill="#b9d7ed"/>
          <rect id="Rectangle_1222" data-name="Rectangle 1222" width="20.318" height="23.821" transform="translate(286.654 251.039) rotate(-20.55)" fill="#d3e8f3"/>
          <path id="Path_1996" data-name="Path 1996" d="M636.028,269.565l6.312,16.845-13.56,5.083-1.709,3.755,19.025-7.134-1.026-2.73-7.333-19.575Z" transform="translate(-332.055 -21.906)" fill="#92b8de"/>
          <rect id="Rectangle_1223" data-name="Rectangle 1223" width="17.985" height="14.487" transform="translate(303.969 247.661) rotate(69.45)" fill="#b9d7ed"/>
          <rect id="Rectangle_1224" data-name="Rectangle 1224" width="20.318" height="23.821" transform="translate(305.682 243.913) rotate(-20.55)" fill="#d3e8f3"/>
          <path id="Path_1997" data-name="Path 1997" d="M674.428,255.175l6.312,16.84-13.56,5.083-1.709,3.755,19.025-7.129-1.026-2.73-7.333-19.575Z" transform="translate(-351.43 -14.645)" fill="#92b8de"/>
          <rect id="Rectangle_1225" data-name="Rectangle 1225" width="17.985" height="14.487" transform="translate(322.991 240.529) rotate(69.45)" fill="#b9d7ed"/>
          <rect id="Rectangle_1226" data-name="Rectangle 1226" width="20.318" height="23.821" transform="translate(275.991 280.481) rotate(-20.55)" fill="#d3e8f3"/>
          <path id="Path_1998" data-name="Path 1998" d="M614.508,328.985l6.312,16.84-13.565,5.083-1.7,3.755,19.025-7.129-1.026-2.735-7.337-19.57Z" transform="translate(-321.197 -51.886)" fill="#92b8de"/>
          <rect id="Rectangle_1227" data-name="Rectangle 1227" width="17.985" height="14.487" transform="translate(293.306 277.098) rotate(69.45)" fill="#b9d7ed"/>
          <rect id="Rectangle_1228" data-name="Rectangle 1228" width="20.318" height="23.821" transform="translate(295.012 273.346) rotate(-20.55)" fill="#d3e8f3"/>
          <path id="Path_1999" data-name="Path 1999" d="M652.908,314.585l6.312,16.84-13.565,5.088-1.7,3.755,19.025-7.134-1.026-2.73-7.338-19.575Z" transform="translate(-340.572 -44.621)" fill="#92b8de"/>
          <rect id="Rectangle_1229" data-name="Rectangle 1229" width="17.985" height="14.487" transform="translate(312.332 269.965) rotate(69.45)" fill="#b9d7ed"/>
          <rect id="Rectangle_1230" data-name="Rectangle 1230" width="20.318" height="23.821" transform="translate(314.038 266.215) rotate(-20.55)" fill="#d3e8f3"/>
          <path id="Path_2000" data-name="Path 2000" d="M691.308,300.19l6.312,16.845-13.565,5.083-1.7,3.755,19.025-7.134-1.026-2.73-7.338-19.57Z" transform="translate(-359.947 -37.36)" fill="#92b8de"/>
          <rect id="Rectangle_1231" data-name="Rectangle 1231" width="17.985" height="14.487" transform="translate(331.359 262.832) rotate(69.45)" fill="#b9d7ed"/>
          <rect id="Rectangle_1232" data-name="Rectangle 1232" width="20.318" height="23.821" transform="translate(284.352 302.782) rotate(-20.55)" fill="#d3e8f3"/>
          <path id="Path_2001" data-name="Path 2001" d="M631.378,374l6.317,16.845-13.565,5.083-1.709,3.755,19.025-7.134-1.021-2.73-7.337-19.57Z" transform="translate(-329.709 -74.602)" fill="#92b8de"/>
          <rect id="Rectangle_1233" data-name="Rectangle 1233" width="17.985" height="14.487" transform="translate(301.667 299.396) rotate(69.45)" fill="#b9d7ed"/>
          <rect id="Rectangle_1234" data-name="Rectangle 1234" width="20.318" height="23.821" transform="translate(303.379 295.65) rotate(-20.55)" fill="#d3e8f3"/>
          <path id="Path_2002" data-name="Path 2002" d="M669.778,359.605l6.317,16.84-13.565,5.083-1.709,3.755,19.025-7.129-1.021-2.73-7.338-19.575Z" transform="translate(-349.084 -67.336)" fill="#92b8de"/>
          <rect id="Rectangle_1235" data-name="Rectangle 1235" width="17.985" height="14.487" transform="translate(320.689 292.27) rotate(69.45)" fill="#b9d7ed"/>
          <rect id="Rectangle_1236" data-name="Rectangle 1236" width="20.318" height="23.821" transform="translate(322.4 288.52) rotate(-20.55)" fill="#d3e8f3"/>
          <path id="Path_2003" data-name="Path 2003" d="M708.178,345.206l6.317,16.84-13.565,5.088-1.709,3.755,19.025-7.134-1.021-2.73-7.337-19.575Z" transform="translate(-368.459 -60.07)" fill="#92b8de"/>
          <rect id="Rectangle_1237" data-name="Rectangle 1237" width="17.985" height="14.487" transform="translate(339.715 285.136) rotate(69.45)" fill="#b9d7ed"/>
          <rect id="Rectangle_1238" data-name="Rectangle 1238" width="20.318" height="23.821" transform="translate(292.714 325.087) rotate(-20.55)" fill="#d3e8f3"/>
          <path id="Path_2004" data-name="Path 2004" d="M648.258,419.015l6.312,16.84-13.56,5.088L639.3,444.7l19.025-7.134-1.026-2.73-7.338-19.575Z" transform="translate(-338.226 -97.312)" fill="#92b8de"/>
          <rect id="Rectangle_1239" data-name="Rectangle 1239" width="17.985" height="14.487" transform="translate(310.03 321.705) rotate(69.45)" fill="#b9d7ed"/>
          <rect id="Rectangle_1240" data-name="Rectangle 1240" width="20.318" height="23.821" transform="translate(311.742 317.956) rotate(-20.55)" fill="#d3e8f3"/>
          <path id="Path_2005" data-name="Path 2005" d="M686.658,404.62l6.312,16.845-13.56,5.083L677.7,430.3l19.025-7.134-1.026-2.73-7.338-19.57Z" transform="translate(-357.601 -90.051)" fill="#92b8de"/>
          <rect id="Rectangle_1241" data-name="Rectangle 1241" width="17.985" height="14.487" transform="translate(329.056 314.572) rotate(69.45)" fill="#b9d7ed"/>
          <rect id="Rectangle_1242" data-name="Rectangle 1242" width="20.318" height="23.821" transform="translate(330.763 310.82) rotate(-20.55)" fill="#d3e8f3"/>
          <path id="Path_2006" data-name="Path 2006" d="M725.058,390.225l6.312,16.84-13.56,5.088L716.1,415.9l19.025-7.129-1.026-2.73-7.338-19.575Z" transform="translate(-376.976 -82.786)" fill="#92b8de"/>
          <rect id="Rectangle_1243" data-name="Rectangle 1243" width="17.985" height="14.487" transform="translate(348.078 307.44) rotate(69.45)" fill="#b9d7ed"/>
          <rect id="Rectangle_1244" data-name="Rectangle 1244" width="60.989" height="58.576" transform="translate(280.511 292.541) rotate(-20.55)" fill="#347a5f"/>
          <rect id="Rectangle_1245" data-name="Rectangle 1245" width="4.489" height="58.576" transform="translate(333.414 272.702) rotate(-20.55)" fill="#256648"/>
          <rect id="Rectangle_1246" data-name="Rectangle 1246" width="4.489" height="58.576" transform="translate(280.515 292.542) rotate(-20.55)" fill="#3c886b"/>
          <path id="Path_2007" data-name="Path 2007" d="M694.953,422.89l1.575,4.2L639.3,448.549l2.631-5.782Z" transform="translate(-338.226 -101.162)" fill="#256648"/>
          <path id="Path_2008" data-name="Path 2008" d="M597.8,342.163l49.163,8.953,7.947-30.366Z" transform="translate(-317.287 -49.626)" fill="#256648"/>
          <path id="Path_2009" data-name="Path 2009" d="M654.91,320.76l-10.865,26.392L597.8,342.168Z" transform="translate(-317.287 -49.631)" fill="#fdd5a4"/>
          <path id="Path_2010" data-name="Path 2010" d="M615.549,225.3c-.426-.7.619-1.085,1.149-1.486-.114.168-.243.4.035.362a1.982,1.982,0,0,0,1.283-.882,1.854,1.854,0,0,1,.391.609C618.506,224.162,615.667,225.49,615.549,225.3Z" transform="translate(-326.192 -0.452)" fill="#30193c"/>
          <path id="Path_2011" data-name="Path 2011" d="M617.711,223.268c-.277.035-.431-.1-.079-.332a3.114,3.114,0,0,0,.59-.5,2.792,2.792,0,0,0,.164-.912l.4-.069a7.781,7.781,0,0,0,.208.926A1.982,1.982,0,0,1,617.711,223.268Z" transform="translate(-327.19 0.472)" fill="#fd95a4"/>
          <path id="Path_2012" data-name="Path 2012" d="M635.757,261.911c-.451-.689.58-1.11,1.1-1.486-.109.173-.233.406.045.357a1.982,1.982,0,0,0,1.253-.922,1.863,1.863,0,0,1,.411.594A7.356,7.356,0,0,1,635.757,261.911Z" transform="translate(-336.382 -18.903)" fill="#30193c"/>
          <path id="Path_2013" data-name="Path 2013" d="M637.887,260.247c-.277.05-.436-.089-.089-.327a2.907,2.907,0,0,0,.57-.5.564.564,0,0,0,.064-.426l.3-.149s.357.451.411.5A1.981,1.981,0,0,1,637.887,260.247Z" transform="translate(-337.368 -18.394)" fill="#fd95a4"/>
          <path id="Path_2014" data-name="Path 2014" d="M635.453,197.771s-5.529-1.144-5.643-1.13c-.372.5-1.813,3.612-1.813,3.612s-7.461-6.555-10.281-4.31c-2.715,2.16-.56,11.95.04,12.971.218.377,1.328-.56,1.328-.56.2-1.486.892-7.858.892-7.858s4.89,5.613,10.266,6.153C631.509,206.779,635.453,197.771,635.453,197.771Z" transform="translate(-326.66 13.583)" fill="#8065bf"/>
          <path id="Path_2015" data-name="Path 2015" d="M641.925,198.36h3.5c4.182,9.909,1.546,10.607.139,11.638-.912.674-7.1,5.3-7.1,5.3s-.788,13.075-1.244,13.114-.951.268-1.3.139c-.045,0-3.562-14.447-1.11-17.217l5.207-5.836Z" transform="translate(-335.52 12.127)" fill="#6f59b3"/>
          <path id="Path_2016" data-name="Path 2016" d="M649.241,189.452a36.4,36.4,0,0,0,.248-6.035c-.04-.778-.961-3.741-2.195-4.038-.614-.149-4.167-.248-6.049.892-.832.5-.991,7.927-.287,10.176C641.25,191.325,649.122,191.4,649.241,189.452Z" transform="translate(-338.838 21.748)" fill="#fc5e4d"/>
          <path id="Path_2017" data-name="Path 2017" d="M652.29,179.3a6.739,6.739,0,0,1,3.121.555,5.88,5.88,0,0,1,1.67,2.16,51.676,51.676,0,0,1,2.784,7.258c.3,1.377-.991.609-2.418.619l-.406-.917a26.69,26.69,0,0,1-1.774-4.489C654.8,183.37,652.29,179.3,652.29,179.3Z" transform="translate(-344.78 21.751)" fill="#f64a3d"/>
          <path id="Path_2018" data-name="Path 2018" d="M637.639,181.449s0-1.115-1.06-.144a27.388,27.388,0,0,0-2.571,3.542c-.807,1.382-2.378,3.775-2.338,4.954.045,1.407,2.056.694,2.056.694s2.6-3.508,3.265-5.9C637.312,183.431,637.639,181.449,637.639,181.449Z" transform="translate(-334.375 20.932)" fill="#fc5e4d"/>
          <path id="Path_2019" data-name="Path 2019" d="M633.043,206.047c.307-.332,0-7.174-.089-7.739a1.12,1.12,0,0,0-1.853-.53c-.327.277-.56,3-.768,4.241C629.981,204.134,630.546,208.762,633.043,206.047Z" transform="translate(-333.654 12.575)" fill="#fc5e4d"/>
          <path id="Path_2020" data-name="Path 2020" d="M653.711,183.413a37.145,37.145,0,0,1-.243,6.034c-.064,1.055-2.408,1.516-4.588,1.576a62.429,62.429,0,0,0,.06-11.683,10.687,10.687,0,0,1,2.566.04C652.745,179.672,653.671,182.635,653.711,183.413Z" transform="translate(-343.06 21.753)" fill="#f64a3d"/>
          <path id="Path_2021" data-name="Path 2021" d="M646.88,177.572s.253,1.273.426,1.353a.644.644,0,0,0,.807-.347c.129-.4-.56-1.308-.56-1.308Z" transform="translate(-342.05 22.768)" fill="#fd95a4"/>
          <path id="Path_2022" data-name="Path 2022" d="M647.169,178.731c.3,0,.614-.337.813-.664-.084-.218-.084-.144-.193-.307l-.778.347C647.05,178.29,647.109,178.523,647.169,178.731Z" transform="translate(-342.116 22.521)" fill="#c75d77"/>
          <path id="Path_2023" data-name="Path 2023" d="M646.109,173.957a5.047,5.047,0,0,0-.525-1.323.842.842,0,0,0-1.14-.362,5.6,5.6,0,0,0-1.486.991c-.213.347,0,.793.124,1.13a2.626,2.626,0,0,0,.837,1.075,1.685,1.685,0,0,0,1.234,0C646.059,175.032,646.208,174.68,646.109,173.957Z" transform="translate(-340.026 25.338)" fill="#fd95a4"/>
          <path id="Path_2024" data-name="Path 2024" d="M641.912,168.225a2.779,2.779,0,0,1,.049-.57.078.078,0,0,0-.1-.084,1.324,1.324,0,0,0-.5.273,1.259,1.259,0,0,1,.05-.228.082.082,0,0,0-.129-.079,2.12,2.12,0,0,0-.689.912,3.314,3.314,0,0,0-2.839.109.1.1,0,0,0,.05.183c.956-.05-.035.168-.258.3a2.327,2.327,0,0,0-.5.357,4.342,4.342,0,0,0-.862,1.209c-.05.1.089.173.159.1a1.838,1.838,0,0,1,1.268-.585c.154-.035.2-.035.124,0a5.689,5.689,0,0,0-.5.461.1.1,0,0,0,.089.168c.877,0,1.249.5,2.145.2a5.45,5.45,0,0,0,1.075-.54c.669-.5,1.045-.436,1.58.183.173.228.347.456.5.694.084.119.223.159.263-.213A5.659,5.659,0,0,0,641.912,168.225Z" transform="translate(-336.651 27.686)" fill="#80540a"/>
          <path id="Path_2025" data-name="Path 2025" d="M641.232,167.734l.04-.193a.084.084,0,0,0-.089-.119,1.451,1.451,0,0,0-.287.263,1.922,1.922,0,0,0-.406.664.025.025,0,0,1-.035,0h0a3.245,3.245,0,0,0-1.982-.173,4.114,4.114,0,0,0-.5.144l-.233.1-.114.054c-.035,0-.04.025-.04.05s0,.045.04.045a.494.494,0,0,0,.119,0,2.339,2.339,0,0,1,.263,0h.04s.069.045.054.069a.094.094,0,0,1-.025.045h-.035l-.119.05-.243.084a2.14,2.14,0,0,0-.817.545,3.842,3.842,0,0,0-.59.808l-.124.223c-.054.089-.064.109,0,.124s.094-.069.164-.124a2.3,2.3,0,0,1,.208-.159,1.744,1.744,0,0,1,.991-.317h.164v.059c0,.01,0,0-.025,0h0a2.546,2.546,0,0,1-.287.282l-.149.124c-.049.05-.089.079-.074.124s.064.054.134.054a1.294,1.294,0,0,1,.2,0,2.111,2.111,0,0,1,.386.069c.253.064.5.168.743.208a1.66,1.66,0,0,0,.763-.055,1.674,1.674,0,0,1-.768.079c-.258-.03-.5-.124-.753-.178a2.391,2.391,0,0,0-.377-.064,1.256,1.256,0,0,0-.193,0c-.05,0-.168,0-.193-.094a.2.2,0,0,1,.089-.2l.144-.129c.089-.084.2-.183.268-.253v-.025h0v.03h-.139a1.68,1.68,0,0,0-.927.317,1.486,1.486,0,0,0-.193.154l-.094.089a.158.158,0,0,1-.149.059.139.139,0,0,1-.124-.129.332.332,0,0,1,.059-.139l.124-.223a2.774,2.774,0,0,1,1.457-1.4l.243-.079.109-.045h0s.03.045,0,.035h0a1.306,1.306,0,0,0-.243,0,1.3,1.3,0,0,1-.139,0,.144.144,0,0,1,0-.273l.114-.05a2.419,2.419,0,0,1,.238-.1,3.526,3.526,0,0,1,.5-.144,3.28,3.28,0,0,1,2.007.2h-.035a2.033,2.033,0,0,1,.436-.664,1.667,1.667,0,0,1,.3-.253.089.089,0,0,1,.1.129Z" transform="translate(-336.541 27.796)" fill="#a67c1b"/>
          <path id="Path_2026" data-name="Path 2026" d="M631.917,218.235l-.927-.382,2.69-6.535a.5.5,0,0,1,.649-.268h0a.5.5,0,0,1,.272.649Z" transform="translate(-334.033 5.743)" fill="#295a6e"/>
          <path id="Path_2027" data-name="Path 2027" d="M636.18,211.387a.541.541,0,0,1-.04.193l-1.174,2.859-.927-.377,1.174-2.869a.5.5,0,1,1,.991.193Z" transform="translate(-335.572 5.857)" fill="#fdd5a4"/>
          <path id="Path_2028" data-name="Path 2028" d="M632.663,214.754c-.06.05-.159.228-.129.3a3.747,3.747,0,0,0,.322.907c.109.178.3.525.58.6,0,0,.1-.04,0-.183,0,0,.307.332.441.277s.04-.248.04-.248a.109.109,0,0,0,.144-.079,5.212,5.212,0,0,0-.5-1.026l.069-.178a1.681,1.681,0,0,0-.362-.272,1.841,1.841,0,0,1-.278-.218C632.936,214.58,632.762,214.665,632.663,214.754Z" transform="translate(-334.809 3.923)" fill="#fd95a4"/>
          <path id="Path_2029" data-name="Path 2029" d="M643.29,209.565l.847-.565,3.235,4.618a.5.5,0,0,1-.124.718h0a.5.5,0,0,1-.719-.129Z" transform="translate(-340.239 6.758)" fill="#295a6e"/>
          <rect id="Rectangle_1247" data-name="Rectangle 1247" width="1.029" height="2.687" transform="matrix(0.821, -0.571, 0.571, 0.821, 302.986, 217.663)" fill="#fdd5a4"/>
          <path id="Path_2030" data-name="Path 2030" d="M643.761,207.065a.049.049,0,0,1-.035.079,1.486,1.486,0,0,0-1.249.664l-.852.595s-.272-.188-.456-.064-.094.451-.094.451l-.272.193a.2.2,0,0,1-.273-.05l-.5-.694a.2.2,0,0,1,.049-.272l.292-.2a.555.555,0,0,0,.4,0c.168-.079.119-.386.119-.386l.57-.4C642.067,206.555,643.34,206.465,643.761,207.065Z" transform="translate(-338.58 7.95)" fill="#92b8de"/>
          <path id="Path_2031" data-name="Path 2031" d="M647.817,210.788a.178.178,0,0,1,.084.223c-.084.193-.035.272-.188.644,0,0-.743.991-1.3,1.09a.5.5,0,0,1-.322-.04c-.049-.025.307-.56.307-.56s-.5.5-.535.382a2.478,2.478,0,0,1,.674-1.154l-.124-.183a2.345,2.345,0,0,1,.555-.332,4.056,4.056,0,0,0,.456-.258C647.495,210.525,647.663,210.669,647.817,210.788Z" transform="translate(-341.536 5.962)" fill="#fd95a4"/>
          <path id="Path_2032" data-name="Path 2032" d="M647.57,203.477c-.069-.2,7.967-5.4,8.6-5.737s1.486.188,1.412,1.605c-.03.535-2.477,2.477-3.577,3.607C652.177,204.884,649.046,207.817,647.57,203.477Z" transform="translate(-342.398 12.49)" fill="#f64a3d"/>
          <path id="Path_2033" data-name="Path 2033" d="M574.73,373.231c.5-.178.991-.327,1.452-.5a7.348,7.348,0,0,0,.694-.307,2.474,2.474,0,0,0,.59-.4.573.573,0,0,0,.149-.2v-.03h0a.04.04,0,0,0,0,.025h0a.436.436,0,0,0-.1-.074,5.555,5.555,0,0,0-.689-.268c-.5-.159-.991-.3-1.486-.5a4.028,4.028,0,0,1-.372-.163,1.229,1.229,0,0,1-.188-.109.742.742,0,0,1-.2-.183.386.386,0,0,1-.074-.188.358.358,0,0,1,0-.124.164.164,0,0,1,.025-.059.2.2,0,0,1,0-.045.7.7,0,0,1,.208-.188,3.3,3.3,0,0,1,.381-.183c.5-.193.991-.327,1.486-.5a7.249,7.249,0,0,0,.7-.263l.154-.079a.378.378,0,0,0,.1-.079h0a.03.03,0,0,0,0,.03.035.035,0,0,0,0,.03l-.055-.045a3.2,3.2,0,0,0-.654-.287l-.728-.233-.738-.243-.377-.149a1.864,1.864,0,0,1-.386-.223l-.055-.049-.049-.064a.3.3,0,0,1-.045-.1.267.267,0,0,1,0-.124.386.386,0,0,1,.079-.2.688.688,0,0,1,.1-.1,1.687,1.687,0,0,1,.381-.218,7.592,7.592,0,0,1,.748-.273c.5-.163.991-.3,1.447-.5a1.486,1.486,0,0,0,.3-.154c.04-.025.055-.064.04,0s0,.045,0,0a1.257,1.257,0,0,0-.268-.168c-.1-.05-.223-.094-.337-.139-.471-.173-.966-.317-1.462-.5a4.152,4.152,0,0,1-.758-.312.6.6,0,0,1-.218-.2.36.36,0,0,1-.04-.129.154.154,0,0,1,0-.05v-.04a.493.493,0,0,1,.04-.149.718.718,0,0,1,.357-.377,3.082,3.082,0,0,1,.788-.233c.263-.05.5-.084.773-.119a7,7,0,0,0,.753-.134,1.81,1.81,0,0,0,.362-.114.371.371,0,0,0,.233-.268.257.257,0,0,1-.059.183.525.525,0,0,1-.144.134,1.979,1.979,0,0,1-.357.178c-.243.094-.5.164-.743.233s-.5.139-.738.218a2.84,2.84,0,0,0-.654.287.5.5,0,0,0-.178.168.091.091,0,0,0,0,.035h0V364.4c0,.005,0,0,.069.045a3.607,3.607,0,0,0,.669.273c.5.164.991.3,1.486.5.124.05.248.094.372.154a1.488,1.488,0,0,1,.386.253.621.621,0,0,1,.094.134v.159a.3.3,0,0,1,0,.064q0,.032,0,.064l-.025.044-.03.045-.025.03a.584.584,0,0,1-.109.094,2.058,2.058,0,0,1-.381.2c-.5.2-.991.332-1.486.5a6.886,6.886,0,0,0-.7.258,1.189,1.189,0,0,0-.287.159l-.035.03h0v-.03h0a1.218,1.218,0,0,0,.282.159,3.477,3.477,0,0,0,.342.134q.357.129.728.238l.738.243a3.184,3.184,0,0,1,.758.342.7.7,0,0,1,.1.084.638.638,0,0,1,.049.059.8.8,0,0,1,.049.089.371.371,0,0,1,0,.129.456.456,0,0,1,0,.119l-.045.089-.055.059a1.024,1.024,0,0,1-.2.154l-.188.1a7.6,7.6,0,0,1-.748.277c-.5.164-.991.3-1.452.5a2.71,2.71,0,0,0-.317.154.744.744,0,0,0-.079.059h0v-.03h0a.71.71,0,0,0,.233.159,3.371,3.371,0,0,0,.332.149c.466.173.961.317,1.457.5a5.778,5.778,0,0,1,.753.3,1.1,1.1,0,0,1,.208.149l.03.03.03.04.025.049a.281.281,0,0,1,0,.069.17.17,0,0,1,0,.069v.035a.382.382,0,0,1,0,.079.8.8,0,0,1-.282.426,2.623,2.623,0,0,1-.738.382,7.756,7.756,0,0,1-.753.228c-.258.064-.5.114-.763.164S574.953,373.171,574.73,373.231Z" transform="translate(-305.513 -70.943)" fill="#b9d7ed"/>
          <path id="Path_2034" data-name="Path 2034" d="M574.58,373.25c.5-.168,2.918-.708,3.017-1.561l-.421.084a.108.108,0,0,0,.03.074l.391-.159a2.68,2.68,0,0,0-.827-.362,11.452,11.452,0,0,1-1.486-.5l-.372-.163c-.5-.307-.57-.55-.154-.718.595-.763,2.106-.441,2.789-1.154h-.372a.183.183,0,0,0,0,.089l.4-.134c-.778-.619-2.036-.461-2.784-1.1-1.278-1.1,3.6-1.135,2.13-2.17-.619-.441-1.521-.332-2.13-.847-.966-.813,1.13-.966,1.8-1.09.466-.089.991-.144,1.2-.6l-.416.055c-.277.872-2.715.5-2.883,1.452l.416-.084a.144.144,0,0,0,0-.045l-.4.139c.54.377,3.161.708,3.082,1.516-.059.649-2.477.827-3.052,1.362h.377a.2.2,0,0,0,0-.094l-.391.154c.629.674,2.551.4,2.973,1.219s-2.329,1.179-2.973,1.66h.372a.184.184,0,0,0,0-.089l-.406.134c.689.471,2.611.555,3.012,1.258.52.907-2.373,1.367-2.973,1.486-.193.04-.347.277-.059.223.758-.139,3.493-.342,3.542-1.486.045-1.021-2.477-1.2-3.106-1.615-.089-.059-.436-.025-.406.134a.039.039,0,0,1,0,.035c-.064.154.337.035.377,0,.5-.4,3.077-.565,3.146-1.571s-2.6-.991-3.116-1.536c-.079-.079-.451,0-.406.139a.039.039,0,0,1,0,.035c-.035.164.322.05.377,0,.5-.471,3.007-.53,3.131-1.486.144-1.05-2.477-1.2-3.111-1.625-.084-.055-.446,0-.4.139a.144.144,0,0,1,0,.045c0,.134.4.025.416-.084.144-.818,2.561-.436,2.883-1.452.049-.154-.362-.054-.416.055-.426.862-3.121,0-3.285,1.318-.129,1.04,2.477,1.268,3.1,1.67a.347.347,0,0,0,.362-.1h0c.1-.144-.223-.1-.277-.084-.253.109-3.25.788-3.22,1.571.04,1.04,2.477,1.045,3.116,1.556.084.069.426,0,.4-.134a.044.044,0,0,1,0-.035c.044-.154-.327-.055-.377,0-.411.431-3.037.585-3.131,1.457-.114,1.115,2.522,1.189,3.111,1.655.109.084.5-.064.391-.159v-.03c0-.124-.406-.04-.421.084-.064.6-2.279,1.179-2.755,1.343C574.144,373.185,574.4,373.314,574.58,373.25Z" transform="translate(-305.308 -70.883)" fill="#b9d7ed"/>
          <path id="Path_2035" data-name="Path 2035" d="M590.35,214.564c.208.426.4.862.619,1.273a6.549,6.549,0,0,0,.352.6,2.2,2.2,0,0,0,.421.5.5.5,0,0,0,.2.114h0a.54.54,0,0,0,.054-.109,4.385,4.385,0,0,0,.173-.649c.094-.456.173-.926.292-1.4.035-.114.069-.233.114-.357a1.143,1.143,0,0,1,.079-.183.793.793,0,0,1,.144-.2.367.367,0,0,1,.164-.084.317.317,0,0,1,.119,0h.1a.539.539,0,0,1,.188.173,1.981,1.981,0,0,1,.208.327c.228.436.4.872.6,1.3a6.363,6.363,0,0,0,.307.609c.03.045.059.094.089.134a.5.5,0,0,0,.084.089h-.03l.035-.055a2.809,2.809,0,0,0,.193-.624c.054-.223.1-.456.144-.684s.089-.466.144-.7c.03-.114.059-.233.1-.352a1.356,1.356,0,0,1,.164-.377.46.46,0,0,1,.094-.109.273.273,0,0,1,.084-.05.228.228,0,0,1,.114,0,.351.351,0,0,1,.188.05.594.594,0,0,1,.1.084,1.52,1.52,0,0,1,.238.327c.124.218.223.436.322.649.2.436.376.877.59,1.273a1.554,1.554,0,0,0,.173.258c0,.035.059.04,0,.03s-.04,0,0,0a.959.959,0,0,0,.124-.258,2.4,2.4,0,0,0,.094-.322c.114-.451.188-.917.287-1.382a3.87,3.87,0,0,1,.208-.718.609.609,0,0,1,.164-.223.272.272,0,0,1,.114-.05h.084a.44.44,0,0,1,.139,0,.654.654,0,0,1,.377.287,2.628,2.628,0,0,1,.292.7c.074.228.129.461.188.689s.119.456.2.674a1.829,1.829,0,0,0,.144.317.327.327,0,0,0,.268.188.3.3,0,0,1-.173-.035.555.555,0,0,1-.139-.124,1.383,1.383,0,0,1-.2-.3,6.937,6.937,0,0,1-.292-.654c-.089-.223-.173-.441-.268-.649a2.326,2.326,0,0,0-.332-.57.411.411,0,0,0-.168-.144.045.045,0,0,0-.035,0h.035a.173.173,0,0,0-.04.069,3.5,3.5,0,0,0-.178.639c-.1.456-.173.922-.292,1.392a3.586,3.586,0,0,1-.1.357,1.254,1.254,0,0,1-.188.372.5.5,0,0,1-.114.1h-.377a.553.553,0,0,1-.094-.084,1.766,1.766,0,0,1-.223-.332c-.233-.436-.406-.872-.6-1.3a6,6,0,0,0-.307-.619,1.1,1.1,0,0,0-.173-.243l-.03-.03h0a1.329,1.329,0,0,0-.114.272c-.03.1-.059.218-.084.327-.054.223-.1.456-.144.689s-.094.461-.144.7a3.215,3.215,0,0,1-.233.723c0,.035-.04.064-.069.1a.538.538,0,0,0-.05.055l-.079.05a.312.312,0,0,1-.109.035.288.288,0,0,1-.114,0l-.084-.035a.249.249,0,0,1-.06-.04.7.7,0,0,1-.159-.164,1.036,1.036,0,0,1-.109-.163,5.8,5.8,0,0,1-.332-.654c-.2-.431-.377-.872-.589-1.273a1.988,1.988,0,0,0-.169-.272.179.179,0,0,0-.064-.064h.03a.77.77,0,0,0-.119.228,2.957,2.957,0,0,0-.1.317c-.114.446-.193.912-.292,1.377a4.2,4.2,0,0,1-.193.718.746.746,0,0,1-.109.2v.03l-.035.03-.04.03-.064.03h-.164a.708.708,0,0,1-.421-.208,2.391,2.391,0,0,1-.421-.634,5.994,5.994,0,0,1-.282-.669c-.084-.223-.159-.451-.228-.674S590.424,214.787,590.35,214.564Z" transform="translate(-313.528 4.509)" fill="#b9d7ed"/>
          <path id="Path_2036" data-name="Path 2036" d="M590.158,214.538c.2.421.946,2.586,1.734,2.586l-.119-.372a.094.094,0,0,0-.069.035l.188.337a2.559,2.559,0,0,0,.243-.788,10.15,10.15,0,0,1,.3-1.4c.035-.119.074-.238.109-.357.233-.5.446-.575.639-.213.758.466.614,1.878,1.338,2.428l-.035-.342a.144.144,0,0,0-.079,0l.163.352c.5-.773.213-1.9.718-2.646.872-1.283,1.4,3.161,2.195,1.719.337-.609.144-1.422.555-2.031.644-.961.991.936,1.179,1.531.129.416.228.877.664,1.04l-.089-.377c-.822-.168-.723-2.423-1.615-2.477l.119.372h.035l-.163-.352c-.287.53-.322,2.973-1.07,2.973-.6,0-.991-2.17-1.551-2.641l.035.342a.159.159,0,0,0,.084,0l-.163-.352c-.555.639-.109,2.363-.812,2.839s-1.308-1.982-1.813-2.527l.035.342a.163.163,0,0,0,.084,0c-.055-.119-.114-.238-.168-.352-.352.674-.238,2.433-.837,2.874-.773.565-1.486-2.026-1.655-2.586-.055-.173-.287-.287-.208-.03.2.674.669,3.146,1.734,3.072.931-.064.837-2.393,1.154-2.973.045-.089-.025-.4-.164-.357h-.03c-.149-.045,0,.307.035.342.406.426.822,2.75,1.744,2.71s.634-2.477,1.085-2.973c.069-.079-.045-.411-.163-.357a.04.04,0,0,1-.035,0c-.149,0,0,.3.035.342.5.406.788,2.685,1.67,2.705.991,0,.837-2.408,1.159-3,.045-.079,0-.406-.163-.352h-.04c-.119.025,0,.367.119.372.758.05.659,2.289,1.615,2.477.144,0,0-.337-.089-.377-.832-.3-.327-2.844-1.536-2.859-.961,0-.907,2.368-1.2,2.973a.312.312,0,0,0,.124.322h0c.144.084.074-.213.045-.258-.124-.223-1.045-2.883-1.754-2.779-.946.144-.7,2.363-1.1,3-.054.089.03.4.168.352a.03.03,0,0,1,.03,0c.144,0,0-.307-.035-.342-.436-.332-.842-2.71-1.645-2.705-1.03,0-.827,2.418-1.194,3-.064.1.109.446.188.337h0c.114,0,0-.372-.119-.372-.56,0-1.308-1.957-1.486-2.378C590.178,214.112,590.084,214.375,590.158,214.538Z" transform="translate(-313.405 4.619)" fill="#b9d7ed"/>
          <path id="Path_2037" data-name="Path 2037" d="M692.246,218.689c.094-.411.208-.813.287-1.224.035-.2.074-.406.094-.609a1.833,1.833,0,0,0,0-.575.425.425,0,0,0-.069-.188h0a.318.318,0,0,0-.094.04,4.259,4.259,0,0,0-.5.352c-.322.258-.634.535-.991.793-.089.064-.178.124-.277.183a1.186,1.186,0,0,1-.159.079.549.549,0,0,1-.208.054.337.337,0,0,1-.164-.03.3.3,0,0,1-.079-.064l-.03-.04a.154.154,0,0,1,0-.04.58.58,0,0,1-.035-.223,1.851,1.851,0,0,1,.04-.342c.089-.426.213-.822.317-1.224.049-.2.1-.4.129-.595V214.9a.333.333,0,0,0,0-.109h-.03a2.8,2.8,0,0,0-.5.322c-.164.124-.322.258-.5.391s-.327.268-.5.4a2.561,2.561,0,0,1-.263.193,1.4,1.4,0,0,1-.322.168h-.129a.272.272,0,0,1-.084,0,.239.239,0,0,1-.094-.045.348.348,0,0,1-.1-.139v-.119a1.614,1.614,0,0,1,0-.357,6.194,6.194,0,0,1,.144-.629c.1-.406.233-.808.307-1.2a1.352,1.352,0,0,0,.025-.272v-.03c0,.035.035,0,0,0a.864.864,0,0,0-.233.109c-.079.05-.163.109-.243.168-.327.243-.639.52-.991.783a3.315,3.315,0,0,1-.545.382.5.5,0,0,1-.238.059.237.237,0,0,1-.1-.03h-.06a.5.5,0,0,1-.089-.089.6.6,0,0,1-.094-.411,2.372,2.372,0,0,1,.183-.644c.084-.2.173-.386.263-.575s.168-.382.238-.575a1.106,1.106,0,0,0,.079-.3.287.287,0,0,0-.079-.277.243.243,0,0,1,.1.119.629.629,0,0,1,.025.164,1.392,1.392,0,0,1-.035.317c-.045.208-.1.411-.168.614s-.124.4-.178.595a2.258,2.258,0,0,0-.089.575.363.363,0,0,0,.035.193h.025a.06.06,0,0,0-.03,0,.109.109,0,0,0,.064-.03,2.75,2.75,0,0,0,.5-.337c.322-.258.634-.535.991-.793a3.279,3.279,0,0,1,.273-.183,1.116,1.116,0,0,1,.337-.154.418.418,0,0,1,.139,0h.124l.04.035.04.04a.154.154,0,0,0,0,.04v.069a.325.325,0,0,1,0,.114,1.582,1.582,0,0,1-.03.352c-.084.426-.208.822-.312,1.229a5.155,5.155,0,0,0-.134.595,1,1,0,0,0,0,.263v.04h0a.989.989,0,0,0,.233-.124l.243-.173.5-.391c.163-.134.322-.272.5-.4a2.845,2.845,0,0,1,.649-.322.636.636,0,0,1,.1-.03h.149a.346.346,0,0,1,.1.04.459.459,0,0,1,.069.069.14.14,0,0,1,.04.134.983.983,0,0,1,0,.2v.168a5.953,5.953,0,0,1-.139.634c-.1.411-.233.813-.312,1.2a2.073,2.073,0,0,0-.035.282.25.25,0,0,0,0,.079h0a.525.525,0,0,0,.208-.089,2.67,2.67,0,0,0,.248-.163c.327-.243.639-.5.991-.783a3.635,3.635,0,0,1,.53-.382.786.786,0,0,1,.193-.079h.178l.05.025h.025l.045.04a.585.585,0,0,1,.168.377,2.121,2.121,0,0,1-.064.674,4.183,4.183,0,0,1-.178.614c-.069.2-.144.4-.223.595S692.315,218.476,692.246,218.689Z" transform="translate(-361.728 5.209)" fill="#b9d7ed"/>
          <path id="Path_2038" data-name="Path 2038" d="M692.217,218.479c.1-.406.8-2.3.263-2.745-.045.1-.084.213-.129.322a.074.074,0,0,0,.064,0c.025-.109.045-.223.064-.332a2.264,2.264,0,0,0-.614.4,8.365,8.365,0,0,1-.991.793l-.278.183c-.436.218-.624.149-.555-.213-.258-.743.624-1.63.441-2.413l-.168.253a.208.208,0,0,0,.059.04l.084-.332c-.763.258-1.209,1.184-1.982,1.412-1.313.391.813-2.948-.54-2.408-.575.233-.9.9-1.516,1.085-.991.3-.164-1.2.045-1.709.144-.357.337-.733.124-1.09l-.144.312c.5.575-.862,2.066-.282,2.606l.154-.322h-.035c-.03.114-.06.223-.084.337.5-.2,1.873-1.848,2.393-1.442.416.332-.525,2.056-.416,2.685l.168-.253a.109.109,0,0,0-.064-.04l-.084.332c.738-.129,1.4-1.561,2.145-1.486s-.218,2.111-.168,2.75c.059-.084.114-.173.168-.258a.114.114,0,0,0-.055-.04l-.084.332c.619-.263,1.526-1.536,2.18-1.486.852.045-.109,2.225-.307,2.7-.059.144.035.357.124.139.243-.58,1.3-2.537.53-3.082-.674-.5-1.912,1.174-2.477,1.407-.079.035-.208.287-.084.337.074.109.169-.213.164-.258-.04-.5.991-2.348.317-2.839s-1.813,1.348-2.418,1.457c-.089,0-.2.307-.084.332h0c.094.094.173-.2.163-.253-.094-.55.966-2.289.372-2.794s-1.922,1.184-2.477,1.412c-.074.03-.208.292-.084.332h.035c.1.05.193-.258.124-.322-.5-.456.832-1.937.282-2.611-.084-.1-.2.228-.144.312.4.669-1.372,2.135-.55,2.824.654.545,1.947-1.12,2.5-1.387a.277.277,0,0,0,.094-.287h0c-.055-.139-.173.1-.178.149-.04.223-.9,2.566-.347,2.888.723.431,1.8-1.229,2.433-1.437.084-.03.2-.287.084-.337h0c-.084-.1-.178.2-.163.253.109.5-.941,2.334-.386,2.779.708.57,1.917-1.2,2.477-1.4.109-.035.178-.367.064-.332h0s-.2.258-.129.322c.386.312-.2,2.076-.3,2.477C691.979,218.746,692.182,218.632,692.217,218.479Z" transform="translate(-361.609 5.4)" fill="#b9d7ed"/>
          <path id="Path_2039" data-name="Path 2039" d="M639.346,298.066c.3-.2.619-.386.907-.595.149-.109.292-.213.426-.327a1.77,1.77,0,0,0,.332-.372.4.4,0,0,0,.069-.159h0a.282.282,0,0,0-.084-.035,3.966,3.966,0,0,0-.5-.064c-.357-.03-.723-.045-1.09-.089a1.869,1.869,0,0,1-.282-.049.848.848,0,0,1-.149-.045.451.451,0,0,1-.164-.089.185.185,0,0,1-.084-.2v-.079a.5.5,0,0,1,.109-.164,1.911,1.911,0,0,1,.228-.188c.312-.218.624-.391.932-.58.149-.1.3-.193.431-.3l.094-.079a.356.356,0,0,0,.059-.074h0a.039.039,0,0,0,0,.025l-.045-.025a2.293,2.293,0,0,0-.5-.084c-.178,0-.357-.03-.54-.04l-.545-.045-.278-.035a1.091,1.091,0,0,1-.3-.089l-.044-.025-.05-.04a.263.263,0,0,1-.045-.054.217.217,0,0,1-.03-.084.273.273,0,0,1,0-.149.387.387,0,0,1,.055-.089,1.262,1.262,0,0,1,.223-.213c.154-.114.307-.213.466-.312.307-.193.624-.367.907-.57a.951.951,0,0,0,.178-.154c.025-.025.025-.054.025,0h0a.8.8,0,0,0-.208-.064,2.061,2.061,0,0,0-.253-.04c-.352-.045-.714-.054-1.08-.084a3.032,3.032,0,0,1-.565-.089.392.392,0,0,1-.183-.1.138.138,0,0,1-.049-.079.059.059,0,0,1,0-.035v-.03a.367.367,0,0,1,0-.1.525.525,0,0,1,.178-.317,2.3,2.3,0,0,1,.5-.292q.253-.109.5-.208c.168-.069.332-.134.5-.218a1.165,1.165,0,0,0,.228-.139.258.258,0,0,0,.119-.223.269.269,0,0,1,0,.139.589.589,0,0,1-.079.114,1.484,1.484,0,0,1-.213.183,3.6,3.6,0,0,1-.5.282,4.454,4.454,0,0,0-.466.272,1.985,1.985,0,0,0-.4.3.3.3,0,0,0-.089.144.064.064,0,0,0,0,.03h0v-.025h.055a2.975,2.975,0,0,0,.5.074c.357.03.718.04,1.09.084a1.453,1.453,0,0,1,.282.045.955.955,0,0,1,.3.1.427.427,0,0,1,.089.079v.025a.132.132,0,0,0,0,.035v.04a.192.192,0,0,0,0,.05.137.137,0,0,1,0,.045.092.092,0,0,1,0,.035.069.069,0,0,1,0,.035v.025a.246.246,0,0,1-.055.079,1.4,1.4,0,0,1-.228.2c-.307.223-.624.4-.931.585-.149.094-.3.193-.436.3a.861.861,0,0,0-.168.154v.03h0v-.025h0a.756.756,0,0,0,.218.064l.258.035.535.04.55.04a2.3,2.3,0,0,1,.57.109.32.32,0,0,1,.084.04l.05.035.045.05a.442.442,0,0,1,.04.084.5.5,0,0,1,0,.084v.119a.851.851,0,0,1-.109.139l-.114.1a4.49,4.49,0,0,1-.466.312c-.307.2-.624.372-.912.575a1.562,1.562,0,0,0-.188.154.41.41,0,0,0-.045.054h0a.566.566,0,0,0,.183.069l.253.045c.352.04.714.054,1.075.084a3.933,3.933,0,0,1,.565.074.713.713,0,0,1,.168.069h0l.03.025.03.025v.114a.233.233,0,0,1,0,.055.525.525,0,0,1-.119.342,1.984,1.984,0,0,1-.441.381,4.625,4.625,0,0,1-.5.282c-.164.084-.327.164-.5.238A3.944,3.944,0,0,0,639.346,298.066Z" transform="translate(-337.43 -34.398)" fill="#92b8de"/>
          <path id="Path_2040" data-name="Path 2040" d="M639.249,297.983c.3-.193,1.878-.991,1.8-1.566l-.272.124a.115.115,0,0,0,.035.05l.238-.173a2.016,2.016,0,0,0-.624-.114,8.009,8.009,0,0,1-1.09-.084l-.282-.05c-.4-.124-.5-.282-.223-.466.282-.619,1.367-.649,1.714-1.253l-.258.059a.2.2,0,0,0,0,.059l.253-.159c-.634-.292-1.486.025-2.081-.287-1.06-.54,2.264-1.372,1.09-1.838-.5-.193-1.095.03-1.6-.223-.793-.391.609-.847,1.045-1.045.3-.139.644-.258.723-.609l-.272.109c-.045.639-1.774.788-1.729,1.486l.267-.129v-.025l-.253.159c.431.168,2.274-.045,2.358.52.064.456-1.556.991-1.858,1.442l.258-.059a.1.1,0,0,0,0-.064l-.248.163c.54.352,1.8-.154,2.234.337s-1.392,1.189-1.739,1.625l.258-.059a.3.3,0,0,0,0-.064l-.253.159c.545.208,1.873-.055,2.264.357.5.535-1.392,1.333-1.8,1.516-.129.054-.193.243,0,.159.5-.218,2.329-.817,2.17-1.62-.144-.7-1.907-.4-2.393-.585-.069-.025-.3.059-.253.163h0c0,.119.233-.03.258-.059.282-.352,2.011-.9,1.888-1.6s-1.942-.238-2.383-.53c-.069-.04-.307.079-.253.163,0,.119.233,0,.258-.059.263-.4,1.982-.862,1.893-1.531s-1.907-.4-2.393-.59c-.069,0-.307.059-.253.159v.03c.03.089.272-.05.268-.129-.035-.58,1.68-.723,1.729-1.486,0-.109-.253.025-.273.109-.148.659-2.13.525-2.026,1.447.084.733,1.888.456,2.4.624.074.025.2-.059.228-.129h0c.045-.119-.173-.035-.2,0-.159.114-2.091,1.075-1.942,1.605.2.7,1.868.3,2.388.545.074.035.3-.059.253-.159a.045.045,0,0,1,0-.025c0-.114-.233,0-.258.064-.208.357-1.982.9-1.893,1.511.1.783,1.917.391,2.4.614.089.04.332-.129.238-.173h0s-.282.04-.268.124c.055.426-1.362,1.189-1.66,1.377C638.942,298.013,639.135,298.062,639.249,297.983Z" transform="translate(-337.288 -34.276)" fill="#92b8de"/>
          <rect id="Rectangle_1248" data-name="Rectangle 1248" width="3.944" height="1.462" transform="translate(319.667 200.843) rotate(-42.97)" fill="#b9d7ed"/>
          <rect id="Rectangle_1249" data-name="Rectangle 1249" width="3.944" height="1.462" transform="translate(340.604 244.931) rotate(-153.63)" fill="#b9d7ed"/>
          <rect id="Rectangle_1250" data-name="Rectangle 1250" width="3.414" height="1.263" transform="translate(274.657 247.149) rotate(-63.63)" fill="#92b8de"/>
          <path id="Path_2041" data-name="Path 2041" d="M627.587,399.772c-1.516-2.195-3.379-4.4-5.866-5.5-2.973-1.313-7-.7-10.038.055a4.712,4.712,0,0,1-2.383-.055,1.743,1.743,0,0,0,.837,2.239s.362.342,1.65.049a27.253,27.253,0,0,1,6.039-.738c3.627,0,5.911,2.185,7.883,5.034a1.8,1.8,0,0,0,.183.213l.3-1.437,1.536.4A1.585,1.585,0,0,0,627.587,399.772Z" transform="translate(-323.015 -86.332)" fill="#f03a36"/>
          <path id="Path_2042" data-name="Path 2042" d="M684.7,374.011c2.264,4.875-8.918,4-11.628,4.459-3.414.555-6.327,2.15-7.962,5.242-1.278,2.418-1.878,5.143-3.468,7.4a13.239,13.239,0,0,1-4.152,3.691,7.113,7.113,0,0,1-6.807.624c-2.339-.832-4.548-2.363-7.055-2.611a16.563,16.563,0,0,0-7.02,1.164l-.312.114,1.387.609-.733,1.457.386-.139c2.22-.778,4.736-1.486,7.06-.882,2.6.694,4.865,2.319,7.526,2.918,4.1.922,8.348-1.8,10.9-4.9,1.982-2.413,2.715-5.311,4.053-8.051,2.021-4.132,6.441-4.741,10.687-4.7,2.477.025,5.722.079,7.729-1.694,1.848-1.63,2.195-3.77,1.055-5.5a5.378,5.378,0,0,0-2.581-1.764Z" transform="translate(-336.712 -75.202)" fill="#f03a36"/>
          <path id="Path_2043" data-name="Path 2043" d="M618.63,418.541a1.07,1.07,0,0,1,1.1-.609c.823.079,1.164,1.878.9,2.477s-.57.689-.57.689Z" transform="translate(-327.797 -98.655)" fill="#c13b72"/>
          <path id="Path_2044" data-name="Path 2044" d="M631.6,525.792c0-.208-.991-.659-1.665-.882.2.134.391.317.069.4a2.348,2.348,0,0,1-1.774-.4,2.11,2.11,0,0,0-.163.832C628.07,526.059,631.573,526.386,631.6,525.792Z" transform="translate(-332.56 -152.637)" fill="#3b2b5b"/>
          <path id="Path_2045" data-name="Path 2045" d="M630.194,524.691c.322-.084.129-.267-.069-.4-.416-.139-.768-.238-.847-.277a.5.5,0,0,1-.253-.282l-.213-.05s.129.292-.267.431c-.064,0-.089.114-.124.183A2.348,2.348,0,0,0,630.194,524.691Z" transform="translate(-332.736 -152.016)" fill="#fd95a4"/>
          <path id="Path_2046" data-name="Path 2046" d="M613.452,525.5c0-.277-.991-.659-1.67-.882.2.129.391.317.074.4a2.33,2.33,0,0,1-1.779-.4,2.1,2.1,0,0,0-.159.832C609.915,525.764,613.462,526.1,613.452,525.5Z" transform="translate(-323.402 -152.49)" fill="#3b2b5b"/>
          <path id="Path_2047" data-name="Path 2047" d="M612.019,524.4c.317-.084.124-.272-.074-.4-.416-.139-.768-.238-.842-.277a.5.5,0,0,1-.258-.287l-.208-.05s.129.3-.268.431c-.069,0-.094.114-.129.188A2.355,2.355,0,0,0,612.019,524.4Z" transform="translate(-323.563 -151.865)" fill="#fd95a4"/>
          <path id="Path_2048" data-name="Path 2048" d="M608.457,448.73c0,.1-.5-.1-1.838,2.353-1.486,2.715-1.818,6.064-1.387,9.953.52,4.662,1.942,20.368,2.75,24.638.114.585.243.694.312-.04.441-4.6,3.438-28.76,3.438-28.76l5.336,29.325.238-.144s-.03-1.045-.055-1.8c-.079-2.348,1.8-24.891,1.258-27.339-1.135-5.128-2.2-6.51-2.393-7.927C615.22,449.389,610.142,449.587,608.457,448.73Z" transform="translate(-320.948 -114.199)" fill="#fd95a4"/>
          <path id="Path_2049" data-name="Path 2049" d="M608.116,448.281S606,450.109,605.3,454.6s.5,14.7.5,14.7l3.2.327,1.13-9.319-.263,9.339s5.812.357,8.69-.372c0,0,.768-8.784.074-12.56a57.339,57.339,0,0,0-2.75-8.873Z" transform="translate(-320.958 -113.75)" fill="#3b2b5b"/>
          <path id="Path_2050" data-name="Path 2050" d="M614.983,460.305l-.263,9.339s5.812.357,8.69-.372c0,0,.768-8.784.074-12.56a57.341,57.341,0,0,0-2.75-8.873h-3.894a23.349,23.349,0,0,0-1.9,6.267C614.765,455.792,614.983,460.305,614.983,460.305Z" transform="translate(-325.824 -113.75)" fill="#30193c"/>
          <path id="Path_2051" data-name="Path 2051" d="M611.189,398.356a4.906,4.906,0,0,0-.109,1.016,1.836,1.836,0,0,0,.1.391h0l.045.089c.045.074-.144.466-.139.5s.154.1.213.1a.416.416,0,0,0,.317-.094,2.823,2.823,0,0,0,.228-.5,2.7,2.7,0,0,0,.3-.421.99.99,0,0,0,.084-.178.5.5,0,0,0,0-.268.057.057,0,0,0-.079-.054,1.634,1.634,0,0,0-.208.3,6.366,6.366,0,0,0-.2-.931c-.074-.089-.119-.025-.129.069-.049-.124-.119-.253-.2-.213h0c-.109,0-.144.159-.154.263C611.263,398.415,611.258,398.286,611.189,398.356Z" transform="translate(-323.987 -88.682)" fill="#fd95a4"/>
          <path id="Path_2052" data-name="Path 2052" d="M618.5,424.22a13.191,13.191,0,0,0,0,2.165c.119.213.5.471.718-.025a6.19,6.19,0,0,0-.129-2.18Z" transform="translate(-327.711 -101.813)" fill="#fd95a4"/>
          <path id="Path_2053" data-name="Path 2053" d="M618.46,426.091a.713.713,0,0,0,.827.025,10.406,10.406,0,0,0-.109-1.045l-.694.045C618.47,425.4,618.46,425.764,618.46,426.091Z" transform="translate(-327.711 -102.261)" fill="#c75d77"/>
          <path id="Path_2054" data-name="Path 2054" d="M618.844,422.123a3.668,3.668,0,0,0-.3-1.045,1.026,1.026,0,0,0-1.422-.55c-.129.064-.218.1-.248.089a2.8,2.8,0,0,0-.872.59c-.228.3-.084.728,0,1.055a2.438,2.438,0,0,0,.684,1.06,1.57,1.57,0,0,0,1.14.114C618.71,423.113,618.879,422.8,618.844,422.123Z" transform="translate(-326.41 -99.914)" fill="#fd95a4"/>
          <path id="Path_2055" data-name="Path 2055" d="M617.671,430.409a3.072,3.072,0,0,0-2.026-2.1,12.489,12.489,0,0,0-5.45,0c-1.615.317-.9,1.273-.9,1.273s.58,8.859.614,8.943a10.369,10.369,0,0,0,3.78.634,12.667,12.667,0,0,0,4.1-.892.445.445,0,0,1,0-.228C618.394,435.829,617.988,432.342,617.671,430.409Z" transform="translate(-323.008 -103.746)" fill="#a8c9e6"/>
          <path id="Path_2056" data-name="Path 2056" d="M618.435,429.369s-.436,5.569-.4,7.7c0,.213-.159,2.234-.159,2.234s3.468-.233,4.642-.927c0,0,.263-2.656.278-3.557a24.3,24.3,0,0,0-.094-3.964c-.218-1.328.188-1.868-2.893-2.477a3.859,3.859,0,0,0-1.194-.163,4.609,4.609,0,0,0-.183,1.149Z" transform="translate(-327.418 -103.85)" fill="#96bbd6"/>
          <path id="Path_2057" data-name="Path 2057" d="M605.2,414.808c-1.942-.872-1.288,1.566-1.288,1.566l2.329,6.812.619,1.511,3.468-3.364a3.672,3.672,0,0,1-2.6-.733c-.822-.887-1.556-4.9-1.556-4.9a2.586,2.586,0,0,0-.976-.892Z" transform="translate(-320.317 -96.989)" fill="#a8c9e6"/>
          <path id="Path_2058" data-name="Path 2058" d="M630.078,428.953l.694,2.225a25.762,25.762,0,0,1-5.45.372,6.364,6.364,0,0,1-2.869-.446l-1.883-2.854a13.446,13.446,0,0,0,2.041.307C623,428.587,630.078,428.953,630.078,428.953Z" transform="translate(-328.776 -103.866)" fill="#96bbd6"/>
          <path id="Path_2059" data-name="Path 2059" d="M606.258,409.5c1.808-1.561,4.484-6.168,1.942-7.744-.946-.59-1.224.084-1.224.084l-2.814,6.3S603.915,411.524,606.258,409.5Z" transform="translate(-320.493 -90.375)" fill="#a8c9e6"/>
          <path id="Path_2060" data-name="Path 2060" d="M650.853,419.387s.748-.689.589-.991-.406-.8-.55-.768.045.4.045.4a2.672,2.672,0,0,0-.391-.164c-.069,0,0,.2,0,.2a.168.168,0,0,0-.188,0c-.1.074.168.238.213.391s-.218.669-.144.991C650.437,419.57,650.665,419.585,650.853,419.387Z" transform="translate(-343.794 -98.506)" fill="#fd95a4"/>
          <path id="Path_2061" data-name="Path 2061" d="M639.716,427.193c2.3-.644,6.688-3.666,5.063-6.178-.6-.936-1.14-.446-1.14-.446l-5.242,4.5S636.734,428.021,639.716,427.193Z" transform="translate(-337.537 -99.926)" fill="#96bbd6"/>
          <path id="Path_2062" data-name="Path 2062" d="M613.987,418.845a2.943,2.943,0,0,1,2.561-.446c1.417.456,1.189,1.268,1.189,1.268s-.362-.317-.684.5.391,1.759-.362,2.21a1.917,1.917,0,0,1-2.616-1.67C613.754,419,613.987,418.845,613.987,418.845Z" transform="translate(-325.413 -98.835)" fill="#c13b72"/>
          <path id="Path_2063" data-name="Path 2063" d="M609.5,417.156s.689-2.507-1.442-2.943a3.793,3.793,0,0,0-4.251,3.092c-.287,1.709.436,7.432.451,8.745s-1.036,1.9-1.556,1.12a1.573,1.573,0,0,0,1.244,1.754c1.506.52,4.31-1.095,5.048-4.157s.773-4.013.055-5.351c-.639-1.2-.5-1.863-.263-1.957s.565.114.565.114Z" transform="translate(-319.751 -96.75)" fill="#c13b72"/>
          <path id="Path_2064" data-name="Path 2064" d="M615.571,420.642a.669.669,0,0,1-.258-.1.155.155,0,1,1,.178-.253.277.277,0,0,0,.183.054.2.2,0,0,0,.114-.1c.035-.089.03-.129,0-.168s.035-.114.055-.159a.565.565,0,0,0,0-.183.629.629,0,0,1,.154.139.5.5,0,0,1,0,.471.406.406,0,0,1-.5.3Z" transform="translate(-326.09 -99.567)" fill="#295a6e"/>
          <path id="Path_2065" data-name="Path 2065" d="M607.225,419.869c-.178.659.907,3.339.718,5.3a10.34,10.34,0,0,1-1.4,4.261c-.927,1.486-3.528,1.338-3.845.069a1.573,1.573,0,0,0,1.244,1.754c1.506.52,4.31-1.095,5.048-4.157s.773-4.013.055-5.351c-.639-1.2-.5-1.863-.263-1.957a.568.568,0,0,1,.5.124s.109,0,.114-.05C609.406,419.165,607.8,417.768,607.225,419.869Z" transform="translate(-319.751 -99.077)" fill="#af326c"/>
          <path id="Path_2066" data-name="Path 2066" d="M182.64,262.7a.53.53,0,0,1-.1.629c-1.224,1.214-5.742,6.01-7.09,6.659-.669.322-2.5,1.511-2.433-.223a14.13,14.13,0,0,1,1.531-4.588C176.174,262.119,180.281,258.185,182.64,262.7Z" transform="translate(-102.958 -19.304)" fill="#347a5f"/>
          <path id="Path_2067" data-name="Path 2067" d="M190.414,260.375a.3.3,0,0,1-.089-.352c.129-.322.362-.842.654-1.422a3.181,3.181,0,0,1,.7-.862,1.908,1.908,0,0,1,.813-.372c.332-.069.263.183.263.183a.2.2,0,0,1,.263.144,3.586,3.586,0,0,1-.907,1.665s.436-.391.5-.218-.738.991-1.095,1.06a3.656,3.656,0,0,0-.5.362C190.91,260.648,190.6,260.529,190.414,260.375Z" transform="translate(-111.68 -17.64)" fill="#fd95a4"/>
          <path id="Path_2068" data-name="Path 2068" d="M205.076,253.2c-5.549.168-10.573,0-15.448-2.542l-1.407-.728c-5.841-3.017-23.142-13.318-23.142-13.318a2.973,2.973,0,0,0-4.068,1.184v.045l-.025.045a2.973,2.973,0,0,0,1.392,4s17.836,7.66,24.465,11.068l1,.5c4.954,2.566,8.18,6.768,11.212,11.365a12.812,12.812,0,0,0,4.682,4.068c5.366,2.775,14.016,1.516,15.359-1.09s-2.641-10.4-8.011-13.159A13.015,13.015,0,0,0,205.076,253.2Z" transform="translate(-96.734 -6.984)" fill="#f8e5c5"/>
          <path id="Path_2069" data-name="Path 2069" d="M252.352,276.526c3.8,1.982,7.174,7.7,5.945,10.077s-7.868,2.948-11.663.991-5.148-5.792-3.572-8.849S248.557,274.564,252.352,276.526Z" transform="translate(-137.975 -26.82)" fill="#fdd5a4"/>
          <path id="Path_2070" data-name="Path 2070" d="M196.495,264.632a.525.525,0,0,0-.163.609c.619,1.58,3.191,8.323,3.755,9.007s1.179,2.16,2.16.272c.426-.817.416-3.537.277-4.588C202.093,266.55,200.424,261.511,196.495,264.632Z" transform="translate(-114.703 -20.817)" fill="#256648"/>
          <path id="Path_2071" data-name="Path 2071" d="M198.054,261.819a.3.3,0,0,0,.188-.307,11.331,11.331,0,0,0-.2-1.551,3,3,0,0,0-.411-1.031,1.938,1.938,0,0,0-.664-.6c-.3-.164-.3.1-.3.1a.208.208,0,0,0-.3.054,3.858,3.858,0,0,0,.362,1.858s-.292-.5-.421-.362.406,1.159.728,1.338a3.994,3.994,0,0,1,.386.5C197.489,261.953,197.826,261.908,198.054,261.819Z" transform="translate(-114.702 -18.103)" fill="#fd95a4"/>
          <path id="Path_2072" data-name="Path 2072" d="M246.163,311.83a4.667,4.667,0,0,1-2.527-4.122v-6.391a1.486,1.486,0,0,0-1.486-1.486H212.19a1.486,1.486,0,0,0-1.486,1.486v6.391a4.667,4.667,0,0,1-2.527,4.122,14.754,14.754,0,0,0-7.927,13.095v46.23a15.775,15.775,0,0,0,15.795,15.676h22.23a15.8,15.8,0,0,0,15.854-15.676v-46.23A14.759,14.759,0,0,0,246.163,311.83Z" transform="translate(-116.7 -39.071)" fill="#b9d7ed"/>
          <path id="Path_2073" data-name="Path 2073" d="M217.992,418.975a13.828,13.828,0,0,1-13.872-13.749V367.36h50.01v37.867a13.838,13.838,0,0,1-13.872,13.748Z" transform="translate(-118.652 -73.144)" fill="#fc5e4d"/>
          <g id="Group_651" data-name="Group 651" transform="translate(85.458 294.217)" opacity="0.17">
            <path id="Path_2074" data-name="Path 2074" d="M251.439,413.332a13.922,13.922,0,0,1-11.222,5.643H217.972A13.828,13.828,0,0,1,204.1,405.227V367.36h2.17V402.9a13.828,13.828,0,0,0,13.872,13.749h22.245A13.907,13.907,0,0,0,251.439,413.332Z" transform="translate(-204.1 -367.36)" fill="#fff"/>
          </g>
          <path id="Path_2075" data-name="Path 2075" d="M253.413,307.614H220.327a.877.877,0,1,1,0-1.754h33.086a.877.877,0,1,1,0,1.754Z" transform="translate(-126.387 -42.113)" fill="#92b8de"/>
          <path id="Path_2076" data-name="Path 2076" d="M253.413,307.614H220.327a.877.877,0,1,1,0-1.754h33.086a.877.877,0,1,1,0,1.754Z" transform="translate(-126.387 -42.113)" fill="#a2cae8"/>
          <path id="Path_2077" data-name="Path 2077" d="M253.413,314.584H220.327a.877.877,0,1,1,0-1.754h33.086a.877.877,0,1,1,0,1.754Z" transform="translate(-126.387 -45.63)" fill="#a2cae8"/>
          <g id="Group_652" data-name="Group 652" transform="translate(88.419 278.869)" opacity="0.4">
            <path id="Path_2078" data-name="Path 2078" d="M210.306,347.256s-.887-8.878.827-10.375,3.052.743,2.725,1.853S210.306,347.256,210.306,347.256Z" transform="translate(-210.077 -336.383)" fill="#fff"/>
          </g>
          <ellipse id="Ellipse_118" data-name="Ellipse 118" cx="1.328" cy="1.328" rx="1.328" ry="1.328" transform="translate(116.165 329.547)" fill="#f03a36"/>
          <path id="Path_2079" data-name="Path 2079" d="M248.158,445.484a1.189,1.189,0,1,1-.346-.844A1.194,1.194,0,0,1,248.158,445.484Z" transform="translate(-139.667 -111.959)" fill="#f03a36"/>
          <path id="Path_2080" data-name="Path 2080" d="M241.262,454.951a.966.966,0,1,1-.966-.961A.966.966,0,0,1,241.262,454.951Z" transform="translate(-136.418 -116.853)" fill="#f03a36"/>
          <ellipse id="Ellipse_119" data-name="Ellipse 119" cx="1.328" cy="1.328" rx="1.328" ry="1.328" transform="translate(122.621 331.538)" fill="#f03a36"/>
          <path id="Path_2081" data-name="Path 2081" d="M262.306,450.938a1.853,1.853,0,1,1-.541-1.313A1.853,1.853,0,0,1,262.306,450.938Z" transform="translate(-146.141 -114.376)" fill="#f03a36"/>
          <path id="Path_2082" data-name="Path 2082" d="M289.943,429.721a2.031,2.031,0,1,1-2.031-2.031,2.031,2.031,0,0,1,2.031,2.031Z" transform="translate(-159.905 -103.583)" fill="#f03a36"/>
          <ellipse id="Ellipse_120" data-name="Ellipse 120" cx="0.664" cy="0.664" rx="0.664" ry="0.664" transform="translate(121.724 323.344)" fill="#f03a36"/>
          <ellipse id="Ellipse_121" data-name="Ellipse 121" cx="0.951" cy="0.951" rx="0.951" ry="0.951" transform="translate(128.497 334.66)" fill="#f03a36"/>
          <path id="Path_2083" data-name="Path 2083" d="M273.378,417.444a.664.664,0,1,1-.664-.664A.664.664,0,0,1,273.378,417.444Z" transform="translate(-152.927 -98.079)" fill="#f03a36"/>
          <ellipse id="Ellipse_122" data-name="Ellipse 122" cx="0.664" cy="0.664" rx="0.664" ry="0.664" transform="translate(98.379 332.519)" fill="#f03a36"/>
          <path id="Path_2084" data-name="Path 2084" d="M188.009,280.857a7.61,7.61,0,0,1-2.378,2.67,3.815,3.815,0,0,1-2.358.694c-1.759-.069-5.024-.273-6.614-.386a1.2,1.2,0,0,1-1.095-.991h0c-.377-1.982-.59-4.35-.59-4.35l-1.982-1.273a10.249,10.249,0,0,0,.292,6.3,12.282,12.282,0,0,0,1.328,2.824c.129.218.624,2.586.788,3.443.258,1.362.753,3.082.951,3.815,2.175,1.05,7.1.436,8.115.188,0-.069.307-1.8.466-3.295.149-1.367.466-2.477.614-3.389A1.769,1.769,0,0,1,186,286.3a4.867,4.867,0,0,1,.882-.7c3.31-2.289,3.661-4.954,3.661-4.954Z" transform="translate(-102.774 -27.663)" fill="#256648"/>
          <path id="Path_2085" data-name="Path 2085" d="M178.685,283.983H178.4l-1.744-.119a1.2,1.2,0,0,1-1.095-.991h0c-.377-1.982-.59-4.35-.59-4.35l-1.982-1.273a10.249,10.249,0,0,0,.292,6.3,12.282,12.282,0,0,0,1.328,2.824c.129.218.624,2.586.788,3.443.258,1.362.753,3.082.951,3.815a8.464,8.464,0,0,0,3.27.585h.372a25.515,25.515,0,0,1-1.462-5.985A17.4,17.4,0,0,1,178.685,283.983Z" transform="translate(-102.774 -27.678)" fill="#347a5f"/>
          <path id="Path_2086" data-name="Path 2086" d="M188.237,287.86s.362,1.605.2,1.789a.812.812,0,0,1-1.115,0c-.352-.4,0-1.808,0-1.808Z" transform="translate(-110.097 -33.021)" fill="#fd95a4"/>
          <path id="Path_2087" data-name="Path 2087" d="M188.442,289.418a1.942,1.942,0,0,1-1.283.064,4.431,4.431,0,0,1,.064-.872h1.085C188.358,288.848,188.412,289.15,188.442,289.418Z" transform="translate(-110.094 -33.41)" fill="#c75d77"/>
          <path id="Path_2088" data-name="Path 2088" d="M185.468,285.764a5.371,5.371,0,0,1-.585-1.372.872.872,0,0,1,.575-1.115,5.8,5.8,0,0,1,1.813-.367c.416.094.6.575.748.926a2.785,2.785,0,0,1,.173,1.417,1.754,1.754,0,0,1-.907.922C186.3,286.522,185.909,286.373,185.468,285.764Z" transform="translate(-108.923 -30.534)" fill="#fd95a4"/>
          <path id="Path_2089" data-name="Path 2089" d="M182.787,279.624a1.05,1.05,0,0,1,.966-.773,1.407,1.407,0,0,1,.6-.926c.426-.277.768-.154,1.224-.119.634.055.5-.5.991-.659a.545.545,0,0,1,.5.074.8.8,0,0,1,1.358.055c.406.595.406,2.17-.56,2.626-1.328.634-4.053-.183-3.676,1.8.074.4.2.575.258.882a.188.188,0,0,1-.292.193,5.623,5.623,0,0,1-1.194-1.63,2.842,2.842,0,0,1-.124-.5A1.878,1.878,0,0,1,182.787,279.624Z" transform="translate(-107.863 -27.485)" fill="#fc5e4d"/>
          <path id="Path_2090" data-name="Path 2090" d="M185.523,389.722l11.722-.273c1.035-.025.4,1.224-.411,1.244l-11.722.272C184.077,390.966,184.716,389.742,185.523,389.722Z" transform="translate(-108.79 -84.289)" fill="#295a6e"/>
          <path id="Path_2091" data-name="Path 2091" d="M181.667,374.317l12.55-.287c.758,0,1.278,1.486.446,1.486l-12.55.292c-.758,0-1.278-1.486-.446-1.486Z" transform="translate(-107.109 -76.509)" fill="#295a6e"/>
          <path id="Path_2092" data-name="Path 2092" d="M190.078,419.468l12.024-.278c.768,0,.565,1.556-.233,1.576l-12.024.277C189.073,421.043,189.276,419.487,190.078,419.468Z" transform="translate(-111.205 -99.294)" fill="#295a6e"/>
          <path id="Path_2093" data-name="Path 2093" d="M187.055,404.718l12.014-.278c.832,0,1.258,1.263.223,1.288l-12.019.278C186.441,406.006,186.015,404.742,187.055,404.718Z" transform="translate(-109.733 -91.853)" fill="#295a6e"/>
          <path id="Path_2094" data-name="Path 2094" d="M196.537,449.973l11.489-.263c.991,0,.951,1.169-.035,1.194l-11.489.263C195.512,451.191,195.551,450,196.537,449.973Z" transform="translate(-114.443 -114.694)" fill="#295a6e"/>
          <path id="Path_2095" data-name="Path 2095" d="M193.257,434.728l11.737-.268c.773,0,1.308,1.348.312,1.372l-11.737.268C192.8,436.1,192.261,434.752,193.257,434.728Z" transform="translate(-112.897 -106.999)" fill="#295a6e"/>
          <path id="Path_2096" data-name="Path 2096" d="M178.615,349.931q1.843,10.355,3.676,20.709l5.826,32.828q.669,3.79,1.343,7.58c.183,1.031-1.065.8-1.224-.079l-3.671-20.7-5.826-32.828q-.679-3.79-1.348-7.58C177.208,348.826,178.462,349.059,178.615,349.931Z" transform="translate(-105.157 -63.968)" fill="#295a6e"/>
          <path id="Path_2097" data-name="Path 2097" d="M203.176,349.846q1.833,10.35,3.676,20.7l5.826,32.828q.669,3.79,1.343,7.58c.183,1.021-1.149.6-1.293-.193q-1.838-10.35-3.676-20.7-2.908-16.414-5.821-32.828-.679-3.79-1.348-7.58C201.7,348.627,203.037,349.049,203.176,349.846Z" transform="translate(-117.515 -63.903)" fill="#295a6e"/>
          <path id="Path_2098" data-name="Path 2098" d="M183.395,390.32l-11.663-.273c-.773,0-1.288-1.4-.292-1.377l11.663.272C183.871,388.942,184.391,390.339,183.395,390.32Z" transform="translate(-101.886 -83.896)" fill="#347a5f"/>
          <path id="Path_2099" data-name="Path 2099" d="M185.757,375.276,173.866,375c-.892,0-1.273-1.229-.228-1.2l11.891.272C186.421,374.072,186.8,375.3,185.757,375.276Z" transform="translate(-102.955 -76.393)" fill="#347a5f"/>
          <path id="Path_2100" data-name="Path 2100" d="M177.884,420.483l-11.891-.277c-.743,0-1.313-1.486-.4-1.447l11.891.277c.748,0,1.318,1.486.406,1.447Z" transform="translate(-98.976 -99.077)" fill="#347a5f"/>
          <path id="Path_2101" data-name="Path 2101" d="M180.6,405.415l-11.792-.272c-.768,0-1.313-1.392-.317-1.372l11.792.272C181.049,404.042,181.594,405.439,180.6,405.415Z" transform="translate(-100.402 -91.514)" fill="#347a5f"/>
          <path id="Path_2102" data-name="Path 2102" d="M172.134,450.626l-11.94-.277c-.991,0-.887-1.214.1-1.189l11.945.277c.991,0,.882,1.214-.1,1.189Z" transform="translate(-96.139 -114.416)" fill="#347a5f"/>
          <path id="Path_2103" data-name="Path 2103" d="M174.959,435.561l-11.772-.273c-1.045,0-.694-1.229.213-1.209l11.767.272C176.213,434.377,175.861,435.581,174.959,435.561Z" transform="translate(-97.677 -106.807)" fill="#347a5f"/>
          <path id="Path_2104" data-name="Path 2104" d="M191.962,349.663l-3.671,20.7L182.464,403.2l-1.348,7.58c-.134.773-1.68.377-1.536-.411l3.671-20.7,5.826-32.813q.679-3.79,1.348-7.58c.134-.778,1.68-.381,1.536.406Z" transform="translate(-106.266 -63.804)" fill="#347a5f"/>
          <path id="Path_2105" data-name="Path 2105" d="M167.4,349.209l-3.671,20.7L157.9,402.757q-.679,3.79-1.348,7.58c-.168.961-1.362.877-1.189-.109q1.833-10.355,3.676-20.7l5.826-32.828q.669-3.8,1.343-7.585c.173-.961,1.367-.877,1.189.109Z" transform="translate(-94.043 -63.593)" fill="#347a5f"/>
          <path id="Path_2106" data-name="Path 2106" d="M178.236,389.822c0-.743-1.09-.644-1.813-.842.218.129.436.317.1.421a2.455,2.455,0,0,1-1.9-.327,2.274,2.274,0,0,0-.124.892C174.506,390.293,178.211,390.476,178.236,389.822Z" transform="translate(-103.703 -84.052)" fill="#3b2b5b"/>
          <path id="Path_2107" data-name="Path 2107" d="M176.652,388.811c.337-.1.119-.292-.1-.421-.446-.129-.822-.213-.907-.248a.53.53,0,0,1-.287-.287l-.228-.045s-.352.6-.382.674A2.459,2.459,0,0,0,176.652,388.811Z" transform="translate(-103.833 -83.462)" fill="#fd95a4"/>
          <path id="Path_2108" data-name="Path 2108" d="M190.186,389.822c.069-.723-1.09-.644-1.813-.842.218.129.436.317.1.421a2.455,2.455,0,0,1-1.9-.327,2.274,2.274,0,0,0-.124.892C186.431,390.293,190.1,390.476,190.186,389.822Z" transform="translate(-109.732 -84.052)" fill="#3b2b5b"/>
          <path id="Path_2109" data-name="Path 2109" d="M188.553,388.811c.337-.1.119-.292-.1-.421-.451-.129-.827-.213-.907-.248a.5.5,0,0,1-.287-.287l-.228-.045s-.352.6-.382.674A2.459,2.459,0,0,0,188.553,388.811Z" transform="translate(-109.838 -83.462)" fill="#fd95a4"/>
          <path id="Path_2110" data-name="Path 2110" d="M182.84,279.563a1.05,1.05,0,0,1,.966-.723.045.045,0,0,0,.05-.04h0a1.333,1.333,0,0,1,.5-.822,1.169,1.169,0,0,1,.931-.168,1.694,1.694,0,0,0,.555.025.713.713,0,0,0,.441-.372.54.54,0,0,1,.753-.213h0a.1.1,0,0,0,.139,0h0a.654.654,0,0,1,.872-.228,1.184,1.184,0,0,1,.545.872,2.477,2.477,0,0,1-.05,1.11,1.984,1.984,0,0,1-.238.5,1.443,1.443,0,0,1-.421.372,1.288,1.288,0,0,0,.461-.342,1.758,1.758,0,0,0,.287-.5,2.507,2.507,0,0,0,.109-1.164,1.783,1.783,0,0,0-.173-.575,1.1,1.1,0,0,0-.431-.436.847.847,0,0,0-1.139.292l.149-.035a.738.738,0,0,0-1.04.268c-.1.154-.173.268-.317.3a1.638,1.638,0,0,1-.5,0,1.983,1.983,0,0,0-.545,0,1.165,1.165,0,0,0-.5.238,1.486,1.486,0,0,0-.53.926l.055-.045A1.075,1.075,0,0,0,182.84,279.563Z" transform="translate(-107.915 -27.424)" fill="#fd8a81"/>
          <path id="Path_2111" data-name="Path 2111" d="M176.339,310.219c0,.109-2.447,2.591-3.077,5.39-1.4,6.213.035,29.068.272,32.65a.525.525,0,0,0,.5.5h.411a.4.4,0,0,0,.416-.332l5.2-29.083,1.209,9.126-1.61,20.239.817.084s6.238-16.721,6.634-21.215c1.04-11.851-2.343-16.746-2.636-17.454C183.538,310.556,178.172,311.051,176.339,310.219Z" transform="translate(-102.777 -44.263)" fill="#725cb5"/>
          <path id="Path_2112" data-name="Path 2112" d="M176.339,310.32c0,.109-2.447,2.591-3.077,5.39-1.4,6.213.035,29.068.272,32.65a.525.525,0,0,0,.5.5h.411a.4.4,0,0,0,.416-.332l5.2-29.082a40.008,40.008,0,0,1-.5-4.722,15.882,15.882,0,0,1,.421-3.964H179.7a9.538,9.538,0,0,1-3.364-.436Z" transform="translate(-102.777 -44.363)" fill="#8065bf"/>
          <path id="Path_2113" data-name="Path 2113" d="M496.175,85.9c1.75-3.4-1.309-7.647-6.3-8.718s-10.936,1.249-12.244,4.767c0-2.753,0-5.617-1.81-8.081a10.1,10.1,0,0,0-9.653-3.569c-4.92,1.028-6.169,5.387-6.543,8.956.85-7-1.215-14.148-5.795-20.393-2.226-3.033-6.041-6.22-10.91-5.871-4.554.323-7.375,3.552-9.083,6.509a39.264,39.264,0,0,0-5.1,25.993c2.677-4.444-3.645-10.112-10.5-9.406s-10.57,7.384-6.177,11.106Z" transform="translate(-250.99 56.756)" fill="#ed1a4f" opacity="0.1"/>
        </g>
      </g>
    </g>
  </g>
</svg>
