<?xml version='1.0' encoding='utf-8'?>
<!DOCTYPE svg PUBLIC '-//W3C//DTD SVG 1.1//EN' 'http://www.w3.org/Graphics/SVG/1.1/DTD/svg11.dtd'>
<svg version="1.1" xmlns="http://www.w3.org/2000/svg" viewBox="0 0 512 512" xmlns:xlink="http://www.w3.org/1999/xlink" enable-background="new 0 0 512 512">
  <g>
    <g>
      <path d="m86.1,227.8c-6.8,9-5.3,22 3.8,28.6 11,8 24.6,1.5 28.6-3.8 29.5-38.6 17.5-63.9 8.7-82.3-6.3-13.2-11.3-23.6-5.3-43.3 3.2-10.8-2.8-22.2-13.6-25.5-10.8-3.2-22.1,2.9-25.4,13.6-10.5,34.8 0,56.7 7.6,72.7 7.4,15.9 9.9,21.2-4.4,40z"/>
      <path d="m498.4,217.6c-5.5-9.8-17.9-13.3-27.7-7.9l-154.7,86.6h-284.6c-11.3,0-20.4,9.1-20.4,20.4v163.9c0,11.3 9.1,20.4 20.4,20.4h289.9c11.3,0 20.4-9.1 20.4-20.4v-151.9l148.8-83.3c9.9-5.6 13.4-18 7.9-27.8zm-197.5,242.6h-249.1v-123.1h249.2v123.1z"/>
      <path d="m236.5,216.3c-6.8,9-5.3,22 3.8,28.6 11,8 24.6,1.5 28.6-3.8 29.5-38.6 17.5-63.9 8.7-82.3-6.3-13.2-11.3-23.6-5.3-43.3 3.2-10.8-2.8-22.2-13.6-25.5-10.8-3.2-22.1,2.9-25.4,13.6-10.5,34.8 0,56.7 7.6,72.7 7.4,15.9 9.9,21.3-4.4,40z"/>
      <path d="m156.2,138.1c-6.8,9-5.3,22 3.8,28.6 11,8 24.6,1.5 28.6-3.8 29.5-38.6 17.5-63.9 8.7-82.3-6.3-13.2-11.3-23.6-5.3-43.3 3.2-10.8-2.8-22.2-13.6-25.5-10.8-3.2-22.1,2.9-25.4,13.6-10.5,34.8 0,56.7 7.6,72.7 7.4,15.9 9.9,21.2-4.4,40z"/>
    </g>
  </g>
</svg>
