<svg xmlns="http://www.w3.org/2000/svg" width="22.555" height="18.928" viewBox="0 0 22.555 18.928">
  <path id="cooking" d="M32.565,7.52a1.693,1.693,0,1,1-1.693,1.693A1.7,1.7,0,0,1,32.565,7.52Zm0,1.171a.522.522,0,1,0,.522.522A.523.523,0,0,0,32.565,8.691ZM35.218,16v.7a1.661,1.661,0,0,1-1.659,1.659h-.488v3.157a2.52,2.52,0,0,1-2.517,2.517H17.327a2.52,2.52,0,0,1-2.517-2.517V18.365h-.488a1.661,1.661,0,0,1-1.659-1.659V16a1.661,1.661,0,0,1,1.659-1.659h.488v-1.73a.586.586,0,0,1,.585-.585H32.486a.586.586,0,0,1,.585.585v1.73h.488A1.661,1.661,0,0,1,35.218,16ZM14.81,15.516h-.488a.488.488,0,0,0-.488.488v.7a.488.488,0,0,0,.488.488h.488V15.516ZM31.9,13.2H15.98v8.321a1.348,1.348,0,0,0,1.346,1.346H30.555A1.348,1.348,0,0,0,31.9,21.521V13.2ZM34.047,16a.488.488,0,0,0-.488-.488h-.488v1.678h.488a.488.488,0,0,0,.488-.488V16ZM26.17,10.872a.585.585,0,1,0,1.171,0,.839.839,0,1,1,1.677,0,.585.585,0,1,0,1.171,0,2.01,2.01,0,1,0-4.019,0ZM15.234,10a.585.585,0,0,1,.435-.7l6.36-1.5-.112-.475a1.661,1.661,0,0,1,1.233-2l.683-.161a1.661,1.661,0,0,1,2,1.232l.112.475,6.36-1.5a.585.585,0,0,1,.269,1.14L15.939,10.431a.585.585,0,0,1-.7-.435Zm7.823-2.952.112.475L24.8,7.132l-.112-.475a.488.488,0,0,0-.587-.362l-.683.162a.488.488,0,0,0-.363.587Z" transform="translate(-12.663 -5.111)"/>
</svg>
