<?xml version="1.0"?>
<svg xmlns="http://www.w3.org/2000/svg" xmlns:xlink="http://www.w3.org/1999/xlink" xmlns:svgjs="http://svgjs.com/svgjs" version="1.1" width="512" height="512" x="0" y="0" viewBox="0 0 511.99989 511" style="enable-background:new 0 0 512 512" xml:space="preserve" class=""><g><path xmlns="http://www.w3.org/2000/svg" d="m442.3125 9.582031c-3.835938-1.617187-8.253906.179688-9.871094 4.003907-1.628906 3.835937.167969 8.253906 3.996094 9.871093 34.84375 14.707031 60.667969 49.535157 60.667969 91.585938 0 91.117187-113.457031 134.539062-173.871094 65.890625-34.15625-38.492188-33.765625-98.277344 4.144531-136.1875 22.402344-22.414063 52.695313-31.914063 82.085938-28.429688 4.128906.472656 7.875-2.457031 8.367187-6.59375.492188-4.128906-2.460937-7.875-6.589843-8.367187-98.675782-11.726563-163.917969 99.433593-107.199219 179.578125-6.042969 0-151.238281 0-157.835938 0-7.039062 0-12.75 5.722656-12.75 12.75v97.4375l-14.148437 27.804687c-2.679688 5.273438-7.148438 9.207031-12.449219 11.21875 0-11.621093-9.113281-19.683593-19.300781-19.683593h-29.050782c-10.019531 0-19.308593 7.773437-19.308593 20.074218h-18.675781c-11.316407 0-20.523438 9.207032-20.523438 20.53125v9.121094c0 4.15625 3.363281 7.527344 7.53125 7.527344 4.15625 0 7.53125-3.371094 7.53125-7.527344v-9.121094c0-3.019531 2.449219-5.46875 5.460938-5.46875h18.675781v104.253906h-18.675781c-3.011719 0-5.460938-2.449218-5.460938-5.460937v-54.082031c0-4.167969-3.375-7.53125-7.53125-7.53125-4.167969 0-7.53125 3.363281-7.53125 7.53125v54.082031c0 11.316406 9.207031 20.523437 20.523438 20.523437h18.675781c0 12.308594 9.304687 20.082032 19.308593 20.082032h29.050782c8.847656 0 16.316406-5.984375 18.585937-14.117188 9.261719 2.476563-16.25 1.496094 320.84375 1.496094 7.761719 0 14.078125-6.316406 14.078125-14.078125v-237.25c93.660156-38.332031 95.070313-171.730469 1.246094-211.464844zm-350.515625 387.707031c0 8.011719 0 10.625 0 10.558594v57.839844c0 2.300781-1.9375 4.25-4.238281 4.25h-29.050782c-2.296874 0-4.246093-1.949219-4.246093-4.25 0-6.417969 0-129.585938 0-135.914062 0-2.3125 1.949219-4.25 4.246093-4.25h29.050782c2.300781 0 4.238281 1.9375 4.238281 4.25zm137.617187-201.296874h57.429688v59.09375l-22.324219-17.464844c-3.761719-2.941406-9.050781-2.925782-12.785156 0l-22.320313 17.464844zm-1.730468 261.28125c-119.570313.042968-113.75.792968-120.824219-1.988282v-109.449218c11.121094-2.453126 20.335937-9.238282 26.597656-21.507813 1.664063-3.269531 14.074219-27.65625 17.089844-33.578125 2.496094-4.988281 16.597656 7.621094 9.949219 20.675781l-7.269532 14.289063c-4.898437 9.632812 2.085938 21.027344 12.894532 21.027344l94.34375-.03125c4.667968 0 8.65625 3.828124 8.605468 8.285156-.050781 4.421875-3.699218 8.035156-8.136718 8.058594h-58.871094c-4.160156 0-7.53125 3.371093-7.53125 7.53125 0 4.160156 3.371094 7.53125 7.53125 7.53125.039062 0 87.886719-.007813 87.90625-.007813 3.792969 0 7.75 3.484375 8.363281 6.867187 1.09375 5.460938-2.109375 9.460938-7.75 9.460938-.023437 0-11.679687.007812-89.152343.007812-4.160157 0-7.53125 3.371094-7.53125 7.53125 0 4.15625 3.371093 7.527344 7.53125 7.527344.042968 0 75.472656 0 75.515624.003906 7.230469.265626 10.425782 9.003907 5.453126 13.945313-1.539063 1.546875-3.585938 2.390625-5.765626 2.390625-57.730468.035156-41.714843.03125-82.4375.03125-4.160156 0-7.53125 3.371094-7.53125 7.53125s3.371094 7.53125 7.53125 7.53125c35.863282 0 36.0625-.800781 39.269532 2.386719 5.101562 5.117187 1.476562 13.949219-5.78125 13.949219zm198.320312.039062h-43.195312v-144.792969c0-4.15625-3.375-7.53125-7.53125-7.53125-4.167969 0-7.53125 3.375-7.53125 7.53125v144.792969h-118.363282c2.085938-5.472656 2.054688-11.226562.097657-16.386719l27.152343-.019531c16.722657 0 27.949219-17.160156 21.296876-32.492188 16.738281-5.179687 20.808593-26.058593 8.714843-38.199218-8.132812-8.132813-16.246093-7.167969-24.007812-7.167969 5.820312-15.332031-5.925781-31.398437-22.171875-31.398437l-93.371094.03125 6.828125-13.414063c11.453125-22.523437-8.335937-47.359375-25.402344-43.300781v-78.972656h65.832031v68.710937c0 5.722656 4.660157 10.378906 10.386719 10.378906 4.640625 0 3.699219-.113281 33.390625-23.335937 29.285156 22.910156 28.644532 23.335937 33.386719 23.335937 5.730469 0 10.390625-4.65625 10.390625-10.378906v-68.710937h14.839844c14.371094 14.371093 31.890625 24.453124 51 29.582031v56.824219c0 4.15625 3.363281 7.53125 7.53125 7.53125 4.15625 0 7.53125-3.375 7.53125-7.53125v-53.832032c14.332031 1.855469 29.105468 1.011719 43.195312-2.558594zm0 0" fill="#43a047" data-original="#000000" style="" class=""/><path xmlns="http://www.w3.org/2000/svg" d="m347.972656 113.675781c-2.757812-3.117187-7.519531-3.402343-10.628906-.644531-3.117188 2.757812-3.402344 7.515625-.644531 10.628906l30.332031 34.246094c5.84375 6.59375 16.128906 6.582031 21.964844.03125l69.65625-78.175781c2.769531-3.101563 2.492187-7.863281-.613282-10.628907-3.105468-2.765624-7.863281-2.496093-10.632812.609376l-69.378906 77.859374zm0 0" fill="#43a047" data-original="#000000" style="" class=""/></g></svg>
