<svg xmlns="http://www.w3.org/2000/svg" width="350" height="244.784" viewBox="0 0 350 244.784">
  <g id="Artboard_3_copy_2" data-name="Artboard 3 copy 2" transform="translate(-51.408 -102.32)">
    <g id="Layer_2" data-name="Layer 2" transform="translate(51.408 102.32)">
      <path id="Path_1360" data-name="Path 1360" d="M387.16,251.79c-15.485,41.728-48.541,76.058-92.643,86.988-26.129,6.481-53.06,7.914-79.9,8.121-21.678.161-43.047-7.077-64.232-11.963-24.534-5.655-42.657-9.646-62.569-24.362C74.6,300.8,59.141,292.359,53.808,276.565c-6.3-18.685.149-36.9,15.232-49.08,14.211-11.47,34.054-13.328,50.468-19.1,24.924-8.752,14.911-21.713,11.665-42.233-7.444-47.75,52.257-70.919,89.294-59.644,45.547,13.9,93.526,28.755,134.933,52.567C387.825,177.728,400.775,215.143,387.16,251.79Z" transform="translate(-51.408 -102.117)" fill="#f84b76" opacity="0.1"/>
      <path id="Path_1361" data-name="Path 1361" d="M222.315,313.973c0,1.078-20.5,1.95-45.788,1.95s-45.777-.872-45.777-1.95S151.247,312,176.527,312,222.315,312.895,222.315,313.973Z" transform="translate(-39.745 -71.497)" fill="#f8b6c7"/>
      <path id="Path_1362" data-name="Path 1362" d="M215.114,214.12s-7.088,6.045-3.108,14.98,14.8,15.9,25.842,22.011c8.316,4.588,10.8,7.88,7.134,14.188-4.588,7.914-9.841,6.286-16.058,14.074-2.145,3.005-7.9,12.066-7.9,12.066l5.116,3.246s-.3-1.961,5.964-6.354c6.882-4.829,19.27-11,23.055-13.844s10.2-6.515,7.329-15.507-28.251-31.038-28.251-31.038Z" transform="translate(-27.978 -85.885)" fill="#596a83"/>
      <path id="Path_1363" data-name="Path 1363" d="M163.184,157.382a4.06,4.06,0,1,1-1.189-2.883,4.072,4.072,0,0,1,1.189,2.883Z" transform="translate(-36.174 -94.824)" fill="#abdbe6"/>
      <path id="Path_1364" data-name="Path 1364" d="M302.7,160.514a5.976,5.976,0,1,1-5.964-5.964,5.976,5.976,0,0,1,5.964,5.964Z" transform="translate(-16.225 -94.642)" fill="#abdbe6"/>
      <path id="Path_1365" data-name="Path 1365" d="M280.79,280.074c25.785-27.677,7.6-60.5,7.6-60.5l3.533.539s24.144,26.863.264,56.2Z" transform="translate(-17.689 -85.084)" fill="#d43e3a"/>
      <path id="Path_1366" data-name="Path 1366" d="M290.322,221.845a4.886,4.886,0,1,1-4.875-4.875A4.886,4.886,0,0,1,290.322,221.845Z" transform="translate(-17.724 -85.466)" fill="#d43e3a"/>
      <path id="Path_1367" data-name="Path 1367" d="M202.083,296.611a23.341,23.341,0,1,1-23.341-23.341,23.341,23.341,0,0,1,23.341,23.341Z" transform="translate(-36.121 -77.19)" fill="#dde4ea"/>
      <path id="Path_1368" data-name="Path 1368" d="M202.083,296.611a23.341,23.341,0,1,1-23.341-23.341,23.341,23.341,0,0,1,23.341,23.341Z" transform="translate(-36.121 -77.19)" fill="#596a83"/>
      <path id="Path_1369" data-name="Path 1369" d="M188.88,295.165a12.055,12.055,0,1,1-12.055-12.055,12.055,12.055,0,0,1,12.055,12.055Z" transform="translate(-34.744 -75.744)" fill="#fff"/>
      <path id="Path_1370" data-name="Path 1370" d="M241.143,245.039s-12.445,25.486,1.319,41.808S289.489,297.4,289.489,297.4l-.264,11.172L129.62,314.6s7.054-59.265,35.557-74.44S232.139,233.019,241.143,245.039Z" transform="translate(-39.911 -83.278)" fill="#d43e3a"/>
      <path id="Path_1371" data-name="Path 1371" d="M227.377,273.051c-4.588-17.09-29.306-19.809-55.618-6.515S130.8,306.154,130.8,306.154l1.239.184,79.8-2.845C224.567,296.978,230.9,286.012,227.377,273.051Z" transform="translate(-39.737 -79.415)" fill="#de6264"/>
      <g id="Group_576" data-name="Group 576" transform="translate(99.688 155.416)" opacity="0.4">
        <path id="Path_1372" data-name="Path 1372" d="M138.71,271.668l-.39-.275a105.124,105.124,0,0,1,15.748-16.918c8.935-7.708,22.94-16.826,38.746-16.654,31.669.39,45.49,1.766,45.628,1.778v.482c-.138,0-13.948-1.388-45.593-1.778h-.493C162.51,238.3,138.951,271.29,138.71,271.668Z" transform="translate(-138.32 -237.818)" fill="#fff"/>
      </g>
      <path id="Path_1373" data-name="Path 1373" d="M209.225,217.2a15.438,15.438,0,0,0-.539,16.826c5.425,8.958,22.252,10.851,29.822,17.09s11.321,8.545,8.763,16.058c-3.2,9.44-8.648,8.637-13.443,18.249-1.606,3.647-5.735,14.555-5.735,14.555l5.6,2.581s-.642-2.076,4.794-8.029c5.976-6.5,17.205-15.5,20.405-19.293s8.947-8.958,4.588-18.18-24.695-28.767-24.695-28.767Z" transform="translate(-28.616 -85.433)" fill="#2e3054"/>
      <path id="Path_1374" data-name="Path 1374" d="M321.6,242.792c0,6.825-2.294,12.353-5.15,12.353s-19.006-3.257-19.006-11.4,16.15-13.294,19.006-13.294S321.6,235.979,321.6,242.792Z" transform="translate(-15.241 -83.485)" fill="#de6264"/>
      <path id="Path_1375" data-name="Path 1375" d="M319.822,242.792c0,6.825-2.294,12.353-5.15,12.353s-5.161-5.529-5.161-12.353,2.294-12.342,5.161-12.342S319.822,235.979,319.822,242.792Z" transform="translate(-13.467 -83.485)" fill="#d43e3a"/>
      <path id="Path_1376" data-name="Path 1376" d="M267.028,186.251s16.827-10.323,9.772-20.646-17.366-10.323-22.791,3.257-3.647,12.491-13.959,17.916-27.23,14.67-32.712,27.149,14.647,21.713,29.306,23.341c0,0,9.176-3.257,11.39-10.862S259.435,192.227,267.028,186.251Z" transform="translate(-28.622 -94.101)" fill="#ecb49f"/>
      <path id="Path_1377" data-name="Path 1377" d="M247.766,179.036c-1.72-1.376-3.992,2.569-8.167,4.749-10.472,5.483-27.023,14.75-32.483,27.367s14.911,21.793,29.822,23.479c0,0,9.371-3.28,11.585-10.919,2.03-7.043,10.151-30.3,17.457-38.608C266.508,184.336,251.734,182.225,247.766,179.036Z" transform="translate(-28.652 -91.085)" fill="#d43e3a"/>
      <path id="Path_1378" data-name="Path 1378" d="M245.334,176.44s9.176,9.176,16.689,7.685l-2.156,3.131s-12.846,1.766-20.726-5.506Z" transform="translate(-23.811 -91.424)" fill="#2e3054"/>
      <path id="Path_1379" data-name="Path 1379" d="M256.636,205.994c-1.285-8.809.952-13.535-5.035-17.021-4.806-2.787-6.882-2.558-9.853.287-3.992,3.808-1.239,18.708,3.04,28.9C248.493,210.192,255.868,205.926,256.636,205.994Z" transform="translate(-23.713 -89.872)" fill="#c79e7a"/>
      <path id="Path_1380" data-name="Path 1380" d="M318.713,296.611a23.341,23.341,0,1,1-23.33-23.341A23.341,23.341,0,0,1,318.713,296.611Z" transform="translate(-18.976 -77.19)" fill="#dde4ea"/>
      <path id="Path_1381" data-name="Path 1381" d="M319.58,314.547c0,.654-14.016,1.147-31.3,1.147S257,315.235,257,314.547s14.016-1.147,31.3-1.147S319.58,313.893,319.58,314.547Z" transform="translate(-21.186 -71.291)" fill="#f8b6c7"/>
      <path id="Path_1382" data-name="Path 1382" d="M318.713,296.611a23.341,23.341,0,1,1-23.33-23.341A23.341,23.341,0,0,1,318.713,296.611Z" transform="translate(-18.976 -77.19)" fill="#596a83"/>
      <path id="Path_1383" data-name="Path 1383" d="M305.99,295.165a12.055,12.055,0,1,1-12.055-12.055A12.055,12.055,0,0,1,305.99,295.165Z" transform="translate(-17.528 -75.744)" fill="#fff"/>
      <path id="Path_1384" data-name="Path 1384" d="M242.831,188.308c-6.3,5.161,2.065,25.9,11.286,34.582s15.565,6.538,26.9,3.613c8.947-2.294,11.378-4.232,15.175-.975s2.179-4.886-2.982-7.318-9.5,2.145-18.994,3.292-11.3-5.058-14.074-12.456c-3.384-10.61-.161-17.285-7.467-20.933C247.935,185.67,245.813,185.865,242.831,188.308Z" transform="translate(-23.591 -89.964)" fill="#ecb49f"/>
      <path id="Path_1385" data-name="Path 1385" d="M319.614,277.366a29.443,29.443,0,0,0-50.319,29.57c7.169.367,16.93-2.053,26.725-7.1C308.523,293.4,317.469,284.524,319.614,277.366Z" transform="translate(-19.717 -78.247)" fill="#d43e3a"/>
      <path id="Path_1386" data-name="Path 1386" d="M305.733,275.922a7.192,7.192,0,1,1-7.192-7.192A7.192,7.192,0,0,1,305.733,275.922Z" transform="translate(-16.136 -77.858)" fill="#fff" opacity="0.4"/>
      <path id="Path_1387" data-name="Path 1387" d="M318.655,240.963c0,5.1-1.72,9.233-3.842,9.233s-3.842-4.129-3.842-9.233,1.72-9.233,3.842-9.233S318.655,235.859,318.655,240.963Z" transform="translate(-13.252 -83.297)" fill="#fff" opacity="0.4"/>
      <path id="Path_1388" data-name="Path 1388" d="M320,236.664c0,2.386-1.583,4.313-3.533,4.313s-3.521-1.927-3.521-4.313,1.571-4.324,3.521-4.324S320,234.244,320,236.664Z" transform="translate(-12.961 -83.207)" fill="#fff" opacity="0.4"/>
      <path id="Path_1389" data-name="Path 1389" d="M331.613,180.922a7.18,7.18,0,1,1-2.1-5.089,7.192,7.192,0,0,1,2.1,5.089Z" transform="translate(-12.332 -91.823)" fill="#fff" opacity="0.5"/>
      <path id="Path_1390" data-name="Path 1390" d="M200.458,271.929a4.909,4.909,0,1,1-4.909-4.909A4.909,4.909,0,0,1,200.458,271.929Z" transform="translate(-30.941 -78.109)" fill="#fff" opacity="0.4"/>
      <path id="Path_1391" data-name="Path 1391" d="M203.38,266.42a2.03,2.03,0,1,1-2.03-2.03,2.03,2.03,0,0,1,2.03,2.03Z" transform="translate(-29.665 -78.496)" fill="#fff" opacity="0.4"/>
      <path id="Path_1392" data-name="Path 1392" d="M304.913,272.4a3.131,3.131,0,1,1-3.131-3.131,3.131,3.131,0,0,1,3.131,3.131Z" transform="translate(-15.063 -77.778)" fill="#fff" opacity="0.4"/>
      <path id="Path_1393" data-name="Path 1393" d="M254.374,178.74a106.028,106.028,0,0,1-23.812-7.788c-13.03-5.976-35.006-14.819-52.923-7.215,0,0,15.129,6.481,10.059,16.058-.677.78,11.929-5.012,24.683-.941s28.491,9.176,36.36,5.15Z" transform="translate(-32.852 -93.724)" fill="#2e3054"/>
      <path id="Path_1394" data-name="Path 1394" d="M228.906,151.941a3.533,3.533,0,1,1-3.521-3.521,3.533,3.533,0,0,1,3.521,3.521Z" transform="translate(-26.354 -95.543)" fill="#fff" opacity="0.5"/>
      <path id="Path_1395" data-name="Path 1395" d="M288.618,198.244a1.893,1.893,0,1,1-.554-1.35A1.9,1.9,0,0,1,288.618,198.244Z" transform="translate(-17.098 -88.499)" fill="#abdbe6"/>
      <path id="Path_1396" data-name="Path 1396" d="M228.02,283.641l-3.67,6.056s5.15,6.985,10.162,7.811-5.07-5.288-.688-9.8S228.02,283.641,228.02,283.641Z" transform="translate(-25.985 -75.667)" fill="#fff"/>
      <path id="Path_1397" data-name="Path 1397" d="M258.866,203.678c-1.285-7.57-.2-12.617-6.194-15.6-4.794-2.409-6.882-2.214-9.841.229-3.992,3.28-2.088,12.812,2.191,21.575C248.715,203.024,258.086,203.621,258.866,203.678Z" transform="translate(-23.591 -89.965)" fill="#de6264"/>
      <path id="Path_1398" data-name="Path 1398" d="M191.522,285.009a.941.941,0,0,1-1.021.837H150.357a.849.849,0,1,1,0-1.675H190.5a.952.952,0,0,1,1.021.837Z" transform="translate(-37.008 -75.59)" fill="#fff" opacity="0.4"/>
      <path id="Path_1399" data-name="Path 1399" d="M278.067,295.9c0,.459-.688.837-1.526.837h-59.9c-.837,0-1.525-.379-1.525-.837s.688-.849,1.525-.849h59.931c.837,0,1.526.378,1.526.849Z" transform="translate(-27.342 -73.989)" fill="#fff" opacity="0.4"/>
      <path id="Path_1400" data-name="Path 1400" d="M178.1,290.238a.837.837,0,0,1-.837.849h-32.9a.849.849,0,1,1,0-1.686h32.9A.837.837,0,0,1,178.1,290.238Z" transform="translate(-37.881 -74.82)" fill="#fff" opacity="0.4"/>
      <path id="Path_1401" data-name="Path 1401" d="M213.259,217.435A31.863,31.863,0,0,1,207,206.94c-.115.241-.195.47-.287.688a32.919,32.919,0,0,0,6.159,10.151c4.462,4.978,12.537,10.667,26.129,10.667h1.835c.287-.172.585-.356.883-.562C226.668,228.664,217.939,222.654,213.259,217.435Z" transform="translate(-28.578 -86.941)" fill="#acd0ef"/>
      <path id="Path_1402" data-name="Path 1402" d="M342.22,318.483c-1.354-13.477-3.957-27.528-2.569-41.235.367-3.739,3.556-20.417,9.566-16.586,4.829,3.085,1.652,14.372,1.617,19.063a142.6,142.6,0,0,1-6.033,37.851Z" transform="translate(-9.094 -79.127)" fill="#abdbe6"/>
      <path id="Path_1403" data-name="Path 1403" d="M99.569,273.425c-9.635-2.833-16.448-11.47-15.829-21.793.321-5.483,2.764-4.794,6.091-8.109,3.533-3.51,1.606-4.829-1.388-8.729-5.471-7.123-10.61-15.14-8.385-24.638,2.11-8.992,12.743-8.832,10.392-18.226-3.017-12.078-1.824-24.087-.424-36.486.814-7.249,3.441-24.97,13.443-25.234,9.417-.252,8.958,17.3,9.176,23.25.184,5.54-1,9.382,3.257,12.5,5.46,4,11.757,5.3,12.892,13.328,1.331,9.428-9.1,13.4-9.612,21.793-.436,6.882,9.509,10.954,13.041,16.666,6.63,10.724-6.286,10.8-7.375,19.373a3.773,3.773,0,0,1-.677,1.4c3.625,2.73,8.614,4.187,10.679,8.591,2.4,5.116.642,10.323-2.9,14.314-7.111,7.926-20.462,14.911-31.153,12.365Z" transform="translate(-47.274 -98.221)" fill="#5fa469"/>
      <path id="Path_1404" data-name="Path 1404" d="M121.037,309.472c0,.791-7.891,1.422-17.618,1.422s-17.629-.631-17.629-1.422,7.891-1.422,17.629-1.422S121.037,308.692,121.037,309.472Z" transform="translate(-46.354 -72.078)" fill="#f8b6c7"/>
      <g id="Group_577" data-name="Group 577" transform="translate(37.934 31.99)" opacity="0.4">
        <rect id="Rectangle_909" data-name="Rectangle 909" width="0.482" height="200.197" transform="translate(18.042)" fill="#fff"/>
        <path id="Path_1405" data-name="Path 1405" d="M100.614,196.685l24.855-24.855a1.9,1.9,0,0,0-.149-.539l-25.05,25.062Z" transform="translate(-82.159 -124.171)" fill="#fff"/>
        <path id="Path_1406" data-name="Path 1406" d="M100.608,189.7l22.286-22.24-.321-.344L100.31,189.372Z" transform="translate(-82.153 -124.784)" fill="#fff"/>
        <path id="Path_1407" data-name="Path 1407" d="M100.614,219.43l20.107-20.118-.344-.321-20.107,20.1Z" transform="translate(-82.159 -120.099)" fill="#fff"/>
        <path id="Path_1408" data-name="Path 1408" d="M100.27,159.042l.344.333,8.981-8.981v-.654Z" transform="translate(-82.159 -127.339)" fill="#fff"/>
        <path id="Path_1409" data-name="Path 1409" d="M100.27,223.364l.344.344,22.539-22.539-.367-.31Z" transform="translate(-82.159 -119.824)" fill="#fff"/>
        <path id="Path_1410" data-name="Path 1410" d="M125.825,230.41,100.27,255.954l.344.344,25.544-25.555Z" transform="translate(-82.159 -115.481)" fill="#fff"/>
        <rect id="Rectangle_910" data-name="Rectangle 910" width="36.13" height="0.482" transform="translate(18.1 112.638) rotate(-44.95)" fill="#fff"/>
        <path id="Path_1411" data-name="Path 1411" d="M102.8,206.127,87.443,190.78l-.333.344,15.347,15.347Z" transform="translate(-84.093 -121.306)" fill="#fff"/>
        <path id="Path_1412" data-name="Path 1412" d="M103.188,211.352,84.836,193l-.356.31,18.352,18.352Z" transform="translate(-84.48 -120.98)" fill="#fff"/>
        <path id="Path_1413" data-name="Path 1413" d="M102.476,240.648,89.607,227.79a4.235,4.235,0,0,1-.287.39l12.812,12.812Z" transform="translate(-83.769 -115.866)" fill="#fff"/>
        <path id="Path_1414" data-name="Path 1414" d="M100.27,249.034l.344.333,23.2-23.2-.424-.252Z" transform="translate(-82.159 -116.142)" fill="#fff"/>
        <path id="Path_1415" data-name="Path 1415" d="M91,140.735l10.931,10.931.344-.333-11.1-11.1Z" transform="translate(-83.522 -128.737)" fill="#fff"/>
        <path id="Path_1416" data-name="Path 1416" d="M102.685,174.739,87.9,160v.619l14.487,14.5Z" transform="translate(-83.977 -125.831)" fill="#fff"/>
        <path id="Path_1417" data-name="Path 1417" d="M102.729,179.2,87.6,164.07v.642l14.819,14.819Z" transform="translate(-84.021 -125.233)" fill="#fff"/>
      </g>
      <rect id="Rectangle_911" data-name="Rectangle 911" width="0.78" height="57.407" transform="translate(56.125 174.78)" fill="#5fa469"/>
      <path id="Path_1418" data-name="Path 1418" d="M106.174,312.679S92.41,263.244,83.532,284.819,106.174,312.679,106.174,312.679Z" transform="translate(-46.917 -76.294)" fill="#abdbe6"/>
      <path id="Path_1419" data-name="Path 1419" d="M102.759,317.046l-.08-1.491c-.092-1.583-2.088-39,7.811-49.447a7.9,7.9,0,0,1,6.882-2.661,5.655,5.655,0,0,1,4.772,3.212c5.3,11.126-17.618,47.578-18.593,49.126Zm13.626-52.693a7.054,7.054,0,0,0-5.207,2.42c-8.5,8.992-7.88,39.9-7.616,47.188,4.118-6.744,22.263-37.381,17.733-46.889a4.68,4.68,0,0,0-4.026-2.672A7.727,7.727,0,0,0,116.385,264.353Z" transform="translate(-43.904 -78.642)" fill="#5fa469"/>
      <path id="Path_1420" data-name="Path 1420" d="M341.67,317.076l.08-.574a82.131,82.131,0,0,1,2.787-11.837c.482-1.663.975-3.384,1.411-5.035.138-.551.3-1.434.482-2.432.849-4.749,2.145-11.929,5.919-11.929a3.589,3.589,0,0,1,1.571.4c5.311,2.615,2.466,12.7-.1,19.281a4.759,4.759,0,0,1,2.2-.619,2.638,2.638,0,0,1,2.294,1.262c.688,1.147.539,2.833-.413,4.588-1.434,2.672-4.347,4.037-6.882,5.242l-.6.252Zm10.7-30.969c-3.051,0-4.37,7.295-5.07,11.218-.184,1.021-.344,1.915-.5,2.5-.424,1.663-.918,3.384-1.4,5.058a85.821,85.821,0,0,0-2.7,11.137l7.547-1.147.424-.2c2.581-1.2,5.242-2.455,6.538-4.875a3.98,3.98,0,0,0,.424-3.751,1.766,1.766,0,0,0-1.594-.837,4.749,4.749,0,0,0-2.845,1.2l-1.285,1.009.619-1.514c2.053-4.989,6.263-16.872,1.032-19.5A2.627,2.627,0,0,0,352.372,286.107Z" transform="translate(-8.739 -75.426)" fill="#5fa469"/>
      <path id="Path_1421" data-name="Path 1421" d="M346.073,318.422c1.893-8.683-2.409-22.768-5.838-31.13-1.147-2.73-7.215-11.768-11.057-9.91-3.659,1.766,1.411,11.4,2.81,13.638a6.882,6.882,0,0,0-5.173-2.386c-3.762,0-2.959.78-2.581,3.865.573,4.772,4.187,7.421,7.49,10.243-2.455-.929-6.366-.768-6.24,2.822S346.073,318.422,346.073,318.422Z" transform="translate(-11.353 -76.623)" fill="#5fa469"/>
      <path id="Path_1422" data-name="Path 1422" d="M158.046,199.65V202.6l-19.166-1.766Z" transform="translate(-38.549 -88.013)" fill="#fff" opacity="0.5"/>
      <path id="Path_1423" data-name="Path 1423" d="M152.467,212.48V215.1l-16.987-1.571Z" transform="translate(-39.049 -86.126)" fill="#fff" opacity="0.5"/>
      <path id="Path_1424" data-name="Path 1424" d="M157.675,206.88v2.959l-28.985-1.778Z" transform="translate(-40.047 -86.95)" fill="#fff" opacity="0.5"/>
      <path id="Path_1425" data-name="Path 1425" d="M270.849,164.916s5.253.78,2.512,4.129-8.19-3.212-13.408-1.365S262.132,164.32,270.849,164.916Z" transform="translate(-21.007 -93.125)" fill="#2e3054"/>
      <path id="Path_1426" data-name="Path 1426" d="M255.228,174.593s-3.441,2.8-10.208,1.835l.241-4.588,9.176,2.409Z" transform="translate(-22.947 -92.101)" fill="#2e3054"/>
      <path id="Path_1427" data-name="Path 1427" d="M273.249,166.629c-.918.482-.677.528-2.845.493-3.51-.069-9.933.528-12.7,7.57-.39.986.31,2.156-1.537,3.12s-5.1.551-5.1.551l-5.345-.642s-11.47-15.886,5.288-23.066c11.378-4.863,19.2,3.785,21.529,8.74C273.639,165.746,274.132,166.147,273.249,166.629Z" transform="translate(-23.407 -94.838)" fill="#ed1a4f"/>
      <path id="Path_1428" data-name="Path 1428" d="M265.267,157.971c.883.906,1.147,2.042.654,2.558s-1.652.195-2.535-.7-1.147-2.042-.665-2.558S264.384,157.077,265.267,157.971Z" transform="translate(-20.38 -94.278)" fill="#fff"/>
      <path id="Path_1429" data-name="Path 1429" d="M262.113,163.664a14.223,14.223,0,0,0-6.882,8.373c-.757,2.294-5.574,3.005-11.4,1.72q.138.287.275.551a24.9,24.9,0,0,0,5.093.573c3.441,0,5.919-.941,6.492-2.707a13.5,13.5,0,0,1,6.641-8.086c3.04-1.709,7.731-1.87,9.944-1.835a1.124,1.124,0,0,1,0-.115l-.2-.379C269.718,161.749,265.187,161.955,262.113,163.664Z" transform="translate(-23.122 -93.582)" fill="#fff"/>
      <path id="Path_1430" data-name="Path 1430" d="M221.277,128.15c0,14.269-12.181,25.83-27.218,25.83s-27.218-11.562-27.218-25.83,12.193-25.83,27.218-25.83S221.277,113.893,221.277,128.15Z" transform="translate(-34.439 -102.32)" fill="#abdbe6"/>
      <path id="Path_1431" data-name="Path 1431" d="M218.209,127.894a22.584,22.584,0,1,1-22.584-22.584A22.584,22.584,0,0,1,218.209,127.894Z" transform="translate(-33.528 -101.88)" fill="#fff"/>
      <path id="Path_1432" data-name="Path 1432" d="M192.82,124.977l11.929-11.917-11.126,17.09Z" transform="translate(-30.62 -100.741)" fill="#2e3054"/>
      <path id="Path_1433" data-name="Path 1433" d="M194.042,123.959l-9.532-3.969,10.334,9.142,1.583-2.386Z" transform="translate(-31.842 -99.723)" fill="#2e3054"/>
      <path id="Path_1434" data-name="Path 1434" d="M194.373,110.187a1.457,1.457,0,1,1-1.457-1.457A1.457,1.457,0,0,1,194.373,110.187Z" transform="translate(-30.82 -101.378)" fill="#4f5a79"/>
      <path id="Path_1435" data-name="Path 1435" d="M194.373,139.7a1.457,1.457,0,1,1-1.457-1.457A1.457,1.457,0,0,1,194.373,139.7Z" transform="translate(-30.82 -97.04)" fill="#4f5a79"/>
      <path id="Path_1436" data-name="Path 1436" d="M207.68,126.373a1.457,1.457,0,1,1,1.369-.686A1.457,1.457,0,0,1,207.68,126.373Z" transform="translate(-28.631 -99.212)" fill="#4f5a79"/>
      <path id="Path_1437" data-name="Path 1437" d="M178.187,126.373a1.445,1.445,0,1,1,1.029-.419A1.457,1.457,0,0,1,178.187,126.373Z" transform="translate(-32.986 -99.212)" fill="#4f5a79"/>
      <path id="Path_1438" data-name="Path 1438" d="M171.374,108.56v6.354L122.5,111.106Z" transform="translate(-40.957 -101.403)" fill="#abdbe6"/>
      <path id="Path_1439" data-name="Path 1439" d="M160.632,117.91v6.354l-48.862-3.808Z" transform="translate(-42.535 -100.028)" fill="#abdbe6"/>
      <rect id="Rectangle_912" data-name="Rectangle 912" width="52.647" height="43.437" transform="translate(123.374 106.889)" fill="#d43e3a" opacity="0.4"/>
      <rect id="Rectangle_913" data-name="Rectangle 913" width="52.647" height="5.574" transform="translate(123.374 106.889)" fill="#ed1a4f"/>
      <path id="Path_1440" data-name="Path 1440" d="M183.991,222s1.468,8.224,6.458,8.511c0,0-1.961,1.376-7.731,1.273s-7.238-1.273-7.238-1.273c4.989-.287,6.458-8.511,6.458-8.511Z" transform="translate(-33.169 -84.727)" fill="#596a83"/>
      <path id="Path_1441" data-name="Path 1441" d="M204.449,220.474c0,1.652-8.924,3.6-19.9,3.6s-19.889-1.95-19.889-3.6,8.9-2.994,19.889-2.994S204.449,218.822,204.449,220.474Z" transform="translate(-34.76 -85.391)" fill="#727f9c"/>
      <path id="Path_1442" data-name="Path 1442" d="M201.029,220.945a16.735,16.735,0,0,0-33.469,0c.126,1.434,7.57,2.558,16.735,2.558s16.609-1.147,16.735-2.523Z" transform="translate(-34.333 -87.342)" fill="#596a83"/>
      <path id="Path_1443" data-name="Path 1443" d="M184.608,203.3a1.9,1.9,0,1,1-1.893-1.893A1.9,1.9,0,0,1,184.608,203.3Z" transform="translate(-32.387 -87.754)" fill="#596a83"/>
      <path id="Path_1444" data-name="Path 1444" d="M182.569,205.69s-6.7,3.8-6.882,15.622a53.147,53.147,0,0,1-5.356-.677C170.525,215.726,172.085,207.25,182.569,205.69Z" transform="translate(-33.926 -87.125)" fill="#fff" opacity="0.5"/>
      <path id="Path_1445" data-name="Path 1445" d="M183.739,197.334s-.482-.218-1.285-.642a28,28,0,0,1-3.246-1.984,22.356,22.356,0,0,1-2.019-1.583,14.912,14.912,0,0,1-2.019-2.145,8.029,8.029,0,0,1-.872-1.445,4.84,4.84,0,0,1-.459-1.893,3.694,3.694,0,0,1,.585-2.076,4.587,4.587,0,0,1,.654-.814c.115-.126.241-.206.367-.321l.195-.149.092-.08.115-.069.367-.229.172-.092.264-.126a5.068,5.068,0,0,1,.539-.195,4.072,4.072,0,0,1,.539-.115,3.51,3.51,0,0,1,2.191.4,4.507,4.507,0,0,1,1.445,1.273,9.267,9.267,0,0,1,.895,1.411,15.472,15.472,0,0,1,1.067,2.764,24.918,24.918,0,0,1,.585,2.5,31.561,31.561,0,0,1,.47,3.762c0,.447,0,.814,0,1.055v.379a.482.482,0,0,1-.459.482.356.356,0,0,1-.195,0Zm-.5-1.526v-.161c-.218-.872-.539-2.1-.986-3.533-.218-.723-.482-1.491-.78-2.294a18.1,18.1,0,0,0-1.147-2.294,6.343,6.343,0,0,0-.723-1.032,3.005,3.005,0,0,0-.8-.677,1.227,1.227,0,0,0-.746-.126h-.206l-.184.08h-.092l-.161.1-.333.2h0l-.08.069-.115.08a1.664,1.664,0,0,0-.206.184,1.836,1.836,0,0,0-.321.367,1.274,1.274,0,0,0-.241.8,4.118,4.118,0,0,0,.8,2.1,15.154,15.154,0,0,0,1.629,1.984c.585.608,1.147,1.147,1.732,1.675,1.147,1,2.1,1.8,2.8,2.351Z" transform="translate(-33.41 -90.41)" fill="#d43e3a"/>
      <path id="Path_1446" data-name="Path 1446" d="M183,196.541s.126-.482.413-1.273a31.844,31.844,0,0,1,1.365-3.257,21.707,21.707,0,0,1,1.147-2.1,19.377,19.377,0,0,1,1.56-2.294,12.9,12.9,0,0,1,1.021-1.147,6.884,6.884,0,0,1,1.342-1.009,4.015,4.015,0,0,1,1.938-.551,3.441,3.441,0,0,1,1.147.206,2.925,2.925,0,0,1,.5.229l.241.138.161.115.092.08.138.115h.069l.126.126a3.119,3.119,0,0,1,.436.608,2.547,2.547,0,0,1,.241.642,3.248,3.248,0,0,1,.069.654,3.842,3.842,0,0,1-.677,1.95,7.649,7.649,0,0,1-1.021,1.262,14.547,14.547,0,0,1-1.09,1,21.212,21.212,0,0,1-2.156,1.594c-.7.47-1.388.872-2.019,1.227-1.273.723-2.374,1.239-3.143,1.583s-1.239.516-1.239.516a.482.482,0,0,1-.619-.574Zm.195-.218s.39-.275,1.055-.78S185.879,194.4,187,193.5c.562-.424,1.147-.895,1.778-1.4s1.239-1.055,1.858-1.629a9.83,9.83,0,0,0,1.56-1.835,1.606,1.606,0,0,0,.264-.7v-.069h0l-.069-.069-.138-.115h-.069c-.126-.1.08,0,0,0H192.1l-.138-.069a1.145,1.145,0,0,0-.264,0,1.674,1.674,0,0,0-.757.229,7.146,7.146,0,0,0-1.8,1.468,23.46,23.46,0,0,0-1.548,1.87c-.47.642-.906,1.262-1.3,1.835-.78,1.147-1.411,2.168-1.858,2.867l-.688,1.147Z" transform="translate(-32.064 -90.179)" fill="#d43e3a"/>
      <path id="Path_1447" data-name="Path 1447" d="M180.239,199c-3.728,0-7.146-1.961-10.323-5.919-5.735-7.18-11.654-6.985-20.646-5.815a.9.9,0,0,1-.229-1.778c9.371-1.216,15.978-1.422,22.3,6.469,4.588,5.735,9.451,6.71,15.381,3.212a.9.9,0,0,1,.906,1.548A14.556,14.556,0,0,1,180.239,199Z" transform="translate(-37.171 -90.187)" fill="#d43e3a"/>
    </g>
  </g>
</svg>
