<?xml version="1.0" encoding="iso-8859-1"?>
<!-- Generator: Adobe Illustrator 19.0.0, SVG Export Plug-In . SVG Version: 6.00 Build 0)  -->
<svg version="1.1" id="Capa_1" xmlns="http://www.w3.org/2000/svg" xmlns:xlink="http://www.w3.org/1999/xlink" x="0px" y="0px"
	 viewBox="0 0 384 384" style="enable-background:new 0 0 384 384;" xml:space="preserve">
<g>
	<g>
		<path d="M304.344,114.344L168,31.024V16c0-8.832-7.168-16-16-16c-8.832,0-16,7.168-16,16v24v176v96c0,8.832,7.168,16,16,16
			c8.832,0,16-7.168,16-16v-87.024l136.344-83.32c4.76-2.912,7.656-8.08,7.656-13.656S309.104,117.256,304.344,114.344z
			 M168,187.472V68.528L265.312,128L168,187.472z"/>
	</g>
</g>
<g>
	<g>
		<path d="M214.224,292.368c-6.72-5.768-16.824-4.992-22.568,1.712c-5.76,6.704-4.992,16.808,1.712,22.56
			c3.024,2.6,6.632,6.68,6.632,11.36c0,11.328-20.528,24-48,24s-48-12.672-48-24c0-4.856,3.848-9.072,7.08-11.744
			c6.808-5.64,7.76-15.72,2.12-22.528c-5.632-6.816-15.728-7.76-22.528-2.12C78.632,301.576,72,314.504,72,328
			c0,31.4,35.144,56,80,56s80-24.6,80-56C232,314.872,225.688,302.216,214.224,292.368z"/>
	</g>
</g>
<g>
</g>
<g>
</g>
<g>
</g>
<g>
</g>
<g>
</g>
<g>
</g>
<g>
</g>
<g>
</g>
<g>
</g>
<g>
</g>
<g>
</g>
<g>
</g>
<g>
</g>
<g>
</g>
<g>
</g>
</svg>
