<?xml version="1.0" encoding="iso-8859-1"?>
<!-- Generator: Adobe Illustrator 19.0.0, SVG Export Plug-In . SVG Version: 6.00 Build 0)  -->
<svg version="1.1" id="Capa_1" xmlns="http://www.w3.org/2000/svg" xmlns:xlink="http://www.w3.org/1999/xlink" x="0px" y="0px"
	 viewBox="0 0 512 512" style="enable-background:new 0 0 512 512;" xml:space="preserve">
<g>
	<g>
		<path d="M255.999,0C146.306,0,57.063,89.238,57.063,198.926c0,42.72,13.343,83.439,38.587,117.756
			c23.372,31.772,54.961,55.521,91.672,68.998l54.642,117.37c2.54,5.46,8.016,8.95,14.037,8.95c6.021,0,11.496-3.49,14.038-8.949
			l54.642-117.37c36.711-13.478,68.299-37.226,91.672-68.998c25.244-34.316,38.587-75.036,38.587-117.756
			C454.936,89.238,365.693,0,255.999,0z M255.999,252.996c-29.814,0-54.07-24.256-54.07-54.07c0-29.809,24.256-54.059,54.07-54.059
			s54.07,24.251,54.07,54.059C310.069,228.74,285.813,252.996,255.999,252.996z"/>
	</g>
</g>
<g>
</g>
<g>
</g>
<g>
</g>
<g>
</g>
<g>
</g>
<g>
</g>
<g>
</g>
<g>
</g>
<g>
</g>
<g>
</g>
<g>
</g>
<g>
</g>
<g>
</g>
<g>
</g>
<g>
</g>
</svg>
