<svg xmlns="http://www.w3.org/2000/svg" width="23.942" height="14.852" viewBox="0 0 23.942 14.852">
  <g id="Group_264" data-name="Group 264" transform="translate(-31.376 1224.982)">
    <g id="Component_43_1" data-name="Component 43 – 1" transform="translate(32.138 -1224.374)">
      <path id="Path_439" data-name="Path 439" d="M437.854,334.132l-3.749-7.321a2.412,2.412,0,0,0-3.282-1.052,2.5,2.5,0,0,0-1.033,3.341l3.749,7.321a2.412,2.412,0,0,0,3.282,1.052A2.5,2.5,0,0,0,437.854,334.132Z" transform="translate(-420.726 -324.119)" fill="none" stroke="#707070" stroke-width="1.2" fill-rule="evenodd"/>
      <path id="Path_440" data-name="Path 440" d="M309.283,327.084l-3.749,7.321a2.413,2.413,0,0,1-3.282,1.052,2.5,2.5,0,0,1-1.033-3.341l3.749-7.321a2.412,2.412,0,0,1,3.282-1.052A2.5,2.5,0,0,1,309.283,327.084Z" transform="translate(-295.985 -322.163)" fill="none" stroke="#707070" stroke-width="1.2" fill-rule="evenodd"/>
      <path id="Path_441" data-name="Path 441" d="M139.633,282.034l4.577,7.983a2.8,2.8,0,0,1-.98,3.793,2.7,2.7,0,0,1-3.726-1l-4.577-7.983a2.8,2.8,0,0,1,.98-3.793A2.7,2.7,0,0,1,139.633,282.034Z" transform="translate(-134.555 -280.657)" fill="none" stroke="#707070" stroke-width="1.2" fill-rule="evenodd"/>
      <path id="Path_442" data-name="Path 442" d="M555.505,292.78l4.577-7.983A2.8,2.8,0,0,0,559.1,281a2.7,2.7,0,0,0-3.726,1l-4.577,7.983a2.8,2.8,0,0,0,.98,3.793A2.7,2.7,0,0,0,555.505,292.78Z" transform="translate(-538.037 -280.626)" fill="none" stroke="#707070" stroke-width="1.2" fill-rule="evenodd"/>
    </g>
  </g>
</svg>
