<svg width="512" height="492" viewBox="0 0 512 492" fill="none" xmlns="http://www.w3.org/2000/svg">
<path d="M506.096 254.697C502.195 258.572 497.097 260.509 492 260.509C486.859 260.509 481.721 258.54 477.812 254.605L462 238.688V311.508C462 322.554 453.046 331.508 442 331.508C430.954 331.508 422 322.554 422 311.508V198.425L269.893 45.315C262.429 38.921 251.439 38.897 243.946 45.26L89.9709 198.931C89.9769 199.124 89.9999 199.313 89.9999 199.508V411.508C89.9999 433.564 107.944 451.508 130 451.508H382C404.056 451.508 422 433.564 422 411.508C422 400.462 430.954 391.508 442 391.508C453.046 391.508 462 400.462 462 411.508C462 455.62 426.112 491.508 382 491.508H130C85.8879 491.508 49.9999 455.62 49.9999 411.508V238.824L34.1279 254.665C26.3109 262.467 13.6479 262.455 5.84388 254.637C-1.95912 246.819 -1.94611 234.156 5.87189 226.352C5.87189 226.352 216.706 15.948 216.99 15.695C239.832 -4.64104 274.217 -4.56704 296.972 15.864C297.254 16.118 506.188 226.413 506.188 226.413C513.974 234.249 513.932 246.912 506.096 254.697Z" fill="black"/>
</svg>
