<?xml version="1.0" encoding="UTF-8"?>
<svg width="250px" height="512px" viewBox="0 0 250 512" version="1.1" xmlns="http://www.w3.org/2000/svg" xmlns:xlink="http://www.w3.org/1999/xlink">
    <title>Slice 1</title>
    <g id="Page-1" stroke="none" stroke-width="1" fill="none" fill-rule="evenodd">
        <g id="pin" transform="translate(0.348089, 0.000000)" fill-rule="nonzero">
            <path d="M124.651911,222.999485 L109.199195,241.886082 L109.199195,473.712365 C109.199195,486.062122 112.408209,498.026586 118.290543,508.102868 C121.323396,513.298357 127.980427,513.298357 131.01431,508.102868 C136.896644,498.026586 140.105658,486.062122 140.105658,473.712365 L140.105658,241.886082 L124.651911,222.999485 Z" id="Path" fill="#ACD5DF"></path>
            <path d="M124.651911,0 L124.651911,249.303823 C193.494793,249.303823 249.303823,193.494793 249.303823,124.651911 C249.303823,55.8090302 193.494793,0 124.651911,0 Z" id="Path" fill="#049E77"></path>
            <path d="M218.39839,124.651911 C218.39839,55.8090302 176.426753,0 124.651911,0 C55.8090302,0 0,55.8090302 0,124.651911 C0,193.494793 55.8090302,249.303823 124.651911,249.303823 C176.426753,249.303823 218.39839,193.494793 218.39839,124.651911 Z" id="Path" fill="#00CC99"></path>
        </g>
    </g>
</svg>