<svg width="189" height="425" viewBox="0 0 189 425" fill="none" xmlns="http://www.w3.org/2000/svg">
<path d="M188.04 94.04C188.027 115.924 180.382 137.117 166.421 153.969C152.46 170.821 133.059 182.276 111.56 186.36C111.04 186.48 110.52 186.56 110 186.64C99.415 188.507 88.585 188.507 78 186.64C77.48 186.56 76.96 186.48 76.44 186.36C58.9166 183.02 42.7053 174.763 29.7 162.552C16.6947 150.342 7.43225 134.683 2.99476 117.405C-1.44273 100.127 -0.872082 81.9428 4.64005 64.9769C10.1522 48.0109 20.3782 32.9637 34.1236 21.593C47.8689 10.2223 64.566 2.99762 82.2644 0.762893C99.9628 -1.47184 117.932 1.37567 134.072 8.97278C150.212 16.5699 163.858 28.6029 173.414 43.6662C182.971 58.7295 188.043 76.2011 188.04 94.04V94.04Z" fill="#5FCC48"/>
<path d="M35.428 101.016C33.5715 101.016 31.791 100.279 30.4782 98.9658C29.1655 97.6531 28.428 95.8726 28.428 94.0161C28.4481 76.6315 35.363 59.9647 47.6558 47.6719C59.9486 35.3791 76.6154 28.4642 94 28.4441C95.8565 28.4441 97.637 29.1816 98.9497 30.4943C100.262 31.8071 101 33.5876 101 35.4441C101 37.3006 100.262 39.0811 98.9497 40.3938C97.637 41.7066 95.8565 42.4441 94 42.4441C80.3299 42.46 67.224 47.8963 57.5563 57.5611C47.8885 67.2258 42.4481 80.33 42.428 94.0001C42.4306 94.9208 42.2515 95.8331 41.9008 96.6844C41.5502 97.5358 41.0349 98.3096 40.3846 98.9614C39.7343 99.6132 38.9617 100.13 38.1111 100.483C37.2605 100.835 36.3487 101.017 35.428 101.016V101.016Z" fill="white"/>
<path d="M110 187V403.034C110 408.86 108.314 414.447 105.314 418.566C102.313 422.686 98.2435 425 94 425C89.7565 425 85.6869 422.686 82.6863 418.566C79.6857 414.447 78 408.86 78 403.034V187C88.585 189.563 99.415 189.563 110 187Z" fill="#C8C8C8"/>
</svg>
