<svg id="Capa_1" enable-background="new 0 0 512 512" height="512" viewBox="0 0 512 512" width="512" xmlns="http://www.w3.org/2000/svg"><g><path d="m216.22 413.013c22.677 19.974 56.882 19.977 79.56 0 40.982-36.096 112.897-108.533 134.082-188.111v-.001c4.073-15.304 6.138-30.411 6.138-44.901 0-99.252-80.748-180-180-180s-180 80.748-180 180c0 95.282 87.853 186.889 140.22 233.013zm39.78-373.013c77.196 0 140 62.804 140 140 0 11.018-1.612 22.664-4.793 34.614v-.001c-18.471 69.385-84.28 135.28-121.866 168.384-7.73 6.809-18.95 6.809-26.683 0-38.082-33.543-126.658-120.469-126.658-202.997 0-77.196 62.804-140 140-140z"/><path d="m96 512h320c33.084 0 60-26.916 60-60 0-9.276-2.183-18.546-6.312-26.809l-34.636-69.271c-4.94-9.879-16.95-13.884-26.833-8.944-9.88 4.94-13.884 16.953-8.944 26.833l34.635 69.268c1.388 2.776 2.091 5.778 2.091 8.923 0 11.028-8.972 20-20 20h-320.001c-11.028 0-20-8.972-20-20 0-3.145.703-6.146 2.091-8.921l34.565-69.132c4.939-9.88.935-21.893-8.944-26.833-9.883-4.94-21.894-.935-26.833 8.945l-34.565 69.132c-4.13 8.261-6.314 17.531-6.314 26.809 0 33.084 26.916 60 60 60z"/><path d="m256 240c33.084 0 60-26.916 60-60s-26.916-60-60-60-60 26.916-60 60 26.916 60 60 60zm0-80c11.028 0 20 8.972 20 20s-8.972 20-20 20-20-8.972-20-20 8.972-20 20-20z"/></g></svg>