<svg xmlns="http://www.w3.org/2000/svg" width="77.992" height="15" viewBox="0 0 77.992 15">
  <g id="Group_601" data-name="Group 601" transform="translate(-2915 -7379.53)">
    <g id="Group_599" data-name="Group 599" transform="translate(2915 7379.53)">
      <path id="Path_1647" data-name="Path 1647" d="M67.138,437.385h-2.52v-7.96l-.039-.012c-.047.075-.1.15-.139.227q-2.074,3.634-4.139,7.272a1.207,1.207,0,0,1-.987.659,1.183,1.183,0,0,1-1.233-.617q-.641-1.121-1.281-2.246l-2.9-5.085a.614.614,0,0,0-.173-.2v7.934a18,18,0,0,1-2.5.015c0-.1-.016-.205-.016-.317V424.827a1.349,1.349,0,0,1,.15-.684,1.263,1.263,0,0,1,2.18-.042l1.243,2.156L59,433.592c.045.078.1.155.162.264.063-.1.113-.173.158-.251l5.334-9.273c.047-.08.09-.163.14-.24a1.276,1.276,0,0,1,2.358.592c.006.075,0,.152,0,.228v12.122C67.157,437.147,67.145,437.255,67.138,437.385Z" transform="translate(-51.206 -422.58)" fill="#fff"/>
      <path id="Path_1649" data-name="Path 1649" d="M221.985,459.441v-2.382c.1-.007.177-.018.258-.018,1.734,0,3.469-.029,5.2.008a3.344,3.344,0,0,1,3.059,1.791,3.378,3.378,0,0,1,.37,1.641c.007,1.15.013,2.3,0,3.449a3.514,3.514,0,0,1-.762,2.238,3.075,3.075,0,0,1-2.16,1.186c-.252.024-.506.039-.758.04-1.4,0-2.808.006-4.212,0a3.545,3.545,0,0,1-1.614-.378,3.142,3.142,0,0,1-1.816-2.68,3.552,3.552,0,0,1,.77-2.633,2.954,2.954,0,0,1,2.277-1.164c1.572-.033,3.146-.013,4.719-.014a.667.667,0,0,1,.1.013,17.015,17.015,0,0,1,.012,2.376c-.1,0-.212.013-.317.014h-4.031a1.833,1.833,0,0,0-.4.026,1.013,1.013,0,0,0-.74,1.1,1,1,0,0,0,1.019.932h4.363a1.964,1.964,0,0,0,.352-.031.915.915,0,0,0,.785-.839,2.451,2.451,0,0,0,.013-.278v-3.247a1.008,1.008,0,0,0-1.149-1.152h-5.329Z" transform="translate(-201.729 -452.574)" fill="#fff"/>
      <path id="Path_1650" data-name="Path 1650" d="M347.771,460.562v2.374c-.116.006-.212.015-.317.016h-4.03a2.852,2.852,0,0,0-.329.01.871.871,0,0,0-.712.507,1.021,1.021,0,0,0,.924,1.541c.371.02.74,0,1.116,0h3.223a1.812,1.812,0,0,0,.227,0,.979.979,0,0,0,.926-1.044c.007-.921,0-1.844,0-2.765v-.659a1,1,0,0,0-1.081-1.074h-5.373a16.386,16.386,0,0,1-.014-2.384c.075,0,.158-.016.239-.016,1.734,0,3.469-.03,5.2.008a3.337,3.337,0,0,1,3.057,1.8,3.477,3.477,0,0,1,.369,1.692c0,1.109.008,2.216,0,3.324a4.335,4.335,0,0,1-.106.9,3.233,3.233,0,0,1-3.222,2.622c-1.539.007-3.079.031-4.617,0a3.269,3.269,0,0,1-3.15-2.074,3.551,3.551,0,0,1,.41-3.433,3.023,3.023,0,0,1,1.89-1.269,3.524,3.524,0,0,1,.753-.08c1.463-.007,2.927,0,4.39,0A.94.94,0,0,1,347.771,460.562Z" transform="translate(-309.306 -452.597)" fill="#fff"/>
      <path id="Path_1651" data-name="Path 1651" d="M571.767,467.49c-.74,0-1.488.014-2.232,0a3.63,3.63,0,0,1-2.094-.656,3.109,3.109,0,0,1-1.375-2.557c-.028-1.276-.012-2.551-.008-3.827a3.279,3.279,0,0,1,2.441-3.15,4.45,4.45,0,0,1,1.175-.162h4.31a4.021,4.021,0,0,1,.781.07,3.2,3.2,0,0,1,2.619,2.509,4,4,0,0,1,.116.952c.013,1.132,0,2.265.005,3.4a3.5,3.5,0,0,1-.18,1.146,3.225,3.225,0,0,1-2.523,2.176,4.708,4.708,0,0,1-.952.1C573.154,467.5,572.46,467.49,571.767,467.49Zm.028-7.828h-2.01c-.143,0-.288,0-.43.014a.788.788,0,0,0-.757.662,1.535,1.535,0,0,0-.034.326v3.272a1.713,1.713,0,0,0,.049.4.775.775,0,0,0,.7.6,3.98,3.98,0,0,0,.405.016h4.109c.106,0,.2,0,.3-.006a.806.806,0,0,0,.84-.779,1.647,1.647,0,0,0,.013-.227v-3.271a1.818,1.818,0,0,0-.05-.4.686.686,0,0,0-.512-.543,2.5,2.5,0,0,0-.575-.063C573.165,459.663,572.479,459.663,571.795,459.663Z" transform="translate(-511.59 -452.671)" fill="#fff"/>
      <path id="Path_1652" data-name="Path 1652" d="M699.663,457.13v2.506c-.126.008-.241.022-.357.022h-5.479a3.885,3.885,0,0,0-.431.016c-.235.026-.335.165-.326.423s.106.359.345.376c.117.008.236.01.354.01h3.577a3.947,3.947,0,0,1,1.2.157,3.155,3.155,0,0,1,1.9,1.575,3.739,3.739,0,0,1,.317,2.779,3.186,3.186,0,0,1-2.349,2.327,3.82,3.82,0,0,1-1.1.156h-6.6a19.176,19.176,0,0,1-.022-2.507c.106-.007.221-.022.335-.022h6.135c.106,0,.22,0,.33-.006a.852.852,0,0,0,.875-.961,1.348,1.348,0,0,0-.079-.423.764.764,0,0,0-.7-.538,3.3,3.3,0,0,0-.354-.01H693.61a4.546,4.546,0,0,1-.8-.073,2.816,2.816,0,0,1-2.268-2.972,2.846,2.846,0,0,1,2.658-2.794,5.992,5.992,0,0,1,.635-.035h5.481Z" transform="translate(-622.913 -452.663)" fill="#fff"/>
      <path id="Path_1653" data-name="Path 1653" d="M469.716,429.7h-2.5c-.006-.1-.016-.178-.016-.259V418.46a3.846,3.846,0,0,1,.232-1.416,3.274,3.274,0,0,1,2.249-1.99,3.78,3.78,0,0,1,1.094-.154h5.49a18.5,18.5,0,0,1,.026,2.507c-.106.007-.221.023-.334.023h-5.077c-.106,0-.22,0-.33.008a.825.825,0,0,0-.837.84c-.006.106,0,.2,0,.3v10.778Z" transform="translate(-423.194 -414.899)" fill="#fff"/>
    </g>
    <path id="Path_1654" data-name="Path 1654" d="M505.637,457.183v2.433c-.212.055-5.3.066-5.577.017a15.068,15.068,0,0,1-.015-2.457C500.262,457.121,505.413,457.121,505.637,457.183Z" transform="translate(2462.471 6926.862)" fill="#fff"/>
  </g>
</svg>
