<?xml version="1.0"?>
<svg xmlns="http://www.w3.org/2000/svg" xmlns:xlink="http://www.w3.org/1999/xlink" xmlns:svgjs="http://svgjs.com/svgjs" version="1.1" width="512" height="512" x="0" y="0" viewBox="0 0 512 512" style="enable-background:new 0 0 512 512" xml:space="preserve" class=""><g><g xmlns="http://www.w3.org/2000/svg"><path d="m440 286.318v-.318c0-93.991-63.587-173.401-150-197.497v-12.503c0-30.327-24.673-55-55-55s-55 24.673-55 55v12.503c-86.413 24.096-150 103.506-150 197.497v15h-15c-8.284 0-15 6.716-15 15 0 41.355 33.645 75 75 75h227.122c2.619 55.584 48.657 100 104.878 100 57.897 0 105-47.103 105-105 0-46.374-30.22-85.816-72-99.682zm-230-210.318c0-13.785 11.215-25 25-25s25 11.215 25 25v6.527c-8.197-1.001-16.538-1.527-25-1.527s-16.803.526-25 1.527zm-150 210c0-96.495 78.505-175 175-175 94.837 0 172.292 75.831 174.926 170.043-.973-.027-1.947-.043-2.926-.043-22.982 0-44.259 7.427-61.568 20h-285.432zm245.015 75h-230.015c-19.557 0-36.239-12.539-42.43-30h285.024c-5.658 9.165-9.946 19.261-12.579 30zm101.985 100c-41.355 0-75-33.645-75-75s33.645-75 75-75 75 33.645 75 75-33.645 75-75 75z" fill="#43a047" data-original="#000000" style="" class=""/><path d="m407 341c-8.284 0-15 6.716-15 15v15h-15c-8.284 0-15 6.716-15 15s6.716 15 15 15h30c8.284 0 15-6.716 15-15v-30c0-8.284-6.716-15-15-15z" fill="#43a047" data-original="#000000" style="" class=""/></g></g></svg>
