<svg xmlns="http://www.w3.org/2000/svg" width="180.82" height="124.422" viewBox="0 0 180.82 124.422">
  <g id="Group_708" data-name="Group 708" transform="translate(-104.59 -359.789)">
    <path id="Path_2617" data-name="Path 2617" d="M308.309,110.883v26.259a16.04,16.04,0,0,0,5.972,12.826q7.664,6.46,15.365,12.9c.132.11.277.213.429.329.169-.13.326-.245.473-.368l15.284-12.807a16.068,16.068,0,0,0,5.761-9.886,17.074,17.074,0,0,0,.223-2.808q.022-12.851,0-25.7c0-.267.025-.537.042-.831h6.011c.015.245.039.454.039.665,0,8.743.071,17.486-.027,26.241a21.584,21.584,0,0,1-8.02,16.861c-6.406,5.417-12.858,10.791-19.291,16.169-.15.125-.3.245-.49.395-.177-.135-.348-.258-.51-.392-6.521-5.464-13.072-10.9-19.553-16.4a21.5,21.5,0,0,1-7.541-13.758,23.17,23.17,0,0,1-.226-3.22q-.027-12.88,0-25.751v-.736A38.027,38.027,0,0,1,308.309,110.883Z" transform="translate(-136.081 264.092)" fill="#ed1a4f"/>
    <path id="Path_2618" data-name="Path 2618" d="M379.05,141.372,390.8,129.62l.128.039c.012.2.032.4.032.608v4.7c0,6.526-.02,13.052,0,19.58a7.77,7.77,0,0,1-3.2,6.533c-2.7,2.067-5.344,4.169-8.015,6.266-.213.167-.432.331-.667.513-.179-.128-.341-.245-.491-.356q-4.216-3.3-8.427-6.6a7.458,7.458,0,0,1-2.99-6.163V130.4a2.869,2.869,0,0,1,.091-.768,17.376,17.376,0,0,1,1.5,1.4q.75.736,1.5,1.5l1.457,1.457c.491.49.969.981,1.454,1.454l1.457,1.457,1.5,1.5c.49.49.981.966,1.454,1.457S378.532,140.833,379.05,141.372Z" transform="translate(-185.091 249.851)" fill="#ed1a4f"/>
    <path id="Path_2621" data-name="Path 2621" d="M225.214,462.62V457.1c.223-.017.41-.042.6-.042,4.02,0,8.042-.066,12.059.02a7.753,7.753,0,0,1,7.093,4.152,7.832,7.832,0,0,1,.858,3.8c.017,2.666.029,5.332,0,8a8.146,8.146,0,0,1-1.766,5.189,7.129,7.129,0,0,1-5.008,2.749c-.584.056-1.172.091-1.758.093-3.254,0-6.511.015-9.766,0a8.22,8.22,0,0,1-3.742-.876,7.285,7.285,0,0,1-4.211-6.215,8.236,8.236,0,0,1,1.785-6.1,6.849,6.849,0,0,1,5.28-2.7c3.644-.076,7.294-.029,10.94-.032a1.545,1.545,0,0,1,.221.029,39.454,39.454,0,0,1,.027,5.508c-.233,0-.49.029-.736.032h-9.346a4.249,4.249,0,0,0-.937.061,2.348,2.348,0,0,0-1.717,2.551,2.318,2.318,0,0,0,2.362,2.161h10.116a4.551,4.551,0,0,0,.817-.071,2.121,2.121,0,0,0,1.82-1.945,5.681,5.681,0,0,0,.029-.645v-7.529a2.336,2.336,0,0,0-2.663-2.671H225.214Z" transform="translate(-73.663 2.736)" fill="#ed1a4f"/>
    <path id="Path_2622" data-name="Path 2622" d="M358.232,465.185v5.5c-.27.015-.491.034-.736.037h-9.344a6.613,6.613,0,0,0-.763.022,2.018,2.018,0,0,0-1.651,1.175,2.366,2.366,0,0,0,2.143,3.573c.861.047,1.717,0,2.587,0h7.473a4.2,4.2,0,0,0,.527,0,2.269,2.269,0,0,0,2.146-2.421c.017-2.136,0-4.275,0-6.411v-1.528a2.315,2.315,0,0,0-2.506-2.489H345.653a37.977,37.977,0,0,1-.032-5.528c.174,0,.365-.037.554-.037,4.02,0,8.042-.069,12.059.02a7.738,7.738,0,0,1,7.088,4.169,8.059,8.059,0,0,1,.856,3.924c0,2.57.02,5.138,0,7.706a10.053,10.053,0,0,1-.245,2.1,7.5,7.5,0,0,1-7.47,6.08c-3.568.017-7.139.071-10.705,0a7.578,7.578,0,0,1-7.3-4.809,8.233,8.233,0,0,1,.952-7.958,7.009,7.009,0,0,1,4.383-2.943,8.169,8.169,0,0,1,1.746-.186c3.392-.017,6.786,0,10.178,0A2.186,2.186,0,0,1,358.232,465.185Z" transform="translate(-164.462 2.716)" fill="#ed1a4f"/>
    <path id="Path_2623" data-name="Path 2623" d="M579.305,481.139c-1.717,0-3.451.032-5.175,0a8.415,8.415,0,0,1-4.856-1.521,7.208,7.208,0,0,1-3.188-5.928c-.064-2.958-.027-5.915-.02-8.873a7.6,7.6,0,0,1,5.66-7.3,10.316,10.316,0,0,1,2.725-.375h9.994a9.321,9.321,0,0,1,1.81.162,7.418,7.418,0,0,1,6.072,5.817,9.264,9.264,0,0,1,.27,2.207c.029,2.624,0,5.251.012,7.875a8.12,8.12,0,0,1-.417,2.656,7.476,7.476,0,0,1-5.849,5.045,10.913,10.913,0,0,1-2.207.226C582.521,481.166,580.912,481.139,579.305,481.139Zm.064-18.148h-4.66c-.331,0-.667,0-1,.032a1.827,1.827,0,0,0-1.756,1.535,3.542,3.542,0,0,0-.078.755V472.9a3.965,3.965,0,0,0,.113.929,1.8,1.8,0,0,0,1.624,1.4,9.245,9.245,0,0,0,.939.037h9.528c.245,0,.471,0,.7-.015a1.868,1.868,0,0,0,1.947-1.805,3.788,3.788,0,0,0,.029-.527V465.33a4.228,4.228,0,0,0-.115-.929,1.592,1.592,0,0,0-1.187-1.258,5.8,5.8,0,0,0-1.334-.147C582.545,462.991,580.956,462.991,579.369,462.991Z" transform="translate(-335.196 2.654)" fill="#ed1a4f"/>
    <path id="Path_2625" data-name="Path 2625" d="M473.035,449.214h-5.8c-.015-.223-.037-.412-.037-.6V423.154a8.915,8.915,0,0,1,.537-3.284,7.591,7.591,0,0,1,5.214-4.613,8.765,8.765,0,0,1,2.536-.358h12.728a42.9,42.9,0,0,1,.061,5.812c-.245.017-.513.054-.775.054H475.731c-.245,0-.51,0-.765.02a1.912,1.912,0,0,0-1.94,1.947c-.015.245,0,.471,0,.706v24.988Z" transform="translate(-260.588 34.535)" fill="#ed1a4f"/>
    <path id="Path_2626" data-name="Path 2626" d="M513.066,457.245v5.641c-.49.128-12.284.152-12.929.039a34.924,34.924,0,0,1-.034-5.7C500.605,457.1,512.546,457.1,513.066,457.245Z" transform="translate(-285.347 2.657)" fill="#ed1a4f"/>
    <path id="Path_2620" data-name="Path 2620" d="M357.949,59.174h-.775c-4.763,0-9.528.015-14.293,0a8.542,8.542,0,0,0-6.335,2.612q-2.95,2.943-5.908,5.886c-.15.15-.3.292-.491.466-.186-.177-.346-.319-.49-.468-1.962-1.962-3.924-3.9-5.864-5.866a8.562,8.562,0,0,0-6.376-2.644c-4.743.022-9.489,0-14.224,0h-.836c0-.319-.017-.584,0-.849a9.758,9.758,0,0,1,8.14-8.817,10.816,10.816,0,0,1,1.638-.125h36.051a9.722,9.722,0,0,1,9.538,7.512,7.139,7.139,0,0,1,.226,2.293Z" transform="translate(-136.167 310.42)" fill="#ed1a4f"/>
    <path id="Path_2624" data-name="Path 2624" d="M711.687,457.13v5.81c-.292.02-.559.052-.826.052h-12.7a8.991,8.991,0,0,0-1,.037c-.544.061-.777.383-.755.981s.245.831.8.871c.272.02.547.022.822.022h8.294a9.15,9.15,0,0,1,2.786.363,7.316,7.316,0,0,1,4.414,3.652,8.67,8.67,0,0,1,.736,6.443,7.388,7.388,0,0,1-5.447,5.4,8.854,8.854,0,0,1-2.551.36H690.947a44.468,44.468,0,0,1-.051-5.812c.245-.017.513-.052.777-.052H705.9c.245,0,.51,0,.765-.015a1.974,1.974,0,0,0,2.028-2.229,3.123,3.123,0,0,0-.184-.981,1.771,1.771,0,0,0-1.619-1.248,7.64,7.64,0,0,0-.822-.022h-8.412a10.549,10.549,0,0,1-1.849-.169,6.527,6.527,0,0,1-5.258-6.891,6.6,6.6,0,0,1,6.163-6.477,13.928,13.928,0,0,1,1.471-.081h12.706Z" transform="translate(-429.158 2.661)" fill="#ed1a4f"/>
    <path id="Path_2619" data-name="Path 2619" d="M88.144,455.707H82.3V437.252l-.091-.027c-.108.174-.221.348-.321.527q-4.809,8.424-9.6,16.861a2.8,2.8,0,0,1-2.288,1.528,2.742,2.742,0,0,1-2.86-1.43q-1.486-2.6-2.97-5.207l-6.732-11.789a1.423,1.423,0,0,0-.4-.473v18.393a41.734,41.734,0,0,1-5.8.034c0-.231-.037-.476-.037-.736V426.591A3.127,3.127,0,0,1,51.558,425a2.928,2.928,0,0,1,5.055-.1l2.882,5,9.785,17.008c.105.181.221.361.375.613.147-.233.262-.4.365-.581l12.368-21.5c.108-.186.208-.378.324-.557a2.958,2.958,0,0,1,5.467,1.373c.015.174,0,.353,0,.53V454.9C88.188,455.155,88.161,455.405,88.144,455.707Z" transform="translate(53.384 28.052)" fill="#ed1a4f"/>
  </g>
</svg>
