<?xml version="1.0" encoding="UTF-8"?>
<svg width="824px" height="378px" viewBox="0 0 824 378" version="1.1" xmlns="http://www.w3.org/2000/svg" xmlns:xlink="http://www.w3.org/1999/xlink">
    <title>Slice 1</title>
    <defs>
        <path d="M368.372063,155.704132 C183.589204,155.426405 0,156.171234 0,155.704132 C0,82.0756593 166.547457,0 371.995768,0 C577.444079,0 744,69.7138618 744,155.704132 C744,198.978811 555.573479,155.985494 368.372063,155.704132 Z" id="path-1"></path>
    </defs>
    <g id="Page-1" stroke="none" stroke-width="1" fill="none" fill-rule="evenodd">
        <g id="Group-4" transform="translate(1.000000, 0.090418)">
            <line x1="0.5" y1="359.409582" x2="822" y2="359.909582" id="Line-2" stroke="#F2EBEB" stroke-width="2" stroke-linecap="square"></line>
            <g id="Group-314" transform="translate(40.000000, 202.909582)">
                <mask id="mask-2" fill="white">
                    <use xlink:href="#path-1"></use>
                </mask>
                <g id="Clip-313"></g>
                <path d="M371.995768,156.953243 C166.547457,156.953243 0,156.530911 0,156.53341 C0,156.953243 128.53601,1 371.995768,1 C615.455526,1 744,156.530911 744,156.53341 C573.776385,157.206695 577.444079,156.953243 371.995768,156.953243 Z" id="Fill-312" fill="#FCFBFF" mask="url(#mask-2)"></path>
            </g>
            <path d="M266.714,207.993582 L250.488,201.877582 L236.251,211.776582 C234.629,212.903582 232.418,211.682582 232.51,209.709582 L233.312,192.387582 L219.499,181.906582 C217.926,180.712582 218.404,178.232582 220.308,177.710582 L237.03,173.121582 L242.73,156.744582 C243.379,154.879582 245.886,154.567582 246.971,156.217582 L256.503,170.703582 L273.84,171.063582 C275.814,171.104582 276.885,173.391582 275.651,174.933582 L264.82,188.475582 L269.835,205.074582 C270.406,206.965582 268.561,208.690582 266.714,207.993582" id="Fill-322" fill="#D8D8D8"></path>
            <polyline id="Fill-325" fill="#3F3D55" transform="translate(247.292000, 50.571582) rotate(-30.000000) translate(-247.292000, -50.571582) " points="235.537 6.949582 226.057 30.372582 247.257 40.628582 238.937 64.114582 257.987 76.414582 254.627 95.008582 264.047 96.706582 268.527 71.837582 250.477 60.181582 259.137 35.748582 238.287 25.662582 246.877 4.436582 235.537 6.949582"></polyline>
            <polyline id="Fill-327" fill="#3F3D55" points="549.337 99.521582 544.437 84.931582 567.037 74.445582 562.497 52.229582 578.127 41.616582 572.757 33.703582 551.847 47.896582 556.157 68.950582 532.637 79.858582 540.017 101.813582 549.337 99.521582"></polyline>
            <polyline id="Fill-394" fill="#D8D8D8" points="389.877 33.973582 379.537 11.938582 388.127 7.909582 393.987 20.401582 408.297 11.743582 413.207 19.859582 389.877 33.973582"></polyline>
            <polyline id="Fill-395" fill="#D8D8D8" points="577.85 227.935582 554.926 236.111582 551.739 227.177582 564.735 222.543582 557.49 207.464582 566.039 203.356582 577.85 227.935582"></polyline>
            <g id="Group-3" transform="translate(326.000000, 85.909582)">
                <rect id="Rectangle" stroke="#20DBAC" fill="#FFFFFF" x="0.5" y="0.5" width="172" height="172" rx="33"></rect>
                <g id="search" transform="translate(47.000000, 46.000000)" fill="#00CC99" fill-rule="nonzero">
                    <path d="M80.5056732,75.7332865 L56.9757429,52.2033618 C61.438665,46.6936081 64.1251195,39.6889895 64.1251195,32.062631 C64.1251195,14.3833886 49.7417273,0 32.0624806,0 C14.3832339,0 0,14.3833886 0,32.062631 C0,49.7418734 14.3833921,64.125262 32.0626388,64.125262 C39.6889992,64.125262 46.6936195,61.43865 52.2033746,56.9758871 L75.7333049,80.5058118 C76.3925391,81.1647294 77.4607295,81.1647294 78.1199637,80.5058118 L80.5058314,78.1197864 C81.1647492,77.4607106 81.1647492,76.3922041 80.5056732,75.7332865 Z M32.0626388,57.3751928 C18.1044978,57.3751928 6.75007086,46.0207686 6.75007086,32.062631 C6.75007086,18.1044934 18.1044978,6.75006921 32.0626388,6.75006921 C46.0207798,6.75006921 57.3752068,18.1044934 57.3752068,32.062631 C57.3752068,46.0207686 46.0207798,57.3751928 32.0626388,57.3751928 Z" id="Shape"></path>
                </g>
            </g>
        </g>
    </g>
</svg>