<svg width="492" height="326" viewBox="0 0 492 326" fill="none" xmlns="http://www.w3.org/2000/svg">
<path d="M488.18 250.262H436.448C440.224 234.796 442.232 218.651 442.232 202.025C442.232 168.992 434.309 137.797 420.274 110.255H456.966C459.084 110.255 460.786 108.549 460.786 106.427C460.786 104.305 459.084 102.599 456.966 102.599H416.17C381.551 41.3457 315.915 0 240.652 0C190.601 0 144.806 18.2884 109.554 48.5648H47.4756C45.3583 48.5648 43.6557 50.2711 43.6557 52.3931C43.6557 54.5151 45.3583 56.2214 47.4756 56.2214H101.128C96.8502 60.3341 92.7466 64.6437 88.8394 69.1283H3.81988C1.70257 69.1283 0 70.8346 0 72.9566C0 75.0786 1.70257 76.7849 3.81988 76.7849H82.4657C55.29 111.218 39.0719 154.729 39.0719 202.025C39.0719 228.495 44.1578 253.784 53.391 276.951H43.3283C41.211 276.951 39.5084 278.657 39.5084 280.779C39.5084 282.901 41.211 284.607 43.3283 284.607H56.6215C58.0185 287.714 59.4809 290.776 61.0089 293.795H15.8252C13.7079 293.795 12.0053 295.502 12.0053 297.623C12.0053 299.745 13.7079 301.452 15.8252 301.452H65.1343C69.8492 309.787 75.1315 317.749 80.9377 325.297H400.367C411.215 311.209 420.252 295.611 427.106 278.919H464.606C466.723 278.919 468.426 277.213 468.426 275.091C468.426 272.969 466.723 271.263 464.606 271.263H430.074C431.668 266.888 433.108 262.425 434.418 257.918H488.18C490.297 257.918 492 256.212 492 254.09C492 251.968 490.297 250.262 488.18 250.262Z" fill="#F9F8F8"/>
<path d="M325.366 325.275H300.941C300.941 323.503 302.36 322.081 304.128 322.081H322.158C323.947 322.081 325.366 323.525 325.366 325.275Z" fill="#F2F2F2"/>
<path d="M319.582 322.081H306.747L310.916 202.791L313.732 204.65L319.582 322.081Z" fill="#F2F2F2"/>
<path d="M323.555 325.275H299.129C299.129 323.503 300.548 322.081 302.316 322.081H320.346C322.136 322.081 323.555 323.525 323.555 325.275Z" fill="#F2F2F2"/>
<path d="M311.353 203.841L372.798 239.389L372.122 235.889C371.991 235.189 371.62 234.577 371.052 234.161L330.911 203.01C330.168 202.441 329.208 202.266 328.313 202.528L320.259 204.935C319.495 205.153 318.687 205.066 317.988 204.672L312.641 201.566L311.353 203.841Z" fill="#F2F2F2"/>
<path d="M310.043 201.588L248.598 237.136L251.959 238.296C252.636 238.536 253.356 238.514 254.011 238.23L300.985 218.957C301.858 218.607 302.491 217.842 302.709 216.945L304.652 208.763C304.826 207.975 305.328 207.319 306.027 206.925L311.375 203.841L310.043 201.588Z" fill="#F2F2F2"/>
<path d="M312.64 201.588V130.469L309.956 132.809C309.432 133.269 309.082 133.903 308.973 134.603L302.141 185.006C302.01 185.924 302.338 186.865 303.014 187.499L309.126 193.275C309.694 193.822 310.021 194.587 310.021 195.375V201.566H312.64V201.588Z" fill="#F2F2F2"/>
<path d="M317.246 322.081H305.459L309.628 202.791H313.077L317.246 322.081Z" fill="#F2F2F2"/>
<path d="M314.289 203.5C314.672 201.878 313.669 200.252 312.05 199.869C310.431 199.485 308.809 200.49 308.426 202.113C308.044 203.735 309.047 205.361 310.666 205.745C312.285 206.128 313.907 205.123 314.289 203.5Z" fill="#F2F2F2"/>
<path d="M311.135 205.372C312.654 205.372 313.885 204.138 313.885 202.616C313.885 201.093 312.654 199.859 311.135 199.859C309.616 199.859 308.384 201.093 308.384 202.616C308.384 204.138 309.616 205.372 311.135 205.372Z" fill="#F2F2F2"/>
<path d="M249.689 237.508L308.384 202.616L308.34 202.572L248.598 237.136L249.689 237.508Z" fill="#F2F2F2"/>
<path d="M317.246 321.315H305.481V322.081H317.246V321.315Z" fill="#F2F2F2"/>
<path d="M311.789 131.234L312.597 200.1L312.641 200.078V130.469L311.789 131.234Z" fill="#F2F2F2"/>
<path d="M372.58 238.252L313.055 204.76V204.825L372.798 239.389L372.58 238.252Z" fill="#F2F2F2"/>
<path d="M405.606 325.275H366.512C366.512 322.453 368.804 320.156 371.62 320.156H400.498C403.314 320.156 405.606 322.453 405.606 325.275Z" fill="#ECECEC"/>
<path d="M396.35 320.156H375.767L382.446 129.178L386.943 132.153L396.35 320.156Z" fill="#ECECEC"/>
<path d="M402.703 325.275H363.609C363.609 322.453 365.901 320.156 368.717 320.156H397.595C400.411 320.156 402.703 322.453 402.703 325.275Z" fill="#F2F2F2"/>
<path d="M383.145 130.862L481.523 187.784L480.322 181.527C480.191 180.827 479.82 180.215 479.253 179.777L413.769 128.981C413.027 128.412 412.067 128.237 411.172 128.5L396.722 132.831C395.958 133.05 395.15 132.963 394.452 132.569L385.24 127.231L383.145 130.862Z" fill="#F2F2F2"/>
<path d="M381.071 127.231L282.693 184.152L288.696 186.231C289.35 186.471 290.093 186.449 290.726 186.165L368.738 154.16L372.864 136.791L383.145 130.841L381.071 127.231Z" fill="#F2F2F2"/>
<path d="M385.24 127.231V13.3881L380.438 17.5446C379.914 18.004 379.565 18.6384 379.456 19.3384L368.302 101.57C368.171 102.489 368.498 103.43 369.175 104.064L380.132 114.455C380.7 115.002 381.049 115.768 381.049 116.555V127.209H385.24V127.231Z" fill="#F2F2F2"/>
<path d="M392.596 320.156H373.715L380.394 129.178H385.895L392.596 320.156Z" fill="#F2F2F2"/>
<path d="M387.642 131.027C388.667 128.549 387.492 125.708 385.02 124.681C382.547 123.655 379.712 124.832 378.688 127.31C377.664 129.788 378.838 132.629 381.311 133.655C383.783 134.682 386.618 133.505 387.642 131.027Z" fill="#ECECEC"/>
<path d="M386.891 130.564C387.823 128.31 386.754 125.725 384.504 124.791C382.255 123.857 379.675 124.927 378.743 127.182C377.811 129.437 378.88 132.022 381.13 132.956C383.379 133.89 385.959 132.819 386.891 130.564Z" fill="#F2F2F2"/>
<path d="M284.439 184.765L378.408 128.872L378.321 128.828L282.693 184.152L284.439 184.765Z" fill="#ECECEC"/>
<path d="M392.596 318.931H373.759V320.178H392.596V318.931Z" fill="#ECECEC"/>
<path d="M383.843 14.5913L385.131 124.89L385.24 124.847V13.3881L383.843 14.5913Z" fill="#ECECEC"/>
<path d="M481.174 185.968L385.895 132.328L385.873 132.438L481.523 187.784L481.174 185.968Z" fill="#ECECEC"/>
<path d="M92.4629 232.805C79.8682 232.805 69.5654 222.479 69.5654 209.857V157.07C69.5654 144.447 79.8682 134.122 92.4629 134.122C105.058 134.122 115.36 144.447 115.36 157.07V209.879C115.36 222.479 105.058 232.805 92.4629 232.805Z" fill="#F2F2F2"/>
<path d="M93.7289 325.406H91.2405V170.83C91.2405 170.13 91.808 169.583 92.4847 169.583C93.1832 169.583 93.7289 170.152 93.7289 170.83V325.406Z" fill="#E4E4E4"/>
<path d="M93.7289 191.765L86.7876 179.712C86.4384 179.121 85.6744 178.902 85.085 179.252C84.4957 179.602 84.2774 180.368 84.6267 180.959L91.5679 193.012L93.7289 191.765Z" fill="#E4E4E4"/>
<path d="M93.3797 206.182L100.321 194.128C100.67 193.537 100.452 192.772 99.8626 192.422C99.2732 192.072 98.5093 192.29 98.16 192.881L91.2188 204.935L93.3797 206.182Z" fill="#E4E4E4"/>
<path d="M150.918 207.691C134.94 207.691 121.843 194.587 121.843 178.552V111.502C121.843 95.4889 134.918 82.3633 150.918 82.3633C166.896 82.3633 179.993 95.467 179.993 111.502V178.552C179.993 194.587 166.896 207.691 150.918 207.691Z" fill="#F2F2F2"/>
<path d="M152.511 325.253H149.346V128.959C149.346 128.084 150.067 127.362 150.94 127.362C151.813 127.362 152.533 128.084 152.533 128.959V325.253H152.511Z" fill="#E4E4E4"/>
<path d="M152.512 155.582L143.693 140.269C143.257 139.503 142.296 139.241 141.532 139.678C140.768 140.116 140.506 141.079 140.943 141.844L149.761 157.157L152.512 155.582Z" fill="#E4E4E4"/>
<path d="M152.075 173.871L160.893 158.557C161.33 157.792 161.068 156.829 160.304 156.392C159.54 155.954 158.58 156.217 158.143 156.982L149.325 172.296L152.075 173.871Z" fill="#E4E4E4"/>
<path d="M106.585 316.721C107.917 315.474 108.528 314.031 108.004 313.024C107.349 311.777 105.167 311.58 102.853 312.455C102.962 312.149 103.093 311.843 103.18 311.515C104.424 307.555 103.704 303.792 101.609 303.136C99.5568 302.48 96.9157 305.018 95.6278 308.824C94.5583 304.471 91.8516 301.408 89.516 301.955C87.3114 302.48 86.2418 306.024 86.9403 310.071C83.7316 308.649 80.6102 308.758 79.628 310.487C78.6021 312.259 80.1955 315.146 83.2296 317.246C81.789 317.728 80.8067 318.624 80.6539 319.718C80.4793 321.075 81.658 322.431 83.5134 323.262C83.4042 323.525 83.3824 323.787 83.4479 324.05C83.6443 324.881 84.6702 325.384 86.0454 325.428H86.2418C86.2418 325.428 86.2418 325.428 86.2637 325.428H103.442V325.406C103.77 325.362 104.032 325.231 104.119 324.99C104.184 324.837 104.141 324.662 104.053 324.487C104.948 324.4 105.647 324.05 105.865 323.437C106.04 322.978 105.909 322.431 105.538 321.906C107.895 321.753 109.685 320.725 109.75 319.39C109.794 318.253 108.484 317.203 106.585 316.721Z" fill="#E4E4E4"/>
<path d="M142.732 309.415C145.177 307.096 146.312 304.471 145.33 302.611C144.129 300.314 140.135 299.964 135.857 301.583C136.075 301.014 136.271 300.445 136.468 299.855C138.738 292.57 137.45 285.657 133.565 284.432C129.789 283.251 124.943 287.889 122.585 294.889C120.643 286.882 115.644 281.238 111.344 282.245C107.306 283.207 105.319 289.704 106.629 297.186C100.714 294.561 94.9949 294.78 93.1832 297.93C91.306 301.189 94.2309 306.505 99.8189 310.377C97.1777 311.274 95.3442 312.893 95.1041 314.927C94.7985 317.443 96.9376 319.915 100.343 321.425C100.146 321.906 100.103 322.409 100.212 322.868C100.561 324.378 102.482 325.318 104.97 325.406H105.341H105.363H136.926V325.384C137.537 325.297 137.996 325.034 138.149 324.618C138.258 324.334 138.214 324.028 138.039 323.7C139.698 323.547 140.943 322.89 141.357 321.775C141.685 320.921 141.445 319.937 140.768 318.953C145.09 318.668 148.408 316.765 148.517 314.337C148.648 312.237 146.225 310.29 142.732 309.415Z" fill="#F2F2F2"/>
<path d="M357.693 311.055C355.51 308.999 354.506 306.658 355.379 304.996C356.449 302.939 360.007 302.633 363.827 304.077C363.63 303.574 363.456 303.071 363.281 302.546C361.251 296.048 362.408 289.901 365.879 288.829C369.24 287.779 373.562 291.914 375.657 298.127C377.404 290.995 381.857 285.964 385.676 286.86C389.278 287.714 391.046 293.511 389.889 300.161C395.15 297.82 400.236 298.017 401.873 300.817C403.553 303.727 400.934 308.452 395.957 311.908C398.315 312.696 399.93 314.14 400.17 315.977C400.432 318.209 398.533 320.418 395.499 321.775C395.674 322.212 395.717 322.65 395.608 323.065C395.302 324.422 393.6 325.253 391.373 325.34H391.046H391.024H362.91V325.318C362.364 325.253 361.95 325.012 361.819 324.64C361.731 324.4 361.775 324.115 361.906 323.831C360.422 323.678 359.308 323.109 358.937 322.125C358.654 321.359 358.872 320.484 359.461 319.609C355.619 319.346 352.673 317.662 352.564 315.496C352.433 313.571 354.572 311.843 357.693 311.055Z" fill="#EAEAEA"/>
<path d="M390.173 319.587C389.3 318.756 388.885 317.815 389.235 317.137C389.671 316.306 391.112 316.174 392.64 316.765C392.552 316.568 392.487 316.349 392.421 316.152C391.592 313.527 392.072 311.055 393.469 310.618C394.823 310.18 396.569 311.865 397.42 314.381C398.119 311.493 399.93 309.458 401.458 309.83C402.921 310.18 403.619 312.521 403.161 315.212C405.3 314.271 407.352 314.337 408.007 315.474C408.683 316.656 407.636 318.559 405.627 319.959C406.588 320.287 407.243 320.856 407.33 321.6C407.439 322.497 406.675 323.393 405.453 323.94C405.518 324.115 405.54 324.29 405.496 324.465C405.365 325.012 404.689 325.34 403.772 325.384H403.641H392.291C392.072 325.362 391.898 325.253 391.854 325.122C391.81 325.012 391.832 324.903 391.898 324.794C391.308 324.728 390.85 324.509 390.697 324.093C390.588 323.787 390.675 323.437 390.915 323.087C389.366 322.978 388.165 322.3 388.121 321.425C388.056 320.615 388.929 319.915 390.173 319.587Z" fill="#E4E4E4"/>
<path d="M251.741 311.887C249.689 309.94 248.75 307.73 249.558 306.177C250.562 304.252 253.923 303.946 257.503 305.302C257.329 304.843 257.154 304.339 257.001 303.858C255.08 297.733 256.172 291.936 259.446 290.929C262.633 289.923 266.693 293.839 268.657 299.702C270.294 292.986 274.485 288.239 278.087 289.092C281.47 289.901 283.129 295.37 282.038 301.627C287.014 299.439 291.795 299.614 293.323 302.261C294.894 304.996 292.45 309.458 287.757 312.718C289.983 313.462 291.511 314.84 291.729 316.546C291.991 318.646 290.179 320.725 287.32 322.015C287.473 322.431 287.516 322.825 287.429 323.24C287.124 324.509 285.53 325.297 283.435 325.384H283.129H283.107H256.608V325.362C256.084 325.297 255.713 325.078 255.582 324.728C255.495 324.487 255.539 324.225 255.67 323.962C254.273 323.831 253.225 323.284 252.876 322.343C252.614 321.621 252.81 320.79 253.356 319.981C249.732 319.74 246.938 318.143 246.851 316.109C246.786 314.271 248.816 312.63 251.741 311.887Z" fill="#F2F2F2"/>
<path d="M281.536 317.728C280.379 316.634 279.833 315.365 280.292 314.49C280.859 313.396 282.758 313.221 284.788 314.009C284.679 313.746 284.592 313.462 284.504 313.177C283.413 309.699 284.046 306.44 285.879 305.849C287.669 305.28 289.983 307.49 291.096 310.815C292.013 307.008 294.392 304.318 296.444 304.799C298.365 305.258 299.304 308.343 298.692 311.909C301.508 310.662 304.215 310.771 305.088 312.259C305.983 313.812 304.586 316.327 301.923 318.165C303.189 318.581 304.04 319.368 304.171 320.331C304.324 321.512 303.298 322.693 301.683 323.415C301.77 323.656 301.792 323.875 301.748 324.115C301.574 324.837 300.679 325.275 299.478 325.319H299.304C299.304 325.319 299.304 325.319 299.282 325.319H284.264V325.297C283.98 325.253 283.762 325.144 283.675 324.947C283.631 324.815 283.653 324.662 283.719 324.509C282.933 324.422 282.343 324.115 282.147 323.59C281.994 323.175 282.103 322.715 282.431 322.256C280.379 322.125 278.807 321.228 278.742 320.046C278.72 319.062 279.877 318.143 281.536 317.728Z" fill="#E4E4E4"/>
<path d="M296.619 136.397C296.422 136.397 296.248 136.419 296.073 136.485C296.073 136.397 296.073 136.31 296.073 136.222C296.073 134.122 294.37 132.416 292.275 132.416C290.529 132.416 289.066 133.575 288.63 135.172C288.411 135.106 288.193 135.085 287.953 135.085C286.6 135.085 285.508 136.178 285.508 137.535C285.508 138.891 286.6 139.985 287.953 139.985C287.997 139.985 288.04 139.985 288.084 139.985H296.575C297.579 139.985 298.365 139.175 298.365 138.191C298.43 137.207 297.623 136.397 296.619 136.397Z" fill="#F2F2F2"/>
<path d="M230.502 94.942C229.476 94.942 228.516 95.2264 227.708 95.7076C226.857 92.0325 223.583 89.298 219.654 89.298C219.304 89.298 218.977 89.3198 218.628 89.3636C216.794 85.2728 212.712 82.4289 207.954 82.4289C201.493 82.4289 196.254 87.6791 196.254 94.1544C196.254 94.2201 196.254 94.2857 196.254 94.3513C195.468 93.9794 194.595 93.7826 193.678 93.7826C190.339 93.7826 187.654 96.4952 187.654 99.8203C187.654 103.145 190.36 105.858 193.678 105.858H230.502C233.514 105.858 235.959 103.408 235.959 100.389C235.959 97.3921 233.514 94.942 230.502 94.942Z" fill="#F2F2F2"/>
<path d="M174.404 225.126C175.081 225.126 175.714 225.323 176.238 225.629C176.806 223.223 178.945 221.407 181.542 221.407C181.76 221.407 182.001 221.429 182.219 221.451C183.419 218.76 186.104 216.901 189.247 216.901C193.504 216.901 196.931 220.357 196.931 224.601C196.931 224.645 196.931 224.689 196.931 224.733C197.455 224.492 198.022 224.361 198.633 224.361C200.816 224.361 202.606 226.133 202.606 228.342C202.606 230.53 200.838 232.323 198.633 232.323H174.404C172.418 232.323 170.825 230.705 170.825 228.736C170.825 226.767 172.418 225.126 174.404 225.126Z" fill="#F2F2F2"/>
<path d="M415.21 303.814L415.144 304.033C415.144 304.055 414.991 304.624 414.62 305.324C414.271 305.98 413.682 306.855 412.743 307.402C411.805 307.949 410.735 308.058 410.015 308.036C409.229 308.015 408.661 307.883 408.64 307.883L408.421 307.818L408.487 307.599C408.487 307.577 408.64 307.008 409.011 306.308C409.36 305.652 409.949 304.777 410.888 304.23C411.826 303.683 412.896 303.574 413.616 303.596C414.402 303.617 414.97 303.749 414.991 303.749L415.21 303.814ZM408.989 307.49C409.578 307.599 411.215 307.774 412.525 307.008C413.835 306.243 414.446 304.711 414.642 304.143C414.053 304.033 412.416 303.858 411.106 304.624C409.818 305.389 409.185 306.921 408.989 307.49Z" fill="#E4E4E4"/>
<path d="M412.11 309.043C410.036 309.83 407.723 308.78 407.723 308.78C407.723 308.78 408.77 306.461 410.844 305.674C412.918 304.886 415.231 305.936 415.231 305.936C415.231 305.936 414.184 308.255 412.11 309.043Z" fill="#F2F2F2"/>
<path d="M407.657 278.81V279.094C407.657 279.116 407.657 279.86 407.417 280.801C407.199 281.676 406.74 282.945 405.78 283.885C404.819 284.826 403.553 285.285 402.68 285.482C401.72 285.701 400.999 285.701 400.978 285.701H400.694V285.417C400.694 285.395 400.694 284.651 400.934 283.71C401.152 282.835 401.611 281.566 402.571 280.626C403.532 279.685 404.798 279.226 405.671 279.029C406.631 278.81 407.351 278.81 407.373 278.81H407.657ZM401.261 285.132C402.004 285.088 404.034 284.804 405.387 283.492C406.74 282.157 407.024 280.123 407.09 279.379C406.347 279.423 404.317 279.707 402.964 281.02C401.611 282.354 401.327 284.388 401.261 285.132Z" fill="#E4E4E4"/>
<path d="M405.474 286.073C403.204 287.648 400.105 287.101 400.105 287.101C400.105 287.101 400.672 283.995 402.942 282.42C405.212 280.845 408.312 281.391 408.312 281.391C408.312 281.391 407.744 284.476 405.474 286.073Z" fill="#F2F2F2"/>
<path d="M119.573 271.46L119.748 271.613C119.77 271.635 120.228 272.028 120.708 272.685C121.145 273.297 121.712 274.26 121.8 275.376C121.887 276.491 121.494 277.541 121.167 278.219C120.795 278.941 120.403 279.401 120.403 279.423L120.25 279.598L120.075 279.444C120.053 279.423 119.595 279.029 119.115 278.373C118.656 277.76 118.111 276.797 118.023 275.682C117.936 274.566 118.329 273.516 118.656 272.838C119.027 272.116 119.42 271.657 119.42 271.635L119.573 271.46ZM120.162 278.941C120.534 278.438 121.45 276.994 121.319 275.419C121.188 273.844 120.053 272.575 119.617 272.138C119.246 272.641 118.329 274.085 118.46 275.66C118.591 277.235 119.726 278.504 120.162 278.941Z" fill="#E4E4E4"/>
<path d="M123.022 276.732C122.804 279.029 120.796 280.713 120.796 280.713C120.796 280.713 119.115 278.679 119.333 276.382C119.551 274.085 121.559 272.4 121.559 272.4C121.559 272.4 123.24 274.435 123.022 276.732Z" fill="#F2F2F2"/>
<path d="M75.3936 297.995L75.59 297.973C75.6118 297.973 76.1139 297.93 76.7905 298.061C77.4235 298.17 78.3185 298.411 79.0388 299.045C79.7591 299.658 80.1302 300.533 80.3266 301.124C80.5231 301.78 80.5668 302.283 80.5668 302.305L80.5886 302.502L80.3921 302.524C80.3703 302.524 79.8683 302.567 79.1916 302.436C78.5586 302.327 77.6637 302.086 76.9433 301.452C76.223 300.839 75.8519 299.964 75.6555 299.374C75.459 298.717 75.4154 298.214 75.4154 298.192L75.3936 297.995ZM80.152 302.13C80.0647 301.605 79.781 300.205 78.7769 299.33C77.7728 298.455 76.354 298.367 75.8301 298.367C75.9174 298.892 76.2012 300.292 77.2053 301.167C78.1875 302.021 79.6282 302.13 80.152 302.13Z" fill="#E4E4E4"/>
<path d="M80.5668 299.133C81.7892 300.642 81.5709 302.852 81.5709 302.852C81.5709 302.852 79.3663 302.611 78.144 301.102C76.9216 299.592 77.1399 297.383 77.1399 297.383C77.1399 297.383 79.3445 297.623 80.5668 299.133Z" fill="#F2F2F2"/>
<path d="M349.093 292.023H349.312C349.333 292.023 349.901 292.001 350.665 292.176C351.363 292.329 352.367 292.658 353.131 293.379C353.895 294.101 354.288 295.086 354.463 295.786C354.659 296.53 354.681 297.098 354.681 297.12V297.339H354.463C354.441 297.339 353.874 297.361 353.11 297.186C352.411 297.033 351.407 296.705 350.643 295.983C349.879 295.261 349.486 294.276 349.312 293.576C349.115 292.833 349.093 292.264 349.093 292.242V292.023ZM354.223 296.88C354.157 296.289 353.895 294.692 352.826 293.686C351.756 292.658 350.141 292.483 349.552 292.461C349.617 293.051 349.879 294.648 350.949 295.655C352.04 296.683 353.633 296.858 354.223 296.88Z" fill="#E4E4E4"/>
<path d="M354.834 293.533C356.122 295.283 355.794 297.733 355.794 297.733C355.794 297.733 353.35 297.361 352.04 295.633C350.752 293.883 351.079 291.432 351.079 291.432C351.079 291.432 353.546 291.783 354.834 293.533Z" fill="#F2F2F2"/>
<path d="M288.237 311.865H186.737L188.593 305.171L192.194 292.089L194.377 284.17L197.608 272.488L203.807 249.977L207.037 238.296L229.651 156.195H245.323L253.618 186.274L267.937 238.296L271.167 249.977L277.367 272.488L280.597 284.17L286.381 305.171L288.237 311.865Z" fill="#5FCC48"/>
<path d="M288.237 311.865H186.737L188.593 305.171L192.194 292.089C262.917 287.911 253.596 186.296 253.596 186.296L286.381 305.171L288.237 311.865Z" fill="#1BA520"/>
<path d="M308.995 311.865H165.979V325.493H308.995V311.865Z" fill="#1BA520"/>
<path d="M288.237 311.865H186.737L188.593 305.171H286.381L288.237 311.865Z" fill="#1BA520"/>
<path d="M271.168 249.977C271.168 249.977 269.05 294.933 217.515 305.214L286.382 305.171L271.168 249.977Z" fill="#5FCC48"/>
<path d="M271.167 249.977H203.807L207.037 238.296H267.937L271.167 249.977Z" fill="white"/>
<path d="M280.597 284.17H194.377L197.608 272.488H277.367L280.597 284.17Z" fill="white"/>
<path d="M275.904 311.865C275.904 311.865 256.958 326.215 186.737 325.493H308.973V311.865H275.904Z" fill="#5FCC48"/>
<path d="M488.18 250.262H436.448C440.224 234.796 442.232 218.651 442.232 202.025C442.232 168.992 434.309 137.797 420.274 110.255H456.966C459.084 110.255 460.786 108.549 460.786 106.427C460.786 104.305 459.084 102.599 456.966 102.599H416.17C381.551 41.3457 315.915 0 240.652 0C190.601 0 144.806 18.2884 109.554 48.5648H47.4756C45.3583 48.5648 43.6557 50.2711 43.6557 52.3931C43.6557 54.5151 45.3583 56.2214 47.4756 56.2214H101.128C96.8502 60.3341 92.7466 64.6437 88.8394 69.1283H3.81988C1.70257 69.1283 0 70.8346 0 72.9566C0 75.0786 1.70257 76.7849 3.81988 76.7849H82.4657C55.29 111.218 39.0719 154.729 39.0719 202.025C39.0719 228.495 44.1578 253.784 53.391 276.951H43.3283C41.211 276.951 39.5084 278.657 39.5084 280.779C39.5084 282.901 41.211 284.607 43.3283 284.607H56.6215C58.0185 287.714 59.4809 290.776 61.0089 293.795H15.8252C13.7079 293.795 12.0053 295.502 12.0053 297.623C12.0053 299.745 13.7079 301.452 15.8252 301.452H65.1343C69.8492 309.787 75.1315 317.749 80.9377 325.297H400.367C411.215 311.209 420.252 295.611 427.106 278.919H464.606C466.723 278.919 468.426 277.213 468.426 275.091C468.426 272.969 466.723 271.263 464.606 271.263H430.074C431.668 266.888 433.108 262.425 434.418 257.918H488.18C490.297 257.918 492 256.212 492 254.09C492 251.968 490.297 250.262 488.18 250.262Z" fill="#F9F8F8"/>
<path d="M325.366 325.275H300.941C300.941 323.503 302.36 322.081 304.128 322.081H322.158C323.947 322.081 325.366 323.525 325.366 325.275Z" fill="#F2F2F2"/>
<path d="M319.582 322.081H306.747L310.916 202.791L313.732 204.65L319.582 322.081Z" fill="#F2F2F2"/>
<path d="M323.555 325.275H299.129C299.129 323.503 300.548 322.081 302.316 322.081H320.346C322.136 322.081 323.555 323.525 323.555 325.275Z" fill="#F2F2F2"/>
<path d="M311.353 203.841L372.798 239.389L372.122 235.889C371.991 235.189 371.62 234.577 371.052 234.161L330.911 203.01C330.168 202.441 329.208 202.266 328.313 202.528L320.259 204.935C319.495 205.153 318.687 205.066 317.988 204.672L312.641 201.566L311.353 203.841Z" fill="#F2F2F2"/>
<path d="M310.043 201.588L248.598 237.136L251.959 238.296C252.636 238.536 253.356 238.514 254.011 238.23L300.985 218.957C301.858 218.607 302.491 217.842 302.709 216.945L304.652 208.763C304.826 207.975 305.328 207.319 306.027 206.925L311.375 203.841L310.043 201.588Z" fill="#F2F2F2"/>
<path d="M312.64 201.588V130.469L309.956 132.809C309.432 133.269 309.082 133.903 308.973 134.603L302.141 185.006C302.01 185.924 302.338 186.865 303.014 187.499L309.126 193.275C309.694 193.822 310.021 194.587 310.021 195.375V201.566H312.64V201.588Z" fill="#F2F2F2"/>
<path d="M317.246 322.081H305.459L309.628 202.791H313.077L317.246 322.081Z" fill="#F2F2F2"/>
<path d="M314.289 203.5C314.672 201.878 313.669 200.252 312.05 199.869C310.431 199.485 308.809 200.49 308.426 202.113C308.044 203.735 309.047 205.361 310.666 205.745C312.285 206.128 313.907 205.123 314.289 203.5Z" fill="#F2F2F2"/>
<path d="M311.135 205.372C312.654 205.372 313.885 204.138 313.885 202.616C313.885 201.093 312.654 199.859 311.135 199.859C309.616 199.859 308.384 201.093 308.384 202.616C308.384 204.138 309.616 205.372 311.135 205.372Z" fill="#F2F2F2"/>
<path d="M249.689 237.508L308.384 202.616L308.34 202.572L248.598 237.136L249.689 237.508Z" fill="#F2F2F2"/>
<path d="M317.246 321.315H305.481V322.081H317.246V321.315Z" fill="#F2F2F2"/>
<path d="M311.789 131.234L312.597 200.1L312.641 200.078V130.469L311.789 131.234Z" fill="#F2F2F2"/>
<path d="M372.58 238.252L313.055 204.76V204.825L372.798 239.389L372.58 238.252Z" fill="#F2F2F2"/>
<path d="M405.606 325.275H366.512C366.512 322.453 368.804 320.156 371.62 320.156H400.498C403.314 320.156 405.606 322.453 405.606 325.275Z" fill="#ECECEC"/>
<path d="M396.35 320.156H375.767L382.446 129.178L386.943 132.153L396.35 320.156Z" fill="#ECECEC"/>
<path d="M402.703 325.275H363.609C363.609 322.453 365.901 320.156 368.717 320.156H397.595C400.411 320.156 402.703 322.453 402.703 325.275Z" fill="#F2F2F2"/>
<path d="M383.145 130.862L481.523 187.784L480.322 181.527C480.191 180.827 479.82 180.215 479.253 179.777L413.769 128.981C413.027 128.412 412.067 128.237 411.172 128.5L396.722 132.831C395.958 133.05 395.15 132.963 394.452 132.569L385.24 127.231L383.145 130.862Z" fill="#F2F2F2"/>
<path d="M381.071 127.231L282.693 184.152L288.696 186.231C289.35 186.471 290.093 186.449 290.726 186.165L368.738 154.16L372.864 136.791L383.145 130.841L381.071 127.231Z" fill="#F2F2F2"/>
<path d="M385.24 127.231V13.3881L380.438 17.5446C379.914 18.004 379.565 18.6384 379.456 19.3384L368.302 101.57C368.171 102.489 368.498 103.43 369.175 104.064L380.132 114.455C380.7 115.002 381.049 115.768 381.049 116.555V127.209H385.24V127.231Z" fill="#F2F2F2"/>
<path d="M392.596 320.156H373.715L380.394 129.178H385.895L392.596 320.156Z" fill="#F2F2F2"/>
<path d="M387.642 131.027C388.667 128.549 387.492 125.708 385.02 124.681C382.547 123.655 379.712 124.832 378.688 127.31C377.664 129.788 378.838 132.629 381.311 133.655C383.783 134.682 386.618 133.505 387.642 131.027Z" fill="#ECECEC"/>
<path d="M386.891 130.564C387.823 128.31 386.754 125.725 384.504 124.791C382.255 123.857 379.675 124.927 378.743 127.182C377.811 129.437 378.88 132.022 381.13 132.956C383.379 133.89 385.959 132.819 386.891 130.564Z" fill="#F2F2F2"/>
<path d="M284.439 184.765L378.408 128.872L378.321 128.828L282.693 184.152L284.439 184.765Z" fill="#ECECEC"/>
<path d="M392.596 318.931H373.759V320.178H392.596V318.931Z" fill="#ECECEC"/>
<path d="M383.843 14.5913L385.131 124.89L385.24 124.847V13.3881L383.843 14.5913Z" fill="#ECECEC"/>
<path d="M481.174 185.968L385.895 132.328L385.873 132.438L481.523 187.784L481.174 185.968Z" fill="#ECECEC"/>
<path d="M92.4629 232.805C79.8682 232.805 69.5654 222.479 69.5654 209.857V157.07C69.5654 144.447 79.8682 134.122 92.4629 134.122C105.058 134.122 115.36 144.447 115.36 157.07V209.879C115.36 222.479 105.058 232.805 92.4629 232.805Z" fill="#F2F2F2"/>
<path d="M93.7289 325.406H91.2405V170.83C91.2405 170.13 91.808 169.583 92.4847 169.583C93.1832 169.583 93.7289 170.152 93.7289 170.83V325.406Z" fill="#E4E4E4"/>
<path d="M93.7289 191.765L86.7876 179.712C86.4384 179.121 85.6744 178.902 85.085 179.252C84.4957 179.602 84.2774 180.368 84.6267 180.959L91.5679 193.012L93.7289 191.765Z" fill="#E4E4E4"/>
<path d="M93.3797 206.182L100.321 194.128C100.67 193.537 100.452 192.772 99.8626 192.422C99.2732 192.072 98.5093 192.29 98.16 192.881L91.2188 204.935L93.3797 206.182Z" fill="#E4E4E4"/>
<path d="M150.918 207.691C134.94 207.691 121.843 194.587 121.843 178.552V111.502C121.843 95.4889 134.918 82.3633 150.918 82.3633C166.896 82.3633 179.993 95.467 179.993 111.502V178.552C179.993 194.587 166.896 207.691 150.918 207.691Z" fill="#F2F2F2"/>
<path d="M152.511 325.253H149.346V128.959C149.346 128.084 150.067 127.362 150.94 127.362C151.813 127.362 152.533 128.084 152.533 128.959V325.253H152.511Z" fill="#E4E4E4"/>
<path d="M152.512 155.582L143.693 140.269C143.257 139.503 142.296 139.241 141.532 139.678C140.768 140.116 140.506 141.079 140.943 141.844L149.761 157.157L152.512 155.582Z" fill="#E4E4E4"/>
<path d="M152.075 173.871L160.893 158.557C161.33 157.792 161.068 156.829 160.304 156.392C159.54 155.954 158.58 156.217 158.143 156.982L149.325 172.296L152.075 173.871Z" fill="#E4E4E4"/>
<path d="M106.585 316.721C107.917 315.474 108.528 314.031 108.004 313.024C107.349 311.777 105.167 311.58 102.853 312.455C102.962 312.149 103.093 311.843 103.18 311.515C104.424 307.555 103.704 303.792 101.609 303.136C99.5568 302.48 96.9157 305.018 95.6278 308.824C94.5583 304.471 91.8516 301.408 89.516 301.955C87.3114 302.48 86.2418 306.024 86.9403 310.071C83.7316 308.649 80.6102 308.758 79.628 310.487C78.6021 312.259 80.1955 315.146 83.2296 317.246C81.789 317.728 80.8067 318.624 80.6539 319.718C80.4793 321.075 81.658 322.431 83.5134 323.262C83.4042 323.525 83.3824 323.787 83.4479 324.05C83.6443 324.881 84.6702 325.384 86.0454 325.428H86.2418C86.2418 325.428 86.2418 325.428 86.2637 325.428H103.442V325.406C103.77 325.362 104.032 325.231 104.119 324.99C104.184 324.837 104.141 324.662 104.053 324.487C104.948 324.4 105.647 324.05 105.865 323.437C106.04 322.978 105.909 322.431 105.538 321.906C107.895 321.753 109.685 320.725 109.75 319.39C109.794 318.253 108.484 317.203 106.585 316.721Z" fill="#E4E4E4"/>
<path d="M142.732 309.415C145.177 307.096 146.312 304.471 145.33 302.611C144.129 300.314 140.135 299.964 135.857 301.583C136.075 301.014 136.271 300.445 136.468 299.855C138.738 292.57 137.45 285.657 133.565 284.432C129.789 283.251 124.943 287.889 122.585 294.889C120.643 286.882 115.644 281.238 111.344 282.245C107.306 283.207 105.319 289.704 106.629 297.186C100.714 294.561 94.9949 294.78 93.1832 297.93C91.306 301.189 94.2309 306.505 99.8189 310.377C97.1777 311.274 95.3442 312.893 95.1041 314.927C94.7985 317.443 96.9376 319.915 100.343 321.425C100.146 321.906 100.103 322.409 100.212 322.868C100.561 324.378 102.482 325.318 104.97 325.406H105.341H105.363H136.926V325.384C137.537 325.297 137.996 325.034 138.149 324.618C138.258 324.334 138.214 324.028 138.039 323.7C139.698 323.547 140.943 322.89 141.357 321.775C141.685 320.921 141.445 319.937 140.768 318.953C145.09 318.668 148.408 316.765 148.517 314.337C148.648 312.237 146.225 310.29 142.732 309.415Z" fill="#F2F2F2"/>
<path d="M357.693 311.055C355.51 308.999 354.506 306.658 355.379 304.996C356.449 302.939 360.007 302.633 363.827 304.077C363.63 303.574 363.456 303.071 363.281 302.546C361.251 296.048 362.408 289.901 365.879 288.829C369.24 287.779 373.562 291.914 375.657 298.127C377.404 290.995 381.857 285.964 385.676 286.86C389.278 287.714 391.046 293.511 389.889 300.161C395.15 297.82 400.236 298.017 401.873 300.817C403.553 303.727 400.934 308.452 395.957 311.908C398.315 312.696 399.93 314.14 400.17 315.977C400.432 318.209 398.533 320.418 395.499 321.775C395.674 322.212 395.717 322.65 395.608 323.065C395.302 324.422 393.6 325.253 391.373 325.34H391.046H391.024H362.91V325.318C362.364 325.253 361.95 325.012 361.819 324.64C361.731 324.4 361.775 324.115 361.906 323.831C360.422 323.678 359.308 323.109 358.937 322.125C358.654 321.359 358.872 320.484 359.461 319.609C355.619 319.346 352.673 317.662 352.564 315.496C352.433 313.571 354.572 311.843 357.693 311.055Z" fill="#EAEAEA"/>
<path d="M390.173 319.587C389.3 318.756 388.885 317.815 389.235 317.137C389.671 316.306 391.112 316.174 392.64 316.765C392.552 316.568 392.487 316.349 392.421 316.152C391.592 313.527 392.072 311.055 393.469 310.618C394.823 310.18 396.569 311.865 397.42 314.381C398.119 311.493 399.93 309.458 401.458 309.83C402.921 310.18 403.619 312.521 403.161 315.212C405.3 314.271 407.352 314.337 408.007 315.474C408.683 316.656 407.636 318.559 405.627 319.959C406.588 320.287 407.243 320.856 407.33 321.6C407.439 322.497 406.675 323.393 405.453 323.94C405.518 324.115 405.54 324.29 405.496 324.465C405.365 325.012 404.689 325.34 403.772 325.384H403.641H392.291C392.072 325.362 391.898 325.253 391.854 325.122C391.81 325.012 391.832 324.903 391.898 324.794C391.308 324.728 390.85 324.509 390.697 324.093C390.588 323.787 390.675 323.437 390.915 323.087C389.366 322.978 388.165 322.3 388.121 321.425C388.056 320.615 388.929 319.915 390.173 319.587Z" fill="#E4E4E4"/>
<path d="M251.741 311.887C249.689 309.94 248.75 307.73 249.558 306.177C250.562 304.252 253.923 303.946 257.503 305.302C257.329 304.843 257.154 304.339 257.001 303.858C255.08 297.733 256.172 291.936 259.446 290.929C262.633 289.923 266.693 293.839 268.657 299.702C270.294 292.986 274.485 288.239 278.087 289.092C281.47 289.901 283.129 295.37 282.038 301.627C287.014 299.439 291.795 299.614 293.323 302.261C294.894 304.996 292.45 309.458 287.757 312.718C289.983 313.462 291.511 314.84 291.729 316.546C291.991 318.646 290.179 320.725 287.32 322.015C287.473 322.431 287.516 322.825 287.429 323.24C287.124 324.509 285.53 325.297 283.435 325.384H283.129H283.107H256.608V325.362C256.084 325.297 255.713 325.078 255.582 324.728C255.495 324.487 255.539 324.225 255.67 323.962C254.273 323.831 253.225 323.284 252.876 322.343C252.614 321.621 252.81 320.79 253.356 319.981C249.732 319.74 246.938 318.143 246.851 316.109C246.786 314.271 248.816 312.63 251.741 311.887Z" fill="#F2F2F2"/>
<path d="M281.536 317.728C280.379 316.634 279.833 315.365 280.292 314.49C280.859 313.396 282.758 313.221 284.788 314.009C284.679 313.746 284.592 313.462 284.504 313.177C283.413 309.699 284.046 306.44 285.879 305.849C287.669 305.28 289.983 307.49 291.096 310.815C292.013 307.008 294.392 304.318 296.444 304.799C298.365 305.258 299.304 308.343 298.692 311.909C301.508 310.662 304.215 310.771 305.088 312.259C305.983 313.812 304.586 316.327 301.923 318.165C303.189 318.581 304.04 319.368 304.171 320.331C304.324 321.512 303.298 322.693 301.683 323.415C301.77 323.656 301.792 323.875 301.748 324.115C301.574 324.837 300.679 325.275 299.478 325.319H299.304C299.304 325.319 299.304 325.319 299.282 325.319H284.264V325.297C283.98 325.253 283.762 325.144 283.675 324.947C283.631 324.815 283.653 324.662 283.719 324.509C282.933 324.422 282.343 324.115 282.147 323.59C281.994 323.175 282.103 322.715 282.431 322.256C280.379 322.125 278.807 321.228 278.742 320.046C278.72 319.062 279.877 318.143 281.536 317.728Z" fill="#E4E4E4"/>
<path d="M296.619 136.397C296.422 136.397 296.248 136.419 296.073 136.485C296.073 136.397 296.073 136.31 296.073 136.222C296.073 134.122 294.37 132.416 292.275 132.416C290.529 132.416 289.066 133.575 288.63 135.172C288.411 135.106 288.193 135.085 287.953 135.085C286.6 135.085 285.508 136.178 285.508 137.535C285.508 138.891 286.6 139.985 287.953 139.985C287.997 139.985 288.04 139.985 288.084 139.985H296.575C297.579 139.985 298.365 139.175 298.365 138.191C298.43 137.207 297.623 136.397 296.619 136.397Z" fill="#F2F2F2"/>
<path d="M230.502 94.942C229.476 94.942 228.516 95.2264 227.708 95.7076C226.857 92.0325 223.583 89.298 219.654 89.298C219.304 89.298 218.977 89.3198 218.628 89.3636C216.794 85.2728 212.712 82.4289 207.954 82.4289C201.493 82.4289 196.254 87.6791 196.254 94.1544C196.254 94.2201 196.254 94.2857 196.254 94.3513C195.468 93.9794 194.595 93.7826 193.678 93.7826C190.339 93.7826 187.654 96.4952 187.654 99.8203C187.654 103.145 190.36 105.858 193.678 105.858H230.502C233.514 105.858 235.959 103.408 235.959 100.389C235.959 97.3921 233.514 94.942 230.502 94.942Z" fill="#F2F2F2"/>
<path d="M174.404 225.126C175.081 225.126 175.714 225.323 176.238 225.629C176.806 223.223 178.945 221.407 181.542 221.407C181.76 221.407 182.001 221.429 182.219 221.451C183.419 218.76 186.104 216.901 189.247 216.901C193.504 216.901 196.931 220.357 196.931 224.601C196.931 224.645 196.931 224.689 196.931 224.733C197.455 224.492 198.022 224.361 198.633 224.361C200.816 224.361 202.606 226.133 202.606 228.342C202.606 230.53 200.838 232.323 198.633 232.323H174.404C172.418 232.323 170.825 230.705 170.825 228.736C170.825 226.767 172.418 225.126 174.404 225.126Z" fill="#F2F2F2"/>
<path d="M415.21 303.814L415.144 304.033C415.144 304.055 414.991 304.624 414.62 305.324C414.271 305.98 413.682 306.855 412.743 307.402C411.805 307.949 410.735 308.058 410.015 308.036C409.229 308.015 408.661 307.883 408.64 307.883L408.421 307.818L408.487 307.599C408.487 307.577 408.64 307.008 409.011 306.308C409.36 305.652 409.949 304.777 410.888 304.23C411.826 303.683 412.896 303.574 413.616 303.596C414.402 303.617 414.97 303.749 414.991 303.749L415.21 303.814ZM408.989 307.49C409.578 307.599 411.215 307.774 412.525 307.008C413.835 306.243 414.446 304.711 414.642 304.143C414.053 304.033 412.416 303.858 411.106 304.624C409.818 305.389 409.185 306.921 408.989 307.49Z" fill="#E4E4E4"/>
<path d="M412.11 309.043C410.036 309.83 407.723 308.78 407.723 308.78C407.723 308.78 408.77 306.461 410.844 305.674C412.918 304.886 415.231 305.936 415.231 305.936C415.231 305.936 414.184 308.255 412.11 309.043Z" fill="#F2F2F2"/>
<path d="M407.657 278.81V279.094C407.657 279.116 407.657 279.86 407.417 280.801C407.199 281.676 406.74 282.945 405.78 283.885C404.819 284.826 403.553 285.285 402.68 285.482C401.72 285.701 400.999 285.701 400.978 285.701H400.694V285.417C400.694 285.395 400.694 284.651 400.934 283.71C401.152 282.835 401.611 281.566 402.571 280.626C403.532 279.685 404.798 279.226 405.671 279.029C406.631 278.81 407.351 278.81 407.373 278.81H407.657ZM401.261 285.132C402.004 285.088 404.034 284.804 405.387 283.492C406.74 282.157 407.024 280.123 407.09 279.379C406.347 279.423 404.317 279.707 402.964 281.02C401.611 282.354 401.327 284.388 401.261 285.132Z" fill="#E4E4E4"/>
<path d="M405.474 286.073C403.204 287.648 400.105 287.101 400.105 287.101C400.105 287.101 400.672 283.995 402.942 282.42C405.212 280.845 408.312 281.391 408.312 281.391C408.312 281.391 407.744 284.476 405.474 286.073Z" fill="#F2F2F2"/>
<path d="M119.573 271.46L119.748 271.613C119.77 271.635 120.228 272.028 120.708 272.685C121.145 273.297 121.712 274.26 121.8 275.376C121.887 276.491 121.494 277.541 121.167 278.219C120.795 278.941 120.403 279.401 120.403 279.423L120.25 279.598L120.075 279.444C120.053 279.423 119.595 279.029 119.115 278.373C118.656 277.76 118.111 276.797 118.023 275.682C117.936 274.566 118.329 273.516 118.656 272.838C119.027 272.116 119.42 271.657 119.42 271.635L119.573 271.46ZM120.162 278.941C120.534 278.438 121.45 276.994 121.319 275.419C121.188 273.844 120.053 272.575 119.617 272.138C119.246 272.641 118.329 274.085 118.46 275.66C118.591 277.235 119.726 278.504 120.162 278.941Z" fill="#E4E4E4"/>
<path d="M123.022 276.732C122.804 279.029 120.796 280.713 120.796 280.713C120.796 280.713 119.115 278.679 119.333 276.382C119.551 274.085 121.559 272.4 121.559 272.4C121.559 272.4 123.24 274.435 123.022 276.732Z" fill="#F2F2F2"/>
<path d="M75.3936 297.995L75.59 297.973C75.6118 297.973 76.1139 297.93 76.7905 298.061C77.4235 298.17 78.3185 298.411 79.0388 299.045C79.7591 299.658 80.1302 300.533 80.3266 301.124C80.5231 301.78 80.5668 302.283 80.5668 302.305L80.5886 302.502L80.3921 302.524C80.3703 302.524 79.8683 302.567 79.1916 302.436C78.5586 302.327 77.6637 302.086 76.9433 301.452C76.223 300.839 75.8519 299.964 75.6555 299.374C75.459 298.717 75.4154 298.214 75.4154 298.192L75.3936 297.995ZM80.152 302.13C80.0647 301.605 79.781 300.205 78.7769 299.33C77.7728 298.455 76.354 298.367 75.8301 298.367C75.9174 298.892 76.2012 300.292 77.2053 301.167C78.1875 302.021 79.6282 302.13 80.152 302.13Z" fill="#E4E4E4"/>
<path d="M80.5668 299.133C81.7892 300.642 81.5709 302.852 81.5709 302.852C81.5709 302.852 79.3663 302.611 78.144 301.102C76.9216 299.592 77.1399 297.383 77.1399 297.383C77.1399 297.383 79.3445 297.623 80.5668 299.133Z" fill="#F2F2F2"/>
<path d="M349.093 292.023H349.312C349.333 292.023 349.901 292.001 350.665 292.176C351.363 292.329 352.367 292.658 353.131 293.379C353.895 294.101 354.288 295.086 354.463 295.786C354.659 296.53 354.681 297.098 354.681 297.12V297.339H354.463C354.441 297.339 353.874 297.361 353.11 297.186C352.411 297.033 351.407 296.705 350.643 295.983C349.879 295.261 349.486 294.276 349.312 293.576C349.115 292.833 349.093 292.264 349.093 292.242V292.023ZM354.223 296.88C354.157 296.289 353.895 294.692 352.826 293.686C351.756 292.658 350.141 292.483 349.552 292.461C349.617 293.051 349.879 294.648 350.949 295.655C352.04 296.683 353.633 296.858 354.223 296.88Z" fill="#E4E4E4"/>
<path d="M354.834 293.533C356.122 295.283 355.794 297.733 355.794 297.733C355.794 297.733 353.35 297.361 352.04 295.633C350.752 293.883 351.079 291.432 351.079 291.432C351.079 291.432 353.546 291.783 354.834 293.533Z" fill="#F2F2F2"/>
<g clip-path="url(#clip0)">
<path d="M303.773 218.732C310.951 202.364 311.369 182.391 301.195 162.209C295.898 151.736 287.257 143.275 276.664 138.212C229.414 115.603 183 149.24 183 193.695C183 202.573 184.882 211.103 188.227 218.732L188.296 218.801C190.317 223.379 192.826 227.609 195.823 231.562L243.77 312.845C244.746 314.509 247.185 314.509 248.23 312.845L296.177 231.562C299.174 227.679 301.683 223.379 303.704 218.801L303.773 218.732Z" fill="#B7F9BA"/>
<path d="M301.195 162.279C295.898 151.806 287.257 143.345 276.664 138.282C266.21 133.219 255.826 131 246 131V314.094C246.836 314.094 247.742 313.678 248.23 312.845L296.177 231.563C299.174 227.679 301.683 223.379 303.704 218.802L303.773 218.732C310.951 202.365 311.369 182.391 301.195 162.279Z" fill="#5FCC48"/>
<path opacity="0.2" d="M246 219.981C261.165 219.981 273.458 207.747 273.458 192.655C273.458 177.564 261.165 165.33 246 165.33C230.835 165.33 218.542 177.564 218.542 192.655C218.542 207.747 230.835 219.981 246 219.981Z" fill="black"/>
<path d="M270 194.56C272.129 181.361 263.103 168.943 249.84 166.824C236.577 164.706 224.099 173.688 221.97 186.887C219.84 200.087 228.867 212.504 242.13 214.623C255.393 216.742 267.871 207.76 270 194.56Z" fill="white"/>
</g>
<defs>
<clipPath id="clip0">
<rect width="126" height="191" fill="white" transform="translate(183 131)"/>
</clipPath>
</defs>
</svg>
