<svg width="170" height="187" viewBox="0 0 170 187" fill="none" xmlns="http://www.w3.org/2000/svg">
<path d="M159.459 61.7899C159.459 61.7899 134.42 83.7679 163.251 130.83C188.856 172.626 131.304 190.744 106.505 185.892C74.378 179.608 55.933 139.002 31.3649 151.868C6.79691 164.734 -17.5419 106.432 18.1947 84.9779C62.649 58.2899 34.119 42.7818 38.1116 23.2137C40.9773 9.16994 81.756 -12.5433 103.744 12.2248C122.246 33.0669 131.32 25.6105 139.777 22.8282C151.974 18.8152 178.597 39.6888 159.459 61.7899Z" fill="#F6F8FF"/>
<path d="M88.5651 86.5569L80.362 120.205C80.057 121.453 80.001 122.749 80.198 124.018C80.394 125.287 80.839 126.506 81.506 127.603C82.173 128.701 83.0501 129.656 84.0871 130.414C85.1231 131.173 86.299 131.72 87.547 132.024L128.346 141.97C129.395 153.488 138.927 154.339 142.687 154.734C142.724 154.736 142.761 154.726 142.792 154.705C142.822 154.684 142.845 154.653 142.857 154.618C142.868 154.583 142.867 154.545 142.855 154.51C142.843 154.475 142.819 154.445 142.788 154.425C140.087 152.779 139.281 148.266 139.101 144.592L142.13 145.33C143.378 145.635 144.673 145.691 145.943 145.494C147.212 145.298 148.43 144.853 149.528 144.186C150.625 143.519 151.58 142.642 152.339 141.605C153.097 140.569 153.644 139.393 153.948 138.145L162.151 104.496C162.456 103.248 162.512 101.953 162.315 100.683C162.119 99.4139 161.674 98.1959 161.007 97.0979C160.34 96.0009 159.463 95.0459 158.426 94.2869C157.39 93.5289 156.214 92.9818 154.966 92.6778L100.383 79.3709C99.136 79.0669 97.84 79.0109 96.571 79.2069C95.301 79.4029 94.083 79.8479 92.985 80.5149C91.888 81.1819 90.933 82.0588 90.174 83.0958C89.416 84.1328 88.8691 85.3089 88.5651 86.5569Z" fill="#B7F9BA"/>
<path d="M156.241 103.156L133.427 97.5942C133.277 97.5582 133.126 97.6502 133.089 97.8002L131.919 102.601C131.882 102.751 131.974 102.903 132.124 102.939L154.938 108.501C155.088 108.538 155.24 108.446 155.277 108.295L156.447 103.495C156.484 103.344 156.391 103.193 156.241 103.156Z" fill="white"/>
<path d="M152.984 116.518L91.171 101.449C91.021 101.412 90.87 101.504 90.833 101.655L89.663 106.455C89.626 106.606 89.718 106.757 89.868 106.794L151.681 121.863C151.831 121.9 151.982 121.808 152.019 121.657L153.189 116.857C153.226 116.706 153.134 116.555 152.984 116.518Z" fill="white"/>
<path d="M149.726 129.88L87.914 114.811C87.764 114.774 87.612 114.867 87.576 115.017L86.405 119.817C86.369 119.968 86.461 120.119 86.611 120.156L148.423 135.225C148.573 135.262 148.725 135.17 148.761 135.019L149.932 130.219C149.968 130.069 149.876 129.917 149.726 129.88Z" fill="white"/>
<path d="M111.536 46.1922L124.95 89.2699C125.448 90.8679 125.626 92.5479 125.475 94.2139C125.323 95.8799 124.845 97.5009 124.067 98.9819C123.289 100.463 122.227 101.777 120.941 102.848C119.655 103.919 118.171 104.726 116.574 105.223L64.343 121.487C63.92 136.547 51.597 138.433 46.74 139.253C46.692 139.259 46.643 139.249 46.601 139.225C46.559 139.2 46.526 139.162 46.509 139.117C46.491 139.072 46.488 139.022 46.502 138.975C46.516 138.929 46.545 138.888 46.584 138.86C49.96 136.499 50.64 130.566 50.574 125.774L46.696 126.982C45.099 127.48 43.4189 127.658 41.7526 127.506C40.0863 127.355 38.4662 126.876 36.9848 126.099C35.5035 125.321 34.1899 124.259 33.1191 122.973C32.0483 121.687 31.2413 120.203 30.7442 118.606L17.3297 75.5279C16.8317 73.9299 16.6534 72.2499 16.8049 70.5839C16.9565 68.9179 17.4348 67.2969 18.2127 65.8159C18.9906 64.3349 20.0527 63.0209 21.3384 61.9499C22.6242 60.8789 24.1083 60.0719 25.706 59.5749L95.583 37.8158C97.18 37.3179 98.86 37.1396 100.527 37.2911C102.193 37.4426 103.813 37.921 105.295 38.6989C106.776 39.4767 108.09 40.5389 109.161 41.8246C110.231 43.1103 111.038 44.5945 111.536 46.1922Z" fill="#5FCC48"/>
<path d="M62.186 61.6212L24.7665 73.2582C24.6189 73.3042 24.5364 73.4612 24.5823 73.6092L26.5445 79.9182C26.5904 80.0662 26.7473 80.1482 26.895 80.1022L64.314 68.4652C64.462 68.4192 64.544 68.2622 64.498 68.1142L62.536 61.8052C62.49 61.6572 62.333 61.5752 62.186 61.6212Z" fill="white"/>
<path d="M109.407 65.6202L30.1129 90.3122C29.9653 90.3582 29.8828 90.5152 29.9288 90.6632L31.8931 96.9712C31.9391 97.1192 32.0961 97.2012 32.2437 97.1552L111.538 72.4622C111.686 72.4162 111.768 72.2592 111.722 72.1122L109.758 65.8042C109.712 65.6562 109.555 65.5742 109.407 65.6202Z" fill="white"/>
<path d="M114.727 82.8141L35.4138 107.48C35.2661 107.525 35.1836 107.682 35.2295 107.83L37.1917 114.139C37.2376 114.287 37.3946 114.37 37.5422 114.324L116.855 89.6581C117.003 89.6121 117.085 89.4551 117.039 89.3071L115.077 82.9981C115.031 82.8501 114.874 82.7681 114.727 82.8141Z" fill="white"/>
</svg>
