<?xml version="1.0" encoding="UTF-8"?>
<svg width="883px" height="602px" viewBox="0 0 883 602" version="1.1" xmlns="http://www.w3.org/2000/svg" xmlns:xlink="http://www.w3.org/1999/xlink">
    <title>5227</title>
    <g id="Page-1" stroke="none" stroke-width="1" fill="none" fill-rule="evenodd">
        <g id="Group-5" transform="translate(1.000000, 0.000000)">
            <line x1="880.5" y1="509.5" x2="0.5" y2="509.5" id="Line-3" stroke="#E4E4E6" stroke-width="2" stroke-linecap="square"></line>
            <ellipse id="Oval" fill="#ABABAD" fill-rule="nonzero" opacity="0.1" cx="456" cy="573" rx="151" ry="29"></ellipse>
            <path d="M544.819576,85.3955982 C495.064982,83.6784355 447.678191,67.6566943 402.428571,50.1324357 C357.178952,32.6081771 312.359842,13.1981059 263.796837,3.91469506 C232.561838,-2.05704486 196.837241,-2.9079603 171.6755,13.7730488 C147.451655,29.871449 139.625608,57.5836952 135.420454,83.318138 C132.253134,102.682214 130.392718,123.065855 139.064409,141.19572 C145.091541,153.783136 155.777401,164.362085 163.172938,176.420553 C188.903566,218.368385 170.714542,270.097911 142.839054,311.056841 C129.770017,330.267598 114.586871,348.619775 104.492961,369.049411 C94.399052,389.479048 89.732637,412.96738 98.5657686,433.864637 C107.314336,454.56258 128.170982,470.078372 150.765041,481.002286 C196.652737,503.195081 250.704737,509.54245 303.449834,513.145426 C420.171711,521.102635 537.508602,517.660644 654.537987,514.20332 C697.850314,512.93078 741.347145,511.635242 783.952206,504.958239 C807.614851,501.247941 832.038575,495.360526 849.220515,481.147939 C871.022744,463.110064 876.427176,432.569099 861.812917,409.95468 C837.304628,372.008451 769.56089,362.587053 752.4097,321.873432 C742.984618,299.458327 752.663393,274.49814 766.370507,253.715872 C795.768153,209.123303 845.038423,170.004191 847.629168,119.041255 C849.412707,84.038733 825.726999,48.9825499 789.102944,32.4165295 C750.718413,15.0532549 697.481306,17.2380378 669.175308,45.9775152 C640.000605,75.5372445 588.754604,86.9211133 544.819576,85.3955982 Z" id="Shape" fill="#D8D4FF" fill-rule="nonzero" opacity="0.1"></path>
            <path d="M516.896637,504.731866 C504.01672,523.189857 457.713418,513.412668 457.713418,513.412668 L421.829969,479.785847 L417,475.232617 L425.101468,458 C425.101468,458 427.677451,458.709427 432.095263,459.973496 C455.291994,466.719498 527.767287,489.214771 516.896637,504.731866 Z" id="Shape" fill="#EFB7B9" fill-rule="nonzero"></path>
            <path d="M432,459.992895 C430.528205,465.567792 426.495726,473.917111 422.487179,480 L418,475.402013 L425.526496,458 C425.526496,458 427.94359,458.7164 432,459.992895 Z" id="Shape" fill="#000000" fill-rule="nonzero" opacity="0.1"></path>
            <path d="M343.732923,398 C343.732923,398 337.353021,411.895437 341.274386,410.95426 C345.195752,410.013082 343.732923,398 343.732923,398 Z" id="Shape" fill="#000000" fill-rule="nonzero" opacity="0.1"></path>
            <polygon id="Shape" fill="#C0FEEE" fill-rule="nonzero" points="347 426.984774 446 411 446 504 351.937143 499.113992"></polygon>
            <polygon id="Shape" fill="#00CC99" fill-rule="nonzero" points="565 419.815226 558.414663 500.746914 446 504 446 411"></polygon>
            <polygon id="Shape" fill="#000000" fill-rule="nonzero" opacity="0.1" points="446 411 565 419.815226 558.414663 500.746914 446 504"></polygon>
            <polygon id="Shape" fill="#20DBAC" fill-rule="nonzero" points="446 410.232167 564.616029 419 584 390.108025 482.468584 382"></polygon>
            <polygon id="Shape" fill="#20DBAC" fill-rule="nonzero" points="400.227689 385 446 410.926084 346.886728 427 311 395.827123"></polygon>
            <polygon id="Shape" fill="#00CC99" fill-rule="nonzero" points="468 563 421.510119 558.22108 401.287601 556.154521 395.126758 555.508721 374.917128 553.429245 347 550.561893 347 426 446.230827 432.767983 468 434.266239"></polygon>
            <polygon id="Shape" fill="#C0FEEE" fill-rule="nonzero" points="566 544.318292 528.454545 551.473811 510.194805 554.954875 468 563 468 434.49718 566 419"></polygon>
            <polygon id="Shape" fill="#C0FEEE" fill-rule="nonzero" opacity="0.05" points="566 544.318292 528.454545 551.473811 510.194805 554.954875 468 563 468 507.209933 468 434.49718 566 419"></polygon>
            <polygon id="Shape" fill="#30F8C6" fill-rule="nonzero" points="346.94908 425 468 433.409704 450.180191 464 311 452.568059"></polygon>
            <polygon id="Shape" fill="#20DBAC" fill-rule="nonzero" points="564.660974 419 468 434.192828 499.46029 462 603 444.86067"></polygon>
            <polygon id="Shape" fill="#FFFFFF" fill-rule="nonzero" opacity="0.1" points="564.660974 419 468 434.192828 499.46029 462 603 444.86067"></polygon>
            <polygon id="Shape" fill="#FFFFFF" fill-rule="nonzero" opacity="0.1" points="509 555 509 527.410129 526.797297 523 528 551.41345"></polygon>
            <polygon id="Shape" fill="#1F1F1F" fill-rule="nonzero" opacity="0.1" points="420 557 400 555.020378 400 540 420 540"></polygon>
            <polygon id="Shape" fill="#FFFFFF" fill-rule="nonzero" opacity="0.1" points="394 556 374 553.797538 374 546 394 546"></polygon>
            <path d="M500.341281,250.0425 C500.341281,250.0425 467.471561,248.065156 471.312128,271.085238 C471.312128,271.085238 470.542284,275.152177 474.235803,277 C474.235803,277 474.296352,275.273062 477.609274,275.868856 C478.789069,276.067063 479.988234,276.125031 481.181694,276.041549 C482.799064,275.93387 484.336497,275.299961 485.558557,274.236899 L485.558557,274.236899 C485.558557,274.236899 494.805328,270.429001 498.403697,255.335565 C498.403697,255.335565 501.067874,252.037113 500.998675,251.190914 L495.445422,253.565453 C495.445422,253.565453 497.339756,257.563315 495.843319,260.88767 C495.843319,260.88767 495.67032,253.712243 494.597729,253.876302 C494.381481,253.876302 491.717304,255.266487 491.717304,255.266487 C491.717304,255.266487 494.978326,262.226047 492.513097,267.294609 C492.513097,267.294609 493.447289,258.711728 490.696613,255.767299 L486.786846,258.046857 C486.786846,258.046857 490.601464,265.239553 488.015136,271.111142 C488.015136,271.111142 488.68118,262.105161 485.965103,258.599477 L482.418633,261.353943 C482.418633,261.353943 486.008353,268.451658 483.819921,273.321622 C483.819921,273.321622 483.534474,262.83911 481.64879,262.044718 C481.64879,262.044718 478.552116,264.77328 478.08502,265.89579 C478.08502,265.89579 480.532949,271.076603 479.010562,273.761992 C479.010562,273.761992 478.07637,266.776528 477.280577,266.741989 C477.280577,266.741989 474.192553,271.370183 473.872506,274.51321 C474.022062,271.583037 474.937599,268.743026 476.528033,266.275716 C474.748289,266.611844 473.106297,267.461414 471.805174,268.719333 C471.805174,268.719333 472.28092,265.446786 477.289227,265.161841 C477.289227,265.161841 479.884205,261.647523 480.524299,261.431655 C480.524299,261.431655 475.541942,261.01719 472.523118,262.355567 C472.523118,262.355567 475.178645,259.272983 481.441192,260.628629 L484.901162,257.779182 C484.901162,257.779182 478.344518,256.915713 475.559242,257.874163 C475.559242,257.874163 478.759714,255.145602 485.844004,257.13158 L489.649972,254.860657 C489.649972,254.860657 484.062119,253.6518 480.731898,254.092169 C480.731898,254.092169 484.243768,252.201173 490.765812,254.247594 L493.490539,253.030103 C493.490539,253.030103 489.390474,252.227077 488.196784,252.097556 C487.003094,251.968036 486.933895,251.639918 486.933895,251.639918 C489.527738,251.20897 492.190565,251.507972 494.623679,252.503387 C494.623679,252.503387 500.462379,250.405157 500.341281,250.0425 Z" id="Shape" fill="#3F3D55" fill-rule="nonzero"></path>
            <path d="M401.861443,344.618155 C401.861443,344.618155 409.236735,312.430328 386.444973,312.31751 C386.444973,312.31751 382.660394,310.859555 380.275014,314.192024 C380.275014,314.192024 381.901793,314.547834 380.797606,317.724093 C380.415718,318.847253 380.161163,320.012086 380.039005,321.195414 C379.875733,322.808548 380.227884,324.432499 381.042045,325.82095 L381.042045,325.82095 C381.042045,325.82095 383.174558,335.627433 397.056966,341.771671 C397.056966,341.771671 399.787932,344.965287 400.613964,345 L399.265339,339.107432 C399.265339,339.107432 395.10146,340.29636 392.151343,338.239602 C392.151343,338.239602 399.088332,339.289677 399.096761,338.239602 C399.096761,338.022644 398.253871,335.150126 398.253871,335.150126 C398.253871,335.150126 391.01344,337.180849 386.54612,333.874415 C386.54612,333.874415 394.646299,336.269627 397.942001,334.05666 L396.424798,329.786935 C396.424798,329.786935 388.838783,332.329677 383.646576,328.762895 C383.646576,328.762895 392.201916,330.967184 396.02864,328.884391 L393.963558,324.909728 C393.963558,324.909728 386.54612,327.235513 382.222091,324.241499 C382.222091,324.241499 392.336779,325.751524 393.432536,324.033219 C393.432536,324.033219 391.32531,320.50115 390.32227,319.841599 C390.32227,319.841599 384.961486,321.386337 382.601392,319.416362 C382.601392,319.416362 389.470951,319.68539 389.6311,318.939056 C389.6311,318.939056 385.694801,315.094567 382.69411,314.226737 C385.490467,314.882267 388.072914,316.275999 390.187408,318.270826 C390.156498,316.45203 389.611718,314.681883 388.619631,313.176662 C388.619631,313.176662 391.687753,314.218059 391.148303,319.251474 C391.148303,319.251474 394.09842,322.375664 394.191138,323.087284 C394.191138,323.087284 395.413329,318.236113 394.629441,315.016462 C394.629441,315.016462 397.158113,318.175365 394.772733,324.120003 L396.930533,328.06863 C396.930533,328.06863 398.886039,321.733469 398.388733,318.817559 C398.388733,318.817559 400.487531,322.44509 397.394122,329.110027 L398.95347,333.266934 C398.95347,333.266934 401.03541,327.938456 401.170272,324.588631 C401.170272,324.588631 402.409321,328.389728 399.349629,334.490575 L400.074514,337.389128 C400.074514,337.389128 401.524286,333.475213 401.844585,332.312321 C402.164883,331.149428 402.493611,331.14075 402.493611,331.14075 C402.480765,333.780931 401.754015,336.36526 400.394813,338.604091 C400.394813,338.604091 401.499,344.661546 401.861443,344.618155 Z" id="Shape" fill="#ABA9C3" fill-rule="nonzero" opacity="0.251261393"></path>
            <path d="M417,173.099596 C417,173.099596 390.880388,153.850816 381.543397,174.700852 C381.543397,174.700852 378.693518,177.608395 380.738927,181.08902 C380.738927,181.08902 381.714561,179.732166 384.162205,181.982352 C385.033709,182.772505 385.995883,183.459795 387.0292,184.030274 C388.426764,184.797303 390.040694,185.093264 391.624951,184.87304 L391.624951,184.87304 C391.624951,184.87304 401.347061,186.718698 412.54118,176.335818 C412.54118,176.335818 416.537857,175.080097 416.90586,174.330035 L411.009263,173.327143 C411.009263,173.327143 410.401631,177.599968 407.354914,179.513047 C407.354914,179.513047 411.12052,173.563118 410.144886,173.133307 C409.948047,173.040602 407.004028,172.711924 407.004028,172.711924 C407.004028,172.711924 405.874346,180.161977 401.081757,182.951533 C401.081757,182.951533 406.524769,176.453806 405.85723,172.577081 L401.381294,172.341107 C401.381294,172.341107 400.611056,180.254681 395.279301,183.651029 C395.279301,183.651029 400.730871,176.664497 400.414218,172.349534 L395.989631,172.703496 C395.989631,172.703496 395.082462,180.406379 390.623642,183.204363 C390.623642,183.204363 396.100887,174.507016 394.979764,172.855194 C394.979764,172.855194 390.931737,173.419847 389.930429,174.077205 C389.930429,174.077205 389.151633,179.588896 386.41301,180.987888 C386.41301,180.987888 389.45117,174.793556 388.83498,174.355318 C388.83498,174.355318 383.75997,176.479089 381.76591,178.8894 C383.488251,176.579133 385.795888,174.754206 388.458419,173.596828 C386.801265,172.914234 384.976841,172.726661 383.212245,173.057458 C383.212245,173.057458 385.394585,170.647146 389.690799,173.099596 C389.690799,173.099596 393.713151,171.599472 394.397806,171.793309 C394.397806,171.793309 390.503828,168.784633 387.277388,168.25369 C387.277388,168.25369 391.15425,167.166522 395.561721,171.624755 L400.003424,171.178089 C400.003424,171.178089 395.073904,166.964258 392.232583,166.247907 C392.232583,166.247907 396.366191,165.742247 401.141664,171.152806 L405.52346,171.338215 C405.52346,171.338215 401.561016,167.360358 398.565648,165.936083 C398.565648,165.936083 402.502417,166.27319 406.781515,171.439347 L409.691301,171.902868 C409.691301,171.902868 406.730166,169.088029 405.805881,168.36325 C404.881596,167.638471 405.009969,167.31822 405.009969,167.31822 C407.391565,168.355312 409.433214,170.024414 410.906565,172.138843 C410.906565,172.138843 416.854511,173.419847 417,173.099596 Z" id="Shape" fill="#ABA9C3" fill-rule="nonzero" opacity="0.251261393"></path>
            <path d="M517,197.9034 C517,197.9034 506.399206,166.547117 486.405412,178.869068 C486.405412,178.869068 482.3215,179.737423 482,183.827373 C482,183.827373 483.607498,183.236891 484.32001,186.536639 C484.584726,187.710411 484.984177,188.849711 485.510427,189.931905 C486.228576,191.388322 487.399121,192.57334 488.847071,193.309804 L488.847071,193.309804 C488.847071,193.309804 495.902681,200.473729 511.334657,198.103121 C511.334657,198.103121 515.409881,199.336185 516.15715,198.910691 L511.812562,194.64707 C511.812562,194.64707 508.806107,197.920767 505.139275,197.790514 C505.139275,197.790514 511.769116,194.907577 511.221698,193.978437 C511.108739,193.796083 508.840864,191.824918 508.840864,191.824918 C508.840864,191.824918 503.575223,197.495273 497.927259,197.121881 C497.927259,197.121881 506.277557,194.742589 507.980636,191.043399 L504.383317,188.273348 C504.383317,188.273348 499.117676,194.542868 492.661619,194.35183 C492.661619,194.35183 501.350794,191.564412 503.549156,187.708917 L499.639027,185.459879 C499.639027,185.459879 494.425521,191.477576 489.020854,191.286538 C489.020854,191.286538 498.683217,187.057652 498.709285,185.008335 C498.709285,185.008335 494.999007,183.15874 493.773833,183.141372 C493.773833,183.141372 489.898461,187.370259 486.822493,186.988183 C486.822493,186.988183 492.974429,183.471347 492.713754,182.750613 C492.713754,182.750613 487.239573,181.630436 484.154916,182.533524 C486.944888,181.562756 489.940436,181.338235 492.844091,181.882258 C491.852553,180.353071 490.436346,179.146002 488.768868,178.40884 C488.768868,178.40884 492.001241,177.618638 494.164846,182.168815 C494.164846,182.168815 498.405164,183.219524 498.857001,183.766588 C498.857001,183.766588 497.362463,178.981954 494.972939,176.672131 C494.972939,176.672131 498.857001,177.983346 499.91708,184.331018 L503.896723,186.501905 C503.896723,186.501905 502.254469,180.067397 500.273337,177.818359 C500.273337,177.818359 504.03575,179.763473 504.852532,187.101069 L508.415094,189.784285 C508.415094,189.784285 507.424528,184.122613 505.756207,181.187575 C505.756207,181.187575 508.849553,183.740537 509.40566,190.591855 L511.569265,192.658538 C511.569265,192.658538 510.769861,188.542538 510.439672,187.378943 C510.109484,186.215348 510.378848,186.137196 510.378848,186.137196 C511.760171,188.389828 512.490949,190.980455 512.490318,193.622412 C512.490318,193.622412 516.695879,198.129172 517,197.9034 Z" id="Shape" fill="#ABA9C3" fill-rule="nonzero" opacity="0.251261393"></path>
            <path d="M448.418335,199.209341 C448.418335,199.209341 416.520303,195.541105 419.154626,218.915247 C419.154626,218.915247 418.203577,222.965954 421.679537,225 C421.679537,225 421.822615,223.261499 425.046083,224.043825 C426.185268,224.296982 427.348478,224.416536 428.513627,224.400217 C430.087477,224.370861 431.609161,223.812406 432.848056,222.809489 L432.848056,222.809489 C432.848056,222.809489 442.030313,219.44549 446.314243,204.450921 C446.314243,204.450921 449.057979,201.278157 448.999065,200.417599 L443.486344,202.521185 C443.486344,202.521185 445.169618,206.63274 443.486344,209.901121 C443.486344,209.901121 443.663088,202.67765 442.644707,202.790653 C442.434298,202.790653 439.774726,204.042373 439.774726,204.042373 C439.774726,204.042373 442.602626,211.213689 439.959886,216.211879 C439.959886,216.211879 441.289672,207.623685 438.756346,204.529154 L434.842735,206.615355 C434.842735,206.615355 438.209282,214.047445 435.389799,219.819268 C435.389799,219.819268 436.483927,210.796449 434.017931,207.136905 L430.440975,209.744656 C430.440975,209.744656 433.571863,217.055052 431.206864,221.844621 C431.206864,221.844621 431.450939,211.291922 429.658253,210.396594 C429.658253,210.396594 426.510531,213.004345 425.997133,214.082215 C425.997133,214.082215 428.126474,219.384643 426.518948,222.035856 C426.518948,222.035856 425.955051,214.968851 425.214411,214.899311 C425.214411,214.899311 421.982526,219.393335 421.511209,222.566099 C421.803153,219.624579 422.836193,216.813389 424.507436,214.41253 C422.760962,214.661796 421.122916,215.432164 419.79427,216.629119 C419.79427,216.629119 420.417081,213.36943 425.298574,213.33466 C425.298574,213.33466 427.94973,209.935891 428.665121,209.753348 C428.665121,209.753348 423.842543,209.084026 420.8379,210.274899 C420.8379,210.274899 423.573219,207.302062 429.582505,209.031871 L433.125796,206.345887 C433.125796,206.345887 426.720941,205.007241 424.01087,205.876492 C424.01087,205.876492 427.259588,203.268741 434.04318,205.659179 L437.855794,203.564286 C437.855794,203.564286 432.477736,202.069175 429.220602,202.338643 C429.220602,202.338643 432.730227,200.600142 438.966755,203.007965 L441.676825,201.921402 C441.676825,201.921402 437.729549,200.90438 436.56809,200.713144 C435.406632,200.521909 435.36455,200.191594 435.36455,200.191594 C437.908933,199.890083 440.484427,200.323385 442.804618,201.443315 C442.804618,201.443315 448.47725,199.574426 448.418335,199.209341 Z" id="Shape" fill="#ABA9C3" fill-rule="nonzero" opacity="0.251261393"></path>
            <path d="M578,222.811493 C578,222.811493 560.44899,196.120721 544.152238,212.095372 C544.152238,212.095372 540.423829,213.754214 541.07673,217.693965 C541.07673,217.693965 542.494213,216.781602 543.954649,219.684576 C544.479422,220.713358 545.131344,221.676976 545.89617,222.554373 C546.920488,223.751914 548.324083,224.591225 549.890894,224.943106 L549.890894,224.943106 C549.890894,224.943106 558.352834,229.985986 572.613567,224.279569 C572.613567,224.279569 576.814469,224.495218 577.433007,223.939506 L572.278525,220.95359 C572.278525,220.95359 570.156597,224.685985 566.608596,225.390993 C566.608596,225.390993 572.295707,221.243887 571.531126,220.48082 C571.385082,220.331524 568.739115,219.021039 568.739115,219.021039 C568.739115,219.021039 565.019297,225.473935 559.504002,226.411181 C559.504002,226.411181 566.969409,222.305547 567.742582,218.506798 L563.627587,216.756719 C563.627587,216.756719 560.045222,223.765328 553.8083,225.050931 C553.8083,225.050931 561.454114,220.497408 562.69978,216.416656 L558.404379,215.22229 C558.404379,215.22229 554.77906,221.998661 549.581625,223.035437 C549.581625,223.035437 557.863159,216.914309 557.407846,215.00664 C557.407846,215.00664 553.404532,214.135748 552.253364,214.401163 C552.253364,214.401163 549.53008,219.203511 546.454573,219.551868 C546.454573,219.551868 551.540328,214.890521 551.119378,214.27675 C551.119378,214.27675 545.595492,214.484105 542.846436,216.018534 C545.298644,214.484721 548.1244,213.5982 551.042061,213.447329 C549.735771,212.253655 548.096319,211.455022 546.325711,211.149832 C546.325711,211.149832 549.237993,209.681757 552.339272,213.414152 C552.339272,213.414152 556.634674,213.414152 557.227439,213.828862 C557.227439,213.828862 554.650198,209.681757 551.823824,208.130739 C551.823824,208.130739 555.861502,208.462507 558.370016,214.110866 L562.708371,215.22229 C562.708371,215.22229 559.607092,209.623697 557.193076,208.022914 C557.193076,208.022914 561.256526,208.968454 563.773631,215.595529 L567.82849,217.254372 C567.82849,217.254372 565.543336,212.236374 563.249592,209.889112 C563.249592,209.889112 566.823366,211.547954 568.962476,217.776907 L571.539716,219.211806 C571.539716,219.211806 569.821556,215.570647 569.211609,214.567047 C568.601662,213.563448 568.842204,213.33121 568.842204,213.33121 C570.701205,215.104077 572.012921,217.34115 572.630748,219.7924 C572.630748,219.7924 577.768048,223.093497 578,222.811493 Z" id="Shape" fill="#ABA9C3" fill-rule="nonzero" opacity="0.251261393"></path>
            <path d="M500.995864,357.330037 C500.995864,357.330037 501.833984,324.866329 479.648933,329.441922 C479.648933,329.441922 475.676241,328.819914 474,332.51788 C474,332.51788 475.676241,332.51788 475.206894,335.798334 C475.053356,336.968054 475.036476,338.152134 475.156606,339.325886 C475.308118,340.91795 475.970797,342.415072 477.042378,343.586215 L477.042378,343.586215 C477.042378,343.586215 481.040213,352.566989 495.799516,355.617385 C495.799516,355.617385 499.076568,358.130979 499.897926,357.994648 L497.383564,352.609592 C497.383564,352.609592 493.570116,354.603426 490.293064,353.248642 C490.293064,353.248642 497.249465,352.831129 497.056697,351.791609 C497.056697,351.578593 495.61513,348.988313 495.61513,348.988313 C495.61513,348.988313 488.960452,352.439179 483.973635,350.172684 C483.973635,350.172684 492.354841,350.811733 495.095495,348.008437 L492.757139,344.233785 C492.757139,344.233785 485.901312,348.221453 480.11828,345.869752 C480.11828,345.869752 488.87664,346.227619 492.195598,343.441364 L489.404656,340.033101 C489.404656,340.033101 482.641023,343.799232 477.846973,341.805398 C477.846973,341.805398 488.004995,341.18339 488.742541,339.300324 C488.742541,339.300324 485.993506,336.343656 484.887186,335.892061 C484.887186,335.892061 479.9758,338.448258 477.293814,337.067912 C477.293814,337.067912 483.998779,335.926143 484.040685,335.167805 C484.040685,335.167805 479.456165,332.279302 476.3635,332.066285 C479.215287,332.118119 482.003901,332.928962 484.451364,334.417987 C484.069515,332.676366 483.195613,331.086053 481.937002,329.842393 C481.937002,329.842393 485.130241,330.208782 485.566064,335.125202 C485.566064,335.125202 489.061027,337.528027 489.287319,338.192639 C489.287319,338.192639 489.530374,333.276219 488.130713,330.345112 C488.130713,330.345112 491.214997,332.858706 490.05839,339.061746 L492.933144,342.418885 C492.933144,342.418885 493.586878,335.926143 492.539227,333.225095 C492.539227,333.225095 495.288263,336.284011 493.595259,343.322075 L495.916853,346.994478 C495.916853,346.994478 496.905835,341.44753 496.377819,338.184118 C496.377819,338.184118 498.322259,341.592381 496.545444,348.076602 L497.819387,350.718006 C497.819387,350.718006 498.46474,346.653652 498.548552,345.469281 C498.632364,344.284909 498.95085,344.208223 498.95085,344.208223 C499.455374,346.750015 499.255157,349.384343 498.372546,351.817171 C498.372546,351.817171 500.627091,357.440806 500.995864,357.330037 Z" id="Shape" fill="#3F3D55" fill-rule="nonzero"></path>
            <ellipse id="Oval" fill="#3F3D55" fill-rule="nonzero" cx="565.5" cy="588" rx="34.5" ry="6"></ellipse>
            <path d="M579.537599,579.468892 C581.143364,578.14253 582.312312,576.349256 582.888009,574.329053 C583.3254,572.283788 582.468114,569.838363 580.552344,569.091396 C578.400384,568.255506 576.09971,569.767223 574.350149,571.296725 C572.600587,572.826228 570.614835,574.578042 568.331657,574.257913 C570.715683,572.056356 571.791138,568.746276 571.165946,565.534414 C571.066829,564.880036 570.794705,564.265318 570.378644,563.755923 C569.180194,562.457624 567.019485,563.017849 565.584845,564.040481 C561.035985,567.29512 559.767553,573.573194 559.741309,579.228796 C559.286423,577.192424 559.671327,575.067127 559.662579,573.004077 C559.653831,570.941027 559.085224,568.557849 557.34441,567.472969 C556.275878,566.867319 555.068485,566.560479 553.845287,566.583724 C551.798299,566.512584 549.515122,566.717111 548.12422,568.237721 C546.374659,570.122921 546.838292,573.297528 548.342915,575.351685 C549.847538,577.405843 552.148212,578.730819 554.265181,580.171396 C555.95949,581.19992 557.4061,582.60057 558.49912,584.270819 C558.623678,584.503468 558.726197,584.747626 558.805294,585 L571.62958,585 C574.500556,583.530095 577.161048,581.669266 579.537599,579.468892 Z" id="Shape" fill="#ABA9C3" fill-rule="nonzero"></path>
        </g>
    </g>
</svg>