<svg xmlns="http://www.w3.org/2000/svg" xmlns:xlink="http://www.w3.org/1999/xlink" viewBox="0 0 865.03 605.75"><defs><filter id="luminosity-noclip" x="157.88" y="-8680.62" width="395.19" height="32766" filterUnits="userSpaceOnUse" color-interpolation-filters="sRGB"><feFlood flood-color="#fff" result="bg"/><feBlend in="SourceGraphic" in2="bg"/></filter><mask id="mask" x="157.88" y="-8680.62" width="395.19" height="32766" maskUnits="userSpaceOnUse"><g filter="url(#luminosity-noclip)"/></mask><linearGradient id="linear-gradient" x1="248.03" y1="17.11" x2="375.4" y2="471.95" gradientTransform="translate(147.6 -107.89) rotate(18.63)" gradientUnits="userSpaceOnUse"><stop offset="0" stop-color="#fff"/><stop offset="0.02" stop-color="#f8f8f8"/><stop offset="0.25" stop-color="#a1a1a1"/><stop offset="0.46" stop-color="#5c5c5c"/><stop offset="0.63" stop-color="#2a2a2a"/><stop offset="0.76" stop-color="#0b0b0b"/><stop offset="0.83"/></linearGradient><filter id="luminosity-noclip-2" x="157.88" y="105.1" width="395.19" height="300.09" filterUnits="userSpaceOnUse" color-interpolation-filters="sRGB"><feFlood flood-color="#fff" result="bg"/><feBlend in="SourceGraphic" in2="bg"/></filter><mask id="mask-2" x="157.88" y="105.1" width="395.19" height="300.09" maskUnits="userSpaceOnUse"><g mask="url(#mask)" filter="url(#luminosity-noclip-2)"><polygon points="430.77 105.1 157.88 401.34 553.06 405.19 535.37 140.37 430.77 105.1" fill="url(#linear-gradient)" style="mix-blend-mode:multiply"/></g></mask></defs><g id="Layer_2" data-name="Layer 2"><g id="Layer_2-2" data-name="Layer 2"><path d="M712,230.9a6,6,0,0,0-11.88,1.86c.87,5.6,2,23.14-4.09,30.19a8.06,8.06,0,0,1-4.88,2.81l.56-33.4a8.69,8.69,0,1,0-17.38.07l1.57,63.39a8.15,8.15,0,0,1-5.08-2.83c-6-7.06-4.95-24.6-4.09-30.2a6,6,0,0,0-11.88-1.85c-.43,2.75-3.9,27.31,6.83,39.85a20.32,20.32,0,0,0,14.52,7.14l.69,27.59H690l.95-57.64a20.3,20.3,0,0,0,14.22-7.12C715.86,258.22,712.38,233.66,712,230.9Z" fill="#bdbdbd"/><path d="M152,284.64a3.83,3.83,0,0,0-7.57,1.18c.55,3.57,1.25,14.75-2.61,19.25a5.15,5.15,0,0,1-3.11,1.79l.36-21.29a5.54,5.54,0,1,0-11.08,0l1,40.41a5.12,5.12,0,0,1-3.24-1.81c-3.86-4.49-3.16-15.67-2.61-19.24a3.83,3.83,0,0,0-7.57-1.19c-.27,1.76-2.49,17.42,4.35,25.41a13,13,0,0,0,9.26,4.55l.44,17.59h8.36l.61-36.75a12.93,12.93,0,0,0,9.06-4.53C154.44,302.05,152.23,286.4,152,284.64Z" fill="#bdbdbd"/><ellipse cx="432.51" cy="452.63" rx="432.51" ry="153.12" fill="#efeeee"/><path d="M446.8,203.27a2.29,2.29,0,0,0-3.8,2.56c1.2,1.79,4.41,7.67,3.46,11.08a3.11,3.11,0,0,1-1.23,1.76L440,207a3.31,3.31,0,1,0-6,2.83l10.77,21.64a3.07,3.07,0,0,1-2.21-.16c-3.23-1.46-5.68-7.69-6.29-9.77a2.29,2.29,0,0,0-4.4,1.28c.3,1,3.06,10.06,8.79,12.66a7.78,7.78,0,0,0,6.17.12l4.68,9.42,4.53-2.12-9-20.06a7.73,7.73,0,0,0,3.77-4.75C452.56,212.07,447.4,204.15,446.8,203.27Z" fill="#bdbdbd"/><path d="M361.07,257.94a2.8,2.8,0,1,1-2.8-2.79A2.8,2.8,0,0,1,361.07,257.94Z" fill="#bdbdbd"/><path d="M491,208.36a2.13,2.13,0,1,1-2.13-2.12A2.13,2.13,0,0,1,491,208.36Z" fill="#bdbdbd"/><g mask="url(#mask-2)"><polygon points="430.77 105.1 157.88 401.34 553.06 405.19 535.37 140.37 430.77 105.1" fill="#b7f9ba"/></g><path d="M544,179.84a7.08,7.08,0,0,0,9.28-7.51l-3.87-33.58a7.07,7.07,0,0,0-14,1.62L539.24,174A7.09,7.09,0,0,0,544,179.84Z" fill="#41cc47"/><circle cx="547.06" cy="173.03" r="14.39" transform="translate(248.21 662.83) rotate(-76.16)" fill="#41cc47"/><path d="M400,131.28a7.06,7.06,0,0,1-2.83-11.59l23.41-24.38a7.07,7.07,0,0,1,10.2,9.79l-23.42,24.38A7.06,7.06,0,0,1,400,131.28Z" fill="#41cc47"/><circle cx="401.7" cy="124.02" r="14.39" transform="translate(28.32 317.23) rotate(-44.52)" fill="#41cc47"/><path d="M487.42,116.49A862.76,862.76,0,0,1,403.59,83.6c14.11,22.61,40.73,43.08,74.58,54.49,33.56,11.31,66.87,11.26,91.72,2C545.46,134.54,517.19,126.53,487.42,116.49Z" fill="#41cc47"/><ellipse cx="493.95" cy="90.49" rx="26.73" ry="163.9" transform="translate(250.39 529.64) rotate(-71.37)" fill="#b7f9ba"/><path d="M487.33,110.11C407.47,83.18,345,51.18,340.59,35.6a5.36,5.36,0,0,0-1.95,2.52c-4.72,14,61,48.77,146.77,77.69s159.13,41,163.84,27a5.23,5.23,0,0,0,0-3.18C636.27,149.38,567.19,137,487.33,110.11Z" fill="#b7f9ba" opacity="0.2"/><path d="M499.85,79.36a485.9,485.9,0,0,0,78.54,18.78A83.33,83.33,0,0,0,422,45.81S460,65.94,499.85,79.36Z" fill="#41cc47"/></g></g></svg>