<svg width="760" height="345" viewBox="0 0 760 345" fill="none" xmlns="http://www.w3.org/2000/svg">
<path d="M225.431 58.4C230.569 66.6 226.317 77.2 221.268 83.2C214.979 90.5 208.69 89.4 205.767 95.9C202.224 103.8 209.753 109.5 205.855 117.7C203.464 122.7 200.186 121.5 195.403 127.9C189.646 135.7 195.315 137.9 191.151 143.6C177.953 161.9 172.727 149.2 164.667 154C154.303 160.2 147.305 165.6 142.256 164.3C122.238 159.4 128.438 144.5 118.695 138.8C105.585 131.1 99.1187 99.4 108.154 88.3C112.848 82.5 117.543 81.8 117.986 76.9C118.606 69.9 109.217 67.8 108.242 59.4C107.179 49.8 118.429 45.2 116.746 37.1C115.151 29.2 103.548 29.5 102.839 23.9C101.688 15.4 126.401 0.0999833 151.911 0.999983C164.135 1.49998 183.977 5.89998 187.343 17.4C189.291 24 184.242 28.3 187.077 36.9C189.114 43.1 193.632 46.6 199.566 51.1C205.235 55.4 216.396 43.9 225.431 58.4Z" fill="#EEEEEE"/>
<path d="M164.401 53.2C168.387 53 170.424 83.2 168.121 87.2C165.818 91.2 161.389 94.1 161.123 98.4C160.858 102.7 162.541 179.4 163.958 178.3C165.375 177.2 177.156 157.1 174.764 152.4C172.373 147.7 169.715 140.5 170.336 134.4C170.867 128.3 170.867 119.6 172.373 119.8C173.879 120 172.639 135 173.702 137.9C174.764 140.8 174.942 143.1 176.447 143.1C177.953 143.2 177.953 127.3 180.345 127.5C182.648 127.8 181.053 151.2 180.256 155.5C179.459 159.8 176.713 174.8 174.233 180.3C171.753 185.8 164.135 191.6 163.869 193.5C163.692 195.4 164.932 240 164.932 240L144.914 240.4C144.914 240.4 152.266 152.3 150.671 149.4C148.988 146.5 138.625 122.7 136.41 120.2C134.196 117.8 132.867 102.9 134.019 102.7C135.17 102.5 135.879 116.9 138.27 117.2C140.75 117.4 142.079 89.2 143.851 89.5C145.622 89.7 142.168 118.8 143.053 120.6C144.028 122.4 149.608 133.1 151.468 132.9C153.329 132.7 150.405 53.7 152 52.8C153.594 51.9 154.746 52.6 155.72 60.9C156.695 69.2 158.555 87.2 159.706 87.2C160.769 87.2 163.515 84.5 163.604 82.6C163.692 81 162.629 53.3 164.401 53.2Z" fill="#BDBDBD"/>
<path d="M597.371 142.9C594.447 147.5 596.839 153.5 599.762 156.9C603.305 161.1 606.937 160.4 608.531 164.1C610.48 168.5 606.317 171.8 608.531 176.5C609.86 179.4 611.72 178.7 614.466 182.3C617.743 186.7 614.555 188 616.858 191.2C624.298 201.6 627.31 194.4 631.827 197.1C637.674 200.6 641.66 203.7 644.494 203C655.832 200.2 652.289 191.8 657.869 188.6C665.31 184.2 668.942 166.3 663.804 160C661.147 156.7 658.489 156.3 658.224 153.5C657.869 149.5 663.184 148.4 663.715 143.6C664.336 138.2 657.958 135.6 658.932 131C659.818 126.5 666.373 126.7 666.816 123.5C667.436 118.7 653.529 110 639.002 110.5C632.093 110.8 620.844 113.3 618.984 119.8C617.921 123.6 620.755 126 619.161 130.8C618.009 134.3 615.44 136.3 612.074 138.8C608.797 141.2 602.419 134.7 597.371 142.9Z" fill="#EEEEEE"/>
<path d="M631.916 140C629.613 139.9 628.462 157 629.79 159.2C631.119 161.4 633.599 163.1 633.776 165.6C633.954 168.1 632.979 211.5 632.182 210.8C631.385 210.2 624.741 198.8 626.07 196.1C627.399 193.5 628.905 189.4 628.639 185.9C628.285 182.4 628.285 177.5 627.487 177.6C626.602 177.7 627.31 186.2 626.779 187.9C626.159 189.5 626.07 190.8 625.184 190.9C624.298 190.9 624.298 181.9 622.97 182.1C621.641 182.3 622.527 195.5 622.97 198C623.413 200.5 624.919 208.9 626.336 212C627.753 215.1 632.093 218.4 632.182 219.5C632.271 220.6 631.562 245.9 631.562 245.9L642.9 246.1C642.9 246.1 638.737 196.2 639.622 194.6C640.597 192.9 646.443 179.5 647.683 178.1C648.923 176.7 649.72 168.3 649.012 168.2C648.303 168.1 647.949 176.3 646.62 176.4C645.203 176.5 644.494 160.6 643.52 160.7C642.546 160.8 644.494 177.3 643.963 178.3C643.431 179.3 640.243 185.4 639.18 185.3C638.117 185.2 639.8 140.5 638.825 139.9C637.94 139.4 637.231 139.8 636.699 144.5C636.168 149.2 635.105 159.4 634.485 159.4C633.865 159.4 632.271 157.8 632.271 156.8C632.271 155.7 632.891 140.1 631.916 140Z" fill="#BDBDBD"/>
<path d="M380 345C589.868 345 760 313.212 760 274C760 234.788 589.868 203 380 203C170.132 203 0 234.788 0 274C0 313.212 170.132 345 380 345Z" fill="#EFEEEE"/>
<path d="M448.825 249H286.55C284.601 249 283.007 247.2 283.007 245V152.5H452.368V245C452.368 247.2 450.774 249 448.825 249Z" fill="#41CC47"/>
<path d="M452.634 184H282.653C280.35 184 278.578 181.7 278.932 179.1L282.918 152.5H452.28L456.266 179.1C456.709 181.6 454.937 184 452.634 184Z" fill="#B7F9BA"/>
</svg>
