<?xml version="1.0" encoding="UTF-8"?>
<svg width="1852px" height="1220px" viewBox="0 0 1852 1220" version="1.1" xmlns="http://www.w3.org/2000/svg" xmlns:xlink="http://www.w3.org/1999/xlink">
    <title>Slice 1</title>
    <defs>
        <path d="M201.193017,366 L57.5062111,366 C57.5062111,366 -4.54290477,299.051683 25.8938362,235.96783 C56.3295792,172.883977 -51.7558808,110.262465 33.4845586,0 L312,0 C312,0 219.166842,63.4178343 252.649453,118.150906 C286.122084,172.883977 340.91181,225.34772 278.517389,267.527827 C216.122968,309.709179 201.193017,366 201.193017,366 L201.193017,366 Z" id="path-1"></path>
    </defs>
    <g id="Page-1" stroke="none" stroke-width="1" fill="none" fill-rule="evenodd">
        <path d="M1740.67262,1019.65264 C1717.67691,1101.60067 1682.46414,1163.22729 1662.59649,1193.86548 C1661.81134,1195.07608 1661.0513,1196.24862 1660.31011,1197.36024 C1654.91451,1205.53753 1650.90078,1211.0652 1648.94731,1213.68437 C1648.07421,1214.84929 1647.61568,1215.44317 1647.61568,1215.44317 L122.282101,1215.9 C101.969118,1178.21898 92.2312733,1146.91839 89.6829642,1119.77496 L89.6760548,1119.70644 C89.2162662,1114.73458 88.987,1109.90739 88.987,1105.20203 C88.987,1104.04472 88.987,1102.89502 89.0253157,1101.76056 L89.0253157,1101.75294 C89.031597,1101.31134 89.0441595,1100.88496 89.0573502,1100.45097 C89.4467886,1087.84241 91.4197339,1076.12468 94.5553413,1065.03128 C97.8567742,1053.32115 102.45466,1042.29628 107.837704,1031.62925 C108.310055,1030.69275 108.782406,1029.76386 109.267948,1028.84258 C109.338298,1028.70553 109.408648,1028.56848 109.478999,1028.43143 C114.357657,1019.09683 119.811051,1010.01349 125.50753,1000.95299 C128.552688,996.110576 131.675733,991.260544 134.804431,986.387671 C147.793458,966.21093 161.056349,945.569744 170.897207,922.027675 C174.485694,913.44685 177.61502,904.485331 180.111194,895.013684 C182.716663,885.123274 184.63873,874.699894 185.660692,863.583652 C185.896868,860.987324 186.088446,858.352927 186.229775,855.680461 L186.229775,855.672847 C186.344094,853.480054 186.420725,851.256805 186.459041,849.018329 C186.516828,846.041308 186.510547,843.018604 186.439569,839.942603 L186.439569,839.934989 C186.152515,827.737578 184.817746,814.763553 182.225468,800.853023 L182.225468,800.845409 C182.09733,800.160161 181.969821,799.474913 181.82912,798.789666 L181.82912,798.782052 C181.350488,796.27709 180.82663,793.764515 180.258804,791.198643 C179.75379,788.929711 179.217999,786.630324 178.649544,784.308095 C178.259478,782.70157 177.851195,781.087431 177.423441,779.458064 C174.358184,767.740327 171.816156,756.206845 169.77977,744.874369 C168.662333,738.643182 167.698159,732.474429 166.880338,726.367349 L166.880338,726.358973 L166.861494,726.21964 C166.299321,722.0244 165.807498,717.860378 165.386025,713.72605 C165.315675,713.038518 165.245325,712.341088 165.181884,711.652794 C140.730804,459.087207 358.848984,303.602197 576.271829,288.168133 C607.04877,285.984476 637.826968,286.604245 667.889102,290.156874 C755.349435,300.490411 836.848847,335.616974 895.390236,398.540234 C958.089822,465.939685 1066.79339,443.060022 1188.23537,420.180359 C1328.18195,393.815831 1485.04398,367.452064 1607.96205,479.219787 C1612.15166,483.028242 1616.30985,486.998872 1620.41152,491.140053 C1621.56099,492.28594 1622.70418,493.454668 1623.84109,494.638624 C1654.72607,526.599342 1683.20532,568.142871 1708.41832,621.614279 C1721.92304,650.25383 1732.5321,678.507358 1740.67262,706.210404 C1741.67134,709.616847 1742.63865,713.014915 1743.55572,716.404607 C1773.58645,826.298558 1764.98739,927.15942 1743.55572,1009.00846 C1742.62609,1012.58698 1741.65878,1016.14265 1740.67262,1019.65264 Z" id="Fill-2" fill="#FCFCFC"></path>
        <g id="Group">
            <path d="M999,4.28488837 L999,193 L853,193 L853,1.66814461 C902.045702,-1.20406226 951.093406,-0.38958574 999,4.28488837" id="Fill-3" fill="#7F7C9C"></path>
            <polygon id="Fill-4" fill="#3F3D55" points="821 252 1031 252 1031 192 821 192"></polygon>
            <polyline id="Fill-5" fill="#7F7C9C" points="730 360 825.649212 252 1035.76694 252 1122 360 730 360"></polyline>
            <polygon id="Fill-6" fill="#3F3D55" points="702 391 1159 391 1159 361 702 361"></polygon>
            <polygon id="Fill-7" fill="#F7F6FF" points="551 1217 1315 1217 1315 810 551 810"></polygon>
            <g id="Group-204" transform="translate(778.000000, 391.000000)">
                <mask id="mask-2" fill="white">
                    <use xlink:href="#path-1"></use>
                </mask>
                <g id="Clip-203"></g>
                <polygon id="Fill-202" fill="#F6F6FF" mask="url(#mask-2)" points="-51 366 341 366 341 0 -51 0"></polygon>
            </g>
            <polygon id="Fill-8" fill="#3F3D55" points="525 831 1337 831 1337 810 525 810"></polygon>
            <path d="M587.06259,1011.92901 L917.934413,1011.92901 L917.934413,857.081016 L587.06259,857.081016 L587.06259,1011.92901 Z M583,1016 L922,1016 L922,853 L583,853 L583,1016 Z" id="Fill-9" fill="#9592B2"></path>
            <path d="M587.06259,1192.91898 L917.934413,1192.91898 L917.934413,1038.07099 L587.06259,1038.07099 L587.06259,1192.91898 Z M583,1197 L922,1197 L922,1034 L583,1034 L583,1197 Z" id="Fill-10" fill="#9592B2"></path>
            <path d="M950.065563,1011.92901 L1280.93444,1011.92901 L1280.93444,857.081016 L950.065563,857.081016 L950.065563,1011.92901 Z M946,1016 L1285,1016 L1285,853 L946,853 L946,1016 Z" id="Fill-11" fill="#9592B2"></path>
            <path d="M950.065563,1192.91898 L1280.93444,1192.91898 L1280.93444,1038.07099 L950.065563,1038.07099 L950.065563,1192.91898 Z M946,1197 L1285,1197 L1285,1034 L946,1034 L946,1197 Z" id="Fill-12" fill="#9592B2"></path>
            <path d="M777.568627,882 L728.430367,882 C725.992961,882 724,879.977299 724,877.505108 C724,875.022701 725.992961,873 728.430367,873 L777.568627,873 C780.006033,873 782,875.022701 782,877.505108 C782,879.977299 780.006033,882 777.568627,882" id="Fill-13" fill="#3F3D55"></path>
            <path d="M777.568627,1061 L728.430367,1061 C725.992961,1061 724,1058.9773 724,1056.50511 C724,1054.0227 725.992961,1052 728.430367,1052 L777.568627,1052 C780.006033,1052 782,1054.0227 782,1056.50511 C782,1058.9773 780.006033,1061 777.568627,1061" id="Fill-14" fill="#3F3D55"></path>
            <path d="M1028,802 L810,802 C820.105761,752.836947 862.391712,715.492322 913.801893,713.120596 C915.52458,713.040199 917.257282,713 919,713 C972.723789,713 1017.55371,751.188799 1028,802" id="Fill-139" fill="#00CC99"></path>
            <path d="M1026,802 L859,802 C865.494057,764.012195 885.295442,731.913505 912.259244,713.120596 C913.975031,713.040199 915.700794,713 917.436533,713 C970.945165,713 1015.59554,751.188799 1026,802" id="Fill-140" fill="#64F0CD"></path>
            <path d="M1035.73777,810 L797.252253,810 C794.916508,810 793,807.974209 793,805.505275 C793,803.025791 794.916508,801 797.252253,801 L1035.73777,801 C1038.08349,801 1040,803.025791 1040,805.505275 C1040,807.974209 1038.08349,810 1035.73777,810" id="Fill-141" fill="#019C75"></path>
            <path d="M914.494761,717 L914.494761,717 C912.022119,717 910,715.051663 910,712.659145 L910,704.33076 C910,701.948337 912.022119,700 914.494761,700 C916.977881,700 919,701.948337 919,704.33076 L919,712.659145 C919,715.051663 916.977881,717 914.494761,717" id="Fill-142" fill="#00CC99"></path>
            <path d="M623,748 C623.23059,782.279761 651.121992,810 685.5,810 C719.878008,810 747.759384,782.279761 748,748 L623,748" id="Fill-224" fill="#00CC99"></path>
            <polygon id="Fill-225" fill="#079C77" points="651 809 715 809 715 799 651 799"></polygon>
            <path d="M1085,768 C1085.14971,791.226646 1104.11252,810 1127.5,810 C1150.87084,810 1169.83366,791.226646 1170,768 L1085,768" id="Fill-226" fill="#00CC99"></path>
            <polygon id="Fill-227" fill="#018867" points="1104 810 1148 810 1148 803 1104 803"></polygon>
            <path d="M1850.10896,1220 L1.89302754,1220 C0.851961921,1220 0,1219.14428 0,1218.10282 L0,1217.89718 C0,1216.85572 0.851961921,1216 1.89302754,1216 L1850.10896,1216 C1851.14406,1216 1852,1216.85572 1852,1217.89718 L1852,1218.10282 C1852,1219.14428 1851.14406,1220 1850.10896,1220" id="Fill-228" fill="#F3F3F3"></path>
        </g>
    </g>
</svg>