<svg width="866" height="606" viewBox="0 0 866 606" fill="none" xmlns="http://www.w3.org/2000/svg">
<path d="M712 230.9C711.878 230.12 711.603 229.372 711.192 228.698C710.781 228.024 710.241 227.437 709.603 226.972C708.965 226.507 708.241 226.172 707.474 225.986C706.707 225.801 705.91 225.768 705.13 225.89C704.35 226.012 703.602 226.287 702.928 226.698C702.254 227.109 701.667 227.649 701.202 228.287C700.737 228.925 700.402 229.649 700.216 230.416C700.031 231.183 699.998 231.98 700.12 232.76C700.99 238.36 702.12 255.9 696.03 262.95C694.794 264.443 693.062 265.441 691.15 265.76L691.71 232.36C691.705 231.219 691.476 230.09 691.035 229.037C690.594 227.985 689.95 227.029 689.14 226.226C688.33 225.422 687.369 224.786 686.313 224.353C685.257 223.921 684.126 223.7 682.985 223.705C681.844 223.71 680.715 223.939 679.662 224.38C678.61 224.821 677.654 225.465 676.85 226.275C676.047 227.085 675.411 228.046 674.978 229.102C674.546 230.158 674.325 231.289 674.33 232.43L675.9 295.82C673.916 295.533 672.108 294.526 670.82 292.99C664.82 285.93 665.87 268.39 666.73 262.79C666.975 261.215 666.585 259.606 665.644 258.319C664.704 257.031 663.29 256.17 661.715 255.925C660.14 255.68 658.531 256.07 657.244 257.011C655.956 257.951 655.095 259.365 654.85 260.94C654.42 263.69 650.95 288.25 661.68 300.79C663.482 302.911 665.701 304.639 668.199 305.868C670.696 307.096 673.42 307.798 676.2 307.93L676.89 335.52H690L690.95 277.88C693.677 277.711 696.343 276.994 698.786 275.77C701.23 274.547 703.401 272.843 705.17 270.76C715.86 258.22 712.38 233.66 712 230.9Z" fill="#BDBDBD"/>
<path d="M152 284.64C151.843 283.636 151.295 282.736 150.474 282.136C149.654 281.537 148.629 281.289 147.625 281.445C146.621 281.602 145.721 282.15 145.121 282.971C144.522 283.791 144.273 284.816 144.43 285.82C144.98 289.39 145.68 300.57 141.82 305.07C141.031 306.02 139.928 306.655 138.71 306.86L139.07 285.57C139.07 284.101 138.486 282.692 137.447 281.653C136.408 280.614 134.999 280.03 133.53 280.03C132.061 280.03 130.652 280.614 129.613 281.653C128.574 282.692 127.99 284.101 127.99 285.57L128.99 325.98C127.722 325.803 126.566 325.157 125.75 324.17C121.89 319.68 122.59 308.5 123.14 304.93C123.298 303.926 123.05 302.901 122.452 302.079C121.854 301.258 120.954 300.708 119.95 300.55C118.946 300.392 117.921 300.64 117.099 301.238C116.278 301.836 115.728 302.736 115.57 303.74C115.3 305.5 113.08 321.16 119.92 329.15C121.071 330.5 122.487 331.6 124.079 332.383C125.672 333.166 127.408 333.614 129.18 333.7L129.62 351.29H137.98L138.59 314.54C140.327 314.434 142.025 313.978 143.582 313.199C145.139 312.421 146.522 311.336 147.65 310.01C154.44 302.05 152.23 286.4 152 284.64Z" fill="#BDBDBD"/>
<path d="M432.51 605.75C671.379 605.75 865.02 537.196 865.02 452.63C865.02 368.064 671.379 299.51 432.51 299.51C193.641 299.51 0 368.064 0 452.63C0 537.196 193.641 605.75 432.51 605.75Z" fill="#EFEEEE"/>
<path d="M446.8 203.27C446.461 202.766 445.935 202.418 445.338 202.302C444.742 202.185 444.124 202.311 443.62 202.65C443.116 202.99 442.768 203.515 442.651 204.112C442.535 204.708 442.661 205.326 443 205.83C444.2 207.62 447.41 213.5 446.46 216.91C446.272 217.624 445.836 218.248 445.23 218.67L440 207C439.625 206.204 438.949 205.59 438.121 205.293C437.293 204.996 436.381 205.04 435.585 205.415C434.789 205.79 434.175 206.466 433.878 207.294C433.581 208.122 433.625 209.034 434 209.83L444.77 231.47C444.039 231.694 443.251 231.637 442.56 231.31C439.33 229.85 436.88 223.62 436.27 221.54C436.1 220.957 435.706 220.464 435.173 220.172C434.641 219.879 434.013 219.81 433.43 219.98C432.847 220.15 432.354 220.544 432.062 221.077C431.769 221.61 431.7 222.237 431.87 222.82C432.17 223.82 434.93 232.88 440.66 235.48C441.626 235.92 442.672 236.157 443.733 236.178C444.794 236.199 445.848 236.002 446.83 235.6L451.51 245.02L456.04 242.9L447.04 222.84C447.956 222.343 448.762 221.667 449.41 220.85C450.058 220.034 450.534 219.095 450.81 218.09C452.56 212.07 447.4 204.15 446.8 203.27Z" fill="#BDBDBD"/>
<path d="M361.07 257.94C361.072 258.494 360.909 259.037 360.603 259.498C360.296 259.96 359.86 260.321 359.348 260.534C358.837 260.747 358.274 260.804 357.73 260.697C357.186 260.591 356.686 260.325 356.294 259.933C355.901 259.542 355.633 259.043 355.525 258.5C355.416 257.957 355.471 257.393 355.682 256.881C355.894 256.369 356.253 255.931 356.713 255.623C357.174 255.315 357.716 255.15 358.27 255.15C359.011 255.15 359.722 255.444 360.246 255.967C360.771 256.49 361.067 257.199 361.07 257.94V257.94Z" fill="#BDBDBD"/>
<path d="M491 208.36C491.002 208.782 490.879 209.195 490.646 209.546C490.413 209.898 490.081 210.172 489.692 210.335C489.303 210.498 488.874 210.541 488.461 210.46C488.047 210.379 487.666 210.177 487.367 209.88C487.069 209.582 486.865 209.203 486.782 208.789C486.699 208.376 486.74 207.947 486.901 207.557C487.062 207.168 487.335 206.834 487.686 206.6C488.036 206.365 488.448 206.24 488.87 206.24C489.433 206.24 489.973 206.463 490.373 206.86C490.772 207.258 490.997 207.797 491 208.36Z" fill="#BDBDBD"/>
<path d="M430.77 105.1L157.88 401.34L553.06 405.19L535.37 140.37L430.77 105.1Z" fill="#B7F9BA" fill-opacity="0.46"/>
<path d="M544 179.84C545.128 180.217 546.334 180.304 547.504 180.092C548.675 179.881 549.774 179.377 550.699 178.629C551.623 177.881 552.345 176.911 552.796 175.81C553.247 174.709 553.414 173.512 553.28 172.33L549.41 138.75C549.063 137.008 548.074 135.461 546.639 134.415C545.203 133.37 543.427 132.902 541.663 133.107C539.899 133.311 538.276 134.171 537.118 135.517C535.959 136.863 535.349 138.595 535.41 140.37L539.24 174C539.404 175.322 539.938 176.572 540.78 177.605C541.622 178.638 542.738 179.412 544 179.84Z" fill="#41CC47"/>
<path d="M561.052 176.486C562.953 168.769 558.238 160.972 550.522 159.071C542.805 157.17 535.008 161.884 533.107 169.601C531.206 177.318 535.921 185.114 543.637 187.015C551.354 188.917 559.151 184.202 561.052 176.486Z" fill="#41CC47"/>
<path d="M400 131.28C398.872 130.9 397.858 130.241 397.053 129.364C396.248 128.487 395.677 127.421 395.395 126.264C395.112 125.108 395.127 123.898 395.437 122.749C395.748 121.6 396.344 120.547 397.17 119.69L420.58 95.3101C421.886 93.9936 423.658 93.2432 425.512 93.2206C427.367 93.198 429.156 93.9051 430.494 95.1894C431.832 96.4737 432.612 98.2323 432.665 100.086C432.719 101.94 432.042 103.741 430.78 105.1L407.36 129.48C406.431 130.449 405.245 131.132 403.942 131.451C402.638 131.77 401.271 131.711 400 131.28V131.28Z" fill="#41CC47"/>
<path d="M411.782 134.262C417.448 128.69 417.525 119.579 411.952 113.912C406.38 108.246 397.269 108.169 391.602 113.742C385.936 119.314 385.86 128.425 391.432 134.091C397.004 139.758 406.115 139.834 411.782 134.262Z" fill="#41CC47"/>
<path d="M487.42 116.49C458.923 106.994 430.942 96.0153 403.59 83.6001C417.7 106.21 444.32 126.68 478.17 138.09C511.73 149.4 545.04 149.35 569.89 140.09C545.46 134.54 517.19 126.53 487.42 116.49Z" fill="#41CC47"/>
<path d="M649.245 142.839C653.961 128.85 588.249 94.0675 502.472 65.1506C416.696 36.2336 343.338 24.1321 338.622 38.1212C333.906 52.1102 399.618 86.8924 485.394 115.809C571.171 144.726 644.529 156.828 649.245 142.839Z" fill="#B7F9BA"/>
<path opacity="0.2" d="M487.33 110.11C407.47 83.1801 345 51.1801 340.59 35.6001C339.7 36.223 339.02 37.1018 338.64 38.1201C333.92 52.1201 399.64 86.8901 485.41 115.81C571.18 144.73 644.54 156.81 649.25 142.81C649.58 141.776 649.58 140.664 649.25 139.63C636.27 149.38 567.19 137 487.33 110.11Z" fill="#B7F9BA"/>
<path d="M499.85 79.3601C525.464 87.7885 551.734 94.0702 578.39 98.1401C581.934 78.4408 578.268 58.1243 568.064 40.9053C557.86 23.6862 541.799 10.7152 522.818 4.36398C503.838 -1.98729 483.205 -1.29444 464.692 6.31583C446.18 13.9261 431.026 27.9453 422 45.8101C422 45.8101 460 65.9401 499.85 79.3601Z" fill="#41CC47"/>
</svg>
