<svg width="200" height="203" viewBox="0 0 200 203" fill="none" xmlns="http://www.w3.org/2000/svg">
<path d="M3.50028 171.398C11.1163 189.983 23.5343 193.851 32.2651 189.983C49.1502 182.501 93.0119 174.143 138.059 193.791C197.722 219.814 210.416 180.552 191.375 140.837C172.334 101.123 165.88 60.9601 187.831 38.8332C209.782 16.7061 181.057 -17.9087 130.044 18.1229C97.0779 41.4078 72.8839 36.223 59.892 29.6404C47.6476 23.4366 34.0304 16.9508 21.2723 22.0149C5.79178 28.1599 -0.308018 41.4826 23.2449 71.2461C56.6213 113.422 -13.572 129.74 3.50028 171.398Z" fill="#F6F8FF"/>
<path d="M34.5103 80.864H153.038V172.02C153.038 172.205 152.965 172.383 152.833 172.514C152.702 172.646 152.524 172.72 152.338 172.72H35.2103C35.0246 172.72 34.8465 172.646 34.7153 172.514C34.584 172.383 34.5103 172.205 34.5103 172.02V80.864Z" fill="#41CC47"/>
<path d="M123.304 45.1428H68.19L34.5103 80.864H153.038L123.304 45.1428Z" fill="#1BA520"/>
<path d="M45.737 30.854L68.1901 45.1427L34.5103 80.8639L8.99487 61.4729L45.737 30.854Z" fill="#B7F9BA"/>
<path d="M145.757 30.854L123.303 45.1427L153.038 80.8639L182.499 61.4729L145.757 30.854Z" fill="#B7F9BA"/>
<path d="M82.6701 31.5847C83.3041 31.2842 83.7971 30.7505 84.0461 30.0951C84.2951 29.4397 84.2821 28.7133 84.0081 28.0677L73.9071 4.24977C73.7641 3.91237 73.5541 3.60747 73.2901 3.35327C73.0261 3.09907 72.7141 2.90087 72.3711 2.77057C72.0291 2.64027 71.6631 2.58057 71.2971 2.59517C70.9311 2.60967 70.5711 2.69807 70.2401 2.85507L68.2941 3.77787C67.9631 3.93487 67.6671 4.15717 67.4241 4.43147C67.1811 4.70577 66.9961 5.02637 66.8801 5.37397C66.7641 5.72157 66.7201 6.08907 66.7501 6.45437C66.7801 6.81957 66.8831 7.17497 67.0531 7.49927L79.1001 30.3944C79.4271 31.015 79.9811 31.4853 80.6461 31.7072C81.3111 31.929 82.0361 31.8851 82.6701 31.5847Z" fill="#1BA520"/>
<path d="M95.334 29.2756C95.792 29.2429 96.22 29.0343 96.529 28.6933C96.837 28.3524 97.002 27.9054 96.989 27.4459L96.49 10.4896C96.483 10.2495 96.427 10.0132 96.326 9.79498C96.226 9.57688 96.082 9.38128 95.904 9.22018C95.725 9.05898 95.516 8.93548 95.289 8.85718C95.062 8.77878 94.821 8.74718 94.582 8.76428L93.173 8.86468C92.933 8.88168 92.7 8.94698 92.486 9.05668C92.272 9.16628 92.083 9.31808 91.929 9.50278C91.776 9.68738 91.661 9.90128 91.592 10.1314C91.523 10.3615 91.502 10.6032 91.529 10.8419L93.436 27.6979C93.488 28.1549 93.714 28.5742 94.068 28.8682C94.421 29.1622 94.875 29.3082 95.334 29.2756Z" fill="#1BA520"/>
<path d="M105.11 35.5439C106.372 36.2732 108.142 35.604 109.124 34.0266L126.563 6.01921C127.605 4.34601 127.358 2.30681 126.021 1.53331L124.156 0.455314C122.818 -0.318286 120.927 0.485014 119.997 2.22251L104.423 31.3078C103.546 32.9459 103.849 34.8145 105.11 35.5439Z" fill="#1BA520"/>
</svg>
