<svg width="561" height="248" viewBox="0 0 561 248" fill="none" xmlns="http://www.w3.org/2000/svg">
<g clip-path="url(#clip0)">
<path d="M280.504 246.862C435.418 246.862 561 242.772 561 237.727C561 232.681 435.418 228.591 280.504 228.591C125.59 228.591 0.00732422 232.681 0.00732422 237.727C0.00732422 242.772 125.59 246.862 280.504 246.862Z" fill="#ECECEC"/>
<path d="M169.805 232.774C168.607 230.48 160.919 228.485 156.527 227.387C152.134 226.29 139.355 224.395 136.36 224.395C133.365 224.395 126.776 216.714 125.678 214.419C124.58 212.225 121.884 207.636 121.485 207.536C120.986 207.437 120.387 209.232 120.387 209.232C120.387 209.232 120.187 227.986 123.082 228.684C125.977 229.382 143.648 229.881 146.044 230.879C148.34 231.976 151.834 233.971 155.029 233.971C158.124 233.971 158.923 232.974 159.721 232.974C160.52 232.974 161.418 234.37 164.913 234.171C168.407 234.171 170.703 234.57 169.805 232.774Z" fill="#CE8C47"/>
<path d="M120.886 220.903C123.681 218.809 131.069 222.599 138.357 220.903C140.852 220.305 143.748 216.115 146.543 219.208C149.438 222.2 147.342 227.786 145.644 229.682C143.947 231.577 136.56 233.772 132.966 233.273C129.471 232.874 120.287 233.173 117.391 231.378C114.496 229.582 116.892 226.29 118.39 223.397C119.987 220.704 120.087 221.602 120.886 220.903Z" fill="#FFFADE"/>
<path d="M115.794 212.524C113.299 216.814 110.104 225.692 107.408 225.991C104.713 226.19 100.919 226.889 100.32 229.981C99.7212 233.173 109.605 238.161 117.392 237.562C125.179 236.964 126.676 234.37 128.673 234.669C130.67 234.869 131.069 233.672 131.069 233.672C131.069 233.672 124.68 230.679 121.285 230.58C117.891 230.48 117.392 230.18 118.091 228.485C118.889 226.689 120.786 224.295 121.485 221.901C122.184 219.507 121.685 208.035 121.485 207.636C121.285 207.237 120.886 207.537 120.586 207.636C120.287 207.736 120.387 207.138 119.788 207.237C119.189 207.237 119.588 207.537 119.089 207.537C118.59 207.537 118.091 206.838 117.591 207.537C117.092 208.235 116.094 209.432 115.994 210.729C115.994 211.926 115.794 212.524 115.794 212.524Z" fill="#F4CE0F"/>
<path d="M326.311 214.995L325.856 222.176C325.583 226.176 328.676 229.63 332.679 229.903L342.231 230.539C346.416 230.812 349.873 227.54 349.964 223.358L333.771 39.7357C333.771 35.8269 326.765 206.905 326.311 214.995Z" fill="#F28C11"/>
<path d="M252.347 35.0996L230.058 232.812C229.512 237.266 232.878 241.357 237.427 241.629L247.798 242.266C252.165 242.538 255.895 239.266 256.168 234.903L256.623 227.085C257.169 218.268 264.72 211.632 273.544 212.177L290.284 213.268C299.109 213.813 305.75 221.358 305.204 230.176L304.749 237.993C304.476 242.357 307.751 246.084 312.118 246.356L322.489 246.993C327.038 247.265 330.859 243.72 330.95 239.175L333.77 40.1901C333.861 36.0995 330.677 32.7362 326.583 32.4635L260.535 28.2819C256.35 28.0092 252.802 31.009 252.347 35.0996Z" fill="#F4CE0F"/>
<path d="M263.537 10.0106L261.444 42.4627L269.905 43.0081L271.725 13.9194C271.907 11.1014 274.363 8.9198 277.183 9.1016L312.027 11.2833C314.847 11.4651 317.03 13.9194 316.848 16.7374L315.029 45.8261L323.49 46.3715L325.673 13.9194C326.037 8.28347 321.761 3.46566 316.121 3.10205L274.363 0.465896C268.813 0.102287 263.901 4.37469 263.537 10.0106Z" fill="#F4CE0F"/>
<path d="M317.395 144.546L255.258 140.637C253.803 140.546 252.62 139.728 251.983 138.455C251.347 137.183 251.437 135.728 252.256 134.547L286.736 82.7324C287.555 81.5506 288.828 80.9143 290.284 81.0052C291.74 81.0961 292.922 81.9143 293.559 83.1869L321.216 138.91C321.853 140.183 321.762 141.637 320.943 142.819C320.215 144.001 318.85 144.637 317.395 144.546ZM262.628 133.183L311.027 136.274L289.465 92.8225L262.628 133.183Z" fill="#F28C11"/>
</g>
<defs>
<clipPath id="clip0">
<rect width="561" height="248" fill="white"/>
</clipPath>
</defs>
</svg>
