<svg xmlns="http://www.w3.org/2000/svg" width="239.846" height="130.199" viewBox="0 0 239.846 130.199">
  <g id="Group_709" data-name="Group 709" transform="translate(-85.077 -41.301)">
    <g id="Group_608" data-name="Group 608" transform="translate(13.168 -8.422)">
      <path id="Path_1671" data-name="Path 1671" d="M408.952,367.08c-14.128,0-219.937.043-220.056-.272l-.02-.04a.186.186,0,0,1-.02-.057c-.079-.156-31.711-43.848,17.464-74.266a22.991,22.991,0,0,0,6.883-5.961c6.268-8.874-5.394-16.129,7.212-27.046,17.587-15.23,36.774,1.618,56.328-5.286a32.047,32.047,0,0,0,10.392-6.191,38,38,0,0,1,6.387-4.45c.352-.2.706-.389,1.064-.576a45.733,45.733,0,0,1,4.261-1.942q1.477-.583,3.009-1.081h0q2.433-.79,4.986-1.36a66.217,66.217,0,0,1,7.434-1.225q1.659-.181,3.344-.287a94.715,94.715,0,0,1,31,3.506c11.27,3.168,21.376,8.183,28.122,14.208,2.561,2.283,14.175,14.094,5.019,30.327-5.781,10.251,18.438,20.04,27.045,31.745C430.691,346.584,409.151,366.692,408.952,367.08Z" transform="translate(-106.861 -187.16)" fill="rgba(237,26,79,0.1)"/>
      <path id="Path_1672" data-name="Path 1672" d="M2362.907,1134.355c-.129-.648.2-.8.2-.8s6.494-2.05,7.037-2.3,4.736-5.893,4.736-5.893,1.587-2.325,3.163-2.057a2.874,2.874,0,0,1,2.315,2.153,2.907,2.907,0,0,1-.962,3.132,77.382,77.382,0,0,1-7.316,5.452c-2.293,1-8.772,1.178-8.772,1.178A2.081,2.081,0,0,1,2362.907,1134.355Z" transform="translate(-2092.971 -993.204)" fill="#e57995"/>
      <path id="Path_1673" data-name="Path 1673" d="M2328.237,1231.292c-.326-.173-1.063-.551-1.088-.443a.458.458,0,0,0,.134.321,2.949,2.949,0,0,0-1.819.166.745.745,0,0,0-.443.381.329.329,0,0,0,.181.493c.544.248.372.08,1.129.446a2.071,2.071,0,0,0,2.1-.011l.671-.2-.059-1.138S2328.641,1231.308,2328.237,1231.292Z" transform="translate(-2058.501 -1091.002)" fill="#ed975d"/>
      <path id="Path_1674" data-name="Path 1674" d="M1883.478,1038.774l-25.813-10.261a5.426,5.426,0,0,1-3.038-7.046l16.571-41.686a5.427,5.427,0,0,1,7.046-3.039l4.845,1.926a3.142,3.142,0,0,0,1.813,3.2c1.323.526,3.162.46,3.908-.923l14.97,5.951a2.73,2.73,0,0,0,.243,1.488,2.385,2.385,0,0,0,2.789,1.059,5.417,5.417,0,0,1,.282,4.612l-16.57,41.685A5.425,5.425,0,0,1,1883.478,1038.774Z" transform="translate(-1630.446 -859.598)" fill="#ffa412"/>
      <path id="Path_1675" data-name="Path 1675" d="M1971.9,1002.218l-27.816-11.06a4.351,4.351,0,0,1-2.435-5.649l10.752-27.05,9.888,3.931a3.142,3.142,0,0,0,1.813,3.2c1.323.526,3.162.46,3.908-.923l3.052,1.214a4,4,0,0,0-.12,1.53,4.8,4.8,0,0,0,2.859,3.9c1.914.761,4.065-.517,4.966-2.372l4.212,1.674a2.733,2.733,0,0,0,.243,1.488,2.386,2.386,0,0,0,2.789,1.059,2.34,2.34,0,0,0,.375-.142,2.192,2.192,0,0,0,.844-.714l1.068.425-10.75,27.053A4.351,4.351,0,0,1,1971.9,1002.218Z" transform="translate(-1709.647 -843.323)" fill="#ffb93e"/>
      <path id="Path_1676" data-name="Path 1676" d="M2207.029,1147.3a4.8,4.8,0,0,1-2.859-3.9,3.826,3.826,0,0,1,2.1-3.9h.006a3.919,3.919,0,0,1,3.226-.146c2.018.8,3.429,3.256,2.629,5.274S2209.047,1148.1,2207.029,1147.3Z" transform="translate(-1948.625 -1007.564)" fill="#ffa412"/>
      <path id="Path_1677" data-name="Path 1677" d="M2206.587,1148.521a4.131,4.131,0,0,1-2.417-3.01,3.826,3.826,0,0,1,2.1-3.9h.006a3.392,3.392,0,0,1,2.454.024,3.766,3.766,0,0,1,2.275,4.568C2210.311,1147.951,2208.334,1149.211,2206.587,1148.521Z" transform="translate(-1948.625 -1009.674)" fill="#ffb93e" opacity="0.5"/>
      <path id="Path_1678" data-name="Path 1678" d="M2344.063,1137.536a2.683,2.683,0,0,1,2.689.3,2.14,2.14,0,0,1,.81,2.342h0a2.2,2.2,0,0,1-1.161,1.383,2.427,2.427,0,0,1-3.165-.917A2.334,2.334,0,0,1,2344.063,1137.536Z" transform="translate(-2074.871 -1005.953)" fill="#ffa412"/>
      <path id="Path_1679" data-name="Path 1679" d="M2351.417,1139.586a2.3,2.3,0,0,1,2.153.144,2.139,2.139,0,0,1,.81,2.342h0a1.9,1.9,0,0,1-.938,1,2.109,2.109,0,0,1-2.741-.793A2.019,2.019,0,0,1,2351.417,1139.586Z" transform="translate(-2081.691 -1007.845)" fill="#ffb93e" opacity="0.5"/>
      <path id="Path_1680" data-name="Path 1680" d="M2260.551,1288.394a3.311,3.311,0,0,1,.278-3.326,2.642,2.642,0,0,1,2.858-1.08h0a2.7,2.7,0,0,1,1.746,1.384,3,3,0,0,1-1.02,3.933A2.881,2.881,0,0,1,2260.551,1288.394Z" transform="translate(-1999.624 -1139.263)" fill="#ffa412"/>
      <path id="Path_1681" data-name="Path 1681" d="M2262.921,1287.728a2.847,2.847,0,0,1,.1-2.66,2.641,2.641,0,0,1,2.858-1.08h0a2.344,2.344,0,0,1,1.269,1.122,2.6,2.6,0,0,1-.883,3.407A2.5,2.5,0,0,1,2262.921,1287.728Z" transform="translate(-2001.819 -1139.263)" fill="#ffb93e" opacity="0.5"/>
      <path id="Path_1682" data-name="Path 1682" d="M2099.733,1220.554a4.216,4.216,0,0,1-1.142-4.1,3.36,3.36,0,0,1,2.934-2.556h.006a3.445,3.445,0,0,1,2.7.879,3.819,3.819,0,0,1,.527,5.151C2103.47,1221.344,2101.144,1221.838,2099.733,1220.554Z" transform="translate(-1852.523 -1075.59)" fill="#ffa412"/>
      <path id="Path_1683" data-name="Path 1683" d="M2100.5,1219.888a3.624,3.624,0,0,1-1.056-3.223,3.36,3.36,0,0,1,2.935-2.556h.005a2.982,2.982,0,0,1,2.011.78,3.3,3.3,0,0,1,.453,4.46C2103.733,1220.571,2101.718,1221,2100.5,1219.888Z" transform="translate(-1853.376 -1075.798)" fill="#ffb93e" opacity="0.5"/>
      <path id="Path_1684" data-name="Path 1684" d="M2032.982,1154.646a2.559,2.559,0,0,1-1.928-1.723,2.04,2.04,0,0,1,.662-2.271h0a2.084,2.084,0,0,1,1.668-.436,2.322,2.322,0,0,1,1.961,2.461A2.233,2.233,0,0,1,2032.982,1154.646Z" transform="translate(-1791.125 -1017.669)" fill="#ffa412"/>
      <path id="Path_1685" data-name="Path 1685" d="M2032.652,1156.047a2.205,2.205,0,0,1-1.6-1.3,2.041,2.041,0,0,1,.662-2.271h0a1.812,1.812,0,0,1,1.284-.262,2.011,2.011,0,0,1,1.7,2.131A1.933,1.933,0,0,1,2032.652,1156.047Z" transform="translate(-1791.125 -1019.489)" fill="#ffb93e" opacity="0.5"/>
      <path id="Path_1686" data-name="Path 1686" d="M2192.727,1349.279a2.239,2.239,0,0,1-2.225-.373,1.786,1.786,0,0,1-.566-1.984h0a1.828,1.828,0,0,1,1.029-1.1,2.027,2.027,0,0,1,2.593.906A1.949,1.949,0,0,1,2192.727,1349.279Z" transform="translate(-1935.616 -1195.431)" fill="#ffa412"/>
      <path id="Path_1687" data-name="Path 1687" d="M2192.288,1352.422a1.927,1.927,0,0,1-1.786-.218,1.786,1.786,0,0,1-.566-1.984h0a1.582,1.582,0,0,1,.827-.791,1.755,1.755,0,0,1,2.245.784A1.686,1.686,0,0,1,2192.288,1352.422Z" transform="translate(-1935.616 -1198.729)" fill="#ffb93e" opacity="0.5"/>
      <path id="Path_1688" data-name="Path 1688" d="M2066.5,1018a4.215,4.215,0,0,1,3.2-2.8,3.362,3.362,0,0,1,3.571,1.547h0a3.444,3.444,0,0,1,.37,2.81,3.82,3.82,0,0,1-4.42,2.7C2067.4,1021.7,2065.953,1019.821,2066.5,1018Z" transform="translate(-1823.357 -894.852)" fill="#ffa412"/>
      <path id="Path_1689" data-name="Path 1689" d="M2074.963,1017.541a3.635,3.635,0,0,1,2.453-2.342,3.362,3.362,0,0,1,3.571,1.547h0a2.983,2.983,0,0,1,.164,2.15,3.31,3.31,0,0,1-3.828,2.334C2075.742,1020.754,2074.484,1019.123,2074.963,1017.541Z" transform="translate(-1831.064 -894.852)" fill="#ffb93e" opacity="0.5"/>
      <path id="Path_1690" data-name="Path 1690" d="M2508.028,1076.67s-1.632,1.933-3.7,1.124a6.312,6.312,0,0,1-.453-1.875v-.284c-.011-.9-.041-1.4-.041-1.4h0c.091-.04,3.173-1.3,3.173-1.2A5.443,5.443,0,0,0,2508.028,1076.67Z" transform="translate(-2221.146 -947.509)" fill="#ffb27d"/>
      <path id="Path_1691" data-name="Path 1691" d="M2506.662,1079.252a4.811,4.811,0,0,1-2.821,2.019c-.011-.9-.041-1.4-.041-1.4h0A19.866,19.866,0,0,1,2506.662,1079.252Z" transform="translate(-2221.119 -953.145)" fill="#ed975d"/>
      <path id="Path_1692" data-name="Path 1692" d="M2491.287,1028.08s3.46.816,3.933-1.349,1.239-3.515-.95-4.126-2.8.121-3.135.8S2490.4,1027.813,2491.287,1028.08Z" transform="translate(-2209.25 -901.446)" fill="#ffb27d"/>
      <path id="Path_1693" data-name="Path 1693" d="M2496.247,1012.32c.047.031.324.524,1.735-2.285.221-.441.839-1.66.323-2.5s-2.13-1.326-3.651-1.615-1.118,1.244-2.292,1.179a.25.25,0,0,0-.281.16,1.05,1.05,0,0,0,.81,1.421,8.342,8.342,0,0,1,1.281-.015c.544.172.74,1.034.781,1.311s.1.506.792.259.311.975.2,1.208C2495.946,1011.445,2495.852,1012.067,2496.247,1012.32Z" transform="translate(-2210.395 -886.446)" fill="#233862"/>
      <path id="Path_1694" data-name="Path 1694" d="M2579.309,1619.344h2.139c.453,0,.947-.449,1.073-1.269s1.047-1.269,1.247-1.945-.823-1.621-.823-1.621l-.171-.219-.181-.229-1.7.4s-.042.4-.068.917a11.641,11.641,0,0,0-.006,1.178c.05.9-.252,1.865-1.049,2.04S2579.309,1619.344,2579.309,1619.344Z" transform="translate(-2289.72 -1439.491)" fill="#202f54"/>
      <path id="Path_1695" data-name="Path 1695" d="M2476.2,1642.026h5.554a.513.513,0,0,0,.118-.033c.37-.181.254-1.606.21-2.044-.008-.082-.014-.13-.014-.13s-1.954-1.562-2.222-.363c-.009.037-.018.073-.029.11h0c-.339,1.119-1.855,1.632-2.73,1.769A.949.949,0,0,0,2476.2,1642.026Z" transform="translate(-2196.021 -1462.173)" fill="#202f54"/>
      <path id="Path_1696" data-name="Path 1696" d="M2488.55,1313.406s.3,3.7.646,8.15c.473,6.043,1.043,13.467,1.1,14.873.1,2.442.489,6.346.489,6.346a3.072,3.072,0,0,0,2.783.537,63.854,63.854,0,0,0,2.127-11.476l.022-.292c.44-6.006,1.123-18.653,1.123-18.653Z" transform="translate(-2207.251 -1165.623)" fill="#2b478b"/>
      <path id="Path_1697" data-name="Path 1697" d="M2488.55,1313.433s.3,3.7.646,8.15l6.5,10.282.022-.292c.44-6.006,1.123-18.653,1.123-18.653Z" transform="translate(-2207.251 -1165.65)" fill="#233862"/>
      <path id="Path_1698" data-name="Path 1698" d="M2508.94,1286.291s3,12.381,5.295,19.218,2.389,10.153,2.389,10.153,2.6-.508,2.88-1.014c0,0,.89-11.714-.876-15.062-1-1.892-.83-6.276-.83-8.273a28.221,28.221,0,0,0-1.154-7.374Z" transform="translate(-2225.793 -1139.297)" fill="#2b478b"/>
      <path id="Path_1699" data-name="Path 1699" d="M2489.219,1132.466c.036.227-11.1,2.335-12.591.733-.029-.031-.186-4.653-.313-8.255-.057-1.675-.11-3.129-.139-3.8-.007-.168-.013-.286-.017-.345l-.017-.233c-.09-1.308-.157-2.6-.181-3.743a25.151,25.151,0,0,1,.06-2.581c.012-.144.027-.279.044-.406a7.2,7.2,0,0,1,1.842-3.839l.646-.714a3.433,3.433,0,0,0,2.206-.523,1.924,1.924,0,0,1,1.684-.264,6.276,6.276,0,0,1,2.9,4.165C2485.7,1113.925,2489.184,1132.212,2489.219,1132.466Z" transform="translate(-2195.795 -979.677)" fill="#f8b7c7"/>
      <path id="Path_1700" data-name="Path 1700" d="M2516.1,962.135a3.3,3.3,0,0,1,.893-2.906,2.718,2.718,0,0,1,3.884.151c.292.321,1.956,0,2.9,1a3.29,3.29,0,0,1,.453,3.338c-.3.672.7,2.109-.648,3.19-1.58,1.269-3.989.19-3.989.19S2517.942,962.151,2516.1,962.135Z" transform="translate(-2232.262 -843.346)" fill="#f694ad"/>
      <path id="Path_1701" data-name="Path 1701" d="M2494.06,995.542s5.19.458,4.909,4.481l2.1-2.992s-.154-3.839-5.013-3.892Z" transform="translate(-2212.262 -874.86)" fill="#f8b7c7"/>
      <path id="Path_1702" data-name="Path 1702" d="M2485.271,1189.09s-1.665,7.706-6.713,9.222c-.057-1.675-.11-3.129-.139-3.8Z" transform="translate(-2198.04 -1053.046)" fill="#e5839c"/>
      <path id="Path_1703" data-name="Path 1703" d="M2350.9,1274.27c-.352-.113-1.143-.363-1.146-.248a.468.468,0,0,0,.188.292,2.937,2.937,0,0,0-1.763.48.741.741,0,0,0-.371.453.326.326,0,0,0,.26.453c.577.151.382.014,1.189.243a2.074,2.074,0,0,0,2.064-.375l.625-.314-.256-1.112S2351.3,1274.216,2350.9,1274.27Z" transform="translate(-2079.251 -1130.252)" fill="#ed975d"/>
      <path id="Path_1704" data-name="Path 1704" d="M2385.058,1147.761c-.239-.616.054-.822.054-.822s6.041-3.148,6.532-3.488,3.641-6.626,3.641-6.626,1.158-2.565,2.757-2.575a2.872,2.872,0,0,1,2.655,1.722,2.908,2.908,0,0,1-.4,3.252,78.079,78.079,0,0,1-6.255,6.64c-2.085,1.384-8.431,2.679-8.431,2.679A2.087,2.087,0,0,1,2385.058,1147.761Z" transform="translate(-2113.056 -1003.177)" fill="#f8b7c7"/>
      <path id="Path_1705" data-name="Path 1705" d="M2503.649,1096s.776.75.539,1.211a6.958,6.958,0,0,1-4.328,1.246,1.767,1.767,0,0,1,.662-.615C2500.932,1097.651,2503.185,1096.68,2503.649,1096Z" transform="translate(-2217.535 -968.395)" fill="#e5839c"/>
      <rect id="Rectangle_1207" data-name="Rectangle 1207" width="0.863" height="28.048" transform="translate(208.228 131.157)" fill="#afcdfb"/>
      <rect id="Rectangle_1208" data-name="Rectangle 1208" width="0.863" height="36.057" transform="translate(226.513 131.157)" fill="#afcdfb"/>
      <path id="Path_1706" data-name="Path 1706" d="M1555.433,642.15c.284.511,1.469-.211,1.679-.325a1.771,1.771,0,0,1,.749-.033s.229-1.209-.068-1.19c-.39.024-1.723-.55-2.048-.4A1.968,1.968,0,0,0,1555.433,642.15Z" transform="translate(-1358.604 -553.896)" fill="#ed985f"/>
      <path id="Path_1707" data-name="Path 1707" d="M1719.817,451.435a36.09,36.09,0,0,1,6,1.861c.474,2.216.009,2.711-.754,2.3-.49-.267-1.865,1.783-1.865,1.783L1719.13,452Z" transform="translate(-1507.582 -382.254)" fill="#2c3a64"/>
      <path id="Path_1708" data-name="Path 1708" d="M1577.427,569.7l-.2,1.011s.063.023.181.054c.363.1,1.225.353,2.222.589a19.47,19.47,0,0,0,3.264.579,3.346,3.346,0,0,0,.868-.037,15.663,15.663,0,0,0,5.458-3.161,1.48,1.48,0,0,0,.13-.115,7.388,7.388,0,0,0,2.031-2.514,4.375,4.375,0,0,0,.326-1.349,3.532,3.532,0,0,0-.172-1.383.611.611,0,0,0-.063-.174,2.9,2.9,0,0,0-.527-.907c-.162-.148-.4-.125-.7.029v.008a3.9,3.9,0,0,0-.834.616.03.03,0,0,0-.026.017c-.064.058-.132.123-.21.194a.214.214,0,0,0-.052.044q-.227.228-.464.479c-1.73,1.782-3.909,4.637-5.114,5.291a5.072,5.072,0,0,1-1.324.319c-.816.122-1.858.22-2.759.291C1578.333,569.662,1577.427,569.7,1577.427,569.7Z" transform="translate(-1378.545 -482.979)" fill="#ed985f"/>
      <path id="Path_1709" data-name="Path 1709" d="M1632.091,564.27a3.983,3.983,0,0,0,.672,2.644,3.346,3.346,0,0,0,.869-.037,15.661,15.661,0,0,0,5.458-3.161,1.427,1.427,0,0,0,.131-.115,7.391,7.391,0,0,0,2.031-2.514,4.368,4.368,0,0,0,.326-1.349,3.53,3.53,0,0,0-.172-1.383.612.612,0,0,0-.063-.174c-.221-.587.666-1.483.666-1.483-.162-.148-1.6.453-1.891.6v.008a3.9,3.9,0,0,0-.834.616.03.03,0,0,0-.025.017c-.064.058-.132.123-.21.194a.2.2,0,0,0-.052.044q-.228.228-.464.479c-1.729,1.782-3.909,4.637-5.114,5.291A5.139,5.139,0,0,1,1632.091,564.27Z" transform="translate(-1428.417 -477.961)" fill="#f8b7c7"/>
      <path id="Path_1710" data-name="Path 1710" d="M1730.12,752.842l1.113.414s4.833-6.7,5.427-12.6a8.974,8.974,0,0,0-.159-3.015l.13-.747c.038-.222.085-.49.139-.8.157-.9.374-2.132.621-3.535.568-3.227,1.3-7.354,1.877-10.386l-.3-.1-3.239-1.043-.671-2.13-2.415-.635s-.544,1.055-1.022,6.041c-.091.655-.171,1.375-.231,2.158a42.72,42.72,0,0,0,.23,8.734c.111.866.25,1.761.424,2.681a11.875,11.875,0,0,1,.091,2.646A88.9,88.9,0,0,1,1730.12,752.842Z" transform="translate(-1517.575 -624.907)" fill="#f99746"/>
      <path id="Path_1711" data-name="Path 1711" d="M1744.09,726.468l5.245,10.425c.038-.222.085-.49.139-.8.157-.9.373-2.132.621-3.535.568-3.227,1.3-7.354,1.877-10.386l-.3-.1-3.239-1.043-.671-2.13-2.415-.635s-.544,1.055-1.022,6.041C1744.231,724.965,1744.151,725.685,1744.09,726.468Z" transform="translate(-1530.279 -624.907)" fill="#ed7d2b"/>
      <path id="Path_1712" data-name="Path 1712" d="M1769.54,707.411l.121-1.042c2.034.544,7.47-1.509,7.47-1.509s1.969,1.735,1.711,5.886c-.126,2.027-.357,10.639-.6,13.187-.091.924-.164,1.581-.195,1.843h0a.37.37,0,0,0,.059.226,11.881,11.881,0,0,1,.889,1.87c2.365,6.3-.363,14.062-.363,14.062l-.709-.286s-1.553-8.637-2.81-12.452a7.606,7.606,0,0,0-.608-1.46,16.625,16.625,0,0,1-1.519-4.052,99.539,99.539,0,0,1-2.045-10.752C1770.875,712.941,1769.54,707.411,1769.54,707.411Z" transform="translate(-1553.422 -612.713)" fill="#f99746"/>
      <path id="Path_1713" data-name="Path 1713" d="M1726.68,517.716a6.347,6.347,0,0,0,2.343.544c3.5.191,4.291-2.874,4.436-4.909a2.94,2.94,0,0,0-1.2-.151c-.248.014-.507.039-.725.065a5.368,5.368,0,0,1-1.64-3.125l-.151.07-2.523,1.187s.267.821.466,1.606a3.191,3.191,0,0,1,.172,1.375c-.2.082-.317.132-.317.132h0A17.26,17.26,0,0,0,1726.68,517.716Z" transform="translate(-1514.447 -435.645)" fill="#ffb27d"/>
      <path id="Path_1714" data-name="Path 1714" d="M1714.354,550.3a2.07,2.07,0,0,0,.091.208c.886,1.908,1.331,19.519,1.331,19.519-.234,1.421,11.183,1.587,13.765-.7,0,0-1.051-13.87-5.084-24.346l-1.159.988c-.192-.142-.437-.2-.419-.382.008-.084.019-.169.032-.253a7.209,7.209,0,0,1,.507-1.693,10.028,10.028,0,0,0-3.328-.091l-1.79,1.352-1.885-.238A8.259,8.259,0,0,0,1714.09,546C1714.988,546.587,1713.658,548.448,1714.354,550.3Z" transform="translate(-1502.999 -465.934)" fill="#f8b7c7"/>
      <path id="Path_1715" data-name="Path 1715" d="M1732.67,512.156s.272.82.466,1.607a3.246,3.246,0,0,0,2.058-2.793Z" transform="translate(-1519.894 -436.4)" fill="#ed985f"/>
      <path id="Path_1716" data-name="Path 1716" d="M1714.1,465.049s3.626.054,3.621-2.2.465-3.768-1.847-3.9-2.761.732-2.944,1.484S1713.153,464.978,1714.1,465.049Z" transform="translate(-1501.902 -389.083)" fill="#ffb27d"/>
      <path id="Path_1717" data-name="Path 1717" d="M1710.531,454.532c.559-.679.983-.53,1.22-.327a2.535,2.535,0,0,1,3.255.516,4.311,4.311,0,0,0,1.413,2.544,2.994,2.994,0,0,1-2.181.02,2.623,2.623,0,0,1-1.235-.849,8.475,8.475,0,0,0,1.458,1.773c-1.819-.837-2.554-3.364-2.629-3.632a2.868,2.868,0,0,0-.789,1.054c-.181.575-.258,1.757-.6,1.718C1710.443,457.349,1709.693,455.551,1710.531,454.532Z" transform="translate(-1499.402 -384.436)" fill="#2c3a64"/>
      <path id="Path_1718" data-name="Path 1718" d="M1824.44,1088.558h5.6a3.079,3.079,0,0,0-.159-1.5c-.28-.622-.72-.906-.615-1.656a2.03,2.03,0,0,1-1.747.668,6.139,6.139,0,0,1-.972,1.26C1826.186,1087.591,1824.552,1087.5,1824.44,1088.558Z" transform="translate(-1603.345 -958.756)" fill="#2b478b"/>
      <path id="Path_1719" data-name="Path 1719" d="M1691.71,1091.114h5.6a2.33,2.33,0,0,0-.159-1.5,1.08,1.08,0,0,1,.041-1.29,2.177,2.177,0,0,1-.944.181,1.969,1.969,0,0,1-.834-.293,19.865,19.865,0,0,1-1.6,1.677C1693.459,1090.146,1691.827,1090.053,1691.71,1091.114Z" transform="translate(-1482.647 -961.311)" fill="#2b478b"/>
      <path id="Path_1720" data-name="Path 1720" d="M1776.308,609.652a.293.293,0,1,0-.218.389A.318.318,0,0,0,1776.308,609.652Z" transform="translate(-1559.06 -525.962)" fill="#233862"/>
      <path id="Path_1721" data-name="Path 1721" d="M1738.445,613.4a.293.293,0,1,0-.218.388.315.315,0,0,0,.218-.388Z" transform="translate(-1524.629 -529.373)" fill="#233862"/>
      <path id="Path_1722" data-name="Path 1722" d="M1781,653.944a.293.293,0,1,0-.218.388.317.317,0,0,0,.218-.388Z" transform="translate(-1563.331 -566.238)" fill="#233862"/>
      <path id="Path_1723" data-name="Path 1723" d="M1743.144,657.7a.293.293,0,1,0-.218.388A.316.316,0,0,0,1743.144,657.7Z" transform="translate(-1528.903 -569.656)" fill="#233862"/>
      <path id="Path_1724" data-name="Path 1724" d="M1736.532,597.79s-.4,11.58-8.981,12.371l-.131-2.475,4.664-3.712Z" transform="translate(-1515.12 -515.35)" fill="#e5839c"/>
      <path id="Path_1725" data-name="Path 1725" d="M1688.58,684.029l.294,1.077s.37-.065.957-.174c.175-.033.272-.054.272-.054.479-.1,1.044-.218,1.654-.363h.012c.849-.207,1.8-.446,2.644-.707.2-.055.392-.121.576-.186.13-.043.25-.091.37-.13l-1.784-2.362c-.131.1-.272.181-.414.272-.725.468-1.557.947-2.307,1.372-.468.272-.915.511-1.285.718C1688.971,683.822,1688.58,684.029,1688.58,684.029Z" transform="translate(-1479.801 -591.134)" fill="#ffb27d"/>
      <path id="Path_1726" data-name="Path 1726" d="M1739.14,557.9a5.9,5.9,0,0,0,1.254,2.412c.2-.061.389-.123.574-.181a8.99,8.99,0,0,0,1.722-.767.923.923,0,0,0,.118-.083c.985-.715,2.156-2.82,3.064-5.077.127-.311.245-.623.363-.927a23.1,23.1,0,0,0,.96-3.2,9.023,9.023,0,0,0,.228-1.524,3.631,3.631,0,0,0,.008-.43c-.016-2.442-1.229-2.779-1.229-2.779-.025-.008-.051-.017-.084-.025-.21-.034-.429.109-.656.388a7.541,7.541,0,0,0-.9,1.59c-.48,1.088-.985,2.493-1.457,3.89-.261.767-.514,1.534-.766,2.241-.143.429-.287.833-.421,1.2a11.816,11.816,0,0,1-.707,1.642,4.122,4.122,0,0,1-1.036.935C1739.864,557.426,1739.514,557.66,1739.14,557.9Z" transform="translate(-1525.778 -467.633)" fill="#f8b7c7"/>
      <path id="Path_1727" data-name="Path 1727" d="M1753.4,407.059a3.307,3.307,0,0,1,1.573-2.575,2.712,2.712,0,0,1,3.726,1.076c.206.381,1.895.465,2.57,1.667a3.277,3.277,0,0,1-.363,3.341c-.453.579.172,2.211-1.391,2.935-1.834.849-3.912-.771-3.912-.771S1755.177,407.514,1753.4,407.059Z" transform="translate(-1538.745 -339.249)" fill="#f694ad"/>
      <path id="Path_1728" data-name="Path 1728" d="M1726.71,433.015s4.917,1.686,3.682,5.516l2.75-2.391s.77-3.755-3.924-4.971Z" transform="translate(-1514.475 -363.834)" fill="#f8b7c7"/>
      <path id="Path_1729" data-name="Path 1729" d="M1760.988,536.924a5.168,5.168,0,0,0-1.019-.734,9.235,9.235,0,0,0-1.259,1.707,2.219,2.219,0,0,0,.289.767S1759.967,538.484,1760.988,536.924Z" transform="translate(-1543.574 -459.333)" fill="#e5839c"/>
      <path id="Path_1730" data-name="Path 1730" d="M1735.216,546.91s-.556.523-.318.984a7.1,7.1,0,0,0,4.383,1.3,1.767,1.767,0,0,0-.661-.614C1738.207,548.387,1735.679,547.584,1735.216,546.91Z" transform="translate(-1521.866 -469.082)" fill="#e5839c"/>
      <path id="Path_1731" data-name="Path 1731" d="M1380.91,267.207l-13.381,26.679-.117.237-.195.39-.762,1.514-1.717,3.422-3.263,6.515-.693,1.382-.7,1.4-2.254,4.493-2.045,4.079-1.9,3.788-.78,1.554-1,.082.777-1.548,4.17-8.309,2.132-4.251.7-1.4,1.327-2.645,2.751-5.485,1.954-3.9.893-1.781.4-.788,12.946-25.813Z" transform="translate(-1173.824 -214.383)" fill="#ffd6a1"/>
      <path id="Path_1732" data-name="Path 1732" d="M1395.665,278.726c-.363.544-6.406,12.388-13.289,25.944q-.695,1.373-1.4,2.766c-1.75,3.445-3.536,6.963-5.269,10.393l-.707,1.394-.16.316c-1.1,2.176-2.185,4.313-3.22,6.362-.95,1.875-1.862,3.679-2.72,5.379q-.405.8-.791,1.561l-1.007.091c.195-.385.46-.907.786-1.557l1.839-3.634c.139-.272.279-.551.425-.839l3.9-7.7.052-.1.707-1.4h0c.784-1.55,1.6-3.159,2.434-4.8,1.028-2.029,2.085-4.11,3.137-6.192.1-.2.2-.393.3-.591q.458-.907.9-1.768c13.157-25.918,13.341-26.093,13.453-26.2l.589.624A.316.316,0,0,0,1395.665,278.726Z" transform="translate(-1187.464 -224.686)" fill="#ffd6a1"/>
      <path id="Path_1733" data-name="Path 1733" d="M1208.771,438.918l-.407.521-17.917,22.9-1.1,1.4-11.119,14.213-1.179,1.5-1.1.017,1.17-1.5,11.191-14.3,1.1-1.41L1208.1,438.39l.519.405Z" transform="translate(-1013.643 -370.399)" fill="#ffd6a1"/>
      <path id="Path_1734" data-name="Path 1734" d="M1106.99,465.759l-20.051,20.57-1.385,1.421-14.221,14.59-1.421,1.458-1.173-.024,1.413-1.45L1084.4,487.7l1.39-1.427,20.585-21.118Z" transform="translate(-916.152 -394.743)" fill="#ffd6a1"/>
      <path id="Path_1735" data-name="Path 1735" d="M1413.445,631.008l-.406.52-17.921,22.9-1.1,1.4-11.12,14.214-1.178,1.5-1.1.016,1.17-1.5,11.193-14.305,1.1-1.41,18.685-23.88.52.41Z" transform="translate(-1199.759 -545.076)" fill="#ffd6a1"/>
      <path id="Path_1736" data-name="Path 1736" d="M1299.324,697.326l-19.653,20.951-1.36,1.446-13.937,14.861-1.392,1.483h-1.173l1.385-1.478L1277.16,719.7l1.36-1.451L1298.7,696.74Z" transform="translate(-1091.719 -605.329)" fill="#ffd6a1"/>
      <rect id="Rectangle_1209" data-name="Rectangle 1209" width="47.56" height="0.858" transform="matrix(0.364, -0.931, 0.931, 0.364, 181.544, 102.777)" fill="#ffd6a1"/>
      <path id="Path_1737" data-name="Path 1737" d="M1413.459,333.9l-1.569,1.312c8.465-17.763,26.172-55.038,26.521-56.123l.827.228C1438.958,280.368,1415.985,328.6,1413.459,333.9Z" transform="translate(-1228.194 -225.541)" fill="#ffd6a1"/>
      <path id="Path_1738" data-name="Path 1738" d="M1433.726,349.343l-2.106,2.606,26.406-59.019.783.351Z" transform="translate(-1246.136 -238.126)" fill="#ffd6a1"/>
      <path id="Path_1739" data-name="Path 1739" d="M1394.916,362.161l-.806-.293c6.155-16.918,17.849-49.227,18.071-50.419l.844.155C1412.741,313.15,1395.646,360.161,1394.916,362.161Z" transform="translate(-1212.026 -254.967)" fill="#ffd6a1"/>
      <path id="Path_1740" data-name="Path 1740" d="M1391.107,381.761l-1.218.57,24.794-52.541.775.365Z" transform="translate(-1208.188 -271.645)" fill="#ffd6a1"/>
      <path id="Path_1741" data-name="Path 1741" d="M1664.385,706.863a5.67,5.67,0,0,0-1.253-.372c-.453-.082-1.052-.157-1.012,0s1.005.448,1.034.517A7.16,7.16,0,0,0,1664.385,706.863Z" transform="translate(-1455.738 -614.114)" fill="#ffb27d"/>
      <path id="Path_1742" data-name="Path 1742" d="M1646.591,708.464a4.444,4.444,0,0,0,2.249.544c.317-.1,1.422-.373,1.868-.482l.816-.159-.48-1.4a.391.391,0,0,0-.058.016,4.532,4.532,0,0,1-1,.305c-.567.085-1.269-.272-1.642-.07-.779.427-1.854-.005-2.1.222C1646.062,707.62,1646.13,708.108,1646.591,708.464Z" transform="translate(-1441.219 -614.632)" fill="#ffb27d"/>
      <path id="Path_1743" data-name="Path 1743" d="M1553.419,639.927a.922.922,0,0,1,.963-.668c.717.078,2.012.821-.51,2.186C1553.126,641.851,1553.182,640.494,1553.419,639.927Z" transform="translate(-1356.75 -553.053)" fill="#ffb27d"/>
      <path id="Path_1744" data-name="Path 1744" d="M546.019,1051.49H533.395A2.492,2.492,0,0,1,530.91,1049h0a2.491,2.491,0,0,1,2.485-2.485h12.624A2.492,2.492,0,0,1,548.5,1049h0A2.493,2.493,0,0,1,546.019,1051.49Z" transform="translate(-427.078 -923.4)" fill="#eb5d80"/>
      <path id="Path_1745" data-name="Path 1745" d="M1519.59,1051.49h-12.624a2.493,2.493,0,0,1-2.486-2.486h0a2.492,2.492,0,0,1,2.486-2.485h12.624a2.492,2.492,0,0,1,2.485,2.485h0A2.493,2.493,0,0,1,1519.59,1051.49Z" transform="translate(-1312.39 -923.4)" fill="#f8678b"/>
      <path id="Path_1746" data-name="Path 1746" d="M750.888,872v61.853a10.441,10.441,0,0,1-10.445,10.441H678.752a10.442,10.442,0,0,1-10.442-10.442V872Z" transform="translate(-552.022 -764.701)" fill="#f6507a"/>
      <path id="Path_1747" data-name="Path 1747" d="M895.656,872.5v61.853a10.421,10.421,0,0,1-10.4,10.441H837.911a10.422,10.422,0,0,1-10.4-10.441V872.5Z" transform="translate(-696.79 -765.156)" fill="#f57494"/>
      <path id="Path_1748" data-name="Path 1748" d="M732.7,870.7H649.454a1.518,1.518,0,0,1-1.514-1.513h0a1.519,1.519,0,0,1,1.514-1.514H732.7a1.519,1.519,0,0,1,1.513,1.514h0A1.518,1.518,0,0,1,732.7,870.7Z" transform="translate(-533.499 -760.764)" fill="#ed1a4f"/>
      <path id="Path_1749" data-name="Path 1749" d="M1448.921,957V940.7s.5-5.432-3.435-5.861-5.365,1.858-4.651,5.861-.571,26.163,1.287,27.878,5.575,1.715,6.29,0S1448.921,957,1448.921,957Z" transform="translate(-1254.354 -821.794)" fill="#f694ad"/>
      <path id="Path_1750" data-name="Path 1750" d="M1238.332,855.557c0-.112-.208-11.294-.513-19.643-.331-9.084-2.331-14.582-5.486-15.08a3.748,3.748,0,0,0-3.567,1.432,5.01,5.01,0,0,0-1.015,1.651h-1.41c.6-1.687,2.74-4.843,6.184-4.3,5.193.816,6.317,10.535,6.527,16.251.3,8.36.511,19.553.513,19.665Z" transform="translate(-1059.465 -717.011)" fill="#ffd6a1"/>
      <path id="Path_1751" data-name="Path 1751" d="M1187.083,1635.794a1.834,1.834,0,0,0,.232,1.062h6.649a1.15,1.15,0,0,0-1.007-.714,5.894,5.894,0,0,1-2.566-1.749c-.251-.266-.566-.075-.647-.441-.313-1.393-2.587.427-2.587.427a11.152,11.152,0,0,0-.074,1.414Z" transform="translate(-1023.766 -1457.103)" fill="#182d4f"/>
      <path id="Path_1752" data-name="Path 1752" d="M1075.047,1635.794a1.833,1.833,0,0,0,.233,1.062h6.652a1.147,1.147,0,0,0-1.006-.714,5.037,5.037,0,0,1-2.691-1.245,1.994,1.994,0,0,1-.521-.944c-.313-1.393-2.588.427-2.588.427A11.289,11.289,0,0,0,1075.047,1635.794Z" transform="translate(-921.887 -1457.103)" fill="#1a2f51"/>
      <path id="Path_1753" data-name="Path 1753" d="M1111.824,1337.446a4.15,4.15,0,0,1-2.629-.13c-.583-.22-4.079-8.755-4.289-12.88a10.74,10.74,0,0,0-.168-1.229c-.193-1.064-.53-2.527-.919-4.141-1.043-4.326-2.455-9.737-2.424-11.466.047-2.684,8-.563,8-.563a29.042,29.042,0,0,1,.656,5.39c.216,6.328.81,17.017,2.424,24.44C1112.543,1337.182,1112.132,1337.348,1111.824,1337.446Z" transform="translate(-945.846 -1159.577)" fill="#233862"/>
      <path id="Path_1754" data-name="Path 1754" d="M1069.765,1313.506l-5.342,28.839a6.9,6.9,0,0,1-3.892,0s-.929-15.653-.826-19.571-.884-10.482.225-11.207S1069.765,1313.506,1069.765,1313.506Z" transform="translate(-907.658 -1164.307)" fill="#2b478b"/>
      <path id="Path_1755" data-name="Path 1755" d="M1141.66,1108s3.655.624,4.489,1.91c1.193,1.839,4.089,7.968,4.138,11.046.067,4.145-4.442,5.539-5,3.9-.453-1.36-1.58-9.864-2.4-12.5Z" transform="translate(-982.461 -979.307)" fill="#febece"/>
      <path id="Path_1756" data-name="Path 1756" d="M1060.342,1133.335a9.965,9.965,0,0,1-5.1,1.681c-.384.1-6.934.1-9.707-.854-.057-.02.145-5.893.38-11.944v-.029c.024-.615.048-1.234.072-1.847.011-.264.021-.527.032-.789.072-1.807.143-3.554.208-5.088.128-3.01.23-5.191.26-5.364.1-.589.2-1.088.3-1.526a3.861,3.861,0,0,1,1.5-2.563c.08-.061.734-.391,1.312-.679l.906-.445h0s6.3.181,6.909,1.76S1060.342,1133.335,1060.342,1133.335Z" transform="translate(-895.039 -975.57)" fill="#febece"/>
      <path id="Path_1757" data-name="Path 1757" d="M1100.9,1072.437c-.33.065-.755.37-1.157.341a5.366,5.366,0,0,1-2.3-1.045,9.931,9.931,0,0,0,.737-2.605c0-.031.007-.06.01-.091a2.642,2.642,0,0,0,.013-.6h2.524s.691.315.691.533v.334c0,.291.016.544.032.761a6.9,6.9,0,0,0,.13,1.042S1101.886,1072.244,1100.9,1072.437Z" transform="translate(-942.25 -943.333)" fill="#ffb27d"/>
      <path id="Path_1758" data-name="Path 1758" d="M1108.305,1074.755a3.488,3.488,0,0,1-3.272-.944c-.035-.038-.053-.061-.053-.061l.063-.028a5.923,5.923,0,0,1,3.23.272C1108.278,1074.284,1108.29,1074.534,1108.305,1074.755Z" transform="translate(-949.106 -948.017)" fill="#e2915a"/>
      <path id="Path_1759" data-name="Path 1759" d="M1093.839,1017.422c.342,1.839,2.72,1.779,3.74,1.663.289-.033.471-.07.471-.07.325-.091.507-.6.591-1.269a10.348,10.348,0,0,0-.272-3.778c-.337-.751-.974-1.563-3.364-.977S1093.4,1015.065,1093.839,1017.422Z" transform="translate(-938.536 -892.729)" fill="#ffb27d"/>
      <path id="Path_1760" data-name="Path 1760" d="M1091.379,997.759a5.45,5.45,0,0,0-1.648-1.345,3.988,3.988,0,0,0-3.088.026c-1.953.859-.765,5.135-.168,4.937.465-.155.158-.382.363-.564.246-.219.589.047.7.253a.3.3,0,0,0,.428.091c.607-.384.213-1.152.793-1.622s1.759-.075,2.629-.453C1092.526,998.664,1091.625,998.1,1091.379,997.759Z" transform="translate(-931.454 -877.547)" fill="#233862"/>
      <path id="Path_1761" data-name="Path 1761" d="M1133.66,1065.852a1.008,1.008,0,0,0,.816.2c.3-.052.468-.442.468-.442A2.255,2.255,0,0,0,1133.66,1065.852Z" transform="translate(-975.187 -940.744)" fill="#cfe5ff"/>
      <path id="Path_1762" data-name="Path 1762" d="M1105,1156.139a.327.327,0,1,1,.1.232A.328.328,0,0,1,1105,1156.139Z" transform="translate(-949.125 -1022.783)" fill="#233862"/>
      <path id="Path_1763" data-name="Path 1763" d="M1147.84,1152.547a.327.327,0,1,1,.327.327A.327.327,0,0,1,1147.84,1152.547Z" transform="translate(-988.081 -1019.519)" fill="#233862"/>
      <path id="Path_1764" data-name="Path 1764" d="M1109.58,1199.149a.328.328,0,1,1,.328.327A.328.328,0,0,1,1109.58,1199.149Z" transform="translate(-953.29 -1061.894)" fill="#233862"/>
      <path id="Path_1765" data-name="Path 1765" d="M1152.44,1195.557a.327.327,0,1,1,.1.232A.327.327,0,0,1,1152.44,1195.557Z" transform="translate(-992.264 -1058.629)" fill="#233862"/>
      <path id="Path_1766" data-name="Path 1766" d="M1112.21,1241.168a.328.328,0,1,1,.328.328A.328.328,0,0,1,1112.21,1241.168Z" transform="translate(-955.681 -1100.104)" fill="#233862"/>
      <path id="Path_1767" data-name="Path 1767" d="M1155.06,1237.549a.328.328,0,1,1,.328.327A.328.328,0,0,1,1155.06,1237.549Z" transform="translate(-994.647 -1096.813)" fill="#233862"/>
      <path id="Path_1768" data-name="Path 1768" d="M1056.443,1205.007s-1.485,1.073-6.653.233c.025-.615.048-1.234.072-1.847.011-.264.021-.527.032-.789.072-1.807.143-3.554.208-5.087.821-1.332,1.508-2.3,1.508-2.3s-.065,3.657,1.474,4.792C1057.157,1203.014,1056.443,1205.007,1056.443,1205.007Z" transform="translate(-898.92 -1058.62)" fill="#f98fa9"/>
      <path id="Path_1769" data-name="Path 1769" d="M1047.836,960.462a3.277,3.277,0,0,0-.878-2.832,2.628,2.628,0,0,0-3.757.146c-.283.31-1.892,0-2.81.971a3.183,3.183,0,0,0-.441,3.228c.288.65-.676,2.041.627,3.082,1.528,1.226,3.861.181,3.861.181S1046.057,960.478,1047.836,960.462Z" transform="translate(-889.746 -841.915)" fill="#afd1f2"/>
      <path id="Path_1770" data-name="Path 1770" d="M1083.041,992.8s-5.02.442-4.749,4.335l-2.032-2.89s.15-3.717,4.85-3.764Z" transform="translate(-922.99 -872.441)" fill="#febece"/>
      <path id="Path_1771" data-name="Path 1771" d="M1187.06,1199.9s.091-11.04.381-11.04,1.1,2.523,1.1,4.507C1188.539,1195.864,1187.562,1199.995,1187.06,1199.9Z" transform="translate(-1023.746 -1052.837)" fill="#f98fa9"/>
      <path id="Path_1772" data-name="Path 1772" d="M1251.151,1550.2h-74.462a5.993,5.993,0,0,1-5.348-3.3l-4.38-8.69H1260.1L1256.11,1547A5.452,5.452,0,0,1,1251.151,1550.2Z" transform="translate(-1005.468 -1370.517)" fill="#e86234"/>
      <ellipse id="Ellipse_106" data-name="Ellipse 106" cx="67.356" cy="5.281" rx="67.356" ry="5.281" transform="translate(140.704 161.441)" fill="#f77d48"/>
      <path id="Path_1773" data-name="Path 1773" d="M1235.72,1383.68l-.057.017c-1.525.432-3.354.838-5.439,1.215q-.691.125-1.421.244c-1.669.272-3.484.531-5.427.767q-.718.091-1.459.171-2.64.3-5.555.544h0q-1.078.091-2.191.175h0c-2.739.205-5.628.376-8.637.51l-.975.041c-.785.033-1.58.062-2.381.091l-.225.007q-2.3.076-4.681.122-1.483.027-2.992.044l-.592.005q-1.594.014-3.213.014h-1.517c-9.459-.039-18.265-.446-25.727-1.121l-.32-.03h0q-1.714-.158-3.332-.335l-.049-.005h0l-.277-.03q-1.294-.144-2.519-.3c-.138-.016-.272-.035-.411-.053-10.039-1.3-16.329-3.173-16.329-5.245a2.355,2.355,0,0,1,.677-1.77c2.488-2.852,9.772-8.522,23.717-9.13a52.133,52.133,0,0,1,22.941,3.794,27.105,27.105,0,0,1,5.292,2.877h0c.011-.007.07-.052.181-.127a26.644,26.644,0,0,1,5.177-2.685,38.611,38.611,0,0,1,22.53-1.632c5.957,1.262,9.832,3.017,12.273,4.79C1237.291,1379.922,1236.894,1383.276,1235.72,1383.68Z" transform="translate(-980.937 -1217.161)" fill="#ffe6c2"/>
      <path id="Path_1774" data-name="Path 1774" d="M1933.11,1406.444s7.942-.86,13.829,1.93,7.539,5.185,7.232,6.92-8.894,1.227-8.894,1.227-5.455-1.071-5.844-1.227S1933.11,1406.444,1933.11,1406.444Z" transform="translate(-1702.164 -1250.583)" fill="#ffe6c2"/>
      <path id="Path_1775" data-name="Path 1775" d="M1806.233,1519.588a2.619,2.619,0,0,1-1.608,1.685c-.323.014-.649.028-.975.041.516-.146,2.109-.963,2.274-1.851a1.538,1.538,0,0,0-.411-1.187c-1.632-2.118-6.562.028-6.612.05l-.091-.453a14.422,14.422,0,0,1,2.765-.844c2.008-.379,3.4-.078,4.153.893A2.089,2.089,0,0,1,1806.233,1519.588Z" transform="translate(-1580.038 -1351.112)" fill="#ea9678"/>
      <path id="Path_1776" data-name="Path 1776" d="M1801.839,1460.691a3.792,3.792,0,0,1-2.091,2.585,10.668,10.668,0,0,1-1.061.567q-.718.09-1.46.171c1.3-.544,4.14-2.029,4.3-3.4a2.445,2.445,0,0,0-1-1.97c-1.8-1.667-6.224-2.81-11.283-2.909a34.793,34.793,0,0,0-16.484,3.586l-.108-.445a35.07,35.07,0,0,1,16.6-3.613c5.113.1,9.609,1.269,11.45,2.982A2.928,2.928,0,0,1,1801.839,1460.691Z" transform="translate(-1556.25 -1295.082)" fill="#ea9678"/>
      <path id="Path_1777" data-name="Path 1777" d="M1191.553,1246.75s.58,4.787-3.335,7.057l-1.158-1.269,1.866-4.748Z" transform="translate(-1023.746 -1105.479)" fill="#febece"/>
      <path id="Path_1778" data-name="Path 1778" d="M954.875,1198.657l.8-1a1.131,1.131,0,0,1,1.4-.21l29.286,16.784a.38.38,0,0,0,.469-.065l.181-.224a3.726,3.726,0,0,1,2.487-1.279,4.5,4.5,0,0,1,2.913.657l11.06,7.147a.244.244,0,0,1,.081.363l-.195.243a.38.38,0,0,1-.475.063l-11.419-6.822a2.566,2.566,0,0,0-1.689-.381,2.484,2.484,0,0,0-.643.16.249.249,0,0,0-.027.468l13.119,7.434a.248.248,0,0,1,.1.376l-.214.267a.378.378,0,0,1-.46.072l-13.56-7.231a.378.378,0,0,0-.459.071l-.228.285a.248.248,0,0,0,.1.378l13.361,7.475a.248.248,0,0,1,.1.377l-.2.251a.379.379,0,0,1-.453.073l-13.434-7.052c-.217-.113-.495,0-.51.2a1.452,1.452,0,0,0,.073.565,1.927,1.927,0,0,0,1.1,1.136l12.039,6.034a.25.25,0,0,1,.115.385l-.122.152a.376.376,0,0,1-.437.082l-12.313-5.545a3.4,3.4,0,0,1-1.889-1.96,2.516,2.516,0,0,1,.453-2.4h0a.25.25,0,0,0-.109-.383L955.183,1199.8A.741.741,0,0,1,954.875,1198.657Z" transform="translate(-812.462 -1060.512)" fill="#2b478b"/>
      <path id="Path_1779" data-name="Path 1779" d="M1092.32,1288.942a2.227,2.227,0,0,1,1.113.077c.357.2,1.252.326,1.212.533s-1.156.295-1.451.193A3.681,3.681,0,0,1,1092.32,1288.942Z" transform="translate(-937.594 -1143.811)" fill="#ffb27d"/>
      <path id="Path_1780" data-name="Path 1780" d="M1087.714,1289.436a.635.635,0,0,0-.081,1c.49.445,1.125,1.014,1.281,1.127.263.19,1.663.347,2.028-.146,0,0-1.179-.507-1.343-1.293-.181-.837-1.728-.787-1.728-.787Z" transform="translate(-933.146 -1144.202)" fill="#ffb27d"/>
      <path id="Path_1781" data-name="Path 1781" d="M1014.057,1122.307s-6.845-1.607-7.5-6c-.581-3.875,2.81-9.693,3.706-10.669a6.877,6.877,0,0,1,3.989-1.677l.127-.016c.369-.044.606-.053.619-.054h0l-.219.714c-.053.174-.116.375-.181.6-.644,2.111-2.66,7.245-3.309,10.071-.413,1.8,3.494,5.383,3.594,5.39C1014.883,1120.665,1014.057,1122.307,1014.057,1122.307Z" transform="translate(-859.542 -975.57)" fill="#febece"/>
      <path id="Path_1782" data-name="Path 1782" d="M1092.47,1093.95a5.659,5.659,0,0,1,.858-1.07,10.067,10.067,0,0,1,1.822,1.428,2.417,2.417,0,0,1-.08.89A3.921,3.921,0,0,1,1092.47,1093.95Z" transform="translate(-937.73 -965.558)" fill="#f98fa9"/>
      <path id="Path_1783" data-name="Path 1783" d="M1181.07,1308.98s.148,1.778.563,1.955,1.2-.417,1.279-.786-.953-1.468-1.368-1.5A.417.417,0,0,0,1181.07,1308.98Z" transform="translate(-1018.299 -1161.769)" fill="#ffb27d"/>
      <path id="Path_1784" data-name="Path 1784" d="M1104.234,1097.36s.651.515.5,1.059a7.581,7.581,0,0,1-4.351,2.266,1.924,1.924,0,0,1,.574-.8C1101.351,1099.588,1103.885,1098.182,1104.234,1097.36Z" transform="translate(-944.924 -969.632)" fill="#f98fa9"/>
      <path id="Path_1785" data-name="Path 1785" d="M1359.132,1462.091q-1.483.027-2.992.044l-.592.005q-1.594.014-3.213.014h-1.518c-9.459-.039-18.265-.446-25.727-1.121l-.32-.03h0q-1.714-.158-3.332-.335v.008l-.046-.014h0l-.264-.074a10.461,10.461,0,0,1-2.266-.893,3.21,3.21,0,0,1-.345-.229,1.075,1.075,0,0,1-.522-.8,1.476,1.476,0,0,1,.471-1.156,16.585,16.585,0,0,1,5.5-3.643,30.5,30.5,0,0,1,10.958-2.32c1.051-.043,2.062-.051,3.031-.027h.006a36.767,36.767,0,0,1,12.887,2.5,19.05,19.05,0,0,1,3.67,1.879S1361.277,1459.985,1359.132,1462.091Z" transform="translate(-1142.807 -1291.672)" fill="#ffe6c2"/>
      <path id="Path_1786" data-name="Path 1786" d="M1382.626,1472.68h-.474a36.461,36.461,0,0,0-4.351-4.17c-3.237-2.608-8.262-5.583-13.808-4.932-3.051.357-7.219,1.484-9.753,4.83a9.452,9.452,0,0,0-1.465,2.79v.008l-.046-.014h0l-.277-.03.014-.045a9.849,9.849,0,0,1,1.541-2.976c1.434-1.9,4.326-4.314,9.963-4.973s10.723,2.357,14,5A37,37,0,0,1,1382.626,1472.68Z" transform="translate(-1174.143 -1302.196)" fill="#ea9678"/>
      <path id="Path_1787" data-name="Path 1787" d="M1357.984,1459.422l-.592.005a44.193,44.193,0,0,0-5.464-4.726c-4.079-2.965-10.414-6.346-17.405-5.609-3.845.406-9.1,1.689-12.293,5.493a10.624,10.624,0,0,0-1.528,2.393c-.1.227-.193.441-.272.635-.138-.016-.272-.034-.411-.052.091-.248.2-.52.334-.816a11.206,11.206,0,0,1,1.573-2.466,13.512,13.512,0,0,1,3.881-3.138,22.6,22.6,0,0,1,8.677-2.518,19.839,19.839,0,0,1,5.312.171h.006a29.87,29.87,0,0,1,12.329,5.508A44.714,44.714,0,0,1,1357.984,1459.422Z" transform="translate(-1144.652 -1288.958)" fill="#ea9678"/>
      <path id="Path_1788" data-name="Path 1788" d="M1408.981,1491.254c-.527.9-2.266,1.384-3.954,1.572-.283.032-.564.053-.839.07-1.923.105-4.538-.124-6.114-1.088l.115-.369a11.254,11.254,0,0,0,5.966,1.045c2.323-.128,4.119-.715,4.576-1.5a1.753,1.753,0,0,0-.045-1.652c-.892-1.839-3.928-3.195-8.7-2.076-2.038.477-4.764,1.508-6.183,3.706a5.237,5.237,0,0,0-.752,1.826l-.32-.03a5.568,5.568,0,0,1,.809-2.038c1.178-1.852,3.321-3.152,6.373-3.867,5.258-1.231,8.151.453,9.032,2.275A2.259,2.259,0,0,1,1408.981,1491.254Z" transform="translate(-1210.771 -1323.437)" fill="#ea9678"/>
      <path id="Path_1789" data-name="Path 1789" d="M1805.366,1485.849c-.23,1.795-3.65,3.02-5.648,3.586h0q-1.078.091-2.191.175c1.8-.4,7.3-2.095,7.524-3.848.057-.445-.219-.925-.822-1.431-3.807-3.187-22.495.779-22.683.816l-.046-.468c.047-.01,4.788-1.022,9.943-1.621,6.946-.808,11.3-.519,12.946.859A2.2,2.2,0,0,1,1805.366,1485.849Z" transform="translate(-1564.298 -1319.959)" fill="#ea9678"/>
      <path id="Path_1790" data-name="Path 1790" d="M1729.5,1452.84l-.2.007-.225.007c-.809-1.153-5.834-8.218-9.41-10.957l.073-.209h0l.073-.208.1.081C1723.832,1444.627,1729.444,1452.76,1729.5,1452.84Z" transform="translate(-1508.063 -1282.556)" fill="#ea9678"/>
      <path id="Path_1791" data-name="Path 1791" d="M1797.066,1413.609c-.21,1.651-1.75,2.938-2.554,3.5q-.691.125-1.421.244c.625-.363,3.439-2.1,3.659-3.835a2.594,2.594,0,0,0-.568-1.89c-2.036-2.744-11.915-9.2-24.072-4.577-8.413,3.2-11.411,5.258-11.441,5.278l-.138-.426c.03-.021,3.047-2.1,11.5-5.309a23.932,23.932,0,0,1,15.779-.536c4.239,1.323,7.369,3.575,8.591,5.223A3.153,3.153,0,0,1,1797.066,1413.609Z" transform="translate(-1545.229 -1249.362)" fill="#ea9678"/>
      <path id="Path_1792" data-name="Path 1792" d="M1437.5,1316.141s-2.11,1.1-.057,3.553,8.025.073,10.593,1.423.486,3.348,3.431,5.094,5.783-4.119,8.673-2.448,12.748,4.018,12.913.654,4.859-4.651,6.634-5.659-4.642-2.614-7.842-3.027c-2.216-.286-12.879-5.983-19.29-4.32S1440.476,1314.464,1437.5,1316.141Z" transform="translate(-1250.613 -1164.003)" fill="#c65447"/>
      <path id="Path_1793" data-name="Path 1793" d="M1620.363,1261.445c.181-1.44-.181-5.7-.465-5.961s-2.844,2.28-3.206,3.611a4.473,4.473,0,0,0,1.121,4.061C1618.795,1264.068,1620.18,1262.9,1620.363,1261.445Z" transform="translate(-1414.324 -1113.404)" fill="#8fc482"/>
      <path id="Path_1794" data-name="Path 1794" d="M1750.182,1414.612a3.422,3.422,0,0,0-1.282-.907,2.887,2.887,0,0,0,.082,1.477.71.71,0,0,0,.912.262.59.59,0,0,0,.288-.832Z" transform="translate(-1534.597 -1257.297)" fill="#ffe6c2"/>
      <path id="Path_1795" data-name="Path 1795" d="M1517.426,1363.37a3.009,3.009,0,0,0,.61-1.371,3.727,3.727,0,0,0-1.541.476.577.577,0,0,0-.027.87A.725.725,0,0,0,1517.426,1363.37Z" transform="translate(-1323.124 -1210.271)" fill="#ffe6c2"/>
      <path id="Path_1796" data-name="Path 1796" d="M1621.348,1412.649a3.725,3.725,0,0,0-1.549.444,3.534,3.534,0,0,0,1.382.778.666.666,0,0,0,.755-.534A.63.63,0,0,0,1621.348,1412.649Z" transform="translate(-1417.255 -1256.336)" fill="#ffe6c2"/>
      <path id="Path_1797" data-name="Path 1797" d="M1548.149,1286.641c-1.422-.826-6.113-.823-6.206-.5s3.555,5.182,4.976,6.007a2.207,2.207,0,0,0,3.218-1.246A4.6,4.6,0,0,0,1548.149,1286.641Z" transform="translate(-1346.455 -1141.115)" fill="#a8d29f"/>
      <path id="Path_1798" data-name="Path 1798" d="M1757.488,1364.961a3.4,3.4,0,0,0,1.247-.948,3.788,3.788,0,0,0-1.6-.24.612.612,0,0,0-.474.756A.687.687,0,0,0,1757.488,1364.961Z" transform="translate(-1541.685 -1211.875)" fill="#ffe6c2"/>
      <path id="Path_1799" data-name="Path 1799" d="M1693.041,1385.572a3.752,3.752,0,0,0-1.586-.325,3.074,3.074,0,0,0,.766,1.3.725.725,0,0,0,.948-.117.579.579,0,0,0-.129-.862Z" transform="translate(-1482.411 -1231.405)" fill="#ffe6c2"/>
      <path id="Path_1800" data-name="Path 1800" d="M2056.927,1627.267h12.5l-2.067-4.207h-12.5Z" transform="translate(-1812.877 -1447.675)" fill="#ffe6c2"/>
      <path id="Path_1801" data-name="Path 1801" d="M2189.8,1625.145a4.241,4.241,0,0,0,1.778,2.085.428.428,0,0,0,.118.017c.475,0,.4-.942-.172-2.1s-1.42-2.1-1.895-2.1a.282.282,0,0,0-.1.017C2189.163,1623.19,2189.27,1624.075,2189.8,1625.145Z" transform="translate(-1935.139 -1447.656)" fill="#ffe6c2"/>
      <path id="Path_1802" data-name="Path 1802" d="M2053.8,1627.267a1.418,1.418,0,0,1-.83-.528c-.062-.065-.127-.137-.189-.213a6.161,6.161,0,0,1-.481-.661c-.044-.069-.091-.14-.131-.213-.091-.157-.181-.32-.264-.489,0-.008-.008-.017-.012-.024-.035-.073-.069-.143-.1-.214-.064-.145-.122-.287-.169-.422-.026-.073-.049-.144-.071-.213a3.088,3.088,0,0,1-.119-.544,1.479,1.479,0,0,1-.014-.213c0-.3.106-.473.312-.473a1.349,1.349,0,0,1,.777.473c.064.065.131.136.2.213a6.049,6.049,0,0,1,.414.544c.048.069.091.141.14.213.084.135.167.277.246.422.037.071.074.141.11.214,0,.007.008.016.013.024.083.168.154.332.216.489.029.073.055.144.08.213a3.632,3.632,0,0,1,.168.661,1.734,1.734,0,0,1,.019.213C2054.119,1627.068,2054.016,1627.267,2053.8,1627.267Z" transform="translate(-1809.748 -1447.675)" fill="#ffe6c2"/>
      <path id="Path_1803" data-name="Path 1803" d="M2068.518,1643.64v.214h-12.888c-.035-.073-.069-.143-.1-.214Z" transform="translate(-1813.486 -1466.389)" fill="#f2b499"/>
      <path id="Path_1804" data-name="Path 1804" d="M2052.88,1636.63h12.962v.213h-12.891Z" transform="translate(-1811.076 -1460.015)" fill="#f2b499"/>
      <path id="Path_1805" data-name="Path 1805" d="M2064.286,1628.28v.213h-12.873a1.444,1.444,0,0,1-.014-.213Z" transform="translate(-1809.73 -1452.422)" fill="#f2b499"/>
      <path id="Path_1806" data-name="Path 1806" d="M2072.713,1651.651v.212h-12.873c-.045-.069-.091-.141-.131-.213Z" transform="translate(-1817.287 -1473.673)" fill="#f2b499"/>
      <path id="Path_1807" data-name="Path 1807" d="M2079.327,1661.3v.213h-12.718c-.062-.065-.127-.137-.189-.213Z" transform="translate(-1823.389 -1482.448)" fill="#f2b499"/>
      <path id="Path_1808" data-name="Path 1808" d="M2189.8,1625.345a4.241,4.241,0,0,0,1.778,2.085c.358-.131.251-1.016-.272-2.085a4.235,4.235,0,0,0-1.777-2.085C2189.168,1623.391,2189.275,1624.275,2189.8,1625.345Z" transform="translate(-1935.146 -1447.857)" fill="#ea9678"/>
      <path id="Path_1809" data-name="Path 1809" d="M769.222,1154.47a.41.41,0,0,1-.13-.021.4.4,0,0,1-.249-.509l17.21-50.526a.4.4,0,1,1,.759.258L769.6,1154.2a.4.4,0,0,1-.379.271Z" transform="translate(-643.422 -974.89)" fill="#163560"/>
      <path id="Path_1810" data-name="Path 1810" d="M506.772,1154.47a.4.4,0,0,1-.379-.53l17.21-50.526a.4.4,0,1,1,.759.258L507.154,1154.2A.4.4,0,0,1,506.772,1154.47Z" transform="translate(-404.764 -974.89)" fill="#163560"/>
      <path id="Path_1811" data-name="Path 1811" d="M644.609,1333.881H621.221a.4.4,0,0,1,0-.8h23.389a.4.4,0,1,1,0,.8Z" transform="translate(-508.837 -1183.983)" fill="#163560"/>
      <path id="Path_1812" data-name="Path 1812" d="M594.627,1472.541H571.071a.4.4,0,1,1,0-.8h23.556a.4.4,0,0,1,0,.8Z" transform="translate(-463.234 -1310.073)" fill="#163560"/>
      <path id="Path_1813" data-name="Path 1813" d="M970.319,635.269c-1.919-.681-4.369-.742-4.97.372-.527.974-6.95,15.676-8.094,18.3H956.22l8.652-19.973s1.733-2.357,5.881-.805S972.238,635.949,970.319,635.269Z" transform="translate(-813.832 -547.035)" fill="#163560"/>
      <path id="Path_1814" data-name="Path 1814" d="M709.354,704.913c-.928,1.77-6.643,7.226-6.334,7.873.282.587-.055,6.3-.2,8.493h0c-.034.525-.057.846-.057.846a1.451,1.451,0,0,1-1.076.725,2.746,2.746,0,0,1-.447.063s-.079-.292-.206-.787c-.237-.921-.635-2.55-1-4.314-.57-2.752-1.05-5.835-.666-7.082,4.747-15.468,9.617-10.433,9.617-10.433S710.281,703.142,709.354,704.913Z" transform="translate(-580.139 -607.853)" fill="#febece"/>
      <path id="Path_1815" data-name="Path 1815" d="M710.889,825.586h0c-.034.525-.057.846-.057.846a1.451,1.451,0,0,1-1.076.725,7.028,7.028,0,0,1-.653-.725c-.237-.921-.635-2.55-1-4.314a44.4,44.4,0,0,1,2.485-7.9Z" transform="translate(-588.205 -712.159)" fill="#f98fa9"/>
      <path id="Path_1816" data-name="Path 1816" d="M711.635,1292.828s-.33,2.8.208,2.837c.072.005,3.191,0,3.191,0h3.5a1.236,1.236,0,0,0-1.081-1.022,4.6,4.6,0,0,1-3.251-2.176C713.571,1291.085,711.635,1292.828,711.635,1292.828Z" transform="translate(-591.328 -1146.567)" fill="#c65447"/>
      <path id="Path_1817" data-name="Path 1817" d="M710.49,959.605a7.077,7.077,0,0,0,1.836.344,6.733,6.733,0,0,0,1.713-.245,46.872,46.872,0,0,1,1.263-6.012c.559-2.168,1.36-4.955,2.5-8.418a114.071,114.071,0,0,0,4.189-15.7.116.116,0,0,1,.006-.043h-.01l-9.671-4.251s1.195,13.192-.33,18.256a21.429,21.429,0,0,0-.553,2.426A97.174,97.174,0,0,0,710.49,959.605Z" transform="translate(-590.378 -813.151)" fill="#f99746"/>
      <path id="Path_1818" data-name="Path 1818" d="M720.87,945.962l3.871,7.731c.559-2.167,1.36-4.955,2.5-8.418a114.063,114.063,0,0,0,4.189-15.7v-.047l-9.675-4.246s1.195,13.192-.33,18.256A21.442,21.442,0,0,0,720.87,945.962Z" transform="translate(-599.817 -813.151)" fill="#ed7d2b"/>
      <path id="Path_1819" data-name="Path 1819" d="M796,1292.831s.129,2.8.666,2.836c.072.005,2.772-.011,2.772-.011l3.445.011a1.2,1.2,0,0,0-1.062-1.021,4.6,4.6,0,0,1-3.252-2.176C797.93,1291.089,796,1292.831,796,1292.831Z" transform="translate(-668.137 -1146.57)" fill="#c65447"/>
      <path id="Path_1820" data-name="Path 1820" d="M753.285,928.71a137.6,137.6,0,0,1-1.353,19.044c-1.479,10.5-.977,14.951-.977,14.951a10.087,10.087,0,0,1-1.427.363,6.472,6.472,0,0,1-2.116-.245s-2.117-10.5-1.51-15.754-2.9-18.026-2.9-18.026Z" transform="translate(-619.941 -816.27)" fill="#f99746"/>
      <path id="Path_1821" data-name="Path 1821" d="M778.75,663l1.7,1.489,2.769-.122c-.007-.223-.058-1.152-.1-1.994,0-.05-.006-.1-.009-.148-.041-.716-.076-1.332-.076-1.332l-2.365-1.469-.882-.544c0,.015-.036.783-.043.895A6.464,6.464,0,0,1,778.75,663Z" transform="translate(-652.45 -570.901)" fill="#ffb27d"/>
      <path id="Path_1822" data-name="Path 1822" d="M723.563,721.325c-.039,4.512-.34,15.068-.561,15.282-2.35,2.266-12.691-.622-13.235-3.121s2.085-32.045,6.1-33.224c.832-.245,4.56,2.121,4.56,2.121a5,5,0,0,1,1.883,3.228c.169.863.725,7.017,1.047,11.13.085,1.1.155,2.047.2,2.713C723.567,719.73,723.57,720.4,723.563,721.325Z" transform="translate(-589.656 -608.516)" fill="#febece"/>
      <path id="Path_1823" data-name="Path 1823" d="M791.255,664.979c.422,1.016,2.371,2.119,3.19,2.538,0-.05-.006-.1-.009-.148-.041-.716-.076-1.332-.076-1.332l-2.365-1.469C791.438,664.484,791.081,664.56,791.255,664.979Z" transform="translate(-663.781 -576.047)" fill="#fca56b"/>
      <path id="Path_1824" data-name="Path 1824" d="M788.262,610.639s-4.281.4-4.487-2.272-.9-4.416,1.826-4.783,3.334.611,3.621,1.485S789.37,610.467,788.262,610.639Z" transform="translate(-656.809 -520.546)" fill="#ffb27d"/>
      <path id="Path_1825" data-name="Path 1825" d="M774.441,593.441l-1.334,2.066c-.578-.256-.855-.142-.954.758s-1.576,1.863-2.266.929c0,0-2.657-4.689-1.952-5.489,1.115-1.269,3.807-.931,5.706-.76C775.62,591.12,775.888,593.275,774.441,593.441Z" transform="translate(-642.508 -508.968)" fill="#163560"/>
      <path id="Path_1826" data-name="Path 1826" d="M786.676,787.986c-7.173-7.218-7.576-14.436-7.576-14.436,3.827,2.159,6.1,2.2,7.281,6.118.085,1.1.24,5.78.282,6.446C786.679,786.39,786.683,787.062,786.676,787.986Z" transform="translate(-652.769 -675.176)" fill="#f98fa9"/>
      <path id="Path_1827" data-name="Path 1827" d="M981.6,765.27s.363-.444.5-.626a3.618,3.618,0,0,1,1.994-.674s.765.1.3.788c-.309.462-.272.189-.725.835a1.847,1.847,0,0,1-1.722.907l-.644.118-.48-1.013Z" transform="translate(-836.211 -666.465)" fill="#ffb27d"/>
      <path id="Path_1828" data-name="Path 1828" d="M765.186,715.449s-5.188,4.784,10.334,11.6c2.369,1.041,9.734-5.569,9.734-5.569a3.143,3.143,0,0,0-.7-1.761s-7.379,2.715-8.183,2.8c-.712.078-4.888-6.478-6.249-7.943S765.186,715.449,765.186,715.449Z" transform="translate(-639.359 -621.114)" fill="#febece"/>
      <path id="Path_1829" data-name="Path 1829" d="M774.422,584.334s-.772,6.764-5.167,6.92l-2.005-2.78s4.474-1.605,4.041-5.283Z" transform="translate(-641.993 -502.073)" fill="#febece"/>
      <path id="Path_1830" data-name="Path 1830" d="M735.195,558.554a3.953,3.953,0,0,1,3.221.544,2.749,2.749,0,0,1,.47,3.906c-.272.343.315,1.954-.544,3.06a3.34,3.34,0,0,1-3.263.988c-.719-.19-1.994,1.036-3.292-.14-1.518-1.376-.828-3.959-.828-3.959S731.646,558.838,735.195,558.554Z" transform="translate(-608.848 -479.552)" fill="#f694ad"/>
      <path id="Path_1831" data-name="Path 1831" d="M781.944,688.79c-.053-.023-3.064-1.626-3.415-1.51s-.789,1.188-.789,1.188l4.843,2.044S782.619,689.073,781.944,688.79Z" transform="translate(-651.532 -596.721)" fill="#f98fa9"/>
      <path id="Path_1832" data-name="Path 1832" d="M395.993,1610.2h17.616l-2.913-5.93H393.08Z" transform="translate(-301.743 -1430.588)" fill="#ffe6c2"/>
      <path id="Path_1833" data-name="Path 1833" d="M583.231,1607.273c.743,1.511,1.813,2.758,2.506,2.941a.614.614,0,0,0,.165.025c.67,0,.562-1.327-.242-2.965s-2-2.963-2.671-2.963a.4.4,0,0,0-.144.025C582.34,1604.517,582.49,1605.763,583.231,1607.273Z" transform="translate(-474.036 -1430.625)" fill="#ffe6c2"/>
      <path id="Path_1834" data-name="Path 1834" d="M391.609,1610.209a2,2,0,0,1-1.169-.743,3.481,3.481,0,0,1-.267-.3,8.8,8.8,0,0,1-.678-.93c-.063-.1-.124-.2-.181-.3-.131-.221-.256-.453-.373-.689l-.016-.034c-.05-.1-.1-.2-.14-.3-.091-.206-.172-.405-.239-.6-.036-.1-.07-.2-.1-.3a4.323,4.323,0,0,1-.169-.767,2.244,2.244,0,0,1-.019-.3c.005-.417.15-.666.44-.666a1.865,1.865,0,0,1,1.094.666c.091.091.181.193.277.3a8.049,8.049,0,0,1,.585.767c.067.1.131.2.2.3.119.191.235.391.345.6.053.1.1.2.155.3.006.011.012.024.017.034.116.237.218.468.305.689.04.1.077.2.111.3a5.133,5.133,0,0,1,.237.93,2.31,2.31,0,0,1,.026.3C392.062,1609.928,391.918,1610.209,391.609,1610.209Z" transform="translate(-297.359 -1430.598)" fill="#ffe6c2"/>
      <path id="Path_1835" data-name="Path 1835" d="M412.332,1633.29v.3H394.17c-.05-.1-.1-.2-.14-.3Z" transform="translate(-302.606 -1456.978)" fill="#f2b499"/>
      <path id="Path_1836" data-name="Path 1836" d="M390.3,1623.41h18.264v.3H390.4Z" transform="translate(-299.215 -1447.993)" fill="#f2b499"/>
      <path id="Path_1837" data-name="Path 1837" d="M406.387,1611.63v.306H388.249a2.255,2.255,0,0,1-.019-.3Z" transform="translate(-297.333 -1437.281)" fill="#f2b499"/>
      <path id="Path_1838" data-name="Path 1838" d="M418.212,1644.58v.3H400.071c-.063-.1-.124-.2-.181-.3Z" transform="translate(-307.936 -1467.244)" fill="#f2b499"/>
      <path id="Path_1839" data-name="Path 1839" d="M427.558,1658.16v.3H409.636a3.492,3.492,0,0,1-.267-.3Z" transform="translate(-316.556 -1479.593)" fill="#f2b499"/>
      <path id="Path_1840" data-name="Path 1840" d="M583.231,1607.519c.743,1.511,1.813,2.758,2.506,2.941.5-.186.354-1.432-.387-2.941s-1.813-2.756-2.5-2.939C582.34,1604.763,582.49,1606.009,583.231,1607.519Z" transform="translate(-474.036 -1430.87)" fill="#ea9678"/>
      <path id="Path_1841" data-name="Path 1841" d="M758.327,1559.075c-5.117,1.348-9.288-1.064-10.627-6.146l4.867-1.283c.826,3.136,2.952,2.964,4.477,2.562a3.34,3.34,0,0,0,2.634-4.436l4.867-1.283C765.609,1552.519,764.115,1557.551,758.327,1559.075Z" transform="translate(-624.215 -1379.865)" fill="#ffe6c2"/>
      <path id="Path_1842" data-name="Path 1842" d="M759.564,1558.72a7.359,7.359,0,0,1-5.519-2.594,11.1,11.1,0,0,1-2.045-3.284l.3-.112a10.968,10.968,0,0,0,1.984,3.188,6.855,6.855,0,0,0,6.57,2.369,7.683,7.683,0,0,0,5.867-4.216,10.48,10.48,0,0,0,1.038-5.5l.317-.035a10.8,10.8,0,0,1-1.071,5.68,8.087,8.087,0,0,1-6.1,4.388A7.941,7.941,0,0,1,759.564,1558.72Z" transform="translate(-628.125 -1379.91)" fill="#f2b499"/>
      <path id="Path_1843" data-name="Path 1843" d="M771.277,1560.948a6.276,6.276,0,0,1-4.411-2.01,11.608,11.608,0,0,1-2.176-3l.288-.141a11.487,11.487,0,0,0,2.117,2.917,5.531,5.531,0,0,0,5.884,1.632,6.88,6.88,0,0,0,4.616-4.7,9.585,9.585,0,0,0,.427-3.347l.318-.03a9.731,9.731,0,0,1-.438,3.466,7.289,7.289,0,0,1-4.826,4.916,5.746,5.746,0,0,1-1.8.3Z" transform="translate(-639.665 -1383.302)" fill="#f2b499"/>
      <path id="Path_1844" data-name="Path 1844" d="M788.332,1566.613c-3.354,0-5.014-3.424-5.032-3.464l.287-.14a7.111,7.111,0,0,0,1.51,1.966,4.655,4.655,0,0,0,4.533,1.139c4.139-1.088,3.652-5.629,3.647-5.674l.317-.039c.005.049.522,4.87-3.884,6.027A5.393,5.393,0,0,1,788.332,1566.613Z" transform="translate(-656.588 -1390.695)" fill="#f2b499"/>
      <path id="Path_1845" data-name="Path 1845" d="M752.583,1582.468c.047.176-1.013.608-2.365.964s-2.487.5-2.533.326,1.012-.608,2.365-.965S752.537,1582.291,752.583,1582.468Z" transform="translate(-624.201 -1410.695)" fill="#ea9678"/>
      <path id="Path_1846" data-name="Path 1846" d="M884.383,1547.742c.047.176-1.012.608-2.365.965s-2.487.5-2.533.326,1.012-.608,2.365-.965S884.335,1547.566,884.383,1547.742Z" transform="translate(-744.052 -1379.117)" fill="#ea9678"/>
      <path id="Path_1847" data-name="Path 1847" d="M2229.93,1550.53c-4.961-1.845-6.98-6.22-5.149-11.15l4.719,1.755c-1.13,3.04.706,4.122,2.185,4.672a3.339,3.339,0,0,0,4.708-2.109l4.714,1.755C2239.658,1549.364,2235.539,1552.616,2229.93,1550.53Z" transform="translate(-1966.788 -1371.581)" fill="#ffe6c2"/>
      <path id="Path_1848" data-name="Path 1848" d="M2235.656,1549.854a7.363,7.363,0,0,1-3.018-5.3,11.113,11.113,0,0,1,.225-3.865l.31.081a10.972,10.972,0,0,0-.214,3.75,6.855,6.855,0,0,0,4.007,5.719,7.686,7.686,0,0,0,7.225-.067,10.444,10.444,0,0,0,4.014-3.9l.279.155a10.808,10.808,0,0,1-4.147,4.026,8.086,8.086,0,0,1-7.512.074A7.858,7.858,0,0,1,2235.656,1549.854Z" transform="translate(-1974.469 -1372.772)" fill="#f2b499"/>
      <path id="Path_1849" data-name="Path 1849" d="M2249.322,1553.233a6.277,6.277,0,0,1-2.448-4.183,11.636,11.636,0,0,1-.05-3.71l.316.052a11.5,11.5,0,0,0,.051,3.6,5.525,5.525,0,0,0,3.871,4.722,6.881,6.881,0,0,0,6.478-1.179,9.61,9.61,0,0,0,2.277-2.49l.277.159a9.782,9.782,0,0,1-2.357,2.581,7.293,7.293,0,0,1-6.776,1.24A5.776,5.776,0,0,1,2249.322,1553.233Z" transform="translate(-1987.325 -1377.001)" fill="#f2b499"/>
      <path id="Path_1850" data-name="Path 1850" d="M2265.928,1560.159c-2.74-1.93-2.126-5.687-2.119-5.729l.317.051a7.1,7.1,0,0,0,.1,2.477,4.655,4.655,0,0,0,3.051,3.543c4.01,1.494,6.227-2.5,6.249-2.538l.282.151c-.024.043-2.378,4.281-6.647,2.69A5.388,5.388,0,0,1,2265.928,1560.159Z" transform="translate(-2002.827 -1385.267)" fill="#f2b499"/>
      <path id="Path_1851" data-name="Path 1851" d="M2236.18,1540.672c-.063.17-1.178-.091-2.489-.574s-2.323-1.022-2.259-1.192,1.179.091,2.489.574S2236.244,1540.5,2236.18,1540.672Z" transform="translate(-1973.439 -1371.103)" fill="#ea9678"/>
      <path id="Path_1852" data-name="Path 1852" d="M2363.93,1588.186c-.063.17-1.178-.091-2.489-.574s-2.323-1.022-2.259-1.192,1.178.085,2.489.573S2363.994,1588.015,2363.93,1588.186Z" transform="translate(-2089.608 -1414.309)" fill="#ea9678"/>
      <path id="Path_1853" data-name="Path 1853" d="M1679.785,1121.882h-22.029a.856.856,0,0,1-.856-.856h0a.856.856,0,0,1,.856-.856h22.029a.856.856,0,0,1,.856.856h0a.855.855,0,0,1-.856.856Z" transform="translate(-1450.993 -990.374)" fill="#afcdfb"/>
    </g>
  </g>
</svg>
