<svg xmlns="http://www.w3.org/2000/svg" width="350" height="310.266" viewBox="0 0 350 310.266">
  <g id="Artboard_3_copy" data-name="Artboard 3 copy" transform="translate(-48.066 -82.237)">
    <g id="Layer_2" data-name="Layer 2" transform="translate(48.067 82.237)">
      <path id="Path_1448" data-name="Path 1448" d="M224.093,384.813a168.843,168.843,0,0,0-27.436,1.219A170.135,170.135,0,0,1,128.05,381.6c-27.277-7.5-36.565-33.53-47.9-57.029C69.924,303.322,56.8,282.8,51.642,259.494c-4.315-19.5-6.825-49.667,5.143-66.95,7.874-11.359,20.525-14.687,33.371-18.611,13.5-4.12,25.486-7.837,33.225-19.745,7.886-12.188-.646-25.827,6.094-37.893C148.2,82.533,205.043,84.386,237.317,82.436c17.2-1.048,31.226,2.255,47.729,5.18,28.106,4.985,58.613,14.065,76.262,37.869,11.554,15.589,3.6,33.469,9.617,51.19,2.438,7.118,7.033,13.882,10.969,20.427,5.68,9.336,11.737,15.162,14.029,26.278a105.382,105.382,0,0,1,1.219,35.09c-1.853,13.675-7.764,26.156-12.542,39.258-4.534,12.42-9.044,24.925-16.369,35.894-15.284,22.914-39.392,34.273-63.647,40.343-18.7,4.68-35.565,9.811-54.969,10.86C241.01,385.252,232.551,384.947,224.093,384.813Z" transform="translate(-48.067 -82.237)" fill="#f84b76" opacity="0.1"/>
      <path id="Path_1449" data-name="Path 1449" d="M188.13,201.31s1.219,13.09,4.875,19.172,18.611,10.311,31.506,17.478-27.948,35.1-67.352,29.374-37.978-23.645-37.978-23.645l35.577-22.134s10.287-9.4,9.568-22.292S180.975,194.143,188.13,201.31Z" transform="translate(-32.507 -58.143)" fill="#ecb49f"/>
      <path id="Path_1450" data-name="Path 1450" d="M180.082,202.136l-.463-11.274c-7.167-7.167-24.376,3.583-23.645,16.478a1.9,1.9,0,0,0,0,.268c2.438,4.01,5.448,6.716,9.348,6.9C173,214.849,177.437,209.6,180.082,202.136Z" transform="translate(-24.459 -58.97)" fill="#ecb49f"/>
      <path id="Path_1451" data-name="Path 1451" d="M146.8,173.509s2.06,43.622,20.72,44.341,20.805-23.011,22.024-40.294c1.353-19.355-.28-25.23-22.024-26.339C146.532,150.132,146.8,173.509,146.8,173.509Z" transform="translate(-26.462 -67.151)" fill="#ecb49f"/>
      <path id="Path_1452" data-name="Path 1452" d="M188.74,165.954l.366.134c5.034,1.938,6.606,9.3,4.01,14.065-.293.512-2.145,2.1-2.145,2.438,0,1.085,2.023.963,1.755,2.694-.39,2.438-.768,5.765-3.12,4.875-1.8-.707-3.571-1.84-3.827-3.535-.536-3.547,2.267-11.81-2.133-11.457-2.255.183-16.6-.439-16.6-.439a25.839,25.839,0,0,1-6.691,5.143c-4.875,2.791-7.788.146-7.788.146s-1.56,8.788-3.656,9.1c-1.487.219-3.547.463-4.132-1.316s.207-2.73,1.487-3.937c-1.109,1.048-2.194-2.23-2.194-2.8,0-1.645,2.755-10.165,3.364-11.628,1.792-4.278,3.3,1.853,7.313.548a107.474,107.474,0,0,1,13.407-3.461C174.516,165.308,182.512,163.809,188.74,165.954Z" transform="translate(-27.059 -64.155)" fill="#2e3054"/>
      <path id="Path_1453" data-name="Path 1453" d="M154.645,209.641s2.316,5.948,14.553,5.619,13.553-10.579,13.553-10.579Z" transform="translate(-24.977 -66.446)" fill="#dea691"/>
      <path id="Path_1454" data-name="Path 1454" d="M158.44,193.446s9.007,5.326,18.392-.256C176.832,193.19,168.069,211.692,158.44,193.446Z" transform="translate(-23.915 -57.958)" fill="#fff"/>
      <path id="Path_1455" data-name="Path 1455" d="M211.508,235.15s27.326,37.016,30.848,62.16c3.961.878,27.094-38.7,27.094-38.7l11.688,7.4s-33.054,63.915-44.95,65.67c-9.751,1.45-41.879-48.923-41.879-48.923S206.657,236.028,211.508,235.15Z" transform="translate(-16.066 -48.777)" fill="#ecb49f"/>
      <path id="Path_1456" data-name="Path 1456" d="M275.313,257.034a.719.719,0,0,1-.536-1.219l15.455-16.807a8.532,8.532,0,0,1,5.936-2.438,9.458,9.458,0,0,1,2.8.439.743.743,0,0,1,.487.536.731.731,0,0,1-.219.683l-13.322,12.554-.122.1-10.116,6.009A.78.78,0,0,1,275.313,257.034Z" transform="translate(1.498 -48.466)" fill="#e7a588"/>
      <path id="Path_1457" data-name="Path 1457" d="M255.07,275.683l25.254-18.745,10.25-10.543,8.4-11.664a6.608,6.608,0,0,0-2.316-.451,4.741,4.741,0,0,0-3.888,2.1,118.554,118.554,0,0,1-9.031,10.275c-.439.548-5.387,5.192-9.9,5.192a4.619,4.619,0,0,1-2.755-.865c-2.438-1.719-2.133-5.009-1.1-8.008.4-1.219.951-1.146,1.06-2.267a8.24,8.24,0,0,0-1.377-5.253,3.754,3.754,0,0,0-2.852-1.1,8.533,8.533,0,0,0-.11,3.656,14.626,14.626,0,0,1-4.436,11.42c-.427.341-.951.67-1.5,1.024-2.438,1.572-5.521,3.535-4.558,8.337a.707.707,0,0,1-.366.78Z" transform="translate(-2.77 -48.967)" fill="#ecb49f"/>
      <path id="Path_1458" data-name="Path 1458" d="M145.977,252.181c2.438-12.444.658-28.63-2.62-41.537-2.23-8.727-9.446-31.275-20.72-32.75-12.566-1.658-12.993,23.645-11.152,32.043,2.694,12.322,9.129,22.292,16.344,32.591,6.838,9.751,12.188,20.72,18.9,30.068Z" transform="translate(-34.365 -61.322)" fill="#abdbe6"/>
      <path id="Path_1459" data-name="Path 1459" d="M179.652,282.662c12.469-8.142,22.487-19.915,32.165-31.3,4.181-4.875,8.532-9.994,12.944-14.626,2.608-2.742,5.119-5.692,7.545-8.532s4.68-5.485,7.154-8.117c.768-.829,1.511-1.706,2.23-2.547,2.291-2.706,4.449-5.253,7.008-5.4,1.938-.11,3.864,1.219,5.862,3.912,3.571,4.875,2.633,8.288,1.341,13l-.183.683a54.165,54.165,0,0,1-19.891,28.691,9.226,9.226,0,0,1,3.3,2.937c2.048,2.706,3.827,6.691,3.108,8.751-1.633,4.741-10.1,6.643-14.626,7.666l-1.109.256a70.207,70.207,0,0,1-12.188,1.633c-2.742.159-5.485.207-8.154.268s-5.363.11-8.056.256a60.014,60.014,0,0,0-17.965,3.461L175.52,285.4Zm26.485-3.851c2.657,0,5.4-.11,8.117-.268a68.1,68.1,0,0,0,11.969-1.609l1.121-.244c4.339-.987,12.432-2.8,13.882-6.972.488-1.426-.865-4.973-2.962-7.752-1.536-2.023-3.059-3.108-3.839-2.547l-.634-.89a53.323,53.323,0,0,0,20.878-29.118l.183-.683c1.3-4.753,2.1-7.63-1.219-12.091-1.767-2.438-3.376-3.559-4.875-3.474-2.109.122-4.12,2.438-6.253,5.022-.731.865-1.487,1.755-2.267,2.6-2.438,2.608-4.875,5.387-7.118,8.081s-4.961,5.8-7.593,8.532c-4.412,4.644-8.727,9.751-12.9,14.626-8.91,10.47-18.1,21.256-29.252,29.325a64.953,64.953,0,0,1,14.626-2.328c2.742-.012,5.485-.11,8.13-.158Z" transform="translate(-20.177 -53.813)" fill="#5fa469"/>
      <path id="Path_1460" data-name="Path 1460" d="M112.225,285.554c-3.656-2.937-7.654-5.728-8.715-10.774-1.475-6.972,2.937-7.2,6.423-12.615-9.616-5.082-18.465-6.5-24.376-17.551s.841-17.88,11.993-15.418c1.536.341-8.154-8.422-9.751-9.921a30.19,30.19,0,0,1-7.849-12.9c-2.669-8.434-.683-19.209,10.141-19.16,9.373,0,12.98,10.494,16.137,17.88a54.652,54.652,0,0,1,3.656,11.189c5.095-3.656,7.386-10.774,13.907-5.143,4.546,3.925,5.3,13.236,2.681,18.282,7.313,0,11.481-1.56,17.173,3.547,3.656,3.3,7.2,8.885,9.482,13.748,5.192,11.079,12.42,51.373,13.261,64.427C166.341,311.186,119.928,291.77,112.225,285.554Z" transform="translate(-41.322 -59.265)" fill="#5fa469"/>
      <path id="Path_1461" data-name="Path 1461" d="M121.5,253.016l.829.1.122-1-1.584-.2-5.2-8.934v-.171h-.1l-1.926-3.315,7.727-30.2a5.715,5.715,0,0,0-.951-.353l-7.654,29.044-10.884-18.7,3.937-15.272-.646-1.536-4.059,15.491-3.193-5.485,3.925-17.063c-.232-.414-.475-.829-.719-1.219l-4.3,16.405L83.936,188.48c-.293.183-.573.366-.841.573l8.276,14.224-.183-.171L79,201.643a6.189,6.189,0,0,0,.134,1.036L92,204.264l22.341,38.381-30.69-3.656a4.731,4.731,0,0,0,.219,1.048l31.1,3.742,4.668,8.02-31.775-3.815c.293.4.6.756.9,1.133l31.519,3.778,29.678,50.983,1.572.695Z" transform="translate(-41.298 -58.989)" fill="#fff" opacity="0.4"/>
      <path id="Path_1462" data-name="Path 1462" d="M182.728,273.6c-.293-14.309-5.119-26.814,1.048-41.379,3.949-9.287,16.515-24.376,27.387-14.528-19.1-11.42,10.348-44.938,28.033-41.952,6.3,13.322,3.23,30.08-7.179,41.123,6.094-1.865,8.727-.561,10.689,5.229,2.267,6.728-2.6,12.785-4.985,14.626s-8.215,6.387-12.444,9.909c5.96,1.219,12.42,5.07,9.885,12.663-1.962,5.85-9.629,6.923-14.1,10.141,4.388-.073,9.117-.646,13.066.951,2.438,14.626-18.7,22.024-28.618,26.022-14.016,5.643-28.277,10.969-42.208,16.076Z" transform="translate(-22.851 -61.817)" fill="#5fa469"/>
      <path id="Path_1463" data-name="Path 1463" d="M240.133,228.941a9.435,9.435,0,0,0,.439-1.219L210.528,232.6l26.582-56.285c-.1-.207-.171-.414-.268-.622l-.536-.061-14.114,29.946L216.1,183.869l-.853.719,6.289,21.512-2.962,6.545-7.154-24.035-.853.878,7.313,24.657-12.505,27.082L198.059,214.9c-.317.1-.646.207-.963.329l7.642,27.448L174,307.64l1.365-.512,9.909-21v.317l43.414-5.046c.28-.366.548-.743.8-1.121l-43.877,5.107,7.52-15.918,32.116-3.522c.914-.4,1.8-.829,2.657-1.292l-34.273,3.754,3.656-7.74,36.053-4.339a8.3,8.3,0,0,0,0-1.109l-35.468,4.266,12.188-25.668Z" transform="translate(-20.51 -61.801)" fill="#fff" opacity="0.4"/>
      <path id="Path_1464" data-name="Path 1464" d="M285.674,266.954s-16.747,24.242-23.365,31.3c-1.536-10.969-7.557-23.657-13.882-34.59-9.543-20.488-16.868-30.141-16.868-30.141l-23.767-12.078a20.473,20.473,0,0,0-2.279,1.792,60.941,60.941,0,0,1-16,6c-21.147,3.778-37.783-7.63-39.161-8.532l-25.681,13.6s-17.819,19.806-21.317,54.237c-1.536,15.174,5.241,68.888,5.07,71.033,0,0,6.094-.146,23.158.67,0,0,1.645-48.862,1.987-50.91.987-5.948,2.1-9.811,2.9-9.6s1.024,8.9,1.024,17.673l.146-13.407c1.219,22.451-6.094,56.3-6.094,56.3s11.347-1.987,38.454-.219,56.419-3.973,56.419-3.973-6.277-21.293-7.63-41.44c0-8.032.256-15.442,1.012-15.637.987-.244,4.875,4.071,7.825,7.52C237.8,321.435,250.986,338.828,256.605,338c11.9-1.767,42.317-61.27,42.317-61.27Zm-67.035,36.211.122,10.969a97.51,97.51,0,0,1-.158-10.969Z" transform="translate(-36.019 -51.939)" fill="#fff"/>
      <path id="Path_1465" data-name="Path 1465" d="M164.024,232.413,135.37,238.19s0,93.849,25.12,121.638c0,0-25.6-70.07-21.6-119.444l30.861-8.824Z" transform="translate(-28.963 -49.562)" fill="#c2dee9"/>
      <path id="Path_1466" data-name="Path 1466" d="M137,223.4l23.791,9.263s-7.922,12.9-8.922,14.54,15.54-8.532,15.54-8.532l3.656-9.251Z" transform="translate(-28.606 -51.348)" fill="#c2dee9"/>
      <path id="Path_1467" data-name="Path 1467" d="M197.356,222.31l-23.8,9.263s6.947,6.277,6.947,10.969c0,1.926-13.553-4.961-13.553-4.961l-3.656-9.263Z" transform="translate(-22.853 -51.586)" fill="#c2dee9"/>
      <path id="Path_1468" data-name="Path 1468" d="M151.971,212.685l21.415,17.063L171.4,234.38s-5.948,23.791-27.058,32.323c0,0,7.935-27.107,21.159-33.054,0,0-26.448-7.935-28.423-7.935S148,211.99,151.971,212.685Z" transform="translate(-28.634 -53.698)" fill="#d43e3a"/>
      <path id="Path_1469" data-name="Path 1469" d="M184.213,213.375s-11.932,13.31-24.291,8.239,5.192,11.92,5.192,11.92,5.96,23.791,27.107,32.384c0,0-7.934-27.107-21.147-33.054,0,0,26.436-7.935,28.423-7.935S188.235,212.68,184.213,213.375Z" transform="translate(-24.555 -53.548)" fill="#d43e3a"/>
      <path id="Path_1470" data-name="Path 1470" d="M169.275,227.212a3.973,3.973,0,0,1-7.935,0s1.78-4.632,3.961-4.632a3.973,3.973,0,0,1,3.973,3.973Z" transform="translate(-23.28 -51.527)" fill="#de6264"/>
      <path id="Path_1471" data-name="Path 1471" d="M323.836,233.772c0,3.413-18.429,7.447-41.135,7.447s-41.111-4.034-41.111-7.447,18.416-6.192,41.123-6.192S323.836,230.359,323.836,233.772Z" transform="translate(-5.72 -50.433)" fill="#727f9c"/>
      <path id="Path_1472" data-name="Path 1472" d="M316.423,236.352a34.6,34.6,0,1,0-69.2,0c.262,2.962,15.644,5.29,34.608,5.29s34.334-2.328,34.578-5.2a.11.11,0,0,0,.012-.085Z" transform="translate(-4.487 -56.085)" fill="#596a83"/>
      <path id="Path_1473" data-name="Path 1473" d="M280.859,200.232a3.925,3.925,0,1,1-3.912-3.912A3.924,3.924,0,0,1,280.859,200.232Z" transform="translate(1.155 -57.274)" fill="#596a83"/>
      <path id="Path_1474" data-name="Path 1474" d="M277.956,204.64s-13.846,7.849-14.309,32.3a108.294,108.294,0,0,1-11.067-1.389C253.092,225.4,256.273,207.87,277.956,204.64Z" transform="translate(-3.315 -55.453)" fill="#fff" opacity="0.5"/>
      <path id="Path_1475" data-name="Path 1475" d="M191.463,168.943s-22.487,8.325-44.523,1.219l.451-10.823s30.58,5.412,42.72-1.219Z" transform="translate(-26.431 -65.632)" fill="#c2dee9"/>
      <path id="Path_1476" data-name="Path 1476" d="M148.983,167.232s-15.845-1.767-10.141-14.114,13.663-3.522,13.663-3.522,3.547-19.647,19.842-18.953c20.72.878,15.845,25.6,15.845,25.6s14.1-10.128,13.663,3.973c-.366,11.53-12.347,14.979-29.532,9.69C172.348,169.865,160.025,164.587,148.983,167.232Z" transform="translate(-28.474 -71.649)" fill="#fff"/>
      <path id="Path_1477" data-name="Path 1477" d="M147.281,159.18l-.341,10.787c12.456,4,29.252,4.607,42.171-.28.792-.3,1.584-.634,2.352-.975v-3.791l-1.353,2.889-18.514,1.1C147.379,168.248,148.683,162.117,147.281,159.18Z" transform="translate(-26.431 -65.4)" fill="#fff"/>
      <path id="Path_1478" data-name="Path 1478" d="M146.652,245.664a2.206,2.206,0,1,1-2.206-2.194,2.206,2.206,0,0,1,2.206,2.194Z" transform="translate(-27.46 -46.956)" fill="#c2dee9"/>
      <path id="Path_1479" data-name="Path 1479" d="M147.732,261.946a2.206,2.206,0,1,1-2.206-2.206,2.206,2.206,0,0,1,2.206,2.206Z" transform="translate(-27.223 -43.396)" fill="#c2dee9"/>
      <path id="Path_1480" data-name="Path 1480" d="M149.542,280.026a2.206,2.206,0,1,1-2.206-2.206,2.206,2.206,0,0,1,2.206,2.206Z" transform="translate(-26.827 -39.44)" fill="#c2dee9"/>
      <path id="Path_1481" data-name="Path 1481" d="M152.072,297.026a2.206,2.206,0,1,1-2.206-2.206A2.206,2.206,0,0,1,152.072,297.026Z" transform="translate(-26.274 -35.72)" fill="#c2dee9"/>
      <path id="Path_1482" data-name="Path 1482" d="M198.83,259.74v30.665c1-.232,4.875,4.071,7.825,7.52l1.012,1.463C203.583,280.545,198.83,259.74,198.83,259.74Z" transform="translate(-15.077 -43.396)" fill="#c2dee9"/>
      <path id="Path_1483" data-name="Path 1483" d="M214.49,304.979c7.167,9.226,14.053,16.442,17.722,15.906,3.961-.6,9.982-7.581,16.235-16.649C232.175,292.291,217.549,302.6,214.49,304.979Z" transform="translate(-11.65 -34.897)" fill="#d3f2ff" opacity="0.4"/>
      <path id="Path_1484" data-name="Path 1484" d="M245.21,271.346l15.613,9.872c3.778-6.874,6.411-11.957,6.9-12.907-4.766-1.828-10.409-5.96-13.907-8.751C252.267,261.742,249.244,265.788,245.21,271.346Z" transform="translate(-4.928 -43.435)" fill="#c2dee9"/>
      <path id="Path_1485" data-name="Path 1485" d="M252.763,255.67s11.9,10.579,19.5,12.188l-7.313,13.212L245.45,270.5Z" transform="translate(-4.875 -44.287)" fill="#fff"/>
      <path id="Path_1486" data-name="Path 1486" d="M276.415,198.8a1.158,1.158,0,1,1-1.158-1.219A1.219,1.219,0,0,1,276.415,198.8Z" transform="translate(1.394 -56.998)" fill="#fff" opacity="0.5"/>
      <path id="Path_1487" data-name="Path 1487" d="M245.21,232.62s30.751,6.277,55.542,3.3C300.752,235.923,266.771,242.017,245.21,232.62Z" transform="translate(-4.928 -49.33)" fill="#fff" opacity="0.5"/>
      <path id="Path_1488" data-name="Path 1488" d="M162.238,229.91s-13.224,14.54-10.25,16.527S162.238,229.91,162.238,229.91Z" transform="translate(-25.422 -49.923)" fill="#de6264"/>
      <path id="Path_1489" data-name="Path 1489" d="M166.29,230.45s12.188,10.25,9.251,12.883S166.29,230.45,166.29,230.45Z" transform="translate(-22.197 -49.805)" fill="#de6264"/>
      <path id="Path_1490" data-name="Path 1490" d="M321,185.515a21.3,21.3,0,1,1-21.293-21.3A21.3,21.3,0,0,1,321,185.515Z" transform="translate(2.333 -64.3)" fill="#ffd13d"/>
      <path id="Path_1491" data-name="Path 1491" d="M292.4,180.68a1.463,1.463,0,0,1-1.463-1.463v-4.875a1.463,1.463,0,0,1,2.925,0v4.875A1.463,1.463,0,0,1,292.4,180.68Z" transform="translate(5.079 -62.403)" fill="#fff"/>
      <path id="Path_1492" data-name="Path 1492" d="M295.484,175.893a.817.817,0,0,1-.8-.8v-6.35a.817.817,0,0,1,1.621,0v6.35A.817.817,0,0,1,295.484,175.893Z" transform="translate(5.897 -63.466)" fill="#fff"/>
      <path id="Path_1493" data-name="Path 1493" d="M301.255,180.169a.975.975,0,0,1-.975-.975v-4.558a.975.975,0,0,1,1.95,0v4.558A.975.975,0,0,1,301.255,180.169Z" transform="translate(7.123 -62.232)" fill="#fff"/>
      <path id="Path_1494" data-name="Path 1494" d="M313.282,180.49a14.711,14.711,0,1,1-29.422,0Z" transform="translate(3.53 -60.737)" fill="#c2dee9"/>
      <path id="Path_1495" data-name="Path 1495" d="M306.724,180.49H283.81a14.931,14.931,0,0,0,5.668,11.737,12.846,12.846,0,0,0,17.246-11.737Z" transform="translate(3.519 -60.737)" fill="#fff"/>
      <rect id="Rectangle_914" data-name="Rectangle 914" width="7.484" height="2.925" transform="translate(298.298 133.245)" fill="#c2dee9"/>
      <path id="Path_1496" data-name="Path 1496" d="M278.878,169.569a21.939,21.939,0,1,1-21.939-21.939A21.939,21.939,0,0,1,278.878,169.569Z" transform="translate(-7.162 -67.928)" fill="#95dee6"/>
      <path id="Path_1497" data-name="Path 1497" d="M257.63,165.891l3.778-2.438a3.815,3.815,0,0,0,.366.829,3.218,3.218,0,1,0,1.889-4.875,3.242,3.242,0,1,0-4.595.366l-3.778,2.438Z" transform="translate(-2.722 -66.517)" fill="#f0f0f0"/>
      <path id="Path_1498" data-name="Path 1498" d="M259.289,160.8c-3.656-1.633-10.969-1.28-14.626,1.048a9.2,9.2,0,1,0,9.921,15.491c3.656-2.34,7.045-8.873,7.081-12.883Z" transform="translate(-6.026 -65.266)" fill="#c47a31"/>
      <path id="Path_1499" data-name="Path 1499" d="M244.638,161.848a9.519,9.519,0,0,0-3.949,11.286,9.751,9.751,0,0,0,13.834-13.309C251.025,159.642,247.039,160.325,244.638,161.848Z" transform="translate(-6.038 -65.266)" fill="#da9922"/>
      <path id="Path_1500" data-name="Path 1500" d="M259.71,157.99a1.67,1.67,0,1,1,1.67-1.67A1.67,1.67,0,0,1,259.71,157.99Z" transform="translate(-2.12 -66.392)" fill="#fff"/>
      <path id="Path_1501" data-name="Path 1501" d="M304.445,126.09A16.527,16.527,0,1,1,287.93,142.6,16.527,16.527,0,0,1,304.445,126.09Z" transform="translate(4.42 -72.641)" fill="#d43e3a"/>
      <path id="Path_1502" data-name="Path 1502" d="M302.321,153.336l-3.157-7.057-3.145-7.069h12.59l-3.145,7.069Z" transform="translate(6.19 -69.77)" fill="#ffbf44"/>
      <path id="Path_1503" data-name="Path 1503" d="M306.965,139.21H296.02l.573,1.28,7.922,7.922.951-2.133,2.633-5.936Z" transform="translate(6.19 -69.77)" fill="#f39a21"/>
      <path id="Path_1504" data-name="Path 1504" d="M303.293,148.077l-.658-.207.951-.439.585-1.341a20.359,20.359,0,0,1-2.779,1.329,20.192,20.192,0,0,1-2.182-1l.561,1.219.378.171-.256.085.366.829,1.134-.3c.488.183,1,.353,1.536.524Z" transform="translate(6.889 -68.265)" fill="#fff"/>
      <path id="Path_1505" data-name="Path 1505" d="M297.484,142.307h-.1l.366.817.463-.2a20.859,20.859,0,0,0,2.889,2.06,20.419,20.419,0,0,1-2.133.89l.159.366.207.463a22.715,22.715,0,0,0,2.718-1.219,24.8,24.8,0,0,0,3.108,1.329l.268-.6.1-.219a24.639,24.639,0,0,1-2.523-1.036,20.137,20.137,0,0,0,2.889-2.06l.853.353.366-.829-.488-.2c.232-.219.451-.439.646-.646l.427-.475.878-1.962h-.427a16.408,16.408,0,0,1-1.511,1.865,10.894,10.894,0,0,1-.841.829,20.342,20.342,0,0,1-2.925-1.682c.427-.341.817-.683,1.219-1.012h-1.353l-.573.463-.573-.463h-1.341a10.954,10.954,0,0,0,1.219,1.012,20.511,20.511,0,0,1-2.937,1.682c-.3-.28-.585-.561-.841-.829a17.857,17.857,0,0,1-1.511-1.865l1.219,2.876Zm4.571-1.511a21.938,21.938,0,0,0,2.95,1.767,19.967,19.967,0,0,1-2.95,1.974,19.963,19.963,0,0,1-2.95-1.974,20.5,20.5,0,0,0,2.95-1.767Z" transform="translate(6.226 -69.783)" fill="#fff"/>
      <path id="Path_1506" data-name="Path 1506" d="M303.072,146.907l.207-.475.146-.341c-.244.146-.5.28-.756.414Z" transform="translate(7.646 -68.265)" fill="#dfe0cf"/>
      <path id="Path_1507" data-name="Path 1507" d="M303.016,145.039a20.141,20.141,0,0,0,2.889-2.06l.853.353.366-.829-.487-.2c.232-.219.451-.439.646-.646l.427-.475.366-.829-.463-.463c-.293.378-.634.78-1.024,1.219a10.879,10.879,0,0,1-.841.829,20.341,20.341,0,0,1-2.925-1.682c.427-.341.817-.683,1.219-1.012h-1.353l-.573.463-.573-.463H300.2a10.956,10.956,0,0,0,1.219,1.012,20.512,20.512,0,0,1-2.937,1.682c-.3-.28-.585-.561-.841-.829a17.86,17.86,0,0,1-1.511-1.865l.536,1.219,4.51,4.5.695.707.293-.146a24.807,24.807,0,0,0,3.108,1.328l.268-.6.1-.219a24.63,24.63,0,0,1-2.621-1Zm-3.9-2.438a20.5,20.5,0,0,0,2.95-1.828,21.937,21.937,0,0,0,2.95,1.767,19.968,19.968,0,0,1-2.95,1.974,19.959,19.959,0,0,1-2.95-1.914Z" transform="translate(6.215 -69.762)" fill="#dfe0cf"/>
      <path id="Path_1508" data-name="Path 1508" d="M311.976,138.321a7.453,7.453,0,0,0,.073-1.048,8.861,8.861,0,0,0-17.612,1.219,2.718,2.718,0,1,0,3.791,3.34,2.73,2.73,0,0,0,5.119,0,2.718,2.718,0,0,0,5.107,0,2.718,2.718,0,1,0,3.522-3.461Z" transform="translate(5.519 -71.831)" fill="#fff"/>
      <path id="Path_1509" data-name="Path 1509" d="M299.671,131.074a.756.756,0,1,1-.756-.743.743.743,0,0,1,.756.743Z" transform="translate(6.659 -71.713)" fill="#f55557"/>
      <path id="Path_1510" data-name="Path 1510" d="M302.9,132.983a.743.743,0,1,1-.743-.743.743.743,0,0,1,.743.743Z" transform="translate(7.37 -71.295)" fill="#f55557"/>
      <path id="Path_1511" data-name="Path 1511" d="M305.537,130.923a.743.743,0,1,1-.743-.743A.743.743,0,0,1,305.537,130.923Z" transform="translate(7.948 -71.746)" fill="#f55557"/>
      <circle id="Ellipse_84" data-name="Ellipse 84" cx="0.731" cy="0.731" r="0.731" transform="translate(301.906 60.286)" fill="#f55557"/>
      <path id="Path_1512" data-name="Path 1512" d="M302.413,130.041a.731.731,0,1,1-.731-.731A.731.731,0,0,1,302.413,130.041Z" transform="translate(7.269 -71.937)" fill="#f55557"/>
      <path id="Path_1513" data-name="Path 1513" d="M306.263,133.421a.731.731,0,1,1-.731-.731.731.731,0,0,1,.731.731Z" transform="translate(8.112 -71.197)" fill="#f55557"/>
      <path id="Path_1514" data-name="Path 1514" d="M299.993,133.791a.731.731,0,1,1-.731-.731A.731.731,0,0,1,299.993,133.791Z" transform="translate(6.74 -71.116)" fill="#f55557"/>
      <path id="Path_1515" data-name="Path 1515" d="M243.524,131.932a21.512,21.512,0,1,1-21.5-21.512,21.512,21.512,0,0,1,21.5,21.512Z" transform="translate(-14.711 -76.07)" fill="#fff"/>
      <path id="Path_1516" data-name="Path 1516" d="M225.927,122.78H209.18l2.535,15.394a3.132,3.132,0,0,0,1.073,1.95c.256.207,7.228,2.718,7.228,2.718s7.313-2.523,7.557-2.73a3.279,3.279,0,0,0,1.06-1.938l2.523-15.394Z" transform="translate(-12.812 -73.365)" fill="#596a83"/>
      <path id="Path_1517" data-name="Path 1517" d="M225.927,122.78H209.18l2.535,15.394a3.132,3.132,0,0,0,1.073,1.95c.256.207,7.228,2.718,7.228,2.718s7.313-2.523,7.557-2.73a3.279,3.279,0,0,0,1.06-1.938l2.523-15.394Z" transform="translate(-12.812 -73.365)" fill="#fff" opacity="0.5"/>
      <path id="Path_1518" data-name="Path 1518" d="M218.07,122.78v20.062s7.154-2.56,7.471-2.84a3.157,3.157,0,0,0,.987-1.828l2.681-15.394H218.07Z" transform="translate(-10.866 -73.365)" fill="#596a83"/>
      <path id="Path_1519" data-name="Path 1519" d="M210.274,122.44l-3.656,1.219c-.926.317-.951.89-.061,1.292l8.934,3.986a5.241,5.241,0,0,0,3.291.146l4.546-1.56Z" transform="translate(-13.528 -73.44)" fill="#596a83"/>
      <path id="Path_1520" data-name="Path 1520" d="M229.352,122.44l3.656,1.219c.914.317.938.89,0,1.292l-8.922,3.986a5.241,5.241,0,0,1-3.291.146l-4.546-1.56Z" transform="translate(-11.265 -73.44)" fill="#596a83"/>
      <path id="Path_1521" data-name="Path 1521" d="M229.352,122.44l3.656,1.219c.914.317.938.89,0,1.292l-8.922,3.986a5.241,5.241,0,0,1-3.291.146l-4.546-1.56Z" transform="translate(-11.265 -73.44)" fill="#fff" opacity="0.5"/>
      <path id="Path_1522" data-name="Path 1522" d="M221.765,127.635a5.07,5.07,0,0,1-3.181,0l-8.776-3.461c-.878-.341-.878-.9,0-1.219l8.776-3.449a5.07,5.07,0,0,1,3.181,0l8.776,3.449c.878.353.878.914,0,1.219Z" transform="translate(-12.818 -74.138)" fill="#885493"/>
      <path id="Path_1523" data-name="Path 1523" d="M221.765,127.635a5.07,5.07,0,0,1-3.181,0l-8.776-3.461c-.878-.341-.878-.9,0-1.219l8.776-3.449a5.07,5.07,0,0,1,3.181,0l8.776,3.449c.878.353.878.914,0,1.219Z" transform="translate(-12.818 -74.138)" fill="#596a83"/>
      <path id="Path_1524" data-name="Path 1524" d="M211.219,124.443a5.948,5.948,0,0,1,8.19-1.134,7.628,7.628,0,0,0-.549.695,5.083,5.083,0,0,0-6.777.78l1.28.512a3.778,3.778,0,0,1,4.875-.171,7.849,7.849,0,0,0-.293.743,3.01,3.01,0,0,0-3.754-.256l1.914.756a1.645,1.645,0,0,1,.865.341l1.426.561a2.83,2.83,0,0,0,.512.146,5.836,5.836,0,0,1,.28-1.219,3.851,3.851,0,0,1,.475,1.328,6.093,6.093,0,0,0,1.426-.1,3.57,3.57,0,0,1,.463-1.219,5.554,5.554,0,0,1,.244.987l4.437-1.743a3.072,3.072,0,0,0-1.414-.353,3.035,3.035,0,0,0-2.035.792,7.846,7.846,0,0,0-.293-.743,3.791,3.791,0,0,1,2.328-.8,3.864,3.864,0,0,1,2.291.768l1.329-.524a5.1,5.1,0,0,0-6.582-.561,7.633,7.633,0,0,0-.548-.695,5.948,5.948,0,0,1,8.008.914l1.036-.414.2-.085a7.313,7.313,0,0,0-2.535-2.084l-1.121-.439a6.874,6.874,0,0,0-2.072-.3,7.154,7.154,0,0,0-4.449,1.536A7.24,7.24,0,0,0,210,123.979Zm9.141-.268a7.815,7.815,0,0,1,.548.707,4.56,4.56,0,0,0-.548.817,5.314,5.314,0,0,0-.548-.817,5,5,0,0,1,.561-.707Z" transform="translate(-12.632 -73.773)" fill="#fff"/>
      <path id="Path_1525" data-name="Path 1525" d="M223.861,115.835a1.536,1.536,0,0,1,2.876,1.06l-4.229,10.116-2.438.78Z" transform="translate(-10.429 -75.086)" fill="#ffd13d"/>
      <path id="Path_1526" data-name="Path 1526" d="M222.578,122.67a4.875,4.875,0,0,0-2.072.451l-.256,1.621a3.754,3.754,0,0,1,3.315-.67l.512-1.219A5.071,5.071,0,0,0,222.578,122.67Z" transform="translate(-10.389 -73.39)" fill="#fff"/>
      <path id="Path_1527" data-name="Path 1527" d="M219.29,124.17v1.767a3.279,3.279,0,0,1,.232-.463,5.557,5.557,0,0,1,.244.987l4.437-1.743a3.072,3.072,0,0,0-1.414-.353,3.035,3.035,0,0,0-2.035.792,7.857,7.857,0,0,0-.293-.743,1.913,1.913,0,0,1,.366-.244Z" transform="translate(-10.6 -73.061)" fill="#fff"/>
      <path id="Path_1528" data-name="Path 1528" d="M217.932,127.928l-3.206-12.6a1.536,1.536,0,0,0-2.937.89l3.778,10.774Z" transform="translate(-12.252 -75.223)" fill="#ffd13d"/>
      <path id="Path_1529" data-name="Path 1529" d="M217.586,124.612l-.4-.085c-.085.2-.158.39-.232.6a3.035,3.035,0,0,0-2.035-.792,2.241,2.241,0,0,0-.4,0l-.2.938.792.317a1.645,1.645,0,0,1,.865.341l1.219.488Z" transform="translate(-11.687 -73.028)" fill="#fff"/>
      <path id="Path_1530" data-name="Path 1530" d="M295.825,124.482A26.582,26.582,0,1,1,269.242,97.9,26.582,26.582,0,0,1,295.825,124.482Z" transform="translate(-5.486 -78.81)" fill="#fff"/>
      <path id="Path_1531" data-name="Path 1531" d="M274.818,103.63l-8.178,17.9,19.075-6.7S281.985,103.935,274.818,103.63Z" transform="translate(-0.238 -77.556)" fill="#ffd13d"/>
      <path id="Path_1532" data-name="Path 1532" d="M272.8,105.05l-.561,1.219c4.485,1.6,7.313,7.2,8.312,9.629l1.731-.609C281.332,112.948,278.127,106.123,272.8,105.05Z" transform="translate(0.987 -77.245)" fill="#ffbf44"/>
      <path id="Path_1533" data-name="Path 1533" d="M266.573,124.253l7.715-16.881a18.465,18.465,0,1,0,9.751,10.75Z" transform="translate(-4.291 -77.106)" fill="#ffd13d"/>
      <path id="Path_1534" data-name="Path 1534" d="M281.369,118.384l-1.5.524a14.065,14.065,0,1,1-7.813-8.422l.658-1.438a15.729,15.729,0,1,0,8.654,9.336Z" transform="translate(-3.694 -76.648)" fill="#ffbf44"/>
      <path id="Path_1535" data-name="Path 1535" d="M264.728,127.069a3.157,3.157,0,1,1-.925-2.244A3.169,3.169,0,0,1,264.728,127.069Z" transform="translate(-2.044 -73.12)" fill="#d43e3a"/>
      <path id="Path_1536" data-name="Path 1536" d="M273.8,111.59s.536,4.619-3.656,3.437a3.1,3.1,0,0,1,3.656-3.437Z" transform="translate(0.523 -75.826)" fill="#5fa469"/>
      <circle id="Ellipse_85" data-name="Ellipse 85" cx="2.377" cy="2.377" r="2.377" transform="translate(272.825 32.717)" fill="#d43e3a"/>
      <path id="Path_1537" data-name="Path 1537" d="M258.959,118.2a1.584,1.584,0,1,1-1.572-1.584,1.585,1.585,0,0,1,1.572,1.584Z" transform="translate(-2.613 -74.713)" fill="#d43e3a"/>
      <path id="Path_1538" data-name="Path 1538" d="M274.063,122.637a2.377,2.377,0,1,1-2.377-2.377,2.377,2.377,0,0,1,2.377,2.377Z" transform="translate(0.346 -73.917)" fill="#d43e3a"/>
      <path id="Path_1539" data-name="Path 1539" d="M264.33,117.954a12.273,12.273,0,0,1-3.035-.536l-.317-.1-.061-.317a2.926,2.926,0,0,1,0-1.377l.073-.293.292-.085a2.438,2.438,0,0,0,1.816-1.755l-.561-.207c-.646-.232-1.3-.488-1.938-.658l.28-1.048c.683.2,1.377.451,2.035.695l.89.329.317.11v.329a3.12,3.12,0,0,1-2.255,3.132,2.436,2.436,0,0,0,0,.293,10,10,0,0,0,2.438.4Z" transform="translate(-1.56 -75.816)" fill="#ffa132"/>
      <path id="Path_1540" data-name="Path 1540" d="M264.7,112.638a2.377,2.377,0,1,1-.7-1.742A2.377,2.377,0,0,1,264.7,112.638Z" transform="translate(-1.702 -76.118)" fill="#d43e3a"/>
      <path id="Path_1541" data-name="Path 1541" d="M267.175,130.362a2.755,2.755,0,0,1-1.219-.256l-.5-.232.341-.439a7.022,7.022,0,0,1,1.3-1.06c.6-.439,2.011-1.45,1.828-1.816s-1.645-.171-2.657.122a11.077,11.077,0,0,1-1.438.329l-.085-.878a10.312,10.312,0,0,0,1.28-.3c1.389-.39,3.108-.878,3.656.353.5,1.036-.878,2.023-2.109,2.9l-.536.4h.609l.061.89Z" transform="translate(-0.652 -72.793)" fill="#ffa132"/>
      <path id="Path_1542" data-name="Path 1542" d="M255.559,124.852l-1.109-.609a7.46,7.46,0,0,1,1.219-1.463c.183-.2.353-.378.512-.573l.268-.317.414.134a5.546,5.546,0,0,0,.951.134,6.544,6.544,0,0,1,1.219.2c.743-.938,1.658-2.023,2.791-3.3l.951.841c-1.219,1.438-2.267,2.62-3.023,3.656l-.329.414-.463-.244a3.864,3.864,0,0,0-1.292-.244,2.313,2.313,0,0,1-.817-.1l-.293.317a7.179,7.179,0,0,0-1,1.158Z" transform="translate(-2.906 -74.182)" fill="#ffa132"/>
      <path id="Path_1543" data-name="Path 1543" d="M264.76,122.329s1.9-3.01,3.656-.158a2.17,2.17,0,0,1-3.656.158Z" transform="translate(-0.65 -73.768)" fill="#5fa469"/>
      <path id="Path_1544" data-name="Path 1544" d="M255.14,112.318s4.217-.938,5.131,2.986A4.875,4.875,0,0,1,255.14,112.318Z" transform="translate(-2.755 -75.676)" fill="#5fa469"/>
      <path id="Path_1545" data-name="Path 1545" d="M258.481,124.319s.195,4.644-3.9,3.145a3.1,3.1,0,0,1,3.9-3.145Z" transform="translate(-2.878 -73.052)" fill="#5fa469"/>
    </g>
  </g>
</svg>
