<svg xmlns="http://www.w3.org/2000/svg" width="255" height="120.392" viewBox="0 0 255 120.392">
  <g id="Group_714" data-name="Group 714" transform="translate(-67.5 -108.685)">
    <g id="Group_587" data-name="Group 587" transform="translate(34.597 17.764)">
      <path id="Path_1604" data-name="Path 1604" d="M451.161,269.093c-.011.535-.022,1.07-.055,1.595s-.044,1.038-.087,1.563a63.983,63.983,0,0,1-.787,6.522c-.109.623-.219,1.234-.339,1.835-.022.142-.055.284-.077.415l-.022.077c-.076.372-.152.729-.229,1.1-.142.645-.3,1.29-.449,1.915-.032.121-.065.23-.087.35q-.624,2.462-1.333,4.621l-.23.721c-.208.638-.415,1.234-.623,1.823-.153.426-.306.831-.448,1.223-.8,2.12-1.574,3.878-2.2,5.211-.579,1.234-1.07,2.272-1.322,2.8l-.175.365-187.986.033H211.631a.011.011,0,0,0-.011-.011c-.153-.12-.3-.23-.438-.349h-.011a2.148,2.148,0,0,1-.182-.153l-3.179-3.442a15.261,15.261,0,0,1-1.7-3.157,17.355,17.355,0,0,1-1.245-6.61c0-.108,0-.23.011-.349,0-.208.011-.427.011-.638l.033-.557c.055-.677.131-1.355.241-2.032,0-.023.011-.044.011-.066a3.353,3.353,0,0,0,.055-.35,4.231,4.231,0,0,1,.091-.426c.1-.5.219-1,.35-1.518a3.5,3.5,0,0,1,.091-.365c.044-.142.077-.284.131-.426.119-.448.273-.9.426-1.355.295-.874.645-1.748,1.038-2.633a1.676,1.676,0,0,1,.091-.208c.365-.8.754-1.585,1.18-2.381a41.008,41.008,0,0,1,2.174-3.573c.175-.251.349-.5.524-.742a45.048,45.048,0,0,1,2.917-3.7,55.3,55.3,0,0,1,4.184-4.326c.339-.317.677-.623,1.017-.929.076-.066.152-.131.229-.207.2-.164.394-.339.59-.5.831-.722,1.641-1.4,2.437-2.054.4-.328.8-.645,1.191-.962.775-.623,1.529-1.234,2.25-1.823a38.936,38.936,0,0,0,5.736-5.47,17.313,17.313,0,0,0,1.442-2.055,15.558,15.558,0,0,0,1.77-4.3c.091-.4.175-.821.241-1.245a19.727,19.727,0,0,0,.262-3.791,28.974,28.974,0,0,0-.262-3.5c-.033-.262-.077-.535-.12-.82a49.773,49.773,0,0,0-1.061-5.036q-.2-.77-.427-1.574c-.262-.929-.47-1.846-.634-2.742a26.036,26.036,0,0,1-.426-5.037,22.913,22.913,0,0,1,.426-4.285v-.022a25.553,25.553,0,0,1,1.017-3.8c5.233-14.88,23.041-23.675,27.771-25.642a74.167,74.167,0,0,1,23.019-4.96c.677-.044,1.355-.091,2.032-.12,1.915-.1,3.845-.142,5.768-.142.787,0,1.563.012,2.338.022,1.3.033,2.589.077,3.889.153,1.2.066,2.393.142,3.584.241a117.877,117.877,0,0,1,14.234,2.058,77.929,77.929,0,0,1,11.089,3.157l.011.011a62.435,62.435,0,0,1,18.616,10.7q1.655,1.377,3.135,2.775c.131.12.274.252.4.382.306.284.6.568.9.863.131.131.274.263.4.394.863.862,1.694,1.726,2.48,2.566l1.17,1.267c2.075,2.295,3.91,4.436,5.659,6.283.218.24.437.456.656.687,3.009,3.06,5.79,5.136,9.2,5.364a30.282,30.282,0,0,0,7.451-.765c.284-.054.557-.109.841-.174a135.629,135.629,0,0,1,14.923-2.6,46.467,46.467,0,0,1,24.177,3.856c.284.131.557.263.841.393,1.289.623,2.589,1.311,3.9,2.087.273.153.547.317.821.48q2,1.23,4.053,2.735a.6.6,0,0,1,.1.077c.59.426,1.18.884,1.77,1.355.688.547,1.388,1.114,2.087,1.715,1.682,1.453,3.4,3.048,5.113,4.818,1.245,1.276,2.4,2.567,3.453,3.877.729.9,1.42,1.8,2.054,2.711.119.163.229.327.349.491a54.164,54.164,0,0,1,2.949,4.85c.1.2.208.4.317.6a49.536,49.536,0,0,1,2.851,6.763c.066.2.131.382.2.568.328,1.016.612,2.032.874,3.048.349,1.388.634,2.764.862,4.14A55.31,55.31,0,0,1,451.161,269.093Z" transform="translate(-163.272 -89.949)" fill="#f84b76" opacity="0.2"/>
      <rect id="Rectangle_931" data-name="Rectangle 931" width="15.334" height="4.31" transform="translate(68.586 191.022)" fill="#c4d9ed"/>
      <path id="Path_1611" data-name="Path 1611" d="M285.117,998.51v34.73H269.78v-19.479c.175-.251.349-.5.524-.742a45.045,45.045,0,0,1,2.918-3.7,55.288,55.288,0,0,1,4.184-4.326c.339-.317.677-.623,1.016-.929.076-.066.152-.131.229-.207.2-.164.394-.339.59-.5.831-.722,1.641-1.4,2.437-2.054.4-.328.8-.645,1.191-.962C283.643,999.712,284.4,999.1,285.117,998.51Z" transform="translate(-222.274 -833.044)" fill="#c4d9ed"/>
      <path id="Path_1612" data-name="Path 1612" d="M247.342,1029.07v31.944H232V1047.7a1.7,1.7,0,0,1,.091-.208c.365-.8.754-1.584,1.18-2.381a41,41,0,0,1,2.174-3.573c.175-.251.349-.5.524-.742a45.119,45.119,0,0,1,2.918-3.7,55.3,55.3,0,0,1,4.184-4.326c.339-.317.677-.623,1.017-.929.076-.066.152-.131.229-.207.2-.164.394-.339.59-.5C245.736,1030.4,246.544,1029.724,247.342,1029.07Z" transform="translate(-187.938 -860.818)" fill="#d5e7f7"/>
      <path id="Path_1613" data-name="Path 1613" d="M357.692,1029.07v3.692H353.42c.339-.317.677-.623,1.017-.929.076-.066.152-.131.229-.207.2-.164.394-.339.59-.5C356.086,1030.4,356.895,1029.724,357.692,1029.07Z" transform="translate(-298.288 -860.818)" fill="#c4d9ed"/>
      <path id="Path_1614" data-name="Path 1614" d="M286.9,1117v3.7H275.53a45.091,45.091,0,0,1,2.918-3.7Z" transform="translate(-227.499 -940.732)" fill="#c4d9ed"/>
      <path id="Path_1615" data-name="Path 1615" d="M247.342,1205v3.7H232v-1.114a1.694,1.694,0,0,1,.091-.208c.365-.8.754-1.585,1.18-2.381Z" transform="translate(-187.938 -1020.709)" fill="#c4d9ed"/>
      <rect id="Rectangle_932" data-name="Rectangle 932" width="15.334" height="3.7" transform="translate(44.066 192.32)" fill="#c4d9ed"/>
      <rect id="Rectangle_933" data-name="Rectangle 933" width="6.423" height="9.366" transform="translate(89.246 197.906)" fill="#dceaf9"/>
      <path id="Path_1616" data-name="Path 1616" d="M866.58,706.461v-5.784h-1.756V690.73h-9.415v9.947h-8.8V684.469h-9.713v10.521h-2.215V682.43h-9.713v23.55H812.681v13.733h-4.589v3.46H797.549v-5.958h-6.054V701.027h-7.478V730.91H776.54v26h97.541V706.461Z" transform="translate(-682.832 -545.782)" fill="#d5e7f7"/>
      <rect id="Rectangle_934" data-name="Rectangle 934" width="9.719" height="2.4" transform="translate(142.127 138.237)" fill="#c4d9ed"/>
      <rect id="Rectangle_935" data-name="Rectangle 935" width="9.719" height="2.4" transform="translate(142.127 142.746)" fill="#c4d9ed"/>
      <rect id="Rectangle_936" data-name="Rectangle 936" width="9.719" height="2.4" transform="translate(142.127 146.801)" fill="#c4d9ed"/>
      <rect id="Rectangle_937" data-name="Rectangle 937" width="9.719" height="2.4" transform="translate(154.053 146.801)" fill="#c4d9ed"/>
      <rect id="Rectangle_938" data-name="Rectangle 938" width="9.719" height="2.4" transform="translate(154.053 142.746)" fill="#c4d9ed"/>
      <rect id="Rectangle_939" data-name="Rectangle 939" width="9.719" height="2.4" transform="translate(154.053 138.696)" fill="#c4d9ed"/>
      <rect id="Rectangle_940" data-name="Rectangle 940" width="21.647" height="2.4" transform="translate(142.127 150.733)" fill="#c4d9ed"/>
      <rect id="Rectangle_941" data-name="Rectangle 941" width="21.647" height="2.4" transform="translate(142.127 154.665)" fill="#c4d9ed"/>
      <rect id="Rectangle_942" data-name="Rectangle 942" width="7.543" height="3.704" transform="translate(101.188 155.247)" fill="#c4d9ed"/>
      <rect id="Rectangle_943" data-name="Rectangle 943" width="7.543" height="3.704" transform="translate(101.188 160.756)" fill="#c4d9ed"/>
      <rect id="Rectangle_944" data-name="Rectangle 944" width="7.543" height="3.704" transform="translate(101.188 166.264)" fill="#c4d9ed"/>
      <rect id="Rectangle_945" data-name="Rectangle 945" width="7.543" height="3.704" transform="translate(101.188 172.038)" fill="#c4d9ed"/>
      <rect id="Rectangle_946" data-name="Rectangle 946" width="7.543" height="3.704" transform="translate(101.188 177.633)" fill="#c4d9ed"/>
      <rect id="Rectangle_947" data-name="Rectangle 947" width="7.543" height="3.704" transform="translate(101.188 183.228)" fill="#c4d9ed"/>
      <rect id="Rectangle_948" data-name="Rectangle 948" width="7.543" height="3.704" transform="translate(101.188 189.082)" fill="#c4d9ed"/>
      <rect id="Rectangle_949" data-name="Rectangle 949" width="21.647" height="1.523" transform="translate(142.127 158.509)" fill="#c4d9ed"/>
      <rect id="Rectangle_950" data-name="Rectangle 950" width="2.782" height="16.186" transform="translate(108.627 155.247)" fill="#c4d9ed"/>
      <rect id="Rectangle_951" data-name="Rectangle 951" width="5.594" height="5.957" transform="translate(114.716 171.433)" fill="#c4d9ed"/>
      <path id="Path_1617" data-name="Path 1617" d="M1545.04,704.89h1.93v16.2h-1.927Z" transform="translate(-1381.268 -566.194)" fill="#c4d9ed"/>
      <rect id="Rectangle_952" data-name="Rectangle 952" width="1.185" height="12.552" transform="translate(151.846 136.649)" fill="#c4d9ed"/>
      <g id="Group_585" data-name="Group 585" transform="translate(131.856 162.562)" opacity="0.8">
        <rect id="Rectangle_953" data-name="Rectangle 953" width="1.647" height="2.321" transform="translate(0 0)" fill="#c4d9ed"/>
        <rect id="Rectangle_954" data-name="Rectangle 954" width="1.647" height="2.321" transform="translate(3.079 0)" fill="#c4d9ed"/>
        <rect id="Rectangle_955" data-name="Rectangle 955" width="1.647" height="2.321" transform="translate(6.089 0)" fill="#c4d9ed"/>
        <rect id="Rectangle_956" data-name="Rectangle 956" width="1.647" height="2.321" transform="translate(8.944 0)" fill="#c4d9ed"/>
        <rect id="Rectangle_957" data-name="Rectangle 957" width="1.647" height="2.321" transform="translate(11.852 0)" fill="#c4d9ed"/>
        <rect id="Rectangle_958" data-name="Rectangle 958" width="1.647" height="2.321" transform="translate(14.795 0)" fill="#c4d9ed"/>
        <rect id="Rectangle_959" data-name="Rectangle 959" width="1.647" height="2.321" transform="translate(17.874 0)" fill="#c4d9ed"/>
        <rect id="Rectangle_960" data-name="Rectangle 960" width="1.647" height="2.321" transform="translate(20.884 0)" fill="#c4d9ed"/>
        <rect id="Rectangle_961" data-name="Rectangle 961" width="1.647" height="2.321" transform="translate(23.738 0)" fill="#c4d9ed"/>
        <rect id="Rectangle_962" data-name="Rectangle 962" width="1.647" height="2.321" transform="translate(26.647 0)" fill="#c4d9ed"/>
        <rect id="Rectangle_963" data-name="Rectangle 963" width="1.647" height="2.321" transform="translate(29.679 0)" fill="#c4d9ed"/>
        <rect id="Rectangle_964" data-name="Rectangle 964" width="1.647" height="2.321" transform="translate(32.758 0)" fill="#c4d9ed"/>
        <rect id="Rectangle_965" data-name="Rectangle 965" width="1.647" height="2.321" transform="translate(35.768 0)" fill="#c4d9ed"/>
        <rect id="Rectangle_966" data-name="Rectangle 966" width="1.647" height="2.321" transform="translate(38.622 0)" fill="#c4d9ed"/>
        <rect id="Rectangle_967" data-name="Rectangle 967" width="1.647" height="2.321" transform="translate(41.532 0)" fill="#c4d9ed"/>
        <rect id="Rectangle_968" data-name="Rectangle 968" width="1.647" height="2.321" transform="translate(44.474 0)" fill="#c4d9ed"/>
        <rect id="Rectangle_969" data-name="Rectangle 969" width="1.647" height="2.321" transform="translate(47.553 0)" fill="#c4d9ed"/>
        <rect id="Rectangle_970" data-name="Rectangle 970" width="1.647" height="2.321" transform="translate(50.563 0)" fill="#c4d9ed"/>
        <rect id="Rectangle_971" data-name="Rectangle 971" width="1.647" height="2.321" transform="translate(53.418 0)" fill="#c4d9ed"/>
        <rect id="Rectangle_972" data-name="Rectangle 972" width="1.647" height="2.321" transform="translate(56.327 0)" fill="#c4d9ed"/>
        <rect id="Rectangle_973" data-name="Rectangle 973" width="1.647" height="2.321" transform="translate(0 4.095)" fill="#c4d9ed"/>
        <rect id="Rectangle_974" data-name="Rectangle 974" width="1.647" height="2.321" transform="translate(3.079 4.095)" fill="#c4d9ed"/>
        <rect id="Rectangle_975" data-name="Rectangle 975" width="1.647" height="2.321" transform="translate(6.089 4.095)" fill="#c4d9ed"/>
        <rect id="Rectangle_976" data-name="Rectangle 976" width="1.647" height="2.321" transform="translate(8.944 4.095)" fill="#c4d9ed"/>
        <rect id="Rectangle_977" data-name="Rectangle 977" width="1.647" height="2.321" transform="translate(11.852 4.095)" fill="#c4d9ed"/>
        <rect id="Rectangle_978" data-name="Rectangle 978" width="1.647" height="2.321" transform="translate(14.795 4.095)" fill="#c4d9ed"/>
        <rect id="Rectangle_979" data-name="Rectangle 979" width="1.647" height="2.321" transform="translate(17.874 4.095)" fill="#c4d9ed"/>
        <rect id="Rectangle_980" data-name="Rectangle 980" width="1.647" height="2.321" transform="translate(20.884 4.095)" fill="#c4d9ed"/>
        <rect id="Rectangle_981" data-name="Rectangle 981" width="1.647" height="2.321" transform="translate(23.738 4.095)" fill="#c4d9ed"/>
        <rect id="Rectangle_982" data-name="Rectangle 982" width="1.647" height="2.321" transform="translate(26.647 4.095)" fill="#c4d9ed"/>
        <rect id="Rectangle_983" data-name="Rectangle 983" width="1.647" height="2.321" transform="translate(29.679 4.095)" fill="#c4d9ed"/>
        <rect id="Rectangle_984" data-name="Rectangle 984" width="1.647" height="2.321" transform="translate(32.758 4.095)" fill="#c4d9ed"/>
        <rect id="Rectangle_985" data-name="Rectangle 985" width="1.647" height="2.321" transform="translate(35.768 4.095)" fill="#c4d9ed"/>
        <rect id="Rectangle_986" data-name="Rectangle 986" width="1.647" height="2.321" transform="translate(38.622 4.095)" fill="#c4d9ed"/>
        <rect id="Rectangle_987" data-name="Rectangle 987" width="1.647" height="2.321" transform="translate(41.532 4.095)" fill="#c4d9ed"/>
        <rect id="Rectangle_988" data-name="Rectangle 988" width="1.647" height="2.321" transform="translate(44.474 4.095)" fill="#c4d9ed"/>
        <rect id="Rectangle_989" data-name="Rectangle 989" width="1.647" height="2.321" transform="translate(47.553 4.095)" fill="#c4d9ed"/>
        <rect id="Rectangle_990" data-name="Rectangle 990" width="1.647" height="2.321" transform="translate(50.563 4.095)" fill="#c4d9ed"/>
        <rect id="Rectangle_991" data-name="Rectangle 991" width="1.647" height="2.321" transform="translate(53.418 4.095)" fill="#c4d9ed"/>
        <rect id="Rectangle_992" data-name="Rectangle 992" width="1.647" height="2.321" transform="translate(56.327 4.095)" fill="#c4d9ed"/>
        <rect id="Rectangle_993" data-name="Rectangle 993" width="1.647" height="2.321" transform="translate(0 8.128)" fill="#c4d9ed"/>
        <rect id="Rectangle_994" data-name="Rectangle 994" width="1.647" height="2.321" transform="translate(3.079 8.128)" fill="#c4d9ed"/>
        <rect id="Rectangle_995" data-name="Rectangle 995" width="1.647" height="2.321" transform="translate(6.089 8.128)" fill="#c4d9ed"/>
        <rect id="Rectangle_996" data-name="Rectangle 996" width="1.647" height="2.321" transform="translate(8.944 8.128)" fill="#c4d9ed"/>
        <rect id="Rectangle_997" data-name="Rectangle 997" width="1.647" height="2.321" transform="translate(11.852 8.128)" fill="#c4d9ed"/>
        <rect id="Rectangle_998" data-name="Rectangle 998" width="1.647" height="2.321" transform="translate(14.795 8.128)" fill="#c4d9ed"/>
        <rect id="Rectangle_999" data-name="Rectangle 999" width="1.647" height="2.321" transform="translate(17.874 8.128)" fill="#c4d9ed"/>
        <rect id="Rectangle_1000" data-name="Rectangle 1000" width="1.647" height="2.321" transform="translate(20.884 8.128)" fill="#c4d9ed"/>
        <rect id="Rectangle_1001" data-name="Rectangle 1001" width="1.647" height="2.321" transform="translate(23.738 8.128)" fill="#c4d9ed"/>
        <rect id="Rectangle_1002" data-name="Rectangle 1002" width="1.647" height="2.321" transform="translate(26.647 8.128)" fill="#c4d9ed"/>
        <rect id="Rectangle_1003" data-name="Rectangle 1003" width="1.647" height="2.321" transform="translate(29.679 8.128)" fill="#c4d9ed"/>
        <rect id="Rectangle_1004" data-name="Rectangle 1004" width="1.647" height="2.321" transform="translate(32.758 8.128)" fill="#c4d9ed"/>
        <rect id="Rectangle_1005" data-name="Rectangle 1005" width="1.647" height="2.321" transform="translate(35.768 8.128)" fill="#c4d9ed"/>
        <rect id="Rectangle_1006" data-name="Rectangle 1006" width="1.647" height="2.321" transform="translate(38.622 8.128)" fill="#c4d9ed"/>
        <rect id="Rectangle_1007" data-name="Rectangle 1007" width="1.647" height="2.321" transform="translate(41.532 8.128)" fill="#c4d9ed"/>
        <rect id="Rectangle_1008" data-name="Rectangle 1008" width="1.647" height="2.321" transform="translate(44.474 8.128)" fill="#c4d9ed"/>
        <rect id="Rectangle_1009" data-name="Rectangle 1009" width="1.647" height="2.321" transform="translate(47.553 8.128)" fill="#c4d9ed"/>
        <rect id="Rectangle_1010" data-name="Rectangle 1010" width="1.647" height="2.321" transform="translate(50.563 8.128)" fill="#c4d9ed"/>
        <rect id="Rectangle_1011" data-name="Rectangle 1011" width="1.647" height="2.321" transform="translate(53.418 8.128)" fill="#c4d9ed"/>
        <rect id="Rectangle_1012" data-name="Rectangle 1012" width="1.647" height="2.321" transform="translate(56.327 8.128)" fill="#c4d9ed"/>
        <rect id="Rectangle_1013" data-name="Rectangle 1013" width="1.647" height="2.321" transform="translate(0 12.413)" fill="#c4d9ed"/>
        <rect id="Rectangle_1014" data-name="Rectangle 1014" width="1.647" height="2.321" transform="translate(3.079 12.413)" fill="#c4d9ed"/>
        <rect id="Rectangle_1015" data-name="Rectangle 1015" width="1.647" height="2.321" transform="translate(6.089 12.413)" fill="#c4d9ed"/>
        <rect id="Rectangle_1016" data-name="Rectangle 1016" width="1.647" height="2.321" transform="translate(8.944 12.413)" fill="#c4d9ed"/>
        <rect id="Rectangle_1017" data-name="Rectangle 1017" width="1.647" height="2.321" transform="translate(11.852 12.413)" fill="#c4d9ed"/>
        <rect id="Rectangle_1018" data-name="Rectangle 1018" width="1.647" height="2.321" transform="translate(14.795 12.413)" fill="#c4d9ed"/>
        <rect id="Rectangle_1019" data-name="Rectangle 1019" width="1.647" height="2.321" transform="translate(17.874 12.413)" fill="#c4d9ed"/>
        <rect id="Rectangle_1020" data-name="Rectangle 1020" width="1.647" height="2.321" transform="translate(20.884 12.413)" fill="#c4d9ed"/>
        <rect id="Rectangle_1021" data-name="Rectangle 1021" width="1.647" height="2.321" transform="translate(23.738 12.413)" fill="#c4d9ed"/>
        <rect id="Rectangle_1022" data-name="Rectangle 1022" width="1.647" height="2.321" transform="translate(26.647 12.413)" fill="#c4d9ed"/>
        <rect id="Rectangle_1023" data-name="Rectangle 1023" width="1.647" height="2.321" transform="translate(29.679 12.413)" fill="#c4d9ed"/>
        <rect id="Rectangle_1024" data-name="Rectangle 1024" width="1.647" height="2.321" transform="translate(32.758 12.413)" fill="#c4d9ed"/>
        <rect id="Rectangle_1025" data-name="Rectangle 1025" width="1.647" height="2.321" transform="translate(35.768 12.413)" fill="#c4d9ed"/>
        <rect id="Rectangle_1026" data-name="Rectangle 1026" width="1.647" height="2.321" transform="translate(38.622 12.413)" fill="#c4d9ed"/>
        <rect id="Rectangle_1027" data-name="Rectangle 1027" width="1.647" height="2.321" transform="translate(41.532 12.413)" fill="#c4d9ed"/>
        <rect id="Rectangle_1028" data-name="Rectangle 1028" width="1.647" height="2.321" transform="translate(44.474 12.413)" fill="#c4d9ed"/>
        <rect id="Rectangle_1029" data-name="Rectangle 1029" width="1.647" height="2.321" transform="translate(47.553 12.413)" fill="#c4d9ed"/>
        <rect id="Rectangle_1030" data-name="Rectangle 1030" width="1.647" height="2.321" transform="translate(50.563 12.413)" fill="#c4d9ed"/>
        <rect id="Rectangle_1031" data-name="Rectangle 1031" width="1.647" height="2.321" transform="translate(53.418 12.413)" fill="#c4d9ed"/>
        <rect id="Rectangle_1032" data-name="Rectangle 1032" width="1.647" height="2.321" transform="translate(56.327 12.413)" fill="#c4d9ed"/>
        <rect id="Rectangle_1033" data-name="Rectangle 1033" width="1.647" height="2.321" transform="translate(0 16.508)" fill="#c4d9ed"/>
        <rect id="Rectangle_1034" data-name="Rectangle 1034" width="1.647" height="2.321" transform="translate(3.079 16.508)" fill="#c4d9ed"/>
        <rect id="Rectangle_1035" data-name="Rectangle 1035" width="1.647" height="2.321" transform="translate(6.089 16.508)" fill="#c4d9ed"/>
        <rect id="Rectangle_1036" data-name="Rectangle 1036" width="1.647" height="2.321" transform="translate(8.944 16.508)" fill="#c4d9ed"/>
        <rect id="Rectangle_1037" data-name="Rectangle 1037" width="1.647" height="2.321" transform="translate(11.852 16.508)" fill="#c4d9ed"/>
        <rect id="Rectangle_1038" data-name="Rectangle 1038" width="1.647" height="2.321" transform="translate(14.795 16.508)" fill="#c4d9ed"/>
        <rect id="Rectangle_1039" data-name="Rectangle 1039" width="1.647" height="2.321" transform="translate(17.874 16.508)" fill="#c4d9ed"/>
        <rect id="Rectangle_1040" data-name="Rectangle 1040" width="1.647" height="2.321" transform="translate(20.884 16.508)" fill="#c4d9ed"/>
        <rect id="Rectangle_1041" data-name="Rectangle 1041" width="1.647" height="2.321" transform="translate(23.738 16.508)" fill="#c4d9ed"/>
        <rect id="Rectangle_1042" data-name="Rectangle 1042" width="1.647" height="2.321" transform="translate(26.647 16.508)" fill="#c4d9ed"/>
        <rect id="Rectangle_1043" data-name="Rectangle 1043" width="1.647" height="2.321" transform="translate(29.679 16.508)" fill="#c4d9ed"/>
        <rect id="Rectangle_1044" data-name="Rectangle 1044" width="1.647" height="2.321" transform="translate(32.758 16.508)" fill="#c4d9ed"/>
        <rect id="Rectangle_1045" data-name="Rectangle 1045" width="1.647" height="2.321" transform="translate(35.768 16.508)" fill="#c4d9ed"/>
        <rect id="Rectangle_1046" data-name="Rectangle 1046" width="1.647" height="2.321" transform="translate(38.622 16.508)" fill="#c4d9ed"/>
        <rect id="Rectangle_1047" data-name="Rectangle 1047" width="1.647" height="2.321" transform="translate(41.532 16.508)" fill="#c4d9ed"/>
        <rect id="Rectangle_1048" data-name="Rectangle 1048" width="1.647" height="2.321" transform="translate(44.474 16.508)" fill="#c4d9ed"/>
        <rect id="Rectangle_1049" data-name="Rectangle 1049" width="1.647" height="2.321" transform="translate(47.553 16.508)" fill="#c4d9ed"/>
        <rect id="Rectangle_1050" data-name="Rectangle 1050" width="1.647" height="2.321" transform="translate(50.563 16.508)" fill="#c4d9ed"/>
        <rect id="Rectangle_1051" data-name="Rectangle 1051" width="1.647" height="2.321" transform="translate(53.418 16.508)" fill="#c4d9ed"/>
        <rect id="Rectangle_1052" data-name="Rectangle 1052" width="1.647" height="2.321" transform="translate(56.327 16.508)" fill="#c4d9ed"/>
        <rect id="Rectangle_1053" data-name="Rectangle 1053" width="1.647" height="2.321" transform="translate(0 20.542)" fill="#c4d9ed"/>
        <rect id="Rectangle_1054" data-name="Rectangle 1054" width="1.647" height="2.321" transform="translate(3.079 20.542)" fill="#c4d9ed"/>
        <rect id="Rectangle_1055" data-name="Rectangle 1055" width="1.647" height="2.321" transform="translate(6.089 20.542)" fill="#c4d9ed"/>
        <rect id="Rectangle_1056" data-name="Rectangle 1056" width="1.647" height="2.321" transform="translate(8.944 20.542)" fill="#c4d9ed"/>
        <rect id="Rectangle_1057" data-name="Rectangle 1057" width="1.647" height="2.321" transform="translate(11.852 20.542)" fill="#c4d9ed"/>
        <rect id="Rectangle_1058" data-name="Rectangle 1058" width="1.647" height="2.321" transform="translate(14.795 20.542)" fill="#c4d9ed"/>
        <rect id="Rectangle_1059" data-name="Rectangle 1059" width="1.647" height="2.321" transform="translate(17.874 20.542)" fill="#c4d9ed"/>
        <rect id="Rectangle_1060" data-name="Rectangle 1060" width="1.647" height="2.321" transform="translate(20.884 20.542)" fill="#c4d9ed"/>
        <rect id="Rectangle_1061" data-name="Rectangle 1061" width="1.647" height="2.321" transform="translate(23.738 20.542)" fill="#c4d9ed"/>
        <rect id="Rectangle_1062" data-name="Rectangle 1062" width="1.647" height="2.321" transform="translate(26.647 20.542)" fill="#c4d9ed"/>
        <rect id="Rectangle_1063" data-name="Rectangle 1063" width="1.647" height="2.321" transform="translate(29.679 20.542)" fill="#c4d9ed"/>
        <rect id="Rectangle_1064" data-name="Rectangle 1064" width="1.647" height="2.321" transform="translate(32.758 20.542)" fill="#c4d9ed"/>
        <rect id="Rectangle_1065" data-name="Rectangle 1065" width="1.647" height="2.321" transform="translate(35.768 20.542)" fill="#c4d9ed"/>
        <rect id="Rectangle_1066" data-name="Rectangle 1066" width="1.647" height="2.321" transform="translate(38.622 20.542)" fill="#c4d9ed"/>
        <rect id="Rectangle_1067" data-name="Rectangle 1067" width="1.647" height="2.321" transform="translate(41.532 20.542)" fill="#c4d9ed"/>
        <rect id="Rectangle_1068" data-name="Rectangle 1068" width="1.647" height="2.321" transform="translate(44.474 20.542)" fill="#c4d9ed"/>
        <rect id="Rectangle_1069" data-name="Rectangle 1069" width="1.647" height="2.321" transform="translate(47.553 20.542)" fill="#c4d9ed"/>
        <rect id="Rectangle_1070" data-name="Rectangle 1070" width="1.647" height="2.321" transform="translate(50.563 20.542)" fill="#c4d9ed"/>
        <rect id="Rectangle_1071" data-name="Rectangle 1071" width="1.647" height="2.321" transform="translate(53.418 20.542)" fill="#c4d9ed"/>
        <rect id="Rectangle_1072" data-name="Rectangle 1072" width="1.647" height="2.321" transform="translate(56.327 20.542)" fill="#c4d9ed"/>
      </g>
      <rect id="Rectangle_1073" data-name="Rectangle 1073" width="38.165" height="20.589" transform="translate(120.31 190.374)" fill="#c4d9ed"/>
      <rect id="Rectangle_1074" data-name="Rectangle 1074" width="38.165" height="10.295" transform="translate(91.37 200.669)" fill="#c4d9ed"/>
      <rect id="Rectangle_1075" data-name="Rectangle 1075" width="38.165" height="17.381" transform="translate(161.535 193.582)" fill="#c4d9ed"/>
      <rect id="Rectangle_1076" data-name="Rectangle 1076" width="7.11" height="3.814" transform="translate(122.859 192.785)" fill="#d5e7f7"/>
      <rect id="Rectangle_1077" data-name="Rectangle 1077" width="7.11" height="3.814" transform="translate(131.987 192.785)" fill="#d5e7f7"/>
      <rect id="Rectangle_1078" data-name="Rectangle 1078" width="7.11" height="3.814" transform="translate(140.941 192.785)" fill="#d5e7f7"/>
      <rect id="Rectangle_1079" data-name="Rectangle 1079" width="7.11" height="3.814" transform="translate(149.723 192.785)" fill="#d5e7f7"/>
      <rect id="Rectangle_1080" data-name="Rectangle 1080" width="3.663" height="20.767" transform="translate(158.079 190.374)" fill="#adc9e0"/>
      <rect id="Rectangle_1081" data-name="Rectangle 1081" width="3.663" height="24.783" transform="translate(203.52 186.358)" fill="#adc9e0"/>
      <rect id="Rectangle_1082" data-name="Rectangle 1082" width="3.932" height="17.214" transform="translate(199.7 193.582)" fill="#adc9e0"/>
      <path id="Path_1618" data-name="Path 1618" d="M1899.074,1303.953c-.1.274-.349.433-.547.357a.478.478,0,0,1-.182-.631.742.742,0,1,1,.73.274Z" transform="translate(-1702.322 -1109.347)" fill="#dceaf9"/>
      <path id="Path_1619" data-name="Path 1619" d="M1877.14,1230.174c-.1.273-.35.433-.547.357a.479.479,0,0,1-.182-.63,8.36,8.36,0,0,1,.847-1.151A8.045,8.045,0,0,1,1877.14,1230.174Z" transform="translate(-1682.388 -1042.293)" fill="#dceaf9"/>
      <path id="Path_1620" data-name="Path 1620" d="M1793.008,1341.423c-.1.274-.349.433-.547.357a.478.478,0,0,1-.182-.631.742.742,0,1,1,.729.274Z" transform="translate(-1605.926 -1143.401)" fill="#dceaf9"/>
      <path id="Path_1621" data-name="Path 1621" d="M1868.363,1458.966s-.707,1.526.67,1.641a2.4,2.4,0,0,0,2.529-1.116s-1.711.706-1.45-.149a20.42,20.42,0,0,1,.93-2.232s-1.449,2.6-2.173,2.48C1868.546,1459.53,1868.363,1458.966,1868.363,1458.966Z" transform="translate(-1674.949 -1249.834)" fill="#ebf2f9"/>
      <rect id="Rectangle_1083" data-name="Rectangle 1083" width="0.199" height="1.612" transform="translate(102.69 153.635)" fill="#dceaf9"/>
      <rect id="Rectangle_1084" data-name="Rectangle 1084" width="0.199" height="1.612" transform="translate(109.818 153.635)" fill="#dceaf9"/>
      <rect id="Rectangle_1085" data-name="Rectangle 1085" width="21.006" height="24.498" transform="translate(182.627 186.298)" fill="#d5e7f7"/>
      <rect id="Rectangle_1086" data-name="Rectangle 1086" width="0.388" height="4.967" transform="translate(201.836 181.391)" fill="#d5e7f7"/>
      <rect id="Rectangle_1087" data-name="Rectangle 1087" width="26.205" height="17.623" transform="translate(182.627 193.173)" fill="#d5e7f7"/>
      <rect id="Rectangle_1088" data-name="Rectangle 1088" width="26.205" height="5.728" transform="translate(182.627 190.871)" fill="#c4d9ed"/>
      <rect id="Rectangle_1089" data-name="Rectangle 1089" width="1.346" height="1.897" transform="translate(184.411 198.297)" fill="#c4d9ed"/>
      <rect id="Rectangle_1090" data-name="Rectangle 1090" width="1.346" height="1.897" transform="translate(186.928 198.297)" fill="#c4d9ed"/>
      <rect id="Rectangle_1091" data-name="Rectangle 1091" width="1.346" height="1.897" transform="translate(189.388 198.297)" fill="#c4d9ed"/>
      <rect id="Rectangle_1092" data-name="Rectangle 1092" width="1.346" height="1.897" transform="translate(191.721 198.297)" fill="#c4d9ed"/>
      <rect id="Rectangle_1093" data-name="Rectangle 1093" width="1.346" height="1.897" transform="translate(194.099 198.297)" fill="#c4d9ed"/>
      <rect id="Rectangle_1094" data-name="Rectangle 1094" width="1.346" height="1.897" transform="translate(196.504 198.297)" fill="#c4d9ed"/>
      <rect id="Rectangle_1095" data-name="Rectangle 1095" width="1.346" height="1.897" transform="translate(199.02 198.297)" fill="#c4d9ed"/>
      <rect id="Rectangle_1096" data-name="Rectangle 1096" width="1.346" height="1.897" transform="translate(201.481 198.297)" fill="#c4d9ed"/>
      <rect id="Rectangle_1097" data-name="Rectangle 1097" width="1.346" height="1.897" transform="translate(203.814 198.297)" fill="#c4d9ed"/>
      <rect id="Rectangle_1098" data-name="Rectangle 1098" width="1.346" height="1.897" transform="translate(206.191 198.297)" fill="#c4d9ed"/>
      <rect id="Rectangle_1099" data-name="Rectangle 1099" width="1.346" height="1.897" transform="translate(184.411 201.644)" fill="#c4d9ed"/>
      <rect id="Rectangle_1100" data-name="Rectangle 1100" width="1.346" height="1.897" transform="translate(186.928 201.644)" fill="#c4d9ed"/>
      <rect id="Rectangle_1101" data-name="Rectangle 1101" width="1.346" height="1.897" transform="translate(189.388 201.644)" fill="#c4d9ed"/>
      <rect id="Rectangle_1102" data-name="Rectangle 1102" width="1.346" height="1.897" transform="translate(191.721 201.644)" fill="#c4d9ed"/>
      <rect id="Rectangle_1103" data-name="Rectangle 1103" width="1.346" height="1.897" transform="translate(194.099 201.644)" fill="#c4d9ed"/>
      <rect id="Rectangle_1104" data-name="Rectangle 1104" width="1.346" height="1.897" transform="translate(196.504 201.644)" fill="#c4d9ed"/>
      <rect id="Rectangle_1105" data-name="Rectangle 1105" width="1.346" height="1.897" transform="translate(199.02 201.644)" fill="#c4d9ed"/>
      <rect id="Rectangle_1106" data-name="Rectangle 1106" width="1.346" height="1.897" transform="translate(201.481 201.644)" fill="#c4d9ed"/>
      <rect id="Rectangle_1107" data-name="Rectangle 1107" width="1.346" height="1.897" transform="translate(203.814 201.644)" fill="#c4d9ed"/>
      <rect id="Rectangle_1108" data-name="Rectangle 1108" width="1.346" height="1.897" transform="translate(206.191 201.644)" fill="#c4d9ed"/>
      <rect id="Rectangle_1109" data-name="Rectangle 1109" width="1.346" height="1.897" transform="translate(184.411 204.94)" fill="#c4d9ed"/>
      <rect id="Rectangle_1110" data-name="Rectangle 1110" width="1.346" height="1.897" transform="translate(186.928 204.94)" fill="#c4d9ed"/>
      <rect id="Rectangle_1111" data-name="Rectangle 1111" width="1.346" height="1.897" transform="translate(189.388 204.94)" fill="#c4d9ed"/>
      <rect id="Rectangle_1112" data-name="Rectangle 1112" width="1.346" height="1.897" transform="translate(191.721 204.94)" fill="#c4d9ed"/>
      <rect id="Rectangle_1113" data-name="Rectangle 1113" width="1.346" height="1.897" transform="translate(194.099 204.94)" fill="#c4d9ed"/>
      <rect id="Rectangle_1114" data-name="Rectangle 1114" width="1.346" height="1.897" transform="translate(196.504 204.94)" fill="#c4d9ed"/>
      <rect id="Rectangle_1115" data-name="Rectangle 1115" width="1.346" height="1.897" transform="translate(199.02 204.94)" fill="#c4d9ed"/>
      <rect id="Rectangle_1116" data-name="Rectangle 1116" width="1.346" height="1.897" transform="translate(201.481 204.94)" fill="#c4d9ed"/>
      <rect id="Rectangle_1117" data-name="Rectangle 1117" width="1.346" height="1.897" transform="translate(203.814 204.94)" fill="#c4d9ed"/>
      <rect id="Rectangle_1118" data-name="Rectangle 1118" width="1.346" height="1.897" transform="translate(206.191 204.94)" fill="#c4d9ed"/>
      <rect id="Rectangle_1119" data-name="Rectangle 1119" width="1.131" height="1.957" transform="translate(184.626 192.48)" fill="#adc9e0"/>
      <rect id="Rectangle_1120" data-name="Rectangle 1120" width="1.131" height="1.957" transform="translate(195.854 192.48)" fill="#adc9e0"/>
      <rect id="Rectangle_1121" data-name="Rectangle 1121" width="1.131" height="1.957" transform="translate(204.786 192.48)" fill="#adc9e0"/>
      <rect id="Rectangle_1122" data-name="Rectangle 1122" width="26.205" height="17.623" transform="translate(72.39 193.173)" fill="#d5e7f7"/>
      <rect id="Rectangle_1123" data-name="Rectangle 1123" width="26.205" height="5.728" transform="translate(72.39 190.871)" fill="#c4d9ed"/>
      <rect id="Rectangle_1124" data-name="Rectangle 1124" width="1.346" height="1.897" transform="translate(74.174 198.297)" fill="#c4d9ed"/>
      <rect id="Rectangle_1125" data-name="Rectangle 1125" width="1.346" height="1.897" transform="translate(76.692 198.297)" fill="#c4d9ed"/>
      <rect id="Rectangle_1126" data-name="Rectangle 1126" width="1.346" height="1.897" transform="translate(79.152 198.297)" fill="#c4d9ed"/>
      <rect id="Rectangle_1127" data-name="Rectangle 1127" width="1.346" height="1.897" transform="translate(81.485 198.297)" fill="#c4d9ed"/>
      <rect id="Rectangle_1128" data-name="Rectangle 1128" width="1.346" height="1.897" transform="translate(83.862 198.297)" fill="#c4d9ed"/>
      <rect id="Rectangle_1129" data-name="Rectangle 1129" width="1.346" height="1.897" transform="translate(86.266 198.297)" fill="#c4d9ed"/>
      <rect id="Rectangle_1130" data-name="Rectangle 1130" width="1.346" height="1.897" transform="translate(88.784 198.297)" fill="#c4d9ed"/>
      <rect id="Rectangle_1131" data-name="Rectangle 1131" width="1.346" height="1.897" transform="translate(91.244 198.297)" fill="#c4d9ed"/>
      <rect id="Rectangle_1132" data-name="Rectangle 1132" width="1.346" height="1.897" transform="translate(93.577 198.297)" fill="#c4d9ed"/>
      <rect id="Rectangle_1133" data-name="Rectangle 1133" width="1.346" height="1.897" transform="translate(95.954 198.297)" fill="#c4d9ed"/>
      <rect id="Rectangle_1134" data-name="Rectangle 1134" width="1.346" height="1.897" transform="translate(74.174 201.644)" fill="#c4d9ed"/>
      <rect id="Rectangle_1135" data-name="Rectangle 1135" width="1.346" height="1.897" transform="translate(76.692 201.644)" fill="#c4d9ed"/>
      <rect id="Rectangle_1136" data-name="Rectangle 1136" width="1.346" height="1.897" transform="translate(79.152 201.644)" fill="#c4d9ed"/>
      <rect id="Rectangle_1137" data-name="Rectangle 1137" width="1.346" height="1.897" transform="translate(81.485 201.644)" fill="#c4d9ed"/>
      <rect id="Rectangle_1138" data-name="Rectangle 1138" width="1.346" height="1.897" transform="translate(83.862 201.644)" fill="#c4d9ed"/>
      <rect id="Rectangle_1139" data-name="Rectangle 1139" width="1.346" height="1.897" transform="translate(86.266 201.644)" fill="#c4d9ed"/>
      <rect id="Rectangle_1140" data-name="Rectangle 1140" width="1.346" height="1.897" transform="translate(88.784 201.644)" fill="#c4d9ed"/>
      <rect id="Rectangle_1141" data-name="Rectangle 1141" width="1.346" height="1.897" transform="translate(91.244 201.644)" fill="#c4d9ed"/>
      <rect id="Rectangle_1142" data-name="Rectangle 1142" width="1.346" height="1.897" transform="translate(93.577 201.644)" fill="#c4d9ed"/>
      <rect id="Rectangle_1143" data-name="Rectangle 1143" width="1.346" height="1.897" transform="translate(95.954 201.644)" fill="#c4d9ed"/>
      <rect id="Rectangle_1144" data-name="Rectangle 1144" width="1.346" height="1.897" transform="translate(74.174 204.94)" fill="#c4d9ed"/>
      <rect id="Rectangle_1145" data-name="Rectangle 1145" width="1.346" height="1.897" transform="translate(76.692 204.94)" fill="#c4d9ed"/>
      <rect id="Rectangle_1146" data-name="Rectangle 1146" width="1.346" height="1.897" transform="translate(79.152 204.94)" fill="#c4d9ed"/>
      <rect id="Rectangle_1147" data-name="Rectangle 1147" width="1.346" height="1.897" transform="translate(81.485 204.94)" fill="#c4d9ed"/>
      <rect id="Rectangle_1148" data-name="Rectangle 1148" width="1.346" height="1.897" transform="translate(83.862 204.94)" fill="#c4d9ed"/>
      <rect id="Rectangle_1149" data-name="Rectangle 1149" width="1.346" height="1.897" transform="translate(86.266 204.94)" fill="#c4d9ed"/>
      <rect id="Rectangle_1150" data-name="Rectangle 1150" width="1.346" height="1.897" transform="translate(88.784 204.94)" fill="#c4d9ed"/>
      <rect id="Rectangle_1151" data-name="Rectangle 1151" width="1.346" height="1.897" transform="translate(91.244 204.94)" fill="#c4d9ed"/>
      <rect id="Rectangle_1152" data-name="Rectangle 1152" width="1.346" height="1.897" transform="translate(93.577 204.94)" fill="#c4d9ed"/>
      <rect id="Rectangle_1153" data-name="Rectangle 1153" width="1.346" height="1.897" transform="translate(95.954 204.94)" fill="#c4d9ed"/>
      <rect id="Rectangle_1154" data-name="Rectangle 1154" width="1.131" height="1.957" transform="translate(74.39 192.48)" fill="#adc9e0"/>
      <rect id="Rectangle_1155" data-name="Rectangle 1155" width="1.131" height="1.957" transform="translate(85.617 192.48)" fill="#adc9e0"/>
      <rect id="Rectangle_1156" data-name="Rectangle 1156" width="1.131" height="1.957" transform="translate(94.548 192.48)" fill="#adc9e0"/>
      <path id="Path_1622" data-name="Path 1622" d="M263.4,1302.4v17.622h-23.03l-3.179-3.442V1302.4Z" transform="translate(-192.655 -1109.229)" fill="#d5e7f7"/>
      <rect id="Rectangle_1157" data-name="Rectangle 1157" width="26.205" height="5.728" transform="translate(44.54 190.871)" fill="#c4d9ed"/>
      <rect id="Rectangle_1158" data-name="Rectangle 1158" width="1.346" height="1.897" transform="translate(46.324 198.297)" fill="#c4d9ed"/>
      <rect id="Rectangle_1159" data-name="Rectangle 1159" width="1.346" height="1.897" transform="translate(48.841 198.297)" fill="#c4d9ed"/>
      <rect id="Rectangle_1160" data-name="Rectangle 1160" width="1.346" height="1.897" transform="translate(51.301 198.297)" fill="#c4d9ed"/>
      <rect id="Rectangle_1161" data-name="Rectangle 1161" width="1.346" height="1.897" transform="translate(53.634 198.297)" fill="#c4d9ed"/>
      <rect id="Rectangle_1162" data-name="Rectangle 1162" width="1.346" height="1.897" transform="translate(56.012 198.297)" fill="#c4d9ed"/>
      <rect id="Rectangle_1163" data-name="Rectangle 1163" width="1.346" height="1.897" transform="translate(58.417 198.297)" fill="#c4d9ed"/>
      <rect id="Rectangle_1164" data-name="Rectangle 1164" width="1.346" height="1.897" transform="translate(60.933 198.297)" fill="#c4d9ed"/>
      <rect id="Rectangle_1165" data-name="Rectangle 1165" width="1.346" height="1.897" transform="translate(63.394 198.297)" fill="#c4d9ed"/>
      <rect id="Rectangle_1166" data-name="Rectangle 1166" width="1.346" height="1.897" transform="translate(65.727 198.297)" fill="#c4d9ed"/>
      <rect id="Rectangle_1167" data-name="Rectangle 1167" width="1.346" height="1.897" transform="translate(68.103 198.297)" fill="#c4d9ed"/>
      <rect id="Rectangle_1168" data-name="Rectangle 1168" width="1.346" height="1.897" transform="translate(46.324 201.644)" fill="#c4d9ed"/>
      <rect id="Rectangle_1169" data-name="Rectangle 1169" width="1.346" height="1.897" transform="translate(48.841 201.644)" fill="#c4d9ed"/>
      <rect id="Rectangle_1170" data-name="Rectangle 1170" width="1.346" height="1.897" transform="translate(51.301 201.644)" fill="#c4d9ed"/>
      <rect id="Rectangle_1171" data-name="Rectangle 1171" width="1.346" height="1.897" transform="translate(53.634 201.644)" fill="#c4d9ed"/>
      <rect id="Rectangle_1172" data-name="Rectangle 1172" width="1.346" height="1.897" transform="translate(56.012 201.644)" fill="#c4d9ed"/>
      <rect id="Rectangle_1173" data-name="Rectangle 1173" width="1.346" height="1.897" transform="translate(58.417 201.644)" fill="#c4d9ed"/>
      <rect id="Rectangle_1174" data-name="Rectangle 1174" width="1.346" height="1.897" transform="translate(60.933 201.644)" fill="#c4d9ed"/>
      <rect id="Rectangle_1175" data-name="Rectangle 1175" width="1.346" height="1.897" transform="translate(63.394 201.644)" fill="#c4d9ed"/>
      <rect id="Rectangle_1176" data-name="Rectangle 1176" width="1.346" height="1.897" transform="translate(65.727 201.644)" fill="#c4d9ed"/>
      <rect id="Rectangle_1177" data-name="Rectangle 1177" width="1.346" height="1.897" transform="translate(68.103 201.644)" fill="#c4d9ed"/>
      <rect id="Rectangle_1178" data-name="Rectangle 1178" width="1.346" height="1.897" transform="translate(46.324 204.94)" fill="#c4d9ed"/>
      <rect id="Rectangle_1179" data-name="Rectangle 1179" width="1.346" height="1.897" transform="translate(48.841 204.94)" fill="#c4d9ed"/>
      <rect id="Rectangle_1180" data-name="Rectangle 1180" width="1.346" height="1.897" transform="translate(51.301 204.94)" fill="#c4d9ed"/>
      <rect id="Rectangle_1181" data-name="Rectangle 1181" width="1.346" height="1.897" transform="translate(53.634 204.94)" fill="#c4d9ed"/>
      <rect id="Rectangle_1182" data-name="Rectangle 1182" width="1.346" height="1.897" transform="translate(56.012 204.94)" fill="#c4d9ed"/>
      <rect id="Rectangle_1183" data-name="Rectangle 1183" width="1.346" height="1.897" transform="translate(58.417 204.94)" fill="#c4d9ed"/>
      <rect id="Rectangle_1184" data-name="Rectangle 1184" width="1.346" height="1.897" transform="translate(60.933 204.94)" fill="#c4d9ed"/>
      <rect id="Rectangle_1185" data-name="Rectangle 1185" width="1.346" height="1.897" transform="translate(63.394 204.94)" fill="#c4d9ed"/>
      <rect id="Rectangle_1186" data-name="Rectangle 1186" width="1.346" height="1.897" transform="translate(65.727 204.94)" fill="#c4d9ed"/>
      <rect id="Rectangle_1187" data-name="Rectangle 1187" width="1.346" height="1.897" transform="translate(68.103 204.94)" fill="#c4d9ed"/>
      <rect id="Rectangle_1188" data-name="Rectangle 1188" width="1.131" height="1.957" transform="translate(46.539 192.48)" fill="#adc9e0"/>
      <rect id="Rectangle_1189" data-name="Rectangle 1189" width="1.131" height="1.957" transform="translate(57.767 192.48)" fill="#adc9e0"/>
      <rect id="Rectangle_1190" data-name="Rectangle 1190" width="1.131" height="1.957" transform="translate(66.699 192.48)" fill="#adc9e0"/>
      <path id="Path_1623" data-name="Path 1623" d="M206.075,1302.355v11.023a17.355,17.355,0,0,1-1.245-6.61c0-.109,0-.23.011-.349,0-.208.011-.427.011-.638l.033-.557c.055-.677.131-1.355.241-2.032,0-.023.011-.043.011-.066a3.331,3.331,0,0,0,.055-.35,4.225,4.225,0,0,1,.091-.426Z" transform="translate(-163.245 -1109.184)" fill="#d5e7f7"/>
      <path id="Path_1624" data-name="Path 1624" d="M206.294,1277.056v5.733H205.07l.033-.557c.055-.677.131-1.355.241-2.032,0-.023.011-.044.011-.066a3.359,3.359,0,0,0,.055-.35,4.219,4.219,0,0,1,.091-.426c.1-.5.219-1,.35-1.518a3.492,3.492,0,0,1,.091-.365c.044-.142.077-.284.131-.426Z" transform="translate(-163.463 -1086.19)" fill="#c4d9ed"/>
      <path id="Path_1625" data-name="Path 1625" d="M1640.29,1190.721q-.159.934-.338,1.844c-.028.138-.053.273-.082.412l-.015.076q-.113.554-.234,1.094-.216.978-.448,1.914c-.028.115-.058.231-.086.345-.415,1.641-.864,3.191-1.326,4.629-.077.24-.155.478-.232.712-.209.633-.42,1.244-.629,1.832q-.226.629-.449,1.221c-.8,2.12-1.566,3.883-2.188,5.211-.579,1.24-1.078,2.279-1.329,2.8H1514.3v-24.725c9.043.695,21.055-6.929,29.813-2.247,9.917,5.3,35.767,18.577,52.257,8.98C1610.653,1186.5,1630.934,1186.866,1640.29,1190.721Z" transform="translate(-1353.458 -1001.845)" fill="#c4d9ed" opacity="0.4"/>
      <path id="Path_1641" data-name="Path 1641" d="M.34.727A.34.34,0,0,1,0,.387Z" transform="translate(32.903 210.577)" fill="#2e3552"/>
      <path id="Path_1626" data-name="Path 1626" d="M2593.077,1400.668h-8.419c-.451-.383.312-1.252,1.11-1.311a4.951,4.951,0,0,1,1.285.152c.116-1.539.777-8.458,3.271-8.18,2.8.312,0,3.047-.792,4.667a38.418,38.418,0,0,0-1.49,3.731c.228.049.463.1.7.142.372-1.141,1.755-4.979,3.514-4.756,2.065.261,1.235,1.8-.229,2.714-1.074.672-2.392,1.628-3.018,2.089a8.922,8.922,0,0,0,1.646.132A3.546,3.546,0,0,1,2593.077,1400.668Z" transform="translate(-2325.981 -1190.043)" fill="#a8d29f"/>
      <path id="Path_1627" data-name="Path 1627" d="M348.44,1417.167c-.4-.621-1.585-2.234-3.171-2.021-1.727.233,1.907,1.368,3.02,2.025a1.836,1.836,0,0,1-.615-.072,4.146,4.146,0,0,0-2.425.422h7.082a1.126,1.126,0,0,0-.507-.648,1.277,1.277,0,0,0-.652-.057c.421-.5.714-2.083-.456-1.675-.856.3-.854,1.267-.77,1.84-.182.028-.365.057-.547.084-.353-1.8-1.6-7.064-4.127-7.2-2.563-.142,2.173,5.462,3.75,7.254C348.815,1417.136,348.62,1417.154,348.44,1417.167Z" transform="translate(-290.206 -1206.892)" fill="#a8d29f"/>
      <path id="Path_1631" data-name="Path 1631" d="M806.81,1347.224s2.41-7.188,9.317-8.576,12.013,4.021,18.163,1.915,15.844-13.256,27.38-5.106,10.781,10.469,18.058,8.57,8.941,3.2,8.941,3.2Z" transform="translate(-710.342 -1136.09)" fill="#a8d29f"/>
      <path id="Path_1632" data-name="Path 1632" d="M804.564,1378.718s-5.034-5.278-7.606-3.863S804.564,1378.718,804.564,1378.718Z" transform="translate(-701.01 -1174.859)" fill="#a8d29f"/>
      <path id="Path_1633" data-name="Path 1633" d="M811.309,1424.625s-4.64-1.514-5.8-.757S811.309,1424.625,811.309,1424.625Z" transform="translate(-709.04 -1219.43)" fill="#a8d29f"/>
      <path id="Path_1634" data-name="Path 1634" d="M1032.39,1369.077s3.191-7.155,4.3-5.853S1032.39,1369.077,1032.39,1369.077Z" transform="translate(-915.356 -1164.364)" fill="#a8d29f"/>
      <path id="Path_1635" data-name="Path 1635" d="M1010.105,1374.528s1.3-5.239-.651-4.913S1010.105,1374.528,1010.105,1374.528Z" transform="translate(-893.852 -1170.302)" fill="#a8d29f"/>
      <path id="Path_1637" data-name="Path 1637" d="M1974.38,1431.989s9.159-2.309,11.743-5.1,4.818.372,3.143,2.14S1974.38,1431.989,1974.38,1431.989Z" transform="translate(-1771.465 -1221.364)" fill="#edf4ff"/>
      <path id="Path_1638" data-name="Path 1638" d="M2239.613,1414.319h-12.837a.576.576,0,0,1-.575-.574h0a.578.578,0,0,1,.575-.576h12.837a.577.577,0,0,1,.574.576h0A.575.575,0,0,1,2239.613,1414.319Z" transform="translate(-2000.326 -1209.9)" fill="#edf4ff"/>
      <path id="Path_1639" data-name="Path 1639" d="M2233.495,1391.4h-6.981a.315.315,0,0,1-.314-.313h0a.314.314,0,0,1,.314-.313h6.981a.314.314,0,0,1,.313.313h0A.314.314,0,0,1,2233.495,1391.4Z" transform="translate(-2000.326 -1189.542)" fill="#edf4ff"/>
    </g>
    <path id="Path_1628" data-name="Path 1628" d="M600.94,904.68A12.94,12.94,0,0,0,588,917.625c0,7.147,12.944,23.037,12.944,23.037a114.484,114.484,0,0,0,9.7-14.109c1.86-3.333,3.242-6.595,3.242-8.926A12.947,12.947,0,0,0,600.94,904.68Zm0,18.856a6.1,6.1,0,1,1,1.318-.154,5.592,5.592,0,0,1-1.318.151Z" transform="translate(-487.976 -731.116)" fill="#f9648f"/>
    <path id="Path_1636" data-name="Path 1636" d="M570.577,544c-.007-.019-.149-.481-.457-1.322a.228.228,0,1,0-.427.157c.3.828.447,1.294.449,1.3a.228.228,0,0,0,.218.161.225.225,0,0,0,.067-.01A.23.23,0,0,0,570.577,544Zm-.95-2.615c-.163-.416-.341-.846-.52-1.28a.229.229,0,0,0-.421.177c.18.427.354.853.516,1.27a.231.231,0,0,0,.213.146.22.22,0,0,0,.085-.017A.228.228,0,0,0,569.627,541.381Zm-1.065-2.545c-.183-.413-.374-.835-.568-1.255a.229.229,0,0,0-.415.193c.193.416.383.837.565,1.247a.227.227,0,0,0,.208.137.238.238,0,0,0,.093-.019.229.229,0,0,0,.117-.3Zm-1.157-2.5c-.2-.409-.4-.823-.611-1.233a.229.229,0,1,0-.408.206c.206.407.41.82.607,1.227a.228.228,0,0,0,.206.129.235.235,0,0,0,.1-.023.229.229,0,0,0,.1-.305Zm-1.241-2.456c-.212-.4-.432-.811-.651-1.213a.229.229,0,0,0-.4.219c.218.4.437.8.647,1.206a.229.229,0,1,0,.4-.213Zm-1.321-2.414c-.225-.4-.456-.8-.689-1.195a.229.229,0,0,0-.394.232c.231.392.462.79.683,1.184a.228.228,0,0,0,.4-.222Zm-140.784-2.315a.228.228,0,0,0-.318.055c-.263.372-.528.752-.786,1.127a.228.228,0,1,0,.376.259c.256-.375.52-.752.782-1.122a.228.228,0,0,0-.054-.318Zm139.386-.055c-.239-.392-.483-.784-.726-1.167a.228.228,0,1,0-.386.244c.241.381.484.768.723,1.161a.226.226,0,0,0,.194.109.232.232,0,0,0,.119-.033.228.228,0,0,0,.077-.314ZM425.68,526.938a.229.229,0,0,0-.319.046c-.276.366-.55.738-.818,1.1a.229.229,0,1,0,.369.27c.265-.365.54-.735.813-1.1A.229.229,0,0,0,425.68,526.938Zm136.295-.171c-.251-.382-.512-.768-.768-1.143a.229.229,0,0,0-.378.256c.256.375.512.758.758,1.139a.231.231,0,0,0,.192.1.234.234,0,0,0,.125-.038.231.231,0,0,0,.07-.314Zm-134.611-1.991a.228.228,0,0,0-.321.035c-.284.356-.57.719-.853,1.08a.229.229,0,0,0,.04.321.233.233,0,0,0,.14.048.23.23,0,0,0,.181-.085c.279-.36.563-.722.846-1.076a.228.228,0,0,0-.032-.323Zm133.064-.28c-.262-.373-.531-.749-.8-1.118a.229.229,0,1,0-.37.269c.266.366.534.74.8,1.109a.23.23,0,0,0,.188.1.223.223,0,0,0,.131-.041A.229.229,0,0,0,560.429,524.5Zm-131.314-1.833a.23.23,0,0,0-.323.026c-.293.346-.59.7-.881,1.055a.228.228,0,1,0,.352.288c.289-.351.584-.7.876-1.049a.227.227,0,0,0-.029-.321Zm129.7-.39c-.275-.365-.556-.732-.837-1.091a.229.229,0,1,0-.36.281c.279.357.558.723.833,1.085a.228.228,0,0,0,.182.091.225.225,0,0,0,.137-.047.228.228,0,0,0,.042-.319ZM430.923,520.6a.229.229,0,0,0-.323.017c-.306.341-.613.683-.914,1.024a.228.228,0,0,0,.022.322.223.223,0,0,0,.149.057.227.227,0,0,0,.171-.079c.3-.341.6-.683.91-1.024A.229.229,0,0,0,430.923,520.6Zm126.194-.5c-.287-.357-.58-.714-.873-1.063a.228.228,0,0,0-.35.293c.29.348.582.7.867,1.057a.231.231,0,0,0,.178.085.223.223,0,0,0,.143-.051.227.227,0,0,0,.037-.321ZM432.8,518.6a.228.228,0,0,0-.323.007c-.318.329-.637.666-.944,1a.229.229,0,0,0,.171.385.225.225,0,0,0,.166-.073c.308-.329.625-.664.939-.993a.227.227,0,0,0-.009-.323Zm122.561-.61c-.3-.346-.6-.694-.908-1.032a.229.229,0,0,0-.341.306c.3.337.606.683.9,1.024a.23.23,0,0,0,.171.079.225.225,0,0,0,.148-.055A.228.228,0,0,0,555.357,517.995Zm-120.625-1.33a.227.227,0,0,0-.322,0c-.324.316-.654.642-.976.968a.229.229,0,0,0,.324.322c.321-.324.648-.648.971-.963a.227.227,0,0,0,0-.326Zm118.791-.718c-.312-.336-.63-.672-.944-1a.229.229,0,0,0-.33.315c.313.325.628.66.939.994a.229.229,0,0,0,.335-.31ZM436.73,514.787a.23.23,0,0,0-.323-.015c-.335.307-.675.621-1.006.938a.228.228,0,1,0,.313.332c.331-.312.667-.625,1-.931a.229.229,0,0,0,.014-.325Zm114.889-.823c-.323-.325-.652-.649-.979-.966a.229.229,0,0,0-.318.328c.325.316.653.638.973.961a.23.23,0,0,0,.162.066.225.225,0,0,0,.161-.066A.229.229,0,0,0,551.619,513.964Zm-112.831-.987a.23.23,0,0,0-.323-.025c-.346.3-.694.6-1.037.9a.229.229,0,0,0,.3.341c.341-.3.688-.6,1.031-.9A.229.229,0,0,0,438.787,512.977Zm2.116-1.742a.229.229,0,0,0-.321-.036c-.356.284-.714.577-1.066.868a.228.228,0,1,0,.291.351c.349-.289.706-.579,1.06-.862a.229.229,0,0,0,.036-.322Zm108.74.815c-.333-.312-.674-.625-1.012-.93a.229.229,0,0,0-.306.341c.336.3.676.613,1.007.923a.229.229,0,0,0,.156.061.224.224,0,0,0,.171-.073.227.227,0,0,0-.015-.323Zm-106.563-2.484a.229.229,0,0,0-.32-.046c-.363.27-.732.55-1.095.831a.229.229,0,0,0,.28.361c.36-.278.726-.555,1.088-.826a.229.229,0,0,0,.047-.32Zm104.522.643c-.341-.3-.7-.6-1.046-.892a.229.229,0,1,0-.294.351c.348.291.7.589,1.04.886a.228.228,0,1,0,.3-.345Zm-102.3-2.237a.228.228,0,0,0-.317-.056c-.375.256-.752.526-1.123.793a.229.229,0,0,0,.266.371c.37-.266.745-.531,1.117-.789A.23.23,0,0,0,445.306,507.973Zm100.187.474c-.358-.288-.72-.574-1.079-.853a.229.229,0,1,0-.28.361c.357.276.718.561,1.073.847a.229.229,0,0,0,.286-.357Zm-97.9-1.992a.228.228,0,0,0-.316-.069c-.383.248-.768.5-1.149.755a.228.228,0,0,0-.062.316.225.225,0,0,0,.19.1.221.221,0,0,0,.125-.039c.378-.256.761-.5,1.142-.749A.229.229,0,0,0,447.588,506.456Zm95.733.308c-.367-.274-.741-.546-1.109-.81a.229.229,0,1,0-.265.372c.367.262.739.532,1.1.8a.231.231,0,0,0,.137.044.228.228,0,0,0,.137-.411Zm-93.4-1.747a.229.229,0,0,0-.313-.079c-.391.234-.786.474-1.173.714a.229.229,0,1,0,.24.389c.387-.24.779-.479,1.168-.71A.229.229,0,0,0,449.92,505.017Zm91.162.148c-.377-.256-.761-.516-1.142-.768a.229.229,0,1,0-.251.382c.377.248.759.5,1.134.761a.224.224,0,0,0,.129.04.226.226,0,0,0,.188-.1A.229.229,0,0,0,541.082,505.165ZM452.3,503.66a.229.229,0,0,0-.311-.09c-.4.22-.8.447-1.195.673a.229.229,0,0,0,.227.4c.393-.225.794-.451,1.195-.67A.229.229,0,0,0,452.3,503.66Zm86.484-.005c-.384-.242-.777-.485-1.171-.722a.228.228,0,1,0-.236.391c.39.235.781.477,1.162.718a.236.236,0,0,0,.121.034.228.228,0,0,0,.123-.421Zm-84.059-1.27a.23.23,0,0,0-.307-.1c-.406.207-.816.42-1.22.632a.229.229,0,1,0,.214.4c.4-.212.809-.427,1.213-.629a.229.229,0,0,0,.1-.307Zm81.7-.15c-.4-.23-.8-.456-1.195-.676a.229.229,0,1,0-.22.4c.4.218.8.444,1.189.671a.228.228,0,0,0,.227-.4ZM457.2,501.2a.23.23,0,0,0-.3-.111c-.412.192-.829.391-1.241.59a.229.229,0,0,0,.1.434.231.231,0,0,0,.1-.024c.409-.2.824-.4,1.234-.585A.23.23,0,0,0,457.2,501.2Zm76.828-.287c-.4-.213-.816-.427-1.223-.628a.229.229,0,0,0-.2.409c.4.2.813.412,1.215.623a.219.219,0,0,0,.107.026.228.228,0,0,0,.106-.427ZM459.7,500.09a.228.228,0,0,0-.3-.12c-.419.177-.843.362-1.26.547a.228.228,0,0,0,.093.437.232.232,0,0,0,.092-.019c.416-.185.837-.369,1.254-.544A.229.229,0,0,0,459.7,500.09Zm71.861-.413c-.41-.2-.83-.391-1.246-.578a.228.228,0,0,0-.189.416c.413.187.829.38,1.238.575a.243.243,0,0,0,.1.022.229.229,0,0,0,.1-.435Zm-69.321-.608a.23.23,0,0,0-.3-.131c-.427.165-.853.334-1.28.505a.229.229,0,0,0,.085.44.217.217,0,0,0,.085-.017c.421-.171.848-.341,1.271-.5a.228.228,0,0,0,.136-.3Zm66.818-.525c-.419-.18-.846-.358-1.268-.531a.23.23,0,0,0-.171.427c.419.171.843.348,1.259.526a.223.223,0,0,0,.085.018.228.228,0,0,0,.091-.437Zm-64.242-.41a.228.228,0,0,0-.292-.141c-.427.149-.865.3-1.294.462a.229.229,0,0,0,.157.427c.427-.156.858-.311,1.288-.46a.229.229,0,0,0,.144-.288Zm2.6-.853a.228.228,0,0,0-.286-.15c-.438.137-.878.278-1.308.42a.229.229,0,0,0,.071.445.218.218,0,0,0,.073-.012c.427-.141.866-.282,1.3-.416a.23.23,0,0,0,.153-.285Zm59.093.226c-.427-.162-.853-.324-1.288-.48a.229.229,0,0,0-.156.427c.427.155.859.317,1.28.478a.23.23,0,1,0,.171-.427Zm-56.462-.993a.228.228,0,0,0-.282-.159c-.44.122-.884.249-1.32.377a.229.229,0,0,0,.064.448.216.216,0,0,0,.065-.009c.433-.128.875-.256,1.314-.375a.228.228,0,0,0,.162-.28Zm53.879.058c-.432-.148-.871-.292-1.306-.427a.229.229,0,1,0-.139.435c.432.138.869.282,1.3.427a.217.217,0,0,0,.073.013.229.229,0,0,0,.074-.445Zm-51.225-.741a.23.23,0,0,0-.276-.171c-.444.108-.892.222-1.332.335a.229.229,0,0,0,.058.45.222.222,0,0,0,.057-.007c.438-.114.884-.226,1.325-.334a.23.23,0,0,0,.171-.272Zm48.606-.1c-.436-.131-.88-.256-1.32-.381a.229.229,0,0,0-.123.441c.438.121.879.248,1.312.378a.245.245,0,0,0,.066.01.229.229,0,0,0,.065-.448Zm-45.934-.506a.228.228,0,0,0-.27-.177l-.629.136c-.238.052-.476.1-.712.159a.229.229,0,0,0,.05.451.267.267,0,0,0,.051-.005c.235-.055.471-.107.709-.159l.625-.136a.228.228,0,0,0,.179-.269Zm43.287-.23c-.439-.114-.888-.226-1.334-.332a.229.229,0,1,0-.107.445c.442.106.888.216,1.326.329a.215.215,0,0,0,.057.008.229.229,0,0,0,.057-.45Zm-40.6-.309a.228.228,0,0,0-.267-.181c-.445.085-.9.171-1.347.265a.229.229,0,0,0,.045.453.266.266,0,0,0,.045-.005c.448-.09.9-.18,1.342-.265a.229.229,0,0,0,.182-.268Zm37.927-.328c-.445-.1-.9-.192-1.346-.282a.226.226,0,0,0-.268.178.229.229,0,0,0,.178.27c.445.085.9.184,1.337.281a.237.237,0,0,0,.049.005.229.229,0,0,0,.049-.451Zm-35.229-.152a.228.228,0,0,0-.263-.188c-.449.076-.9.155-1.353.235a.229.229,0,0,0,.04.454.22.22,0,0,0,.041,0c.448-.08.9-.159,1.348-.235a.229.229,0,0,0,.19-.263Zm32.541-.39c-.449-.081-.9-.16-1.354-.235a.229.229,0,1,0-.074.451c.448.073.9.152,1.346.233a.167.167,0,0,0,.041,0,.229.229,0,0,0,.041-.454Zm-29.827-.031a.228.228,0,0,0-.256-.193c-.451.065-.907.135-1.357.2a.229.229,0,0,0,.035.454h.037c.448-.07.9-.139,1.352-.2a.228.228,0,0,0,.189-.262Zm2.718-.354a.23.23,0,0,0-.256-.2c-.45.055-.908.113-1.365.171a.229.229,0,0,0,.029.456h.03c.453-.061.91-.119,1.358-.171a.229.229,0,0,0,.2-.255Zm24.4-.061c-.45-.066-.908-.129-1.365-.188a.229.229,0,1,0-.058.454c.451.057.906.12,1.353.186h.032a.229.229,0,0,0,.034-.455Zm-21.921-.433c-.453.044-.913.09-1.365.138a.229.229,0,0,0,.025.456h.025c.452-.049.91-.095,1.36-.137a.229.229,0,0,0-.043-.455Zm19.2.081c-.455-.051-.914-.1-1.365-.142a.228.228,0,0,0-.044.454c.451.044.908.091,1.359.142h.026a.229.229,0,0,0,.026-.456Zm-16.46-.3c-.453.031-.914.065-1.365.1a.228.228,0,1,0,.018.456h.02c.454-.037.912-.072,1.365-.1a.228.228,0,0,0-.031-.455Zm13.725.043c-.452-.037-.913-.069-1.371-.1a.226.226,0,0,0-.242.212.229.229,0,0,0,.213.243c.455.028.914.061,1.365.1h.018a.229.229,0,0,0,.019-.456Zm-10.982-.194c-.452.019-.915.041-1.372.066a.229.229,0,1,0,.012.457h.013c.457-.025.916-.047,1.365-.065a.229.229,0,0,0-.019-.457Zm8.24.021c-.454-.022-.915-.04-1.373-.055a.229.229,0,1,0-.014.456c.455.014.915.033,1.365.054h.011a.228.228,0,0,0,.011-.456Zm-5.491-.094h0c-.453.005-.915.015-1.373.027a.229.229,0,0,0,.005.456h.007c.456-.013.916-.022,1.365-.027a.229.229,0,0,0,0-.456Zm2.744.005c-.455-.008-.917-.012-1.373-.013h0a.229.229,0,1,0,0,.456c.454,0,.914.006,1.365.013h0a.229.229,0,0,0,0-.456Z" transform="translate(-295.105 -354.091)" fill="#f9648f"/>
    <path id="Path_1640" data-name="Path 1640" d="M610.643,957.567a114.477,114.477,0,0,1-9.7,14.109S588,955.788,588,948.641a12.933,12.933,0,0,1,4.778-10.051,32.225,32.225,0,0,0,2.566,7.607,6.041,6.041,0,0,0,5.593,8.353,5.6,5.6,0,0,0,1.318-.154A19.654,19.654,0,0,0,610.643,957.567Z" transform="translate(-487.976 -762.133)" fill="#f84b76"/>
    <path id="Icon_metro-home" data-name="Icon metro-home" d="M20.5,12.655,11.533,5.7,2.571,12.655V9.818l8.962-6.957L20.5,9.818ZM18.255,12.4v6.722H13.774V14.642H9.293v4.481H4.811V12.4L11.533,7.36Z" transform="translate(264.794 190.659)" fill="#f9648f"/>
  </g>
</svg>
