<?xml version="1.0" encoding="iso-8859-1"?>
<!-- Generator: Adobe Illustrator 19.0.0, SVG Export Plug-In . SVG Version: 6.00 Build 0)  -->
<svg version="1.1" id="Capa_1" xmlns="http://www.w3.org/2000/svg" xmlns:xlink="http://www.w3.org/1999/xlink" x="0px" y="0px"
	 viewBox="0 0 512 512" style="enable-background:new 0 0 512 512;" xml:space="preserve">
<g>
	<g>
		<path d="M255.984,0c-35.296,0-64,28.704-64,64s28.704,64,64,64s64-28.704,64-64S291.28,0,255.984,0z M255.984,96
			c-17.632,0-32-14.368-32-32s14.368-32,32-32s32,14.368,32,32S273.616,96,255.984,96z"/>
	</g>
</g>
<g>
	<g>
		<path d="M351.92,334.4l-14.56-145.568C335.696,172.384,322,160,305.488,160H206.48c-16.512,0-30.208,12.384-31.84,28.8
			l-14.56,145.6c-0.448,4.512,1.024,8.992,4.064,12.32c3.008,3.36,7.328,5.28,11.84,5.28h17.504l13.12,131.168
			C208.272,499.616,221.968,512,238.48,512h35.04c16.512,0,30.208-12.384,31.84-28.8L318.48,352h17.504
			c4.512,0,8.832-1.92,11.872-5.28C350.896,343.392,352.368,338.88,351.92,334.4z M303.984,320c-8.224,0-15.104,6.24-15.936,14.4
			L273.488,480H238.48l-14.56-145.6c-0.832-8.16-7.712-14.4-15.936-14.4H193.68l12.8-128h99.04l12.8,128H303.984z"/>
	</g>
</g>
<g>
</g>
<g>
</g>
<g>
</g>
<g>
</g>
<g>
</g>
<g>
</g>
<g>
</g>
<g>
</g>
<g>
</g>
<g>
</g>
<g>
</g>
<g>
</g>
<g>
</g>
<g>
</g>
<g>
</g>
</svg>
