<svg id="Capa_1" enable-background="new 0 0 512 512" height="512" viewBox="0 0 512 512" width="512" xmlns="http://www.w3.org/2000/svg"><g><path d="m99.102 426.467h-76.602c-4.135 0-7.5-3.364-7.5-7.5v-392.997c0-4.136 3.365-7.5 7.5-7.5h135.139v105.287c0 5.21 2.844 9.991 7.421 12.479 4.579 2.489 10.137 2.273 14.508-.563l45.28-29.367 45.279 29.368c2.346 1.521 5.033 2.288 7.727 2.288 2.327 0 4.659-.572 6.781-1.726 4.577-2.487 7.421-7.269 7.421-12.479v-105.287h135.139c4.136 0 7.5 3.364 7.5 7.5v58.895c0 4.143 3.357 7.5 7.5 7.5s7.5-3.357 7.5-7.5v-58.895c0-12.406-10.094-22.5-22.5-22.5h-404.695c-12.407 0-22.5 10.094-22.5 22.5v392.997c0 12.406 10.093 22.5 22.5 22.5h76.602c4.142 0 7.5-3.357 7.5-7.5s-3.358-7.5-7.5-7.5zm177.955-304.179-44.481-28.851c-4.694-3.043-10.76-3.043-15.455.001l-44.481 28.85v-103.818h104.418v103.818z"/><path d="m65.404 326.544c-6.893 0-12.5 5.607-12.5 12.5v41.617c0 6.893 5.607 12.5 12.5 12.5h100.083c6.893 0 12.5-5.607 12.5-12.5v-41.617c0-6.893-5.607-12.5-12.5-12.5zm97.583 51.617h-95.083v-36.617h95.083z"/><path d="m449.695 242.702v-125.15c0-4.143-3.357-7.5-7.5-7.5s-7.5 3.357-7.5 7.5v115.899c-20.534-11.015-43.985-17.274-68.872-17.274-80.603 0-146.177 65.574-146.177 146.177 0 22.985 5.34 44.744 14.833 64.113h-102.69c-4.142 0-7.5 3.357-7.5 7.5s3.358 7.5 7.5 7.5h110.521c.212 0 .421-.014.628-.032 26.049 40.337 71.399 67.095 122.885 67.095 80.603 0 146.177-65.574 146.177-146.177 0-49.418-24.655-93.181-62.305-119.651zm-83.872 250.828c-72.331 0-131.177-58.846-131.177-131.177s58.846-131.177 131.177-131.177 131.177 58.846 131.177 131.177c0 72.332-58.846 131.177-131.177 131.177z"/><path d="m365.823 249.538c-62.207 0-112.815 50.608-112.815 112.815s50.608 112.815 112.815 112.815c21.438 0 42.298-6.039 60.322-17.465 3.498-2.218 4.536-6.852 2.319-10.351-2.219-3.499-6.85-4.535-10.351-2.319-15.619 9.901-33.701 15.135-52.291 15.135-53.936 0-97.815-43.88-97.815-97.815s43.88-97.815 97.815-97.815c53.936 0 97.815 43.88 97.815 97.815 0 22.851-8.045 45.083-22.653 62.603-2.652 3.181-2.224 7.91.958 10.563 3.183 2.652 7.911 2.224 10.563-.958 16.852-20.21 26.132-45.853 26.132-72.208.002-62.206-50.607-112.815-112.814-112.815z"/><path d="m387.636 319.06-37.624 37.622-8.053-8.053c-9.671-9.669-25.404-9.667-35.073 0-4.684 4.685-7.264 10.913-7.264 17.537 0 6.625 2.58 12.854 7.264 17.537l18.598 18.598c6.543 6.544 15.254 10.148 24.528 10.148 9.273 0 17.984-3.603 24.528-10.147l48.168-48.168c4.684-4.685 7.264-10.913 7.264-17.537 0-6.625-2.58-12.853-7.264-17.536-4.684-4.684-10.912-7.265-17.537-7.265-6.624.001-12.853 2.581-17.535 7.264zm27.336 17.538c0 2.617-1.02 5.079-2.871 6.93l-48.168 48.168c-3.71 3.711-8.654 5.755-13.921 5.755-5.268 0-10.211-2.043-13.92-5.755l-18.6-18.599c-1.851-1.851-2.87-4.312-2.87-6.93 0-2.617 1.02-5.079 2.871-6.93 1.91-1.911 4.42-2.866 6.93-2.866s5.02.955 6.93 2.866l13.355 13.355c2.929 2.927 7.678 2.929 10.607 0l42.928-42.926c1.851-1.851 4.312-2.87 6.929-2.87 2.618 0 5.079 1.02 6.931 2.871 1.849 1.852 2.869 4.312 2.869 6.931z"/></g></svg>