<?xml version="1.0"?>
<svg xmlns="http://www.w3.org/2000/svg" viewBox="0 0 512 512" width="512" height="512"><g id="outline"><path d="M96,64a8,8,0,0,0-16,0v63.988l-16,0V64a8,8,0,0,0-16,0v64l-16,0V64a8,8,0,0,0-16,0V182.111a84.209,84.209,0,0,0,8.845,37.467A68.118,68.118,0,0,1,32,249.889V432a24,24,0,0,0,48,0V249.889a68.118,68.118,0,0,1,7.155-30.311A84.209,84.209,0,0,0,96,182.111ZM80,182.111a68.121,68.121,0,0,1-7.155,30.311A84.209,84.209,0,0,0,64,249.889V432a8,8,0,0,1-16,0V249.889a84.209,84.209,0,0,0-8.845-37.467A68.121,68.121,0,0,1,32,182.111V144l23.865,0c.046,0,.089.007.135.007s.09-.006.136-.007l23.864,0Z"/><path d="M488,56a72.081,72.081,0,0,0-72,72v96a56.068,56.068,0,0,0,32,50.586V432a24,24,0,0,0,48,0V64A8,8,0,0,0,488,56ZM432,224V128a56.089,56.089,0,0,1,48-55.431V264h-8A40.045,40.045,0,0,1,432,224Zm40,216a8.009,8.009,0,0,1-8-8V279.419a56.14,56.14,0,0,0,8,.581h8V432A8.009,8.009,0,0,1,472,440Z"/><path d="M256,96C167.776,96,96,167.775,96,256s71.776,160,160,160,160-71.775,160-160S344.224,96,256,96Zm0,304c-79.4,0-144-64.6-144-144s64.6-144,144-144,144,64.6,144,144S335.4,400,256,400Z"/><path d="M256,144A112,112,0,1,0,368,256,112.127,112.127,0,0,0,256,144Zm0,208a96,96,0,1,1,96-96A96.108,96.108,0,0,1,256,352Z"/><path d="M306.343,194.343l-40,40a23.973,23.973,0,0,0-20.682,0l-24-24-11.314,11.314,24,24a24,24,0,1,0,43.31,0l40-40ZM256,264a8,8,0,1,1,8-8A8.009,8.009,0,0,1,256,264Z"/></g></svg>
