<svg xmlns="http://www.w3.org/2000/svg" width="16.968" height="19.282" viewBox="0 0 16.968 19.282">
  <g id="privacy" transform="translate(-30.9 0.1)">
    <path id="Path_429" data-name="Path 429" d="M153.963,69.34a2.966,2.966,0,0,0,2.963-2.963V63.414h-.847v-1.3a2.116,2.116,0,1,0-4.233,0v1.3H151v2.963A2.966,2.966,0,0,0,153.963,69.34Zm-1.27-7.224a1.27,1.27,0,1,1,2.54,0v1.3h-2.54Zm-.846,2.144h4.233v2.116a2.116,2.116,0,1,1-4.233,0Z" transform="translate(-114.579 -55.771)" fill="#535353" stroke="#535353" stroke-width="0.2"/>
    <path id="Path_430" data-name="Path 430" d="M39.23,19.034l.154.044.154-.044a11.366,11.366,0,0,0,8.23-10.926V1.118H45.2L44.087,0H34.681L33.563,1.118H31v6.99A11.365,11.365,0,0,0,39.23,19.034Zm-7.112-16.8h1.908l1.118-1.118h8.48l1.118,1.118H46.65V8.108a10.285,10.285,0,0,1-7.266,9.806,10.285,10.285,0,0,1-7.266-9.806Z" fill="#535353" stroke="#535353" stroke-width="0.2"/>
  </g>
</svg>
