<svg xmlns="http://www.w3.org/2000/svg" width="12.758" height="15.023" viewBox="0 0 12.758 15.023">
  <g id="avatar" transform="translate(-39.235 0.15)">
    <g id="Group_302" data-name="Group 302" transform="translate(39.385)">
      <path id="Path_481" data-name="Path 481" d="M47.833,6.827a3.775,3.775,0,1,0-4.439,0,6.239,6.239,0,0,0-4.009,5.82,2.079,2.079,0,0,0,2.076,2.076h8.305a2.079,2.079,0,0,0,2.076-2.076A6.239,6.239,0,0,0,47.833,6.827ZM42.971,3.775a2.643,2.643,0,1,1,2.643,2.643A2.646,2.646,0,0,1,42.971,3.775Zm6.8,9.815H41.461a.945.945,0,0,1-.944-.944,5.1,5.1,0,0,1,10.193,0A.945.945,0,0,1,49.766,13.59Z" transform="translate(-39.385)" fill="#707070" stroke="#707070" stroke-width="0.3"/>
    </g>
  </g>
</svg>
