<svg id="Layer_1" enable-background="new 0 0 471.518 471.518" height="512" viewBox="0 0 471.518 471.518" width="512" xmlns="http://www.w3.org/2000/svg"><path d="m148 93.179v99c0 8.84-7.16 16-16 16h-95c-8.84 0-16-7.16-16-16v-99c0-8.84 7.16-16 16-16h95c8.84 0 16 7.16 16 16z" fill="#ff6d7a"/><path d="m148 93.179c0 7.73-6.266 14-14 14h-57c-8.837 0-16 7.163-16 16v69c0 8.837-7.163 16-16 16h-8c-8.837 0-16-7.163-16-16v-99c0-8.837 7.163-16 16-16h95c8.837 0 16 7.164 16 16z" fill="#ff8c95"/><path d="m129.001 186.44c-.064 8.566 4.776 15.577 11.649 19.199-2.49 1.61-5.46 2.54-8.65 2.54h-21.54c-10.944-20.04-4.713-44 11.621-57.151 10.413-8.384 25.919-.808 25.919 12.561v1.72c-10.38 1.17-18.914 9.79-18.999 21.131z" fill="#fe4f60"/><path d="m85.534 267.07c-28.528-5.351-50.12-29.298-52.507-58.233-.363-4.403 2.911-8.268 7.314-8.631 4.401-.354 8.268 2.912 8.631 7.315 1.797 21.775 18.044 39.796 39.511 43.823 4.343.814 7.203 4.995 6.389 9.338-.817 4.354-5.011 7.203-9.338 6.388z" fill="#cbe3fa"/><path d="m162 216.179h-154c-4.418 0-8-3.582-8-8s3.582-8 8-8h154c4.418 0 8 3.582 8 8s-3.582 8-8 8z" fill="#585966"/><path d="m409.72 230.559c-7.161-26.425-17.118-48.08-26.337-64.568-2.478-4.431-.267-9.964 4.558-11.544 8.439-2.763 19.059-9.504 19.059-25.998 0-16.88-15.02-29.81-31.72-27.3l-26.53 4c-16.35 2.46-26.99 18.67-22.51 34.59 14.73 52.32 3.72 107.57-34.92 148.04-8.28 8.67-19.83 13.42-31.82 13.4-25.78-.05-44.5-20.54-44.5-44.05v-48.95h12.6c11.55 0 21.4-9.23 21.4-21.6 0-11.82-9.58-21.4-21.4-21.4h-77.2c-11.55 0-21.4 9.23-21.4 21.6 0 11.82 9.58 21.4 21.4 21.4h-3.5c-56.083 18.856-88.506 70.979-85.139 127.511.251 4.223 3.766 7.519 7.997 7.519h24.033c.016 28.236 22.909 51.13 51.149 51.13 28.25 0 51.143-22.894 51.159-51.13h223.211c1.07-21.59.18-76.63-9.59-112.65z" fill="#fe4f60"/><path d="m378.464 100.854c14.634-.516 16.598 20.956 2.126 23.135-16.35 2.461-26.99 18.67-22.51 34.59 14.73 52.32 3.72 107.57-34.92 148.04-3.689 3.863-7.96 6.891-12.564 9.084-17.382 8.28-32.981-13.838-19.553-27.636 36.366-37.369 50.911-92.512 35.197-148.328-4.48-15.92 6.16-32.128 22.51-34.59 29.614-4.46 27.555-4.219 29.714-4.295z" fill="#ff6d7a"/><path d="m227.6 165.179c11.82 0 21.4 9.58 21.4 21.4 0 12.37-9.85 21.6-21.4 21.6h-77.2c-11.82 0-21.4-9.58-21.4-21.4 0-12.37 9.85-21.6 21.4-21.6z" fill="#42434d"/><path d="m357.988 130.237c-1.769 0-3.548-.583-5.029-1.783-13.884-11.241-31.296-15.652-50.351-12.756-4.37.665-8.448-2.34-9.111-6.708-.664-4.368 2.34-8.447 6.707-9.111 23.289-3.537 45.599 2.194 62.823 16.139 5.869 4.752 2.456 14.218-5.039 14.219z" fill="#cbe3fa"/><path d="m93.79 343.179h102.31c0 28.25-22.9 51.16-51.16 51.16-28.25 0-51.15-22.91-51.15-51.16z" fill="#585966"/><path d="m228.735 165.209c11.522.603 10.834 17.97-.704 17.97h-49.631c-11.434 0-20.259 8.791-21.319 19.286-.325 3.223-2.961 5.714-6.201 5.714-11.896 0-22.054-9.727-21.879-21.739.178-12.2 9.954-21.261 21.399-21.261 82.633 0 77.479-.015 78.335.03z" fill="#585966"/><path d="m205.543 208.179c6.12 0 6.9 9.122.636 9.891-84.087 10.324-112.025 84.506-115.987 116.353-.623 5.009-4.84 8.786-9.887 8.786h-10.547c-4.23 0-7.747-3.289-7.997-7.519-3.269-55.124 27.662-108.187 85.139-127.511z" fill="#ff6d7a"/><path d="m178.02 272.959c-3.28 2.97-8.34 2.72-11.3-.56-21.551-23.787-55.605-27.185-79.321-8.526-3.562 2.803-8.316-1.481-5.863-5.293 3.204-4.979 6.773-9.734 10.695-14.224 1.886-2.16 4.324-3.763 7.039-4.684 28.785-9.767 59.48.103 79.31 21.988 2.96 3.269 2.71 8.329-.56 11.299z" fill="#e84857"/><path d="m196.1 343.179c0 4.963-.706 9.76-2.024 14.296-.989 3.406-4.133 5.734-7.679 5.734h-82.903c-3.547 0-6.69-2.328-7.679-5.734-1.318-4.536-2.024-9.333-2.024-14.296z" fill="#42434d"/><path d="m471.458 334.141c-4.461-36.967-35.938-65.612-74.108-65.612-38.162 0-69.638 28.644-74.099 65.611-.579 4.795 3.108 9.039 7.938 9.039h15.601c0 28.25 22.9 51.16 51.15 51.16 28.26 0 51.16-22.91 51.16-51.16h14.422c4.83 0 8.515-4.243 7.936-9.038z" fill="#ff6d7a"/><path d="m346.79 343.179h102.31c0 28.25-22.9 51.16-51.16 51.16-28.25 0-51.15-22.91-51.15-51.16z" fill="#585966"/><path d="m449.1 343.179c0 4.945-.701 9.735-2.014 14.263-.988 3.407-4.132 5.737-7.68 5.737h-82.919c-3.548 0-6.693-2.33-7.68-5.737-1.312-4.528-2.018-9.318-2.018-14.263z" fill="#42434d"/><path d="m402.121 292.93c-19.464 7.021-35.857 22.004-44.012 42.296-1.924 4.788-6.53 7.953-11.69 7.953h-15.23c-4.83 0-8.518-4.239-7.938-9.039 4.459-36.963 36.084-65.94 74.754-65.608 13.96.12 17.248 19.662 4.116 24.398z" fill="#ff8c95"/></svg>