<svg width="494" height="231" viewBox="0 0 494 231" fill="none" xmlns="http://www.w3.org/2000/svg">
<rect x="39" y="55" width="410" height="100" rx="12" fill="white"/>
<rect x="52" y="69" width="72" height="72" rx="7" fill="#C4C4C4"/>
<rect x="139" y="72" width="176" height="18" rx="7" fill="#C4C4C4"/>
<rect x="138" y="103" width="208" height="18" rx="7" fill="#C4C4C4"/>
<rect x="404.5" y="0.5" width="89" height="89" rx="10.5" fill="white" stroke="#5FCC48"/>
<rect x="199.5" y="141.5" width="89" height="89" rx="10.5" fill="white" stroke="#5FCC48"/>
<rect x="0.5" y="17.5" width="68" height="68" rx="10.5" fill="white" stroke="#5FCC48"/>
<path d="M437.75 36.1875C438.786 36.1875 439.625 35.3481 439.625 34.3125V22.875C439.625 21.8394 438.786 21 437.75 21C436.714 21 435.875 21.8394 435.875 22.875V34.3125C435.875 35.3481 436.714 36.1875 437.75 36.1875Z" fill="#5FCC48"/>
<path d="M444.781 21C443.746 21 442.906 21.8394 442.906 22.875V34.5938C442.906 37.4369 440.593 39.75 437.75 39.75C434.907 39.75 432.594 37.4369 432.594 34.5938V22.875C432.594 21.8394 431.754 21 430.719 21C429.683 21 428.844 21.8394 428.844 22.875V34.5938C428.844 38.8615 431.861 42.4373 435.875 43.3008V67.125C435.875 68.1606 436.714 69 437.75 69C438.786 69 439.625 68.1606 439.625 67.125V43.3008C443.639 42.4373 446.656 38.8615 446.656 34.5938V22.875C446.656 21.8394 445.817 21 444.781 21Z" fill="#5FCC48"/>
<path d="M466.866 26.0014C465.096 22.7761 462.747 21 460.25 21C457.753 21 455.404 22.7761 453.634 26.0014C452.2 28.6156 451.344 31.8278 451.344 34.5938C451.344 38.8615 454.361 42.4373 458.375 43.3008V67.125C458.375 68.1606 459.214 69 460.25 69C461.286 69 462.125 68.1606 462.125 67.125V43.3008C466.139 42.4373 469.156 38.8615 469.156 34.5938C469.156 31.8278 468.3 28.6156 466.866 26.0014ZM460.25 39.75C457.407 39.75 455.094 37.4369 455.094 34.5938C455.094 32.4619 455.794 29.8606 456.922 27.805C457.956 25.9206 459.231 24.75 460.25 24.75C461.269 24.75 462.544 25.9206 463.578 27.805C464.706 29.8606 465.406 32.4619 465.406 34.5938C465.406 37.4369 463.093 39.75 460.25 39.75Z" fill="#5FCC48"/>
<path d="M25.8281 44.707C26.6264 44.707 27.2734 44.06 27.2734 43.2617V34.4453C27.2734 33.6471 26.6264 33 25.8281 33C25.0299 33 24.3828 33.6471 24.3828 34.4453V43.2617C24.3828 44.06 25.0299 44.707 25.8281 44.707Z" fill="#5FCC48"/>
<path d="M31.248 33C30.4498 33 29.8027 33.6471 29.8027 34.4453V43.4785C29.8027 45.6701 28.0197 47.4531 25.8281 47.4531C23.6365 47.4531 21.8535 45.6701 21.8535 43.4785V34.4453C21.8535 33.6471 21.2064 33 20.4082 33C19.61 33 18.9629 33.6471 18.9629 34.4453V43.4785C18.9629 46.7683 21.289 49.5246 24.3828 50.1902V68.5547C24.3828 69.3529 25.0299 70 25.8281 70C26.6264 70 27.2734 69.3529 27.2734 68.5547V50.1902C30.3672 49.5246 32.6934 46.7683 32.6934 43.4785V34.4453C32.6934 33.6471 32.0463 33 31.248 33Z" fill="#5FCC48"/>
<path d="M48.2714 36.8552C46.9076 34.3691 45.0965 33 43.1719 33C41.2472 33 39.4362 34.3691 38.0723 36.8552C36.9667 38.8704 36.3066 41.3464 36.3066 43.4785C36.3066 46.7683 38.6328 49.5246 41.7266 50.1902V68.5547C41.7266 69.3529 42.3736 70 43.1719 70C43.9701 70 44.6172 69.3529 44.6172 68.5547V50.1902C47.711 49.5246 50.0371 46.7683 50.0371 43.4785C50.0371 41.3464 49.377 38.8704 48.2714 36.8552ZM43.1719 47.4531C40.9803 47.4531 39.1973 45.6701 39.1973 43.4785C39.1973 41.8352 39.7373 39.83 40.6065 38.2455C41.4035 36.7929 42.3864 35.8906 43.1719 35.8906C43.9573 35.8906 44.9403 36.7929 45.7372 38.2455C46.6064 39.83 47.1465 41.8352 47.1465 43.4785C47.1465 45.6701 45.3635 47.4531 43.1719 47.4531Z" fill="#5FCC48"/>
<g clip-path="url(#clip0)">
<path d="M252.295 192.043C251.629 188.141 248.247 185.156 244.156 185.156H227.594C223.503 185.156 220.121 188.141 219.455 192.043C217.457 192.689 216 194.54 216 196.75C216 198.959 217.457 200.811 219.455 201.457C220.121 205.359 223.503 208.344 227.594 208.344H244.156C248.247 208.344 251.629 205.359 252.295 201.457C254.292 200.811 255.75 198.959 255.75 196.75C255.75 194.54 254.292 192.689 252.295 192.043ZM227.594 188.469H244.156C246.312 188.469 248.134 189.857 248.82 191.781H222.93C223.615 189.857 225.437 188.469 227.594 188.469ZM244.156 205.031H227.594C225.437 205.031 223.615 203.643 222.93 201.719H248.82C248.134 203.643 246.312 205.031 244.156 205.031ZM250.781 198.406H220.969C220.058 198.406 219.312 197.664 219.312 196.75C219.312 195.836 220.058 195.094 220.969 195.094H250.781C251.692 195.094 252.437 195.836 252.437 196.75C252.437 197.664 251.692 198.406 250.781 198.406Z" fill="#5FCC48"/>
<path d="M268.566 169.131C268.251 168.789 267.81 168.594 267.343 168.594H257.704L258.81 161.969H267.343C268.258 161.969 269 161.227 269 160.313C269 159.398 268.258 158.656 267.343 158.656H257.406C256.598 158.656 255.905 159.243 255.773 160.041L254.345 168.594H244.156C243.689 168.594 243.248 168.789 242.934 169.134C242.619 169.478 242.463 169.935 242.506 170.399L243.427 180.545C243.507 181.456 244.391 182.122 245.226 182.046C246.137 181.963 246.809 181.158 246.727 180.247L245.971 171.906H265.528L262.517 205.031H255.75C254.835 205.031 254.093 205.773 254.093 206.687C254.093 207.602 254.835 208.344 255.75 208.344H264.031C264.889 208.344 265.604 207.691 265.681 206.836L268.993 170.399C269.036 169.935 268.88 169.475 268.566 169.131Z" fill="#5FCC48"/>
</g>
<defs>
<clipPath id="clip0">
<rect width="53" height="53" fill="white" transform="translate(216 157)"/>
</clipPath>
</defs>
</svg>
