<svg xmlns="http://www.w3.org/2000/svg" width="324.325" height="332.728" viewBox="0 0 324.325 332.728">
  <g id="Artboard_3" data-name="Artboard 3" transform="translate(-70.924 -72.953)">
    <g id="Layer_2" data-name="Layer 2" transform="translate(70.924 72.953)">
      <path id="Path_1546" data-name="Path 1546" d="M134.259,86.058C92.837,102.116,73.2,139.092,71.017,183.1a60.172,60.172,0,0,0,15.838,44.115c10.331,11.208,20.711,14.717,24.086,30.348,6.092,28.021-22.514,54.276-2.437,80.409,14.011,18.275,29.885,36.842,51.79,40.911,10.965,2.035,28.947,1.425,45.078.865,12.61-.439,33.041-2.692,45.906,1.73,17.982,6.189,34.174,14.62,53.033,17.568,17.458,2.753,44.87,12.256,60.233-.889,12.183-10.4,13.4-26.4,10.892-40.9-3.143-17.885-2.583-36.428-7.968-54.337-6.6-21.93,14.169-37.183,21.759-57.261,4.873-12.792,6.591-28.338,5.86-42.641-.755-14.62-.9-29.349-7.943-42.251-5.616-10.307-15.351-22.307-23.051-31.591-11.83-14.279-26.73-25.585-43.031-34.3-19.225-10.295-36.939-21.2-58.479-21.8C217.8,71.792,148.915,80.393,134.259,86.058Z" transform="translate(-70.924 -72.953)" fill="#f84b76" opacity="0.1"/>
      <circle id="Ellipse_86" data-name="Ellipse 86" cx="73.635" cy="73.635" r="73.635" transform="translate(61.177 161.737) rotate(-60.22)" fill="#fff" opacity="0.6"/>
      <circle id="Ellipse_87" data-name="Ellipse 87" cx="51.973" cy="51.973" r="51.973" transform="translate(109.68 82.415)" fill="#abdbe6"/>
      <path id="Path_1547" data-name="Path 1547" d="M215.873,127.09a68.433,68.433,0,1,0,68.433,68.433,68.433,68.433,0,0,0-68.433-68.433Zm0,134.4a65.972,65.972,0,1,1,65.972-65.972A65.972,65.972,0,0,1,215.873,261.494Z" transform="translate(-54.22 -61.134)" fill="#abdbe6"/>
      <path id="Path_1548" data-name="Path 1548" d="M141.993,135.747a1.109,1.109,0,1,1-2.169,0V131.41a1.109,1.109,0,1,1,2.169,0Z" transform="translate(-55.888 -60.484)" fill="#abdbe6"/>
      <path id="Path_1549" data-name="Path 1549" d="M141.993,121.777a1.109,1.109,0,1,1-2.169,0V117.44a1.109,1.109,0,1,1,2.169,0Z" transform="translate(-55.888 -63.533)" fill="#abdbe6"/>
      <path id="Path_1550" data-name="Path 1550" d="M149.757,130.02a1.109,1.109,0,1,1-1.084,1.876l-3.765-2.169a1.109,1.109,0,1,1,1.084-1.876Z" transform="translate(-54.941 -61.031)" fill="#abdbe6"/>
      <path id="Path_1551" data-name="Path 1551" d="M137.637,123.021a1.109,1.109,0,1,1-1.084,1.876l-3.752-2.169a1.1,1.1,0,1,1,1.084-1.876Z" transform="translate(-57.574 -62.547)" fill="#abdbe6"/>
      <path id="Path_1552" data-name="Path 1552" d="M148.663,120.862a1.109,1.109,0,1,1,1.084,1.876l-3.765,2.169a1.107,1.107,0,1,1-1.084-1.876Z" transform="translate(-54.931 -62.557)" fill="#abdbe6"/>
      <path id="Path_1553" data-name="Path 1553" d="M136.552,127.852a1.109,1.109,0,1,1,1.084,1.876l-3.752,2.169a1.1,1.1,0,1,1-1.084-1.876Z" transform="translate(-57.574 -61.031)" fill="#abdbe6"/>
      <path id="Path_1554" data-name="Path 1554" d="M131.594,278.725a12.183,12.183,0,1,1,2.717-24.135.919.919,0,1,1-.414,1.791,10.38,10.38,0,1,0,7.724,7.42.926.926,0,0,1,.646-1.133.914.914,0,0,1,1.121.658,12.183,12.183,0,0,1-11.793,15.4Z" transform="translate(-60.255 -33.349)" fill="#d43e3a"/>
      <path id="Path_1555" data-name="Path 1555" d="M131.371,270.539a.9.9,0,0,1-.621-.244l-6.664-6.092a.914.914,0,1,1,1.218-1.352l5.982,5.409,15.131-16.886a.915.915,0,0,1,1.365,1.218l-15.7,17.641a.9.9,0,0,1-.634.3Z" transform="translate(-59.398 -34.068)" fill="#d43e3a"/>
      <path id="Path_1556" data-name="Path 1556" d="M225.522,116.518,222.2,114.9l-3.216,1.827.5-3.667-2.729-2.485,3.643-.658,1.535-3.375,1.742,3.265,3.679.414-2.571,2.668Z" transform="translate(-39.089 -65.621)" fill="#ffd72d"/>
      <path id="Path_1557" data-name="Path 1557" d="M236.664,116.518l-3.338-1.62-3.216,1.827.512-3.667-2.741-2.485,3.643-.658,1.535-3.375,1.742,3.265,3.679.414-2.571,2.668Z" transform="translate(-36.659 -65.621)" fill="#ffd72d"/>
      <path id="Path_1558" data-name="Path 1558" d="M247.794,116.518l-3.338-1.62-3.216,1.827.512-3.667-2.741-2.485,3.643-.658,1.535-3.375,1.742,3.265,3.679.414-2.558,2.668Z" transform="translate(-34.229 -65.621)" fill="#ffd72d"/>
      <path id="Path_1559" data-name="Path 1559" d="M258.922,116.518,255.6,114.9l-3.229,1.827.512-3.667-2.729-2.485,3.643-.658,1.523-3.375,1.742,3.265,3.679.414-2.558,2.668Z" transform="translate(-31.797 -65.621)" fill="#ffd72d"/>
      <path id="Path_1560" data-name="Path 1560" d="M270.494,116.518l-3.326-1.62-3.229,1.827.512-3.667-2.741-2.485,3.643-.658,1.535-3.375,1.742,3.265,3.679.414-2.558,2.668Z" transform="translate(-29.273 -65.621)" fill="#ffd72d"/>
      <path id="Path_1561" data-name="Path 1561" d="M178.476,89.32a11.7,11.7,0,0,0-11.7,11.7c0,6.457,11.7,24.11,11.7,24.11s11.7-17.653,11.7-24.11a11.7,11.7,0,0,0-11.7-11.7Zm0,19.006a7.31,7.31,0,1,1,7.31-7.31,7.31,7.31,0,0,1-7.31,7.31Z" transform="translate(-49.998 -69.38)" fill="#d43e3a"/>
      <path id="Path_1562" data-name="Path 1562" d="M306.279,205.09A14.327,14.327,0,0,0,292,219.405c0,7.907,14.315,29.532,14.315,29.532s14.315-21.625,14.315-29.532a14.315,14.315,0,0,0-14.352-14.315Zm0,23.27a8.955,8.955,0,1,1,8.955-8.955A8.955,8.955,0,0,1,306.279,228.36Z" transform="translate(-22.66 -44.106)" fill="#abdbe6"/>
      <path id="Path_1563" data-name="Path 1563" d="M235.7,153.674c4.788-11.964,11.623-21.308,16.9-13.645s-20.175,47.2-20.175,47.2S230.91,165.638,235.7,153.674Z" transform="translate(-35.717 -58.917)" fill="#ecb49f"/>
      <path id="Path_1564" data-name="Path 1564" d="M184.891,346.442l34.247-.816c-.877-4.617.658-42.787,7.87-53.862,8.419-12.938,18.591-30.458,22.454-47.721s-62.134-34.478-79.97,5.848,2.8,74.2,2.8,74.2Z" transform="translate(-50.991 -39.723)" fill="#ecb49f"/>
      <path id="Path_1565" data-name="Path 1565" d="M169.87,230.79s25.231,19.98,11.087,58.845C180.993,289.635,200.035,249.759,169.87,230.79Z" transform="translate(-49.323 -38.495)" fill="#f4d7b6"/>
      <path id="Path_1566" data-name="Path 1566" d="M253.723,279.036A2.948,2.948,0,0,1,250.8,282H166a2.936,2.936,0,0,1-2.924-2.961V135.92A2.936,2.936,0,0,1,166,132.96H250.8a2.948,2.948,0,0,1,2.924,2.96Z" transform="translate(-50.805 -59.853)" fill="#2e3054"/>
      <path id="Path_1567" data-name="Path 1567" d="M253.723,159.422v-23.5a2.948,2.948,0,0,0-2.924-2.96H166a2.936,2.936,0,0,0-2.924,2.96V251.185Z" transform="translate(-50.805 -59.853)" fill="#fff" opacity="0.2"/>
      <path id="Path_1568" data-name="Path 1568" d="M247.4,256.661a2.437,2.437,0,0,1-2.583,2.364H170.063a2.437,2.437,0,0,1-2.583-2.364V142.554a2.437,2.437,0,0,1,2.583-2.364h74.8a2.437,2.437,0,0,1,2.583,2.364Z" transform="translate(-49.845 -58.275)" fill="#fff"/>
      <path id="Path_1569" data-name="Path 1569" d="M239.011,203.742c0,2.875-15.473,5.2-34.539,5.2s-34.551-2.327-34.551-5.2,15.473-5.2,34.551-5.2S239.011,200.867,239.011,203.742Z" transform="translate(-49.312 -45.536)" fill="#727f9c"/>
      <path id="Path_1570" data-name="Path 1570" d="M190.566,206.6c4.873-7.858,5.629-23.148,5.2-32.566-.134-3.07-2.936-14.084-7.31-13.609-4.215.451-2.619,11.671-2.035,14.364a7.127,7.127,0,0,0-4.24-4.167c-3.716-1.218-5.4-.707-6.092,2.437-1.1,4.873,3.728,9.186,5.982,13.109-2.1-1.767-5.982-2.985-7.115.585S190.566,206.6,190.566,206.6Z" transform="translate(-48.224 -53.861)" fill="#5fa469"/>
      <path id="Path_1571" data-name="Path 1571" d="M205.407,195.032c-1.328-7.809,4.069-18.7,8.187-24.951,1.34-2.035,8.236-8.224,12.049-5.726s-2.254,9.32-3.85,10.88a6.969,6.969,0,0,1,5.482-.78c3.874.962,2.985,1.377,2.437,3.9-.938,3.9-4.873,5.275-8.419,6.859,2.6-.183,6.591.889,6.2,3.9S205.407,195.032,205.407,195.032Z" transform="translate(-41.61 -53.127)" fill="#5fa469"/>
      <path id="Path_1572" data-name="Path 1572" d="M206.939,185.2c-.512-5.166-1.876-10.636-.536-15.728.365-1.389,3-7.541,6.957-5.775,3.168,1.425.694,5.519.536,7.31a33.077,33.077,0,0,1-5.178,14.011Z" transform="translate(-41.473 -53.212)" fill="#378355"/>
      <path id="Path_1573" data-name="Path 1573" d="M208.27,190.557c.585-5.166.4-10.794,2.778-15.485.646-1.291,4.52-6.749,8-4.191,2.814,2.059-.475,5.543-1,7.31a33.309,33.309,0,0,1-8,12.61Z" transform="translate(-40.94 -51.721)" fill="#378355"/>
      <path id="Path_1574" data-name="Path 1574" d="M190.738,193.578c-3.728-3.655-8.285-6.92-10.551-11.684-.609-1.291-2.558-7.688,1.608-8.881,3.338-.962,4.081,3.765,5.1,5.227a33.126,33.126,0,0,1,5.068,14.059Z" transform="translate(-47.287 -51.137)" fill="#378355"/>
      <path id="Path_1575" data-name="Path 1575" d="M234.575,205.837a30.567,30.567,0,1,0-61.135,0c.219,2.619,13.816,4.666,30.567,4.666s30.336-2.047,30.555-4.593a.11.11,0,0,0,.012-.073Z" transform="translate(-48.544 -50.616)" fill="#596a83"/>
      <path id="Path_1576" data-name="Path 1576" d="M203.164,173.93a3.472,3.472,0,1,1-3.472-3.46,3.472,3.472,0,0,1,3.472,3.46Z" transform="translate(-43.571 -51.664)" fill="#596a83"/>
      <path id="Path_1577" data-name="Path 1577" d="M200.583,177.83s-12.183,6.92-12.646,28.521a95.029,95.029,0,0,1-9.746-1.218C178.568,196.166,181.419,180.681,200.583,177.83Z" transform="translate(-47.507 -50.057)" fill="#fff" opacity="0.5"/>
      <path id="Path_1578" data-name="Path 1578" d="M171.429,353.947l17.532-.658-4.873-21.857V286.355c13.889-24.488-4.593-40.594-7.4-45.212s-.231-21.552.938-32.894c1.048-10.185-1.986-15.838-7.956-15.18,0,0-3.509-.621-4.873,11.7s-4.873,22.368-9.2,29.313c-2.7,4.374-11.732,24.561-3.655,43.957S171.429,353.947,171.429,353.947Z" transform="translate(-53.953 -46.741)" fill="#ecb49f"/>
      <path id="Path_1579" data-name="Path 1579" d="M240.6,179s14.461,7.31,10.477,18.933-15.168,24.561-20.589,23.5-2.083-7.31,1.218-13.28a140.221,140.221,0,0,1,7.5-11.976Z" transform="translate(-36.716 -49.802)" fill="#ecb49f"/>
      <path id="Path_1580" data-name="Path 1580" d="M239.551,179l-1.438,17.178s-2.887,4.081-5.714,8.845c4.678-1.681,11.513-10.185,15.46-19.03A27,27,0,0,0,239.551,179Z" transform="translate(-35.672 -49.802)" fill="#f4d7b6"/>
      <path id="Path_1581" data-name="Path 1581" d="M240.259,164.37s14.035,7.31,10.173,18.945-14.729,24.549-19.993,23.5-2.022-7.31,1.145-13.292a137.1,137.1,0,0,1,7.31-11.964Z" transform="translate(-36.708 -52.996)" fill="#ecb49f"/>
      <path id="Path_1582" data-name="Path 1582" d="M164.722,194.83s4.215,4.2,3.509,9.82-6.311,4.215-6.311,4.215S162.627,196.938,164.722,194.83Z" transform="translate(-51.059 -46.346)" fill="#f4d7b6"/>
      <path id="Path_1583" data-name="Path 1583" d="M208.693,247.759a7.151,7.151,0,1,1-7.139-7.139A7.151,7.151,0,0,1,208.693,247.759Z" transform="translate(-43.97 -36.349)" fill="#596a83"/>
      <path id="Path_1584" data-name="Path 1584" d="M206.667,247.452a5.434,5.434,0,1,1-5.421-5.422A5.434,5.434,0,0,1,206.667,247.452Z" transform="translate(-43.662 -36.041)" fill="#2e3054"/>
      <path id="Path_1585" data-name="Path 1585" d="M244.867,140.191h-74.8a2.437,2.437,0,0,0-2.583,2.364v11.562H247.4V142.554a2.437,2.437,0,0,0-2.534-2.364Z" transform="translate(-49.845 -58.275)" fill="#ed1a4f"/>
      <rect id="Rectangle_915" data-name="Rectangle 915" width="45.492" height="16.435" rx="3.77" transform="translate(133.875 174.41)" fill="#ed1a4f"/>
      <rect id="Rectangle_916" data-name="Rectangle 916" width="9.966" height="1.377" transform="translate(122.448 85.01)" fill="#fff"/>
      <rect id="Rectangle_917" data-name="Rectangle 917" width="9.966" height="1.377" transform="translate(122.448 88.434)" fill="#fff"/>
      <rect id="Rectangle_918" data-name="Rectangle 918" width="9.966" height="1.377" transform="translate(122.448 91.869)" fill="#fff"/>
      <path id="Path_1591" data-name="Path 1591" d="M228.168,142.544a1.084,1.084,0,1,1-1.078-.97,1.084,1.084,0,0,1,1.078.97Z" transform="translate(-37.068 -57.165)" fill="#fff"/>
      <path id="Path_1592" data-name="Path 1592" d="M228.169,145.594a1.084,1.084,0,1,1-1.084-1.084,1.072,1.072,0,0,1,1.084,1.084Z" transform="translate(-37.069 -56.524)" fill="#fff"/>
      <path id="Path_1593" data-name="Path 1593" d="M228.169,148.614a1.084,1.084,0,1,1-1.084-1.084,1.084,1.084,0,0,1,1.084,1.084Z" transform="translate(-37.069 -55.864)" fill="#fff"/>
      <path id="Path_1594" data-name="Path 1594" d="M137.669,184.1c9.1-.755,2.132-32.894,2.132-32.894h-1.864c.28,11.269,1.681,22.125-.439,22.722s-1.718-11.44-2.23-22.722h-2c-.524,11.282.061,23.647-2.23,22.722s-.731-11.452-.439-22.722h-1.864s-6.981,32.1,2.12,32.894h1c.073,3.229.183,13.207-.889,19.31-1.3,7.371-4.764,31.676,2.156,33.357h2.315c6.932-1.73,3.46-25.987,2.169-33.357-1.084-6.092-.962-16.082-.9-19.31Z" transform="translate(-58.861 -55.869)" fill="#596a83" opacity="0.6"/>
      <path id="Path_1595" data-name="Path 1595" d="M273.991,191.382a17.056,17.056,0,0,1-5.166-12.037c-.573-18.92,6.883-35.55,9.32-35.575,1.365,0,1.4,49.305,1.365,50.682-.366,14.169,4.764,38.535-2.181,38.535s-3.655-24.257-2.583-31.615C274.868,200.519,273.991,191.382,273.991,191.382Z" transform="translate(-27.727 -57.493)" fill="#596a83" opacity="0.6"/>
      <path id="Path_1596" data-name="Path 1596" d="M250.19,214.09s28.606,3.2,37.037,30.458l-5.592,12.342S255.356,223.727,250.19,214.09Z" transform="translate(-31.788 -42.141)" fill="#e7a588"/>
      <path id="Path_1597" data-name="Path 1597" d="M255.91,216.2s17.958,7.237,23.526,39.327l-7.164,3.2S259.139,225.837,255.91,216.2Z" transform="translate(-30.539 -41.68)" fill="#f4d7b6"/>
      <path id="Path_1598" data-name="Path 1598" d="M238.82,210.556s22.259-4.4,40.2,35.063l-11.245,7.225S244,220.181,238.82,210.556Z" transform="translate(-34.27 -42.944)" fill="#e7a588"/>
      <path id="Path_1599" data-name="Path 1599" d="M242.15,211.09s17.958,7.237,23.526,39.327l-7.164,3.2S245.379,220.727,242.15,211.09Z" transform="translate(-33.543 -42.796)" fill="#f4d7b6"/>
      <path id="Path_1600" data-name="Path 1600" d="M227.73,205.12s21.82-1.048,40.375,41.423l-14.242,4.02S233.078,215.488,227.73,205.12Z" transform="translate(-36.691 -44.1)" fill="#e7a588"/>
      <path id="Path_1601" data-name="Path 1601" d="M224.61,204.42s21.93,8.431,28.959,45.26l-8.7,3.655S228.618,215.482,224.61,204.42Z" transform="translate(-37.373 -44.252)" fill="#f4d7b6"/>
      <path id="Path_1602" data-name="Path 1602" d="M249.246,336.73c4.959,2.534,20.3,5.738,25.4,15.387l6.445,21.564s4.386,2.071,22.746,4.873c23.6,3.655,33.3-9.747,33.3-9.747l-17.592-33.187c.195-30.909-23.282-86.8-23.282-86.8C294.47,243.1,257.4,247.708,258.493,253c-2.132-4.812-2.29-5.227-4.5-9.552-6.494-14.059-22.588-37.11-22.588-37.11-6.737-10.843-9.941-13.4-14.522-11.391s2.083,11.525,3.874,17.239c0,0,23.489,42.531,27.924,68.372s0,20.711-5.032,20.821-7.03-6.433-17.056-19.493c-11.732-16.63-17.787-8.041-17.787-8.041C229.887,324.206,234.395,329.091,249.246,336.73Z" transform="translate(-40.822 -46.458)" fill="#e7a588"/>
      <path id="Path_1603" data-name="Path 1603" d="M209.3,260.76s7.8,1.3,10.392,8.662l-5.2,2.6Z" transform="translate(-40.715 -31.952)" fill="#f4d7b6"/>
      <text id="ORDER" transform="translate(147.163 184.665)" fill="#fff" font-size="6" font-family="OpenSans-Italic, Open Sans" font-style="italic"><tspan x="0" y="0">ORDER</tspan></text>
    </g>
  </g>
</svg>
