<svg xmlns="http://www.w3.org/2000/svg" width="22.891" height="19.381" viewBox="0 0 22.891 19.381">
  <g id="stack-of-sheets" transform="translate(0.174 -1.837)">
    <path id="Path_428" data-name="Path 428" d="M22.448,15.511a.865.865,0,0,1-.43,1.147l-9.53,4.332a.86.86,0,0,1-.359.078.881.881,0,0,1-.255-.038L.613,17.565a.867.867,0,0,1,.509-1.656l10.949,3.369,9.23-4.2A.862.862,0,0,1,22.448,15.511Zm-10.377.3L1.122,12.443A.867.867,0,1,0,.613,14.1l11.263,3.465a.881.881,0,0,0,.255.038.86.86,0,0,0,.359-.078l9.53-4.332a.866.866,0,0,0-.717-1.577ZM0,9.849A.868.868,0,0,1,.53,9.007L6.856,6.341C8.1,5.816,8.693,5.161,8.693,2.856a.866.866,0,0,1,1.073-.841l11.21,2.762a.867.867,0,0,1,.659.841V5.75c0,2.563,0,4.255-3.137,5.578-2.1.885-5.961,2.707-6,2.726a.861.861,0,0,1-.37.083.881.881,0,0,1-.255-.038L.613,10.634A.867.867,0,0,1,0,9.849Zm3.4-.171,8.664,2.667c.963-.453,3.952-1.851,5.761-2.613C19.74,8.924,19.891,8.3,19.9,6.3L10.38,3.951A4.3,4.3,0,0,1,7.53,7.938Z" transform="translate(0 0)" fill="#535353" stroke="#fff" stroke-width="0.3"/>
  </g>
</svg>
