<svg height="512pt" viewBox="-44 0 511 512" width="512pt" xmlns="http://www.w3.org/2000/svg"><path d="m402.863281 76h-86.511719l-32.359374-64.921875c-3.382813-6.789063-10.3125-11.078125-17.898438-11.078125h-108.824219c-7.582031 0-14.515625 4.289062-17.898437 11.078125l-32.359375 64.921875h-86.511719c-11.046875 0-20 8.953125-20 20s8.953125 20 20 20h382.363281c11.046875 0 20-8.953125 20-20s-8.953125-20-20-20zm-251.15625 0 17.941407-36h84.066406l17.941406 36zm0 0"/><path d="m371.683594 152h-320c-12.308594 0-21.734375 11.039062-19.738282 23.230469l52.339844 320c1.578125 9.667969 9.9375 16.769531 19.734375 16.769531h215.324219c9.800781 0 18.15625-7.101562 19.734375-16.769531l52.339844-320c1.996093-12.199219-7.433594-23.230469-19.734375-23.230469zm-69.335938 320h-181.332031l-45.796875-280h272.925781zm0 0"/></svg>