<svg width="134" height="176" viewBox="0 0 134 176" fill="none" xmlns="http://www.w3.org/2000/svg">
<path d="M64.3118 116.413L49.232 126.321C48.2121 126.976 46.7551 126.685 46.0995 125.665L32.4038 104.83C31.7482 103.81 32.0396 102.353 33.0594 101.698L42.6027 95.4325L55.0599 98.2008L65.0403 113.353C65.6959 114.373 65.4045 115.757 64.3118 116.413Z" fill="#EBEBEB"/>
<path d="M42.6027 95.4325L46.4637 101.333C47.1193 102.28 48.4306 102.572 49.3776 101.916L55.0599 98.2008L42.6027 95.4325Z" fill="#F5F5F5"/>
<path d="M46.9008 101.77C46.9008 101.77 47.7749 103.227 49.669 102.645C49.7419 102.645 49.8147 102.572 49.8876 102.572C50.6889 102.208 56.1526 99.8763 56.0798 99.8035C56.0069 99.6578 55.0599 98.2008 55.0599 98.2008L49.3776 101.916C49.3776 101.916 47.9206 102.79 46.9008 101.77Z" fill="#E0E0E0"/>
<path d="M49.5493 47.7281L27.8402 35.8536C26.3104 35.0523 25.8004 33.1582 26.6018 31.6284L43.1385 1.61449C43.9399 0.0846522 45.834 -0.425293 47.3638 0.376049L61.1323 7.95237L65.7218 24.7805L53.7745 46.4896C52.9003 48.0195 51.0791 48.6023 49.5493 47.7281Z" fill="#F5F5F5"/>
<path d="M61.0594 7.95239L56.3971 16.4029C55.5957 17.787 56.1057 19.5354 57.5627 20.3368L65.7218 24.7806L61.0594 7.95239Z" fill="#FAFAFA"/>
<path d="M56.1786 17.2042C56.1786 17.2042 54.9401 19.1712 56.9071 21.1381C56.9799 21.2109 57.0528 21.2838 57.1256 21.3566C58.0726 22.158 64.4105 27.1846 64.4834 27.0389C64.5562 26.8932 65.7218 24.7805 65.7218 24.7805L57.6356 20.3367C57.5627 20.3367 55.5958 19.0983 56.1786 17.2042Z" fill="#E0E0E0"/>
<path d="M126.567 70.5181L100.341 80.6441C98.5202 81.3726 96.4804 80.4256 95.8247 78.6044L81.8377 42.2526C81.1092 40.4314 82.0562 38.3916 83.8775 37.7359L100.487 31.3252L118.408 39.63L128.534 65.9286C129.263 67.8227 128.388 69.8624 126.567 70.5181Z" fill="#EBEBEB"/>
<path d="M100.414 31.3252L104.348 41.5241C105.004 43.1996 106.898 44.0738 108.573 43.4182L118.408 39.63L100.414 31.3252Z" fill="#F5F5F5"/>
<path d="M104.858 42.3983C104.858 42.3983 105.659 44.948 108.792 44.6566C108.938 44.6566 109.01 44.6566 109.156 44.5838C110.54 44.2924 119.574 42.544 119.501 42.3983C119.428 42.1797 118.408 39.63 118.408 39.63L108.573 43.4182C108.573 43.4182 106.096 44.2924 104.858 42.3983Z" fill="#E0E0E0"/>
<path d="M100.06 143.624L77.4038 130.074C75.8011 129.127 75.2912 127.087 76.2382 125.557L94.9605 94.1592C95.9075 92.5565 97.9473 92.0465 99.4771 92.9936L113.901 101.59L118.199 119.729L104.577 142.458C103.702 143.988 101.663 144.498 100.06 143.624Z" fill="#5FCC48"/>
<g opacity="0.2">
<g opacity="0.2">
<g opacity="0.2">
<g opacity="0.2">
<path opacity="0.2" d="M104.539 144.533L83.3396 131.857C81.3727 130.692 80.717 128.142 81.8826 126.102L86.4721 118.453L114.81 135.427L110.221 143.076C109.055 145.116 106.506 145.771 104.539 144.533Z" fill="black"/>
</g>
</g>
</g>
</g>
<path d="M113.491 101.26L108.246 110.075C107.372 111.532 107.882 113.426 109.339 114.301L117.862 119.4L113.491 101.26Z" fill="#1F9107"/>
<g opacity="0.2">
<g opacity="0.2">
<g opacity="0.2">
<g opacity="0.2">
<path opacity="0.2" d="M113.499 112.625C113.499 112.625 112.115 114.738 114.155 116.85C114.228 116.923 114.3 116.996 114.373 117.069C115.393 117.943 121.877 123.625 122.022 123.407C122.095 123.261 123.407 121.003 123.407 121.003L114.883 115.903C114.883 116.049 112.843 114.665 113.499 112.625Z" fill="black"/>
</g>
</g>
</g>
</g>
<path d="M121.635 119H31.2085V176H121.635V119Z" fill="#5FCC48"/>
<g opacity="0.3">
<path opacity="0.3" d="M121.635 119H97.7539V176H121.635V119Z" fill="black"/>
</g>
<path d="M97.7539 119L111.393 134.612H134L121.635 119H97.7539Z" fill="#5FCC48"/>
<path d="M30.5478 119.366L12 134.978H82.2267L97.0932 119.366H30.5478Z" fill="#5FCC48"/>
<g opacity="0.3">
<path opacity="0.3" d="M67.077 167.576H57.3547V176H67.077V167.576Z" fill="white"/>
</g>
<g opacity="0.3">
<path opacity="0.3" d="M31.2085 134.658V139.007L83.9257 138.778L97.4708 119.32L82.8874 134.612L31.2085 134.658Z" fill="black"/>
</g>
<path d="M28.4264 95.2291L1.83643 88.6727C0.525147 88.3813 -0.276194 87.07 0.0880523 85.7587L8.97566 49.9169C9.26706 48.6056 10.5783 47.8043 11.8896 48.1685L30.4662 52.758L38.3339 65.3609L31.4132 93.4807C31.049 94.7192 29.7377 95.5205 28.4264 95.2291Z" fill="#5FCC48"/>
<path d="M30.4662 52.6123L28.7178 59.7515C28.2807 61.4999 29.3735 63.3211 31.1219 63.7582L38.3339 65.3609L30.4662 52.6123Z" fill="#1BA520"/>
<path d="M90.9489 85.6706L59.1137 93.1741C56.9283 93.6841 54.7428 92.2999 54.16 90.1145L43.8154 46.1135C43.3055 43.928 44.6896 41.7426 46.8751 41.1598L67.0543 36.4246L86.5051 48.8089L94.0085 80.7169C94.5185 82.9752 93.1343 85.1607 90.9489 85.6706Z" fill="#5FCC48"/>
<g opacity="0.2">
<g opacity="0.2">
<g opacity="0.2">
<path opacity="0.2" d="M91.0946 85.6706L58.968 93.247C56.8554 93.7569 54.7428 92.4456 54.2328 90.333L51.3917 78.3857L91.1674 68.9882L94.0085 80.9354C94.5185 83.0481 93.2072 85.1607 91.0946 85.6706Z" fill="black"/>
</g>
</g>
</g>
<path d="M67.0543 36.4246L69.9683 48.8089C70.4782 50.8487 72.518 52.0871 74.5578 51.6501L86.5051 48.8089L67.0543 36.4246Z" fill="#1BA520"/>
<g opacity="0.2">
<g opacity="0.2">
<g opacity="0.2">
<path opacity="0.2" d="M70.4054 49.9017C70.4054 49.9017 70.9882 52.9614 74.6307 53.1071C74.7764 53.1071 74.922 53.1071 75.0677 53.1071C76.6704 53.0342 87.3793 52.4514 87.3064 52.16C87.2336 51.9415 86.5051 48.809 86.5051 48.809L74.5578 51.6501C74.5578 51.6501 71.571 52.3057 70.4054 49.9017Z" fill="black"/>
</g>
</g>
</g>
</svg>
