<svg xmlns="http://www.w3.org/2000/svg" width="21.077" height="18.828" viewBox="0 0 21.077 18.828">
  <g id="users" transform="translate(-0.001 -25.494)">
    <g id="Group_263" data-name="Group 263" transform="translate(0.001 25.494)">
      <path id="Path_436" data-name="Path 436" d="M17.088,34.668a5.26,5.26,0,0,0-6.545-8.211A5.262,5.262,0,0,0,3.99,34.668,7.476,7.476,0,0,0,0,41.311v2.258a.753.753,0,0,0,.753.753H20.325a.753.753,0,0,0,.753-.753V41.311A7.476,7.476,0,0,0,17.088,34.668ZM13.55,27.009A3.758,3.758,0,0,1,15.1,34.194c-.058.026-.116.05-.175.075a3.69,3.69,0,0,1-.573.178c-.038.008-.075.013-.114.02a3.765,3.765,0,0,1-.662.067c-.1,0-.2-.008-.3-.017a.568.568,0,0,1-.113-.008,3.8,3.8,0,0,1-1.231-.363c-.014-.007-.031-.006-.045-.012-.075-.036-.151-.068-.218-.108.006-.008.01-.016.016-.023a5.281,5.281,0,0,0,.806-1.469l.023-.063a5.309,5.309,0,0,0,.2-.775c.007-.038.012-.075.018-.117a4.805,4.805,0,0,0,0-1.617c-.006-.039-.011-.075-.018-.117a5.311,5.311,0,0,0-.2-.775l-.023-.063a5.282,5.282,0,0,0-.806-1.469c-.006-.008-.01-.016-.016-.023A3.74,3.74,0,0,1,13.55,27.009ZM3.764,30.772a3.754,3.754,0,0,1,6.353-2.719c.044.042.087.084.129.128a3.87,3.87,0,0,1,.357.433c.033.047.063.1.094.145a3.7,3.7,0,0,1,.276.508c.019.043.033.087.05.129a3.68,3.68,0,0,1,.187.6c.005.023.007.045.011.068a3.543,3.543,0,0,1,0,1.417c0,.023-.006.046-.011.068a3.671,3.671,0,0,1-.187.6c-.017.043-.031.087-.05.129a3.716,3.716,0,0,1-.276.507c-.031.048-.061.1-.094.145a3.862,3.862,0,0,1-.357.433c-.042.044-.085.086-.129.128a3.757,3.757,0,0,1-1.04.7c-.061.028-.123.053-.185.075a3.786,3.786,0,0,1-.559.173c-.047.011-.1.017-.145.025a3.735,3.735,0,0,1-.62.063H7.487a3.73,3.73,0,0,1-.62-.062c-.048-.008-.1-.014-.145-.025a3.784,3.784,0,0,1-.559-.173L5.979,34.2A3.763,3.763,0,0,1,3.764,30.772ZM13.55,42.816H1.506V41.311a5.984,5.984,0,0,1,4-5.673,5.253,5.253,0,0,0,4.038,0,6.048,6.048,0,0,1,.733.324c.157.081.3.172.452.265.1.061.2.12.291.187.145.1.282.215.417.33.087.075.172.151.254.226.124.117.241.242.353.369.081.092.159.185.233.282.1.126.193.256.28.389.075.113.142.23.208.348s.145.259.208.394.119.282.173.426c.047.125.1.249.137.376.053.175.09.355.126.536.023.107.052.212.068.32a6.226,6.226,0,0,1,.068.9v1.505Zm6.022,0H15.056V41.311c0-.236-.014-.469-.035-.7-.006-.068-.017-.135-.024-.2-.02-.166-.044-.331-.075-.495q-.02-.1-.043-.21-.054-.251-.126-.5c-.016-.054-.03-.109-.047-.163a7.459,7.459,0,0,0-.907-1.9L13.77,37.1q-.194-.288-.415-.558l-.005-.007a6.832,6.832,0,0,0-.486-.54H12.9a5.328,5.328,0,0,0,.641.045h.041A5.323,5.323,0,0,0,14.171,36c.062-.008.123-.019.184-.029q.24-.037.474-.1c.044-.011.09-.022.135-.035a5.125,5.125,0,0,0,.6-.2,5.984,5.984,0,0,1,4.006,5.674v1.505Z" transform="translate(-0.001 -25.494)"/>
    </g>
  </g>
</svg>
