<svg width="512" height="480" viewBox="0 0 512 480" fill="none" xmlns="http://www.w3.org/2000/svg">
<path d="M196 60C196 48.972 204.972 40 216 40H296C307.028 40 316 48.972 316 60C316 71.046 324.954 80 336 80C347.046 80 356 71.046 356 60C356 26.916 329.084 0 296 0H216C182.916 0 156 26.916 156 60C156 71.046 164.954 80 176 80C187.046 80 196 71.046 196 60Z" fill="black"/>
<path d="M452 97H60C26.916 97 0 123.916 0 157V237C0 292.14 44.859 337 100 337H412C467.141 337 512 292.14 512 237V157C512 123.916 485.084 97 452 97ZM472 237C472 270.084 445.084 297 412 297H100C66.916 297 40 270.084 40 237V157C40 145.972 48.972 137 60 137H452C463.028 137 472 145.972 472 157V237Z" fill="black"/>
<path d="M56 354C44.954 354 36 362.954 36 374V419.062C36 452.146 62.916 479.062 96 479.062H416C449.084 479.062 476 452.146 476 419.062V374C476 362.954 467.046 354 456 354C444.954 354 436 362.954 436 374V419.062C436 430.09 427.028 439.062 416 439.062H96C84.972 439.062 76 430.09 76 419.062V374C76 362.954 67.046 354 56 354Z" fill="black"/>
</svg>
